<svg width="135" height="40" viewBox="0 0 135 40" fill="none" xmlns="http://www.w3.org/2000/svg">
<path d="M24.9107 20.089C24.8903 17.8149 26.7732 16.7085 26.8593 16.657C25.7929 15.1027 24.1401 14.8904 23.5592 14.8735C22.1711 14.7273 20.8245 15.7039 20.1172 15.7039C19.396 15.7039 18.307 14.8874 17.1335 14.9116C15.6231 14.9349 14.2101 15.8092 13.4352 17.1665C11.836 19.9345 13.0288 24.002 14.5608 26.2393C15.3274 27.3358 16.2229 28.5585 17.3952 28.5155C18.5421 28.4689 18.9704 27.7853 20.3544 27.7853C21.7256 27.7853 22.128 28.5153 23.3234 28.488C24.5543 28.4689 25.3292 27.3873 26.0689 26.2816C26.9545 25.0264 27.3104 23.789 27.3245 23.7253C27.2963 23.7155 24.9347 22.8138 24.9107 20.089ZM22.6523 13.4016C23.2691 12.6304 23.6911 11.5812 23.574 10.5166C22.6812 10.5561 21.5648 11.1338 20.9218 11.8882C20.353 12.5528 19.8449 13.6423 19.9761 14.6666C20.979 14.7414 22.0086 14.1609 22.6523 13.4016Z" fill="#00696C"/>
<path d="M46.6059 29.5477H44.462L43.2876 25.8586H39.2058L38.087 29.5477H36L40.045 16.9882H42.5429L46.6059 29.5477ZM42.9338 24.311L41.8716 21.0314C41.7594 20.6964 41.5478 19.9072 41.2383 18.6653H41.2006C41.0758 19.1996 40.8767 19.9886 40.6038 21.0311L39.5598 24.311H42.9338ZM56.9882 24.9082C56.9882 26.4485 56.57 27.6658 55.7326 28.5596C54.983 29.3552 54.0513 29.7526 52.9401 29.7526C51.7404 29.7526 50.8776 29.325 50.3535 28.4681V33.22H48.341V23.4682C48.341 22.5007 48.3155 21.5088 48.2665 20.4915H50.0365L50.1487 21.927H50.1865C50.8578 20.8455 51.8763 20.3047 53.2434 20.3047C54.3119 20.3047 55.204 20.7264 55.9175 21.5713C56.6304 22.4176 56.9882 23.5295 56.9882 24.9082ZM54.9377 24.9818C54.9377 24.1004 54.7396 23.3736 54.341 22.8009C53.906 22.2053 53.3215 21.907 52.5891 21.907C52.0924 21.907 51.6411 22.0732 51.2382 22.4006C50.8342 22.7309 50.5698 23.1625 50.4462 23.6965C50.3909 23.8963 50.3595 24.1019 50.3525 24.3091V25.8199C50.3525 26.478 50.5547 27.0337 50.9587 27.4885C51.3628 27.9413 51.8876 28.169 52.5332 28.169C53.2913 28.169 53.8815 27.8755 54.3034 27.2932C54.7261 26.7089 54.9377 25.9388 54.9377 24.9818ZM67.4073 24.9082C67.4073 26.4485 66.989 27.6658 66.1517 28.5596C65.4011 29.3552 64.4704 29.7526 63.3582 29.7526C62.1586 29.7526 61.2957 29.325 60.7716 28.4681V33.22H58.7591V23.4682C58.7591 22.5007 58.7337 21.5088 58.6846 20.4915H60.4546L60.5669 21.927H60.6046C61.2747 20.8455 62.2935 20.3047 63.6613 20.3047C64.7289 20.3047 65.621 20.7264 66.3366 21.5713C67.0485 22.4176 67.4073 23.5295 67.4073 24.9082ZM65.3559 24.9818C65.3559 24.1004 65.1565 23.3736 64.7581 22.8009C64.323 22.2053 63.7406 21.907 63.0079 21.907C62.5114 21.907 62.0602 22.0732 61.6552 22.4006C61.2512 22.7309 60.9877 23.1625 60.8643 23.6965C60.803 23.9456 60.77 24.1485 60.77 24.3091V25.8199C60.77 26.478 60.9728 27.0337 61.375 27.4885C61.779 27.9406 62.3039 28.169 62.9513 28.169C63.7104 28.169 64.3005 27.8755 64.7213 27.2932C65.1443 26.7089 65.3559 25.9388 65.3559 24.9818ZM79.0562 26.0249C79.0562 27.0941 78.6823 27.9633 77.9396 28.6343C77.122 29.3665 75.9806 29.7335 74.5175 29.7335C73.1657 29.7335 72.0818 29.4734 71.2643 28.9514L71.7297 27.2743C72.6123 27.7972 73.582 28.0574 74.6373 28.0574C75.3964 28.0574 75.9865 27.8859 76.4073 27.5451C76.8295 27.2035 77.0428 26.7466 77.0428 26.1768C77.0428 25.6661 76.8661 25.2387 76.5196 24.8903C76.1714 24.5431 75.5954 24.2192 74.7864 23.922C72.5868 23.1019 71.4862 21.9025 71.4862 20.3245C71.4862 19.2937 71.8752 18.4502 72.6512 17.7905C73.4273 17.1317 74.4562 16.8021 75.7363 16.8021C76.8793 16.8021 77.8318 17.0015 78.588 17.3989L78.083 19.0389C77.3711 18.654 76.5677 18.4615 75.669 18.4615C74.959 18.4615 74.4024 18.6361 74.0037 18.9833C73.6688 19.2939 73.499 19.6723 73.499 20.1216C73.499 20.6169 73.6924 21.0286 74.0776 21.3512C74.4118 21.6484 75.0215 21.9723 75.9033 22.3195C76.985 22.7556 77.7799 23.2632 78.2887 23.8466C78.8014 24.4299 79.0562 25.1575 79.0562 26.0249ZM85.7275 22.0015H83.509V26.3985C83.509 27.5168 83.8999 28.0746 84.6835 28.0746C85.0432 28.0746 85.3416 28.0444 85.5774 27.9812L85.6331 29.5092C85.2368 29.6573 84.7146 29.7319 84.0681 29.7319C83.2732 29.7319 82.6519 29.4894 82.2035 29.0042C81.757 28.519 81.5324 27.7067 81.5324 26.5629V21.9975H80.2108V20.4877H81.5324V18.8295L83.509 18.233V20.4879H85.7275V22.0015ZM95.717 24.9453C95.717 26.3369 95.3186 27.48 94.5239 28.3737C93.6922 29.2939 92.5858 29.7526 91.2066 29.7526C89.8756 29.7526 88.8172 29.3118 88.0282 28.4313C87.2389 27.5491 86.8443 26.4372 86.8443 25.096C86.8443 23.6925 87.2522 22.5431 88.065 21.6494C88.8797 20.7547 89.9765 20.3072 91.3557 20.3072C92.6848 20.3072 93.7526 20.749 94.5607 21.6305C95.3328 22.4856 95.717 23.5902 95.717 24.9453ZM93.6309 24.9913C93.6309 24.1617 93.4517 23.4503 93.0917 22.8547C92.6697 22.1355 92.0657 21.776 91.283 21.776C90.4768 21.776 89.8583 22.1355 89.4375 22.8547C89.0769 23.4503 88.8974 24.1739 88.8974 25.029C88.8974 25.8595 89.0769 26.573 89.4375 27.1667C89.8727 27.8859 90.4796 28.2454 91.266 28.2454C92.0355 28.2454 92.6388 27.8784 93.0747 27.1486C93.4451 26.5391 93.6309 25.823 93.6309 24.9913ZM102.262 22.261C102.052 22.2232 101.84 22.2046 101.627 22.2053C100.92 22.2053 100.372 22.4714 99.9868 23.0075C99.6526 23.4793 99.4844 24.0761 99.4844 24.7959V29.5479H97.4719V23.3434C97.4737 22.3928 97.4542 21.4422 97.4134 20.4924H99.1665L99.24 22.2251H99.2957C99.5092 21.6296 99.8434 21.1493 100.302 20.7896C100.722 20.4755 101.232 20.3054 101.757 20.3047C101.943 20.3047 102.111 20.3179 102.26 20.3414L102.262 22.261ZM111.263 24.5912C111.268 24.8971 111.243 25.2027 111.189 25.5038H105.152C105.174 26.3985 105.467 27.0837 106.028 27.5555C106.536 27.9765 107.194 28.1878 108.002 28.1878C108.896 28.1878 109.712 28.0463 110.446 27.7604L110.761 29.1561C109.904 29.53 108.892 29.7158 107.724 29.7158C106.319 29.7158 105.217 29.3023 104.414 28.4775C103.614 27.6519 103.212 26.5419 103.212 25.1517C103.212 23.7871 103.585 22.65 104.332 21.743C105.114 20.7745 106.17 20.2905 107.499 20.2905C108.805 20.2905 109.793 20.7745 110.464 21.743C110.996 22.5101 111.263 23.4616 111.263 24.5912H111.263ZM109.344 24.0692C109.358 23.472 109.226 22.9575 108.953 22.5223C108.605 21.9619 108.069 21.6826 107.35 21.6826C106.692 21.6826 106.156 21.9553 105.748 22.5025C105.413 22.9377 105.214 23.4607 105.152 24.0673L109.344 24.0692ZM38.6253 12.5479C38.0653 12.5479 37.5811 12.5205 37.178 12.4743V6.40217C37.7417 6.31511 38.3115 6.27221 38.8819 6.27385C41.1902 6.27385 42.2531 7.40912 42.2531 9.2598C42.2531 11.3945 40.9975 12.5479 38.6253 12.5479ZM38.9631 7.05224C38.6517 7.05224 38.3863 7.07111 38.1665 7.11663V11.7325C38.2854 11.7513 38.5137 11.7598 38.8347 11.7598C40.3472 11.7598 41.2081 10.8989 41.2081 9.28716C41.2081 7.84973 40.4293 7.05224 38.9631 7.05224ZM45.5657 12.5941C44.2648 12.5941 43.4216 11.623 43.4216 10.3045C43.4216 8.93051 44.2825 7.95069 45.6393 7.95069C46.9213 7.95069 47.7831 8.87579 47.7831 10.2318C47.7831 11.623 46.8948 12.5941 45.5657 12.5941ZM45.6034 8.67388C44.8887 8.67388 44.4309 9.34188 44.4309 10.2762C44.4309 11.1926 44.8982 11.8608 45.5938 11.8608C46.2894 11.8608 46.7569 11.1463 46.7569 10.2573C46.7569 9.35155 46.2993 8.67388 45.6034 8.67388ZM55.2012 8.04244L53.8086 12.4932H52.9014L52.3247 10.5604C52.1813 10.0876 52.0618 9.60785 51.9669 9.12299H51.948C51.8753 9.60795 51.7376 10.0941 51.5911 10.5604L50.9776 12.4932H50.061L48.7507 8.04221H49.7673L50.2714 10.1582C50.3905 10.6623 50.4905 11.1378 50.5736 11.5872H50.5924C50.6651 11.2124 50.784 10.7444 50.9587 10.1677L51.5911 8.04339H52.3973L53.0026 10.1224C53.1429 10.6056 53.2622 11.0946 53.3602 11.5881H53.3866C53.451 11.1305 53.5517 10.6444 53.6888 10.1224L54.2296 8.04339L55.2012 8.04244ZM60.327 12.4932H59.3377V9.93746C59.3377 9.15035 59.0358 8.75573 58.44 8.75573C57.8538 8.75573 57.4507 9.25979 57.4507 9.84594V12.4932H56.4612V9.31428C56.4612 8.92084 56.4518 8.49886 56.4244 8.04126H57.2948L57.341 8.72813H57.3686C57.6347 8.25261 58.1746 7.95045 58.7799 7.95045C59.7144 7.95045 60.3279 8.66515 60.3279 9.82778L60.327 12.4932ZM63.0554 12.4932H62.0649V6H63.0554V12.4932ZM66.6624 12.5941C65.3625 12.5941 64.5183 11.623 64.5183 10.3045C64.5183 8.93051 65.3792 7.95069 66.735 7.95069C68.0179 7.95069 68.8789 8.87579 68.8789 10.2318C68.8798 11.623 67.9906 12.5941 66.6624 12.5941ZM66.6992 8.67388C65.9845 8.67388 65.5269 9.34188 65.5269 10.2762C65.5269 11.1926 65.9948 11.8608 66.6888 11.8608C67.3853 11.8608 67.8516 11.1463 67.8516 10.2573C67.8528 9.35155 67.3957 8.67388 66.6992 8.67388ZM72.7796 12.4932L72.7079 11.9806H72.6814C72.3793 12.3932 71.9384 12.5939 71.3794 12.5939C70.5819 12.5939 70.0153 12.0353 70.0153 11.2841C70.0153 10.1856 70.968 9.61738 72.617 9.61738V9.5353C72.617 8.94938 72.3066 8.65572 71.6929 8.65572C71.2541 8.65572 70.8687 8.76611 70.53 8.98594L70.3288 8.33587C70.7404 8.07924 71.2539 7.95069 71.8573 7.95069C73.0201 7.95069 73.6075 8.5642 73.6075 9.79217V11.4315C73.6075 11.8806 73.6273 12.2288 73.6716 12.4941L72.7796 12.4932ZM72.6435 10.2762C71.5447 10.2762 70.9935 10.5425 70.9935 11.1737C70.9935 11.6407 71.2775 11.8693 71.6721 11.8693C72.1752 11.8693 72.6435 11.4853 72.6435 10.9633V10.2762ZM78.4115 12.4932L78.3653 11.7785H78.338C78.0537 12.3186 77.5761 12.5941 76.9086 12.5941C75.8353 12.5941 75.0404 11.6504 75.0404 10.3226C75.0404 8.93051 75.8646 7.94974 76.9897 7.94974C77.5855 7.94974 78.0075 8.15095 78.2453 8.55476H78.2651V6.00024H79.2555V11.2933C79.2555 11.7237 79.2659 12.1266 79.2923 12.4929L78.4115 12.4932ZM78.2653 9.87425C78.2653 9.2513 77.8525 8.71988 77.223 8.71988C76.4894 8.71988 76.0412 9.37019 76.0412 10.2856C76.0412 11.1831 76.5064 11.7976 77.2032 11.7976C77.8252 11.7976 78.2651 11.2567 78.2651 10.6158L78.2653 9.87425ZM85.534 12.5939C84.2341 12.5939 83.3911 11.623 83.3911 10.3045C83.3911 8.93051 84.2521 7.95069 85.6076 7.95069C86.8908 7.95069 87.7517 8.87579 87.7517 10.2318C87.7524 11.623 86.8641 12.5939 85.534 12.5939ZM85.5708 8.67365C84.8571 8.67365 84.3992 9.34188 84.3992 10.2762C84.3992 11.1926 84.8665 11.8608 85.5614 11.8608C86.2582 11.8608 86.7243 11.1463 86.7243 10.2573C86.7264 9.35155 86.2686 8.67365 85.5708 8.67365ZM93.0719 12.4932H92.0817V9.93746C92.0817 9.15035 91.7798 8.75573 91.184 8.75573C90.5978 8.75573 90.1956 9.25979 90.1956 9.84594V12.4932H89.2052V9.31428C89.2052 8.92084 89.1958 8.49886 89.1684 8.04126H90.0388L90.085 8.72813H90.1124C90.3777 8.25261 90.9186 7.94974 91.5229 7.94974C92.4574 7.94974 93.0719 8.66397 93.0719 9.82684V12.4932ZM99.7283 8.78403H98.6397V10.9454C98.6397 11.4957 98.8303 11.7702 99.2155 11.7702C99.3901 11.7702 99.5365 11.7513 99.6545 11.724L99.6818 12.4752C99.4903 12.5488 99.2337 12.5856 98.9145 12.5856C98.1347 12.5856 97.6684 12.1552 97.6684 11.0284V8.78403H97.0188V8.04244H97.6684V7.22679L98.6397 6.93312V8.04126H99.7281L99.7283 8.78403ZM104.965 12.4932H103.977V9.95633C103.977 9.15978 103.676 8.75667 103.079 8.75667C102.567 8.75667 102.089 9.10506 102.089 9.81009V12.4932H101.101V6H102.089V8.67365H102.109C102.42 8.18869 102.872 7.94974 103.448 7.94974C104.39 7.94974 104.965 8.68214 104.965 9.84594V12.4932ZM110.331 10.5055H107.362C107.381 11.3482 107.939 11.824 108.765 11.824C109.204 11.824 109.608 11.7504 109.965 11.6136L110.119 12.3007C109.698 12.4837 109.202 12.5753 108.626 12.5753C107.233 12.5753 106.409 11.6954 106.409 10.3321C106.409 8.96731 107.253 7.94125 108.514 7.94125C109.652 7.94125 110.365 8.78403 110.365 10.0571C110.372 10.2073 110.36 10.3578 110.331 10.5055ZM109.424 9.80066C109.424 9.11355 109.077 8.62836 108.445 8.62836C107.877 8.62836 107.428 9.12299 107.363 9.80066H109.424Z" fill="#00696C"/>
<path d="M130 0.8C131.114 0.8 132.182 1.2425 132.97 2.03015C133.758 2.8178 134.2 3.88609 134.2 5V35C134.2 36.1139 133.758 37.1822 132.97 37.9698C132.182 38.7575 131.114 39.2 130 39.2H5C3.88609 39.2 2.8178 38.7575 2.03015 37.9698C1.2425 37.1822 0.8 36.1139 0.8 35V5C0.8 3.88609 1.2425 2.8178 2.03015 2.03015C2.8178 1.2425 3.88609 0.8 5 0.8H130ZM130 0H5C2.25 0 0 2.25 0 5V35C0 37.75 2.25 40 5 40H130C132.75 40 135 37.75 135 35V5C135 2.25 132.75 0 130 0Z" fill="#6F7979"/>
</svg>
