<svg width="32" height="34" viewBox="0 0 32 34" fill="none" xmlns="http://www.w3.org/2000/svg">
<path d="M3.33333 33.3333C2.41667 33.3333 1.63194 33.0069 0.979167 32.3542C0.326389 31.7014 0 30.9167 0 30V3.33333C0 2.41667 0.326389 1.63194 0.979167 0.979167C1.63194 0.326389 2.41667 0 3.33333 0H16.6667L26.6667 10V15C26.0278 15.1389 25.4306 15.3611 24.875 15.6667C24.3194 15.9722 23.8056 16.3611 23.3333 16.8333L13.3333 26.7917V33.3333H3.33333ZM16.6667 33.3333V28.2083L25.875 19.0417C26.125 18.7917 26.4028 18.6111 26.7083 18.5C27.0139 18.3889 27.3194 18.3333 27.625 18.3333C27.9583 18.3333 28.2778 18.3958 28.5833 18.5208C28.8889 18.6458 29.1667 18.8333 29.4167 19.0833L30.9583 20.625C31.1806 20.875 31.3542 21.1528 31.4792 21.4583C31.6042 21.7639 31.6667 22.0694 31.6667 22.375C31.6667 22.6806 31.6111 22.9931 31.5 23.3125C31.3889 23.6319 31.2083 23.9167 30.9583 24.1667L21.7917 33.3333H16.6667ZM27.625 24L29.1667 22.375L27.625 20.8333L26.0417 22.4167L27.625 24ZM15 11.6667H23.3333L15 3.33333V11.6667Z" fill="#00696C"/>
</svg>
