<svg width="34" height="30" viewBox="0 0 34 30" fill="none" xmlns="http://www.w3.org/2000/svg">
<path d="M16.8333 30C16.3611 30 15.9653 29.8403 15.6458 29.5208C15.3264 29.2014 15.1667 28.8056 15.1667 28.3333C15.1667 28.1389 15.2083 27.9375 15.2917 27.7292C15.375 27.5208 15.5 27.3333 15.6667 27.1667L23.375 19.4583L22.1667 18.25L14.5 25.9583C14.3333 26.125 14.1528 26.25 13.9583 26.3333C13.7639 26.4167 13.5556 26.4583 13.3333 26.4583C12.8611 26.4583 12.4653 26.2986 12.1458 25.9792C11.8264 25.6597 11.6667 25.2639 11.6667 24.7917C11.6667 24.5139 11.7083 24.2847 11.7917 24.1042C11.875 23.9236 11.9861 23.7639 12.125 23.625L19.8333 15.9167L18.6667 14.75L10.9583 22.4167C10.7917 22.5833 10.6111 22.7083 10.4167 22.7917C10.2222 22.875 10 22.9167 9.75 22.9167C9.30556 22.9167 8.91667 22.75 8.58333 22.4167C8.25 22.0833 8.08333 21.6944 8.08333 21.25C8.08333 21.0278 8.125 20.8194 8.20833 20.625C8.29167 20.4306 8.41667 20.25 8.58333 20.0833L16.2917 12.375L15.0833 11.2083L7.41667 18.9167C7.27778 19.0556 7.11111 19.1667 6.91667 19.25C6.72222 19.3333 6.48611 19.375 6.20833 19.375C5.73611 19.375 5.34028 19.2153 5.02083 18.8958C4.70139 18.5764 4.54167 18.1806 4.54167 17.7083C4.54167 17.4861 4.58333 17.2778 4.66667 17.0833C4.75 16.8889 4.875 16.7083 5.04167 16.5417L14.3333 7.25L20.5833 13.5417C20.8889 13.8472 21.25 14.0903 21.6667 14.2708C22.0833 14.4514 22.5 14.5417 22.9167 14.5417C23.8056 14.5417 24.5833 14.2292 25.25 13.6042C25.9167 12.9792 26.25 12.1806 26.25 11.2083C26.25 10.8194 26.1806 10.4167 26.0417 10C25.9028 9.58333 25.6528 9.19444 25.2917 8.83333L17.8333 1.375C18.3056 0.930555 18.8333 0.590278 19.4167 0.354167C20 0.118056 20.5833 0 21.1667 0C21.8889 0 22.5556 0.118056 23.1667 0.354167C23.7778 0.590278 24.3333 0.958333 24.8333 1.45833L31.875 8.54167C32.375 9.04167 32.7431 9.59722 32.9792 10.2083C33.2153 10.8194 33.3333 11.5278 33.3333 12.3333C33.3333 12.8889 33.2083 13.4514 32.9583 14.0208C32.7083 14.5903 32.3472 15.1111 31.875 15.5833L18 29.5C17.7778 29.7222 17.5833 29.8611 17.4167 29.9167C17.25 29.9722 17.0556 30 16.8333 30ZM2.54167 16.6667L1.45833 15.5833C0.986111 15.1389 0.625 14.6111 0.375 14C0.125 13.3889 0 12.75 0 12.0833C0 11.3611 0.138889 10.6944 0.416667 10.0833C0.694444 9.47222 1.04167 8.95833 1.45833 8.54167L8.5 1.45833C8.94444 1.01389 9.47222 0.659722 10.0833 0.395833C10.6944 0.131944 11.2917 0 11.875 0C12.625 0 13.2917 0.104167 13.875 0.3125C14.4583 0.520833 15.0278 0.902778 15.5833 1.45833L24.125 10C24.2917 10.1667 24.4167 10.3472 24.5 10.5417C24.5833 10.7361 24.625 10.9444 24.625 11.1667C24.625 11.6111 24.4583 12 24.125 12.3333C23.7917 12.6667 23.4028 12.8333 22.9583 12.8333C22.7083 12.8333 22.5 12.7986 22.3333 12.7292C22.1667 12.6597 21.9861 12.5278 21.7917 12.3333L14.2917 4.91667L2.54167 16.6667Z" fill="#00696C"/>
</svg>
