<svg width="181" height="40" viewBox="0 0 181 40" fill="none" xmlns="http://www.w3.org/2000/svg">
<g clip-path="url(#clip0_7322_100221)">
<mask id="mask0_7322_100221" style="mask-type:alpha" maskUnits="userSpaceOnUse" x="8" y="11" width="18" height="18">
<rect x="8" y="11" width="18" height="18" fill="#D9D9D9"/>
</mask>
<g mask="url(#mask0_7322_100221)">
<path d="M11.75 26.75C11.3375 26.75 10.9844 26.6031 10.6906 26.3094C10.3969 26.0156 10.25 25.6625 10.25 25.25V14.75C10.25 14.3375 10.3969 13.9844 10.6906 13.6906C10.9844 13.3969 11.3375 13.25 11.75 13.25H17V14.75H11.75V25.25H22.25V20H23.75V25.25C23.75 25.6625 23.6031 26.0156 23.3094 26.3094C23.0156 26.6031 22.6625 26.75 22.25 26.75H11.75ZM15.275 22.775L14.225 21.725L21.2 14.75H18.5V13.25H23.75V18.5H22.25V15.8L15.275 22.775Z" fill="#00696C"/>
</g>
<path d="M38.8877 16.373L35.9141 25H34.1162L37.8623 15.0469H39.0107L38.8877 16.373ZM41.376 25L38.3955 16.373L38.2656 15.0469H39.4209L43.1807 25H41.376ZM41.2324 21.3086V22.6689H35.8184V21.3086H41.2324ZM47.2523 23.8242C47.5212 23.8242 47.7628 23.7718 47.977 23.667C48.1957 23.5576 48.3712 23.4072 48.5033 23.2158C48.64 23.0244 48.7152 22.8034 48.7289 22.5527H50.2807C50.2715 23.0312 50.1303 23.4665 49.8568 23.8584C49.5834 24.2503 49.2211 24.5625 48.7699 24.7949C48.3188 25.0228 47.8197 25.1367 47.2729 25.1367C46.7077 25.1367 46.2156 25.041 45.7963 24.8496C45.377 24.6536 45.0284 24.3848 44.7504 24.043C44.4724 23.7012 44.2628 23.307 44.1215 22.8604C43.9848 22.4137 43.9164 21.9352 43.9164 21.4248V21.1855C43.9164 20.6751 43.9848 20.1966 44.1215 19.75C44.2628 19.2988 44.4724 18.9023 44.7504 18.5605C45.0284 18.2188 45.377 17.9521 45.7963 17.7607C46.2156 17.5648 46.7055 17.4668 47.266 17.4668C47.8585 17.4668 48.378 17.5853 48.8246 17.8223C49.2712 18.0547 49.6221 18.3805 49.8773 18.7998C50.1371 19.2145 50.2715 19.6976 50.2807 20.249H48.7289C48.7152 19.9756 48.6469 19.7295 48.5238 19.5107C48.4053 19.2874 48.2367 19.1097 48.018 18.9775C47.8038 18.8454 47.5463 18.7793 47.2455 18.7793C46.9128 18.7793 46.6371 18.8477 46.4184 18.9844C46.1996 19.1165 46.0287 19.2988 45.9057 19.5312C45.7826 19.7591 45.6938 20.0166 45.6391 20.3037C45.5889 20.5863 45.5639 20.8802 45.5639 21.1855V21.4248C45.5639 21.7301 45.5889 22.0264 45.6391 22.3135C45.6892 22.6006 45.7758 22.8581 45.8988 23.0859C46.0264 23.3092 46.1996 23.4893 46.4184 23.626C46.6371 23.7581 46.9151 23.8242 47.2523 23.8242ZM54.6668 23.8242C54.9357 23.8242 55.1772 23.7718 55.3914 23.667C55.6102 23.5576 55.7856 23.4072 55.9178 23.2158C56.0545 23.0244 56.1297 22.8034 56.1434 22.5527H57.6951C57.686 23.0312 57.5447 23.4665 57.2713 23.8584C56.9979 24.2503 56.6355 24.5625 56.1844 24.7949C55.7332 25.0228 55.2342 25.1367 54.6873 25.1367C54.1222 25.1367 53.63 25.041 53.2107 24.8496C52.7915 24.6536 52.4428 24.3848 52.1648 24.043C51.8868 23.7012 51.6772 23.307 51.5359 22.8604C51.3992 22.4137 51.3309 21.9352 51.3309 21.4248V21.1855C51.3309 20.6751 51.3992 20.1966 51.5359 19.75C51.6772 19.2988 51.8868 18.9023 52.1648 18.5605C52.4428 18.2188 52.7915 17.9521 53.2107 17.7607C53.63 17.5648 54.1199 17.4668 54.6805 17.4668C55.2729 17.4668 55.7924 17.5853 56.2391 17.8223C56.6857 18.0547 57.0366 18.3805 57.2918 18.7998C57.5516 19.2145 57.686 19.6976 57.6951 20.249H56.1434C56.1297 19.9756 56.0613 19.7295 55.9383 19.5107C55.8198 19.2874 55.6512 19.1097 55.4324 18.9775C55.2182 18.8454 54.9607 18.7793 54.66 18.7793C54.3273 18.7793 54.0516 18.8477 53.8328 18.9844C53.6141 19.1165 53.4432 19.2988 53.3201 19.5312C53.1971 19.7591 53.1082 20.0166 53.0535 20.3037C53.0034 20.5863 52.9783 20.8802 52.9783 21.1855V21.4248C52.9783 21.7301 53.0034 22.0264 53.0535 22.3135C53.1036 22.6006 53.1902 22.8581 53.3133 23.0859C53.4409 23.3092 53.6141 23.4893 53.8328 23.626C54.0516 23.7581 54.3296 23.8242 54.6668 23.8242ZM62.3205 25.1367C61.7736 25.1367 61.2792 25.0479 60.8371 24.8701C60.3996 24.6878 60.0259 24.4349 59.716 24.1113C59.4107 23.7878 59.176 23.4072 59.0119 22.9697C58.8479 22.5322 58.7658 22.0605 58.7658 21.5547V21.2812C58.7658 20.7025 58.8501 20.1784 59.0187 19.709C59.1874 19.2396 59.4221 18.8385 59.7229 18.5059C60.0236 18.1686 60.3791 17.9111 60.7893 17.7334C61.1994 17.5557 61.6437 17.4668 62.1223 17.4668C62.6509 17.4668 63.1135 17.5557 63.51 17.7334C63.9064 17.9111 64.2346 18.1618 64.4943 18.4854C64.7587 18.8044 64.9546 19.1849 65.0822 19.627C65.2144 20.069 65.2805 20.5566 65.2805 21.0898V21.7939H59.5656V20.6113H63.6535V20.4814C63.6444 20.1852 63.5852 19.9072 63.4758 19.6475C63.371 19.3877 63.2092 19.1781 62.9904 19.0186C62.7717 18.859 62.48 18.7793 62.1154 18.7793C61.842 18.7793 61.5982 18.8385 61.384 18.957C61.1743 19.071 60.9989 19.2373 60.8576 19.4561C60.7163 19.6748 60.607 19.9391 60.5295 20.249C60.4566 20.5544 60.4201 20.8984 60.4201 21.2812V21.5547C60.4201 21.8783 60.4634 22.179 60.55 22.457C60.6411 22.7305 60.7733 22.9697 60.9465 23.1748C61.1197 23.3799 61.3293 23.5417 61.5754 23.6602C61.8215 23.7741 62.1018 23.8311 62.4162 23.8311C62.8127 23.8311 63.1659 23.7513 63.4758 23.5918C63.7857 23.4323 64.0546 23.2067 64.2824 22.915L65.1506 23.7559C64.9911 23.9883 64.7837 24.2116 64.5285 24.4258C64.2733 24.6354 63.9611 24.8063 63.592 24.9385C63.2274 25.0706 62.8036 25.1367 62.3205 25.1367ZM61.5207 14.5L62.8537 16.5576H61.4797L59.6545 14.5H61.5207ZM70.815 22.9971C70.815 22.833 70.774 22.6849 70.692 22.5527C70.61 22.416 70.4527 22.293 70.2203 22.1836C69.9924 22.0742 69.6552 21.974 69.2086 21.8828C68.8167 21.7962 68.4566 21.6937 68.1285 21.5752C67.8049 21.4521 67.527 21.304 67.2945 21.1309C67.0621 20.9577 66.8821 20.7526 66.7545 20.5156C66.6269 20.2786 66.5631 20.0052 66.5631 19.6953C66.5631 19.3945 66.6292 19.1097 66.7613 18.8408C66.8935 18.5719 67.0826 18.335 67.3287 18.1299C67.5748 17.9248 67.8733 17.763 68.2242 17.6445C68.5797 17.526 68.9762 17.4668 69.4137 17.4668C70.0335 17.4668 70.5644 17.5716 71.0064 17.7812C71.4531 17.9863 71.7949 18.2666 72.0318 18.6221C72.2688 18.973 72.3873 19.3695 72.3873 19.8115H70.7398C70.7398 19.6156 70.6897 19.4333 70.5895 19.2646C70.4937 19.0915 70.3479 18.9525 70.152 18.8477C69.956 18.7383 69.7099 18.6836 69.4137 18.6836C69.1311 18.6836 68.8964 18.7292 68.7096 18.8203C68.5273 18.9069 68.3906 19.0208 68.2994 19.1621C68.2128 19.3034 68.1695 19.4583 68.1695 19.627C68.1695 19.75 68.1923 19.8617 68.2379 19.9619C68.288 20.0576 68.3701 20.1465 68.484 20.2285C68.5979 20.306 68.7529 20.3789 68.9488 20.4473C69.1493 20.5156 69.4 20.5817 69.7008 20.6455C70.2659 20.764 70.7512 20.9167 71.1568 21.1035C71.567 21.2858 71.8814 21.5228 72.1002 21.8145C72.3189 22.1016 72.4283 22.4661 72.4283 22.9082C72.4283 23.2363 72.3577 23.5371 72.2164 23.8105C72.0797 24.0794 71.8792 24.3141 71.6148 24.5146C71.3505 24.7106 71.0338 24.8633 70.6646 24.9727C70.3001 25.082 69.8899 25.1367 69.4342 25.1367C68.7643 25.1367 68.1969 25.0182 67.732 24.7812C67.2672 24.5397 66.914 24.2321 66.6725 23.8584C66.4355 23.4801 66.317 23.0882 66.317 22.6826H67.9098C67.928 22.988 68.0123 23.2318 68.1627 23.4141C68.3176 23.5918 68.509 23.7217 68.7369 23.8037C68.9693 23.8812 69.2086 23.9199 69.4547 23.9199C69.7509 23.9199 69.9993 23.8812 70.1998 23.8037C70.4003 23.7217 70.553 23.6123 70.6578 23.4756C70.7626 23.3343 70.815 23.1748 70.815 22.9971ZM81.727 23.5166V19.9893C81.727 19.7249 81.6791 19.4971 81.5834 19.3057C81.4877 19.1143 81.3419 18.9661 81.1459 18.8613C80.9545 18.7565 80.713 18.7041 80.4213 18.7041C80.1524 18.7041 79.92 18.7497 79.724 18.8408C79.5281 18.932 79.3754 19.055 79.266 19.21C79.1566 19.3649 79.102 19.5404 79.102 19.7363H77.4613C77.4613 19.4447 77.532 19.1621 77.6732 18.8887C77.8145 18.6152 78.0196 18.3714 78.2885 18.1572C78.5574 17.943 78.8786 17.7744 79.2523 17.6514C79.626 17.5283 80.0453 17.4668 80.5102 17.4668C81.0661 17.4668 81.5583 17.5602 81.9867 17.7471C82.4197 17.9339 82.7592 18.2165 83.0053 18.5947C83.2559 18.9684 83.3812 19.4378 83.3812 20.0029V23.291C83.3812 23.6283 83.404 23.9313 83.4496 24.2002C83.4997 24.4645 83.5704 24.6947 83.6615 24.8906V25H81.973C81.8956 24.8223 81.834 24.5967 81.7885 24.3232C81.7475 24.0452 81.727 23.7764 81.727 23.5166ZM81.9662 20.502L81.9799 21.5205H80.7973C80.4919 21.5205 80.223 21.5501 79.9906 21.6094C79.7582 21.6641 79.5645 21.7461 79.4096 21.8555C79.2546 21.9648 79.1384 22.097 79.0609 22.252C78.9835 22.4069 78.9447 22.5824 78.9447 22.7783C78.9447 22.9743 78.9903 23.1543 79.0814 23.3184C79.1726 23.4779 79.3048 23.6032 79.4779 23.6943C79.6557 23.7855 79.8699 23.8311 80.1205 23.8311C80.4577 23.8311 80.7517 23.7627 81.0023 23.626C81.2576 23.4847 81.4581 23.3138 81.6039 23.1133C81.7497 22.9082 81.8272 22.7145 81.8363 22.5322L82.3695 23.2637C82.3148 23.4505 82.2214 23.651 82.0893 23.8652C81.9571 24.0794 81.7839 24.2845 81.5697 24.4805C81.3601 24.6719 81.1072 24.8291 80.8109 24.9521C80.5193 25.0752 80.182 25.1367 79.7992 25.1367C79.3161 25.1367 78.8855 25.041 78.5072 24.8496C78.129 24.6536 77.8327 24.3916 77.6186 24.0635C77.4044 23.7308 77.2973 23.3548 77.2973 22.9355C77.2973 22.5436 77.3702 22.1973 77.516 21.8965C77.6664 21.5911 77.8852 21.3359 78.1723 21.1309C78.4639 20.9258 78.8194 20.7708 79.2387 20.666C79.6579 20.5566 80.1365 20.502 80.6742 20.502H81.9662ZM80.0932 14.5L81.4262 16.5576H80.0521L78.227 14.5H80.0932ZM90.5539 14.5V25H88.8996V14.5H90.5539ZM96.6285 23.5166V19.9893C96.6285 19.7249 96.5807 19.4971 96.485 19.3057C96.3893 19.1143 96.2434 18.9661 96.0475 18.8613C95.8561 18.7565 95.6145 18.7041 95.3229 18.7041C95.054 18.7041 94.8216 18.7497 94.6256 18.8408C94.4296 18.932 94.277 19.055 94.1676 19.21C94.0582 19.3649 94.0035 19.5404 94.0035 19.7363H92.3629C92.3629 19.4447 92.4335 19.1621 92.5748 18.8887C92.7161 18.6152 92.9212 18.3714 93.19 18.1572C93.4589 17.943 93.7802 17.7744 94.1539 17.6514C94.5276 17.5283 94.9469 17.4668 95.4117 17.4668C95.9677 17.4668 96.4599 17.5602 96.8883 17.7471C97.3212 17.9339 97.6607 18.2165 97.9068 18.5947C98.1575 18.9684 98.2828 19.4378 98.2828 20.0029V23.291C98.2828 23.6283 98.3056 23.9313 98.3512 24.2002C98.4013 24.4645 98.4719 24.6947 98.5631 24.8906V25H96.8746C96.7971 24.8223 96.7356 24.5967 96.69 24.3232C96.649 24.0452 96.6285 23.7764 96.6285 23.5166ZM96.8678 20.502L96.8814 21.5205H95.6988C95.3935 21.5205 95.1246 21.5501 94.8922 21.6094C94.6598 21.6641 94.4661 21.7461 94.3111 21.8555C94.1562 21.9648 94.04 22.097 93.9625 22.252C93.885 22.4069 93.8463 22.5824 93.8463 22.7783C93.8463 22.9743 93.8919 23.1543 93.983 23.3184C94.0742 23.4779 94.2063 23.6032 94.3795 23.6943C94.5572 23.7855 94.7714 23.8311 95.0221 23.8311C95.3593 23.8311 95.6533 23.7627 95.9039 23.626C96.1591 23.4847 96.3596 23.3138 96.5055 23.1133C96.6513 22.9082 96.7288 22.7145 96.7379 22.5322L97.2711 23.2637C97.2164 23.4505 97.123 23.651 96.9908 23.8652C96.8587 24.0794 96.6855 24.2845 96.4713 24.4805C96.2617 24.6719 96.0087 24.8291 95.7125 24.9521C95.4208 25.0752 95.0836 25.1367 94.7008 25.1367C94.2177 25.1367 93.787 25.041 93.4088 24.8496C93.0305 24.6536 92.7343 24.3916 92.5201 24.0635C92.3059 23.7308 92.1988 23.3548 92.1988 22.9355C92.1988 22.5436 92.2717 22.1973 92.4176 21.8965C92.568 21.5911 92.7867 21.3359 93.0738 21.1309C93.3655 20.9258 93.721 20.7708 94.1402 20.666C94.5595 20.5566 95.038 20.502 95.5758 20.502H96.8678ZM105.346 19.0254V27.8438H103.699V17.6035H105.216L105.346 19.0254ZM110.165 21.2334V21.377C110.165 21.9147 110.102 22.4137 109.974 22.874C109.851 23.3298 109.666 23.7285 109.42 24.0703C109.179 24.4076 108.88 24.6696 108.525 24.8564C108.169 25.0433 107.759 25.1367 107.294 25.1367C106.834 25.1367 106.431 25.0524 106.084 24.8838C105.743 24.7106 105.453 24.4668 105.216 24.1523C104.979 23.8379 104.788 23.4688 104.642 23.0449C104.501 22.6165 104.4 22.1471 104.341 21.6367V21.083C104.4 20.5407 104.501 20.0485 104.642 19.6064C104.788 19.1644 104.979 18.7839 105.216 18.4648C105.453 18.1458 105.743 17.8997 106.084 17.7266C106.426 17.5534 106.825 17.4668 107.281 17.4668C107.746 17.4668 108.158 17.5579 108.518 17.7402C108.878 17.918 109.181 18.1732 109.427 18.5059C109.673 18.834 109.858 19.2305 109.981 19.6953C110.104 20.1556 110.165 20.6683 110.165 21.2334ZM108.518 21.377V21.2334C108.518 20.8916 108.486 20.5749 108.422 20.2832C108.358 19.987 108.258 19.7272 108.121 19.5039C107.985 19.2806 107.809 19.1074 107.595 18.9844C107.385 18.8568 107.133 18.793 106.836 18.793C106.545 18.793 106.294 18.8431 106.084 18.9434C105.875 19.0391 105.699 19.1735 105.558 19.3467C105.417 19.5199 105.307 19.7227 105.23 19.9551C105.152 20.1829 105.098 20.4313 105.066 20.7002V22.0264C105.121 22.3545 105.214 22.6553 105.346 22.9287C105.478 23.2021 105.665 23.4209 105.907 23.585C106.153 23.7445 106.467 23.8242 106.85 23.8242C107.146 23.8242 107.399 23.7604 107.609 23.6328C107.818 23.5052 107.989 23.3298 108.121 23.1064C108.258 22.8786 108.358 22.6165 108.422 22.3203C108.486 22.0241 108.518 21.7096 108.518 21.377ZM113.43 14.5V25H111.776V14.5H113.43ZM119.505 23.5166V19.9893C119.505 19.7249 119.457 19.4971 119.362 19.3057C119.266 19.1143 119.12 18.9661 118.924 18.8613C118.733 18.7565 118.491 18.7041 118.199 18.7041C117.931 18.7041 117.698 18.7497 117.502 18.8408C117.306 18.932 117.154 19.055 117.044 19.21C116.935 19.3649 116.88 19.5404 116.88 19.7363H115.239C115.239 19.4447 115.31 19.1621 115.451 18.8887C115.593 18.6152 115.798 18.3714 116.067 18.1572C116.335 17.943 116.657 17.7744 117.03 17.6514C117.404 17.5283 117.823 17.4668 118.288 17.4668C118.844 17.4668 119.336 17.5602 119.765 17.7471C120.198 17.9339 120.537 18.2165 120.783 18.5947C121.034 18.9684 121.159 19.4378 121.159 20.0029V23.291C121.159 23.6283 121.182 23.9313 121.228 24.2002C121.278 24.4645 121.349 24.6947 121.44 24.8906V25H119.751C119.674 24.8223 119.612 24.5967 119.567 24.3232C119.526 24.0452 119.505 23.7764 119.505 23.5166ZM119.744 20.502L119.758 21.5205H118.575C118.27 21.5205 118.001 21.5501 117.769 21.6094C117.536 21.6641 117.343 21.7461 117.188 21.8555C117.033 21.9648 116.917 22.097 116.839 22.252C116.762 22.4069 116.723 22.5824 116.723 22.7783C116.723 22.9743 116.768 23.1543 116.86 23.3184C116.951 23.4779 117.083 23.6032 117.256 23.6943C117.434 23.7855 117.648 23.8311 117.899 23.8311C118.236 23.8311 118.53 23.7627 118.78 23.626C119.036 23.4847 119.236 23.3138 119.382 23.1133C119.528 22.9082 119.605 22.7145 119.614 22.5322L120.148 23.2637C120.093 23.4505 120 23.651 119.867 23.8652C119.735 24.0794 119.562 24.2845 119.348 24.4805C119.138 24.6719 118.885 24.8291 118.589 24.9521C118.297 25.0752 117.96 25.1367 117.577 25.1367C117.094 25.1367 116.664 25.041 116.285 24.8496C115.907 24.6536 115.611 24.3916 115.397 24.0635C115.182 23.7308 115.075 23.3548 115.075 22.9355C115.075 22.5436 115.148 22.1973 115.294 21.8965C115.445 21.5911 115.663 21.3359 115.95 21.1309C116.242 20.9258 116.598 20.7708 117.017 20.666C117.436 20.5566 117.915 20.502 118.452 20.502H119.744ZM126.373 17.6035V18.8066H122.203V17.6035H126.373ZM123.406 15.792H125.053V22.9561C125.053 23.1839 125.085 23.3594 125.149 23.4824C125.217 23.6009 125.311 23.6807 125.429 23.7217C125.548 23.7627 125.687 23.7832 125.846 23.7832C125.96 23.7832 126.07 23.7764 126.174 23.7627C126.279 23.749 126.364 23.7354 126.427 23.7217L126.434 24.9795C126.297 25.0205 126.138 25.057 125.956 25.0889C125.778 25.1208 125.573 25.1367 125.34 25.1367C124.962 25.1367 124.627 25.0706 124.336 24.9385C124.044 24.8018 123.816 24.5807 123.652 24.2754C123.488 23.9701 123.406 23.5645 123.406 23.0586V15.792ZM131.005 25.1367C130.458 25.1367 129.964 25.0479 129.521 24.8701C129.084 24.6878 128.71 24.4349 128.4 24.1113C128.095 23.7878 127.86 23.4072 127.696 22.9697C127.532 22.5322 127.45 22.0605 127.45 21.5547V21.2812C127.45 20.7025 127.535 20.1784 127.703 19.709C127.872 19.2396 128.106 18.8385 128.407 18.5059C128.708 18.1686 129.063 17.9111 129.474 17.7334C129.884 17.5557 130.328 17.4668 130.807 17.4668C131.335 17.4668 131.798 17.5557 132.194 17.7334C132.591 17.9111 132.919 18.1618 133.179 18.4854C133.443 18.8044 133.639 19.1849 133.767 19.627C133.899 20.069 133.965 20.5566 133.965 21.0898V21.7939H128.25V20.6113H132.338V20.4814C132.329 20.1852 132.27 19.9072 132.16 19.6475C132.055 19.3877 131.894 19.1781 131.675 19.0186C131.456 18.859 131.164 18.7793 130.8 18.7793C130.526 18.7793 130.283 18.8385 130.068 18.957C129.859 19.071 129.683 19.2373 129.542 19.4561C129.401 19.6748 129.291 19.9391 129.214 20.249C129.141 20.5544 129.104 20.8984 129.104 21.2812V21.5547C129.104 21.8783 129.148 22.179 129.234 22.457C129.326 22.7305 129.458 22.9697 129.631 23.1748C129.804 23.3799 130.014 23.5417 130.26 23.6602C130.506 23.7741 130.786 23.8311 131.101 23.8311C131.497 23.8311 131.85 23.7513 132.16 23.5918C132.47 23.4323 132.739 23.2067 132.967 22.915L133.835 23.7559C133.675 23.9883 133.468 24.2116 133.213 24.4258C132.958 24.6354 132.646 24.8063 132.276 24.9385C131.912 25.0706 131.488 25.1367 131.005 25.1367ZM137.579 25H135.931V16.8926C135.931 16.3411 136.034 15.8786 136.239 15.5049C136.448 15.1266 136.747 14.8418 137.134 14.6504C137.522 14.4544 137.98 14.3564 138.508 14.3564C138.672 14.3564 138.834 14.3678 138.994 14.3906C139.153 14.4089 139.308 14.4385 139.458 14.4795L139.417 15.751C139.326 15.7282 139.226 15.7122 139.117 15.7031C139.012 15.694 138.898 15.6895 138.775 15.6895C138.524 15.6895 138.308 15.7373 138.125 15.833C137.948 15.9242 137.811 16.0586 137.715 16.2363C137.624 16.4141 137.579 16.6328 137.579 16.8926V25ZM139.103 17.6035V18.8066H134.796V17.6035H139.103ZM140.085 21.3838V21.2266C140.085 20.6934 140.162 20.1989 140.317 19.7432C140.472 19.2829 140.695 18.8841 140.987 18.5469C141.283 18.2051 141.643 17.9408 142.067 17.7539C142.496 17.5625 142.979 17.4668 143.516 17.4668C144.059 17.4668 144.542 17.5625 144.966 17.7539C145.394 17.9408 145.756 18.2051 146.053 18.5469C146.349 18.8841 146.574 19.2829 146.729 19.7432C146.884 20.1989 146.962 20.6934 146.962 21.2266V21.3838C146.962 21.917 146.884 22.4115 146.729 22.8672C146.574 23.3229 146.349 23.7217 146.053 24.0635C145.756 24.4007 145.396 24.665 144.972 24.8564C144.549 25.0433 144.068 25.1367 143.53 25.1367C142.988 25.1367 142.502 25.0433 142.074 24.8564C141.65 24.665 141.29 24.4007 140.994 24.0635C140.698 23.7217 140.472 23.3229 140.317 22.8672C140.162 22.4115 140.085 21.917 140.085 21.3838ZM141.732 21.2266V21.3838C141.732 21.7165 141.766 22.0309 141.835 22.3271C141.903 22.6234 142.01 22.8831 142.156 23.1064C142.302 23.3298 142.489 23.5052 142.717 23.6328C142.944 23.7604 143.216 23.8242 143.53 23.8242C143.835 23.8242 144.1 23.7604 144.323 23.6328C144.551 23.5052 144.738 23.3298 144.884 23.1064C145.029 22.8831 145.137 22.6234 145.205 22.3271C145.278 22.0309 145.314 21.7165 145.314 21.3838V21.2266C145.314 20.8984 145.278 20.5885 145.205 20.2969C145.137 20.0007 145.027 19.7386 144.877 19.5107C144.731 19.2829 144.544 19.1051 144.316 18.9775C144.093 18.8454 143.826 18.7793 143.516 18.7793C143.207 18.7793 142.938 18.8454 142.71 18.9775C142.486 19.1051 142.302 19.2829 142.156 19.5107C142.01 19.7386 141.903 20.0007 141.835 20.2969C141.766 20.5885 141.732 20.8984 141.732 21.2266ZM150.097 19.0117V25H148.449V17.6035H150.022L150.097 19.0117ZM152.36 17.5557L152.346 19.0869C152.246 19.0687 152.136 19.055 152.018 19.0459C151.904 19.0368 151.79 19.0322 151.676 19.0322C151.393 19.0322 151.145 19.0732 150.931 19.1553C150.717 19.2327 150.537 19.3467 150.391 19.4971C150.25 19.6429 150.14 19.8206 150.063 20.0303C149.985 20.2399 149.94 20.4746 149.926 20.7344L149.55 20.7617C149.55 20.2969 149.596 19.8662 149.687 19.4697C149.778 19.0732 149.915 18.7246 150.097 18.4238C150.284 18.123 150.516 17.8883 150.794 17.7197C151.077 17.5511 151.403 17.4668 151.772 17.4668C151.872 17.4668 151.979 17.4759 152.093 17.4941C152.211 17.5124 152.3 17.5329 152.36 17.5557ZM155.139 19.1074V25H153.492V17.6035H155.044L155.139 19.1074ZM154.873 21.0283L154.312 21.0215C154.312 20.5111 154.376 20.0394 154.504 19.6064C154.631 19.1735 154.818 18.7975 155.064 18.4785C155.31 18.1549 155.615 17.9066 155.98 17.7334C156.349 17.5557 156.775 17.4668 157.258 17.4668C157.596 17.4668 157.903 17.5169 158.181 17.6172C158.464 17.7129 158.708 17.8656 158.913 18.0752C159.122 18.2848 159.282 18.5537 159.391 18.8818C159.505 19.21 159.562 19.6064 159.562 20.0713V25H157.915V20.2148C157.915 19.8548 157.86 19.5723 157.751 19.3672C157.646 19.1621 157.493 19.0163 157.293 18.9297C157.097 18.8385 156.862 18.793 156.588 18.793C156.279 18.793 156.014 18.8522 155.796 18.9707C155.581 19.0892 155.406 19.251 155.269 19.4561C155.132 19.6611 155.032 19.8981 154.968 20.167C154.905 20.4359 154.873 20.723 154.873 21.0283ZM159.46 20.5908L158.687 20.7617C158.687 20.3151 158.749 19.8936 158.872 19.4971C158.999 19.096 159.184 18.7451 159.425 18.4443C159.671 18.139 159.975 17.8997 160.335 17.7266C160.695 17.5534 161.107 17.4668 161.572 17.4668C161.95 17.4668 162.287 17.5192 162.584 17.624C162.884 17.7243 163.14 17.8838 163.349 18.1025C163.559 18.3213 163.718 18.6061 163.828 18.957C163.937 19.3034 163.992 19.7227 163.992 20.2148V25H162.338V20.208C162.338 19.8343 162.283 19.5449 162.173 19.3398C162.069 19.1348 161.918 18.9935 161.722 18.916C161.526 18.834 161.292 18.793 161.018 18.793C160.763 18.793 160.537 18.8408 160.341 18.9365C160.15 19.0277 159.988 19.1576 159.856 19.3262C159.724 19.4902 159.624 19.6794 159.555 19.8936C159.491 20.1077 159.46 20.3402 159.46 20.5908ZM169.048 25.1367C168.501 25.1367 168.007 25.0479 167.564 24.8701C167.127 24.6878 166.753 24.4349 166.443 24.1113C166.138 23.7878 165.903 23.4072 165.739 22.9697C165.575 22.5322 165.493 22.0605 165.493 21.5547V21.2812C165.493 20.7025 165.577 20.1784 165.746 19.709C165.915 19.2396 166.149 18.8385 166.45 18.5059C166.751 18.1686 167.106 17.9111 167.517 17.7334C167.927 17.5557 168.371 17.4668 168.85 17.4668C169.378 17.4668 169.841 17.5557 170.237 17.7334C170.634 17.9111 170.962 18.1618 171.222 18.4854C171.486 18.8044 171.682 19.1849 171.81 19.627C171.942 20.069 172.008 20.5566 172.008 21.0898V21.7939H166.293V20.6113H170.381V20.4814C170.372 20.1852 170.312 19.9072 170.203 19.6475C170.098 19.3877 169.937 19.1781 169.718 19.0186C169.499 18.859 169.207 18.7793 168.843 18.7793C168.569 18.7793 168.326 18.8385 168.111 18.957C167.902 19.071 167.726 19.2373 167.585 19.4561C167.444 19.6748 167.334 19.9391 167.257 20.249C167.184 20.5544 167.147 20.8984 167.147 21.2812V21.5547C167.147 21.8783 167.191 22.179 167.277 22.457C167.368 22.7305 167.501 22.9697 167.674 23.1748C167.847 23.3799 168.057 23.5417 168.303 23.6602C168.549 23.7741 168.829 23.8311 169.144 23.8311C169.54 23.8311 169.893 23.7513 170.203 23.5918C170.513 23.4323 170.782 23.2067 171.01 22.915L171.878 23.7559C171.718 23.9883 171.511 24.2116 171.256 24.4258C171.001 24.6354 170.688 24.8063 170.319 24.9385C169.955 25.0706 169.531 25.1367 169.048 25.1367Z" fill="#00696C"/>
</g>
<rect x="0.5" y="0.5" width="180" height="39" rx="3.5" stroke="#6F7979"/>
<defs>
<clipPath id="clip0_7322_100221">
<rect width="181" height="40" rx="4" fill="white"/>
</clipPath>
</defs>
</svg>
