<svg width="30" height="30" viewBox="0 0 30 30" fill="none" xmlns="http://www.w3.org/2000/svg">
<path d="M0 30V6.66667H6.66667V0H23.3333V13.3333H30V30H16.6667V23.3333H13.3333V30H0ZM3.33333 26.6667H6.66667V23.3333H3.33333V26.6667ZM3.33333 20H6.66667V16.6667H3.33333V20ZM3.33333 13.3333H6.66667V10H3.33333V13.3333ZM10 20H13.3333V16.6667H10V20ZM10 13.3333H13.3333V10H10V13.3333ZM10 6.66667H13.3333V3.33333H10V6.66667ZM16.6667 20H20V16.6667H16.6667V20ZM16.6667 13.3333H20V10H16.6667V13.3333ZM16.6667 6.66667H20V3.33333H16.6667V6.66667ZM23.3333 26.6667H26.6667V23.3333H23.3333V26.6667ZM23.3333 20H26.6667V16.6667H23.3333V20Z" fill="#00696C"/>
</svg>
