<svg width="34" height="31" viewBox="0 0 34 31" fill="none" xmlns="http://www.w3.org/2000/svg">
<path d="M6.66667 26.6667L2.83333 30.5C2.30556 31.0278 1.70139 31.1458 1.02083 30.8542C0.340278 30.5625 0 30.0417 0 29.2917V3.33333C0 2.41667 0.326389 1.63194 0.979167 0.979167C1.63194 0.326389 2.41667 0 3.33333 0H30C30.9167 0 31.7014 0.326389 32.3542 0.979167C33.0069 1.63194 33.3333 2.41667 33.3333 3.33333V23.3333C33.3333 24.25 33.0069 25.0347 32.3542 25.6875C31.7014 26.3403 30.9167 26.6667 30 26.6667H6.66667ZM5.25 23.3333H30V3.33333H3.33333V25.2083L5.25 23.3333ZM8.33333 20H18.3333C18.8056 20 19.2014 19.8403 19.5208 19.5208C19.8403 19.2014 20 18.8056 20 18.3333C20 17.8611 19.8403 17.4653 19.5208 17.1458C19.2014 16.8264 18.8056 16.6667 18.3333 16.6667H8.33333C7.86111 16.6667 7.46528 16.8264 7.14583 17.1458C6.82639 17.4653 6.66667 17.8611 6.66667 18.3333C6.66667 18.8056 6.82639 19.2014 7.14583 19.5208C7.46528 19.8403 7.86111 20 8.33333 20ZM8.33333 15H25C25.4722 15 25.8681 14.8403 26.1875 14.5208C26.5069 14.2014 26.6667 13.8056 26.6667 13.3333C26.6667 12.8611 26.5069 12.4653 26.1875 12.1458C25.8681 11.8264 25.4722 11.6667 25 11.6667H8.33333C7.86111 11.6667 7.46528 11.8264 7.14583 12.1458C6.82639 12.4653 6.66667 12.8611 6.66667 13.3333C6.66667 13.8056 6.82639 14.2014 7.14583 14.5208C7.46528 14.8403 7.86111 15 8.33333 15ZM8.33333 10H25C25.4722 10 25.8681 9.84028 26.1875 9.52083C26.5069 9.20139 26.6667 8.80556 26.6667 8.33333C26.6667 7.86111 26.5069 7.46528 26.1875 7.14583C25.8681 6.82639 25.4722 6.66667 25 6.66667H8.33333C7.86111 6.66667 7.46528 6.82639 7.14583 7.14583C6.82639 7.46528 6.66667 7.86111 6.66667 8.33333C6.66667 8.80556 6.82639 9.20139 7.14583 9.52083C7.46528 9.84028 7.86111 10 8.33333 10Z" fill="#00696C"/>
</svg>
