<svg width="34" height="34" viewBox="0 0 34 34" fill="none" xmlns="http://www.w3.org/2000/svg">
<path d="M16.6667 18.3333C16.1944 18.3333 15.7986 18.1736 15.4792 17.8542C15.1597 17.5347 15 17.1389 15 16.6667C15 16.1944 15.1597 15.7986 15.4792 15.4792C15.7986 15.1597 16.1944 15 16.6667 15C17.1389 15 17.5347 15.1597 17.8542 15.4792C18.1736 15.7986 18.3333 16.1944 18.3333 16.6667C18.3333 17.1389 18.1736 17.5347 17.8542 17.8542C17.5347 18.1736 17.1389 18.3333 16.6667 18.3333ZM16.6667 33.3333C14.3611 33.3333 12.1944 32.8958 10.1667 32.0208C8.13889 31.1458 6.375 29.9583 4.875 28.4583C3.375 26.9583 2.1875 25.1944 1.3125 23.1667C0.4375 21.1389 0 18.9722 0 16.6667C0 14.3611 0.4375 12.1944 1.3125 10.1667C2.1875 8.13889 3.375 6.375 4.875 4.875C6.375 3.375 8.13889 2.1875 10.1667 1.3125C12.1944 0.4375 14.3611 0 16.6667 0C18.9722 0 21.1389 0.4375 23.1667 1.3125C25.1944 2.1875 26.9583 3.375 28.4583 4.875C29.9583 6.375 31.1458 8.13889 32.0208 10.1667C32.8958 12.1944 33.3333 14.3611 33.3333 16.6667C33.3333 18.9722 32.8958 21.1389 32.0208 23.1667C31.1458 25.1944 29.9583 26.9583 28.4583 28.4583C26.9583 29.9583 25.1944 31.1458 23.1667 32.0208C21.1389 32.8958 18.9722 33.3333 16.6667 33.3333ZM16.6667 30C20.3889 30 23.5417 28.7083 26.125 26.125C28.7083 23.5417 30 20.3889 30 16.6667C30 12.9444 28.7083 9.79167 26.125 7.20833C23.5417 4.625 20.3889 3.33333 16.6667 3.33333C12.9444 3.33333 9.79167 4.625 7.20833 7.20833C4.625 9.79167 3.33333 12.9444 3.33333 16.6667C3.33333 20.3889 4.625 23.5417 7.20833 26.125C9.79167 28.7083 12.9444 30 16.6667 30ZM9.04167 25.125L19.4583 20.25C19.625 20.1667 19.7778 20.0556 19.9167 19.9167C20.0556 19.7778 20.1667 19.625 20.25 19.4583L25.125 9.04167C25.2639 8.76389 25.2292 8.52083 25.0208 8.3125C24.8125 8.10417 24.5694 8.06944 24.2917 8.20833L13.875 13.0833C13.7083 13.1667 13.5556 13.2778 13.4167 13.4167C13.2778 13.5556 13.1667 13.7083 13.0833 13.875L8.20833 24.2917C8.06944 24.5694 8.10417 24.8125 8.3125 25.0208C8.52083 25.2292 8.76389 25.2639 9.04167 25.125Z" fill="#00696C"/>
</svg>
