<svg width="34" height="26" viewBox="0 0 34 26" fill="none" xmlns="http://www.w3.org/2000/svg">
<path d="M31.6667 14.3472H28.3333C27.8611 14.3472 27.4653 14.1875 27.1458 13.8681C26.8264 13.5486 26.6667 13.1528 26.6667 12.6806C26.6667 12.2083 26.8264 11.8125 27.1458 11.4931C27.4653 11.1736 27.8611 11.0139 28.3333 11.0139H31.6667C32.1389 11.0139 32.5347 11.1736 32.8542 11.4931C33.1736 11.8125 33.3333 12.2083 33.3333 12.6806C33.3333 13.1528 33.1736 13.5486 32.8542 13.8681C32.5347 14.1875 32.1389 14.3472 31.6667 14.3472ZM24.3333 20.6806C24.6111 20.2917 24.9722 20.0694 25.4167 20.0139C25.8611 19.9583 26.2778 20.0694 26.6667 20.3472L29.3333 22.3472C29.7222 22.625 29.9444 22.9861 30 23.4306C30.0556 23.875 29.9444 24.2917 29.6667 24.6806C29.3889 25.0694 29.0278 25.2917 28.5833 25.3472C28.1389 25.4028 27.7222 25.2917 27.3333 25.0139L24.6667 23.0139C24.2778 22.7361 24.0556 22.375 24 21.9306C23.9444 21.4861 24.0556 21.0694 24.3333 20.6806ZM29.3333 3.01389L26.6667 5.01389C26.2778 5.29167 25.8611 5.40278 25.4167 5.34722C24.9722 5.29167 24.6111 5.06944 24.3333 4.68056C24.0556 4.29167 23.9444 3.875 24 3.43056C24.0556 2.98611 24.2778 2.625 24.6667 2.34722L27.3333 0.347222C27.7222 0.0694444 28.1389 -0.0416667 28.5833 0.0138889C29.0278 0.0694445 29.3889 0.291667 29.6667 0.680556C29.9444 1.06944 30.0556 1.48611 30 1.93056C29.9444 2.375 29.7222 2.73611 29.3333 3.01389ZM5 17.6806H3.33333C2.41667 17.6806 1.63194 17.3542 0.979167 16.7014C0.326389 16.0486 0 15.2639 0 14.3472V11.0139C0 10.0972 0.326389 9.3125 0.979167 8.65972C1.63194 8.00694 2.41667 7.68056 3.33333 7.68056H10L15.7917 4.18056C16.3472 3.84722 16.9097 3.84722 17.4792 4.18056C18.0486 4.51389 18.3333 5 18.3333 5.63889V19.7222C18.3333 20.3611 18.0486 20.8472 17.4792 21.1806C16.9097 21.5139 16.3472 21.5139 15.7917 21.1806L10 17.6806H8.33333V22.6806C8.33333 23.1528 8.17361 23.5486 7.85417 23.8681C7.53472 24.1875 7.13889 24.3472 6.66667 24.3472C6.19444 24.3472 5.79861 24.1875 5.47917 23.8681C5.15972 23.5486 5 23.1528 5 22.6806V17.6806ZM20 18.2639V7.09722C20.75 7.76389 21.3542 8.57639 21.8125 9.53472C22.2708 10.4931 22.5 11.5417 22.5 12.6806C22.5 13.8194 22.2708 14.8681 21.8125 15.8264C21.3542 16.7847 20.75 17.5972 20 18.2639Z" fill="#00696C"/>
</svg>
