<svg width="37" height="29" viewBox="0 0 37 29" fill="none" xmlns="http://www.w3.org/2000/svg">
<path d="M6.66667 28.3333V25H9.33333L12.625 14.0417C12.8472 13.3194 13.2569 12.7431 13.8542 12.3125C14.4514 11.8819 15.1111 11.6667 15.8333 11.6667H20.8333C21.5556 11.6667 22.2153 11.8819 22.8125 12.3125C23.4097 12.7431 23.8194 13.3194 24.0417 14.0417L27.3333 25H30V28.3333H6.66667ZM12.8333 25H23.8333L20.8333 15H15.8333L12.8333 25ZM16.6667 8.33333V0H20V8.33333H16.6667ZM26.5833 12.4583L24.2083 10.0833L30.125 4.20833L32.4583 6.54167L26.5833 12.4583ZM28.3333 20V16.6667H36.6667V20H28.3333ZM10.0833 12.4583L4.20833 6.54167L6.54167 4.20833L12.4583 10.0833L10.0833 12.4583ZM0 20V16.6667H8.33333V20H0Z" fill="#00696C"/>
</svg>
