<svg width="37" height="27" viewBox="0 0 37 27" fill="none" xmlns="http://www.w3.org/2000/svg">
<path d="M0 22C0 21.0556 0.243056 20.1875 0.729167 19.3958C1.21528 18.6042 1.86111 18 2.66667 17.5833C4.38889 16.7222 6.13889 16.0764 7.91667 15.6458C9.69444 15.2153 11.5 15 13.3333 15C15.1667 15 16.9722 15.2153 18.75 15.6458C20.5278 16.0764 22.2778 16.7222 24 17.5833C24.8056 18 25.4514 18.6042 25.9375 19.3958C26.4236 20.1875 26.6667 21.0556 26.6667 22V23.3333C26.6667 24.25 26.3403 25.0347 25.6875 25.6875C25.0347 26.3403 24.25 26.6667 23.3333 26.6667H3.33333C2.41667 26.6667 1.63194 26.3403 0.979167 25.6875C0.326389 25.0347 0 24.25 0 23.3333V22ZM33.3333 26.6667H29.0833C29.3889 26.1667 29.6181 25.6319 29.7708 25.0625C29.9236 24.4931 30 23.9167 30 23.3333V21.6667C30 20.4444 29.6597 19.2708 28.9792 18.1458C28.2986 17.0208 27.3333 16.0556 26.0833 15.25C27.5 15.4167 28.8333 15.7014 30.0833 16.1042C31.3333 16.5069 32.5 17 33.5833 17.5833C34.5833 18.1389 35.3472 18.7569 35.875 19.4375C36.4028 20.1181 36.6667 20.8611 36.6667 21.6667V23.3333C36.6667 24.25 36.3403 25.0347 35.6875 25.6875C35.0347 26.3403 34.25 26.6667 33.3333 26.6667ZM13.3333 13.3333C11.5 13.3333 9.93056 12.6806 8.625 11.375C7.31945 10.0694 6.66667 8.5 6.66667 6.66667C6.66667 4.83333 7.31945 3.26389 8.625 1.95833C9.93056 0.652778 11.5 0 13.3333 0C15.1667 0 16.7361 0.652778 18.0417 1.95833C19.3472 3.26389 20 4.83333 20 6.66667C20 8.5 19.3472 10.0694 18.0417 11.375C16.7361 12.6806 15.1667 13.3333 13.3333 13.3333ZM30 6.66667C30 8.5 29.3472 10.0694 28.0417 11.375C26.7361 12.6806 25.1667 13.3333 23.3333 13.3333C23.0278 13.3333 22.6389 13.2986 22.1667 13.2292C21.6944 13.1597 21.3056 13.0833 21 13C21.75 12.1111 22.3264 11.125 22.7292 10.0417C23.1319 8.95833 23.3333 7.83333 23.3333 6.66667C23.3333 5.5 23.1319 4.375 22.7292 3.29167C22.3264 2.20833 21.75 1.22222 21 0.333333C21.3889 0.194444 21.7778 0.104167 22.1667 0.0625C22.5556 0.0208333 22.9444 0 23.3333 0C25.1667 0 26.7361 0.652778 28.0417 1.95833C29.3472 3.26389 30 4.83333 30 6.66667ZM3.33333 23.3333H23.3333V22C23.3333 21.6944 23.2569 21.4167 23.1042 21.1667C22.9514 20.9167 22.75 20.7222 22.5 20.5833C21 19.8333 19.4861 19.2708 17.9583 18.8958C16.4306 18.5208 14.8889 18.3333 13.3333 18.3333C11.7778 18.3333 10.2361 18.5208 8.70833 18.8958C7.18056 19.2708 5.66667 19.8333 4.16667 20.5833C3.91667 20.7222 3.71528 20.9167 3.5625 21.1667C3.40972 21.4167 3.33333 21.6944 3.33333 22V23.3333ZM13.3333 10C14.25 10 15.0347 9.67361 15.6875 9.02083C16.3403 8.36806 16.6667 7.58333 16.6667 6.66667C16.6667 5.75 16.3403 4.96528 15.6875 4.3125C15.0347 3.65972 14.25 3.33333 13.3333 3.33333C12.4167 3.33333 11.6319 3.65972 10.9792 4.3125C10.3264 4.96528 10 5.75 10 6.66667C10 7.58333 10.3264 8.36806 10.9792 9.02083C11.6319 9.67361 12.4167 10 13.3333 10Z" fill="#00696C"/>
</svg>
