<svg width="30" height="30" viewBox="0 0 30 30" fill="none" xmlns="http://www.w3.org/2000/svg">
<path d="M6.66667 23.3333H10V11.6667H6.66667V23.3333ZM13.3333 23.3333H16.6667V6.66667H13.3333V23.3333ZM20 23.3333H23.3333V16.6667H20V23.3333ZM3.33333 30C2.41667 30 1.63194 29.6736 0.979167 29.0208C0.326389 28.3681 0 27.5833 0 26.6667V3.33333C0 2.41667 0.326389 1.63194 0.979167 0.979167C1.63194 0.326389 2.41667 0 3.33333 0H26.6667C27.5833 0 28.3681 0.326389 29.0208 0.979167C29.6736 1.63194 30 2.41667 30 3.33333V26.6667C30 27.5833 29.6736 28.3681 29.0208 29.0208C28.3681 29.6736 27.5833 30 26.6667 30H3.33333ZM3.33333 26.6667H26.6667V3.33333H3.33333V26.6667Z" fill="#00696C"/>
</svg>
