<svg width="34" height="29" viewBox="0 0 34 29" fill="none" xmlns="http://www.w3.org/2000/svg">
<path d="M13.3333 13.3333C11.5 13.3333 9.93056 12.6806 8.625 11.375C7.31945 10.0694 6.66667 8.5 6.66667 6.66667C6.66667 4.83333 7.31945 3.26389 8.625 1.95833C9.93056 0.652778 11.5 0 13.3333 0C15.1667 0 16.7361 0.652778 18.0417 1.95833C19.3472 3.26389 20 4.83333 20 6.66667C20 8.5 19.3472 10.0694 18.0417 11.375C16.7361 12.6806 15.1667 13.3333 13.3333 13.3333ZM0 26.6667V22C0 21.0833 0.236111 20.2222 0.708333 19.4167C1.18056 18.6111 1.83333 18 2.66667 17.5833C4.08333 16.8611 5.68056 16.25 7.45833 15.75C9.23611 15.25 11.1944 15 13.3333 15H13.9167C14.0833 15 14.25 15.0278 14.4167 15.0833C14.1944 15.5833 14.0069 16.1042 13.8542 16.6458C13.7014 17.1875 13.5833 17.75 13.5 18.3333H13.3333C11.3611 18.3333 9.59028 18.5833 8.02083 19.0833C6.45139 19.5833 5.16667 20.0833 4.16667 20.5833C3.91667 20.7222 3.71528 20.9167 3.5625 21.1667C3.40972 21.4167 3.33333 21.6944 3.33333 22V23.3333H13.8333C14 23.9167 14.2222 24.4931 14.5 25.0625C14.7778 25.6319 15.0833 26.1667 15.4167 26.6667H0ZM23.3333 28.3333L22.8333 25.8333C22.5 25.6944 22.1875 25.5486 21.8958 25.3958C21.6042 25.2431 21.3056 25.0556 21 24.8333L18.5833 25.5833L16.9167 22.75L18.8333 21.0833C18.7778 20.6944 18.75 20.3333 18.75 20C18.75 19.6667 18.7778 19.3056 18.8333 18.9167L16.9167 17.25L18.5833 14.4167L21 15.1667C21.3056 14.9444 21.6042 14.7569 21.8958 14.6042C22.1875 14.4514 22.5 14.3056 22.8333 14.1667L23.3333 11.6667H26.6667L27.1667 14.1667C27.5 14.3056 27.8125 14.4583 28.1042 14.625C28.3958 14.7917 28.6944 15 29 15.25L31.4167 14.4167L33.0833 17.3333L31.1667 19C31.2222 19.3333 31.25 19.6806 31.25 20.0417C31.25 20.4028 31.2222 20.75 31.1667 21.0833L33.0833 22.75L31.4167 25.5833L29 24.8333C28.6944 25.0556 28.3958 25.2431 28.1042 25.3958C27.8125 25.5486 27.5 25.6944 27.1667 25.8333L26.6667 28.3333H23.3333ZM25 23.3333C25.9167 23.3333 26.7014 23.0069 27.3542 22.3542C28.0069 21.7014 28.3333 20.9167 28.3333 20C28.3333 19.0833 28.0069 18.2986 27.3542 17.6458C26.7014 16.9931 25.9167 16.6667 25 16.6667C24.0833 16.6667 23.2986 16.9931 22.6458 17.6458C21.9931 18.2986 21.6667 19.0833 21.6667 20C21.6667 20.9167 21.9931 21.7014 22.6458 22.3542C23.2986 23.0069 24.0833 23.3333 25 23.3333ZM13.3333 10C14.25 10 15.0347 9.67361 15.6875 9.02083C16.3403 8.36806 16.6667 7.58333 16.6667 6.66667C16.6667 5.75 16.3403 4.96528 15.6875 4.3125C15.0347 3.65972 14.25 3.33333 13.3333 3.33333C12.4167 3.33333 11.6319 3.65972 10.9792 4.3125C10.3264 4.96528 10 5.75 10 6.66667C10 7.58333 10.3264 8.36806 10.9792 9.02083C11.6319 9.67361 12.4167 10 13.3333 10Z" fill="#00696C"/>
</svg>
