<svg width="34" height="28" viewBox="0 0 34 28" fill="none" xmlns="http://www.w3.org/2000/svg">
<path d="M0 26.6667V22C0 21.0833 0.236111 20.2222 0.708333 19.4167C1.18056 18.6111 1.83333 18 2.66667 17.5833C4.08333 16.8611 5.68056 16.25 7.45833 15.75C9.23611 15.25 11.1944 15 13.3333 15C14.1667 15 14.9792 15.0417 15.7708 15.125C16.5625 15.2083 17.3333 15.3333 18.0833 15.5L15.1667 18.4167C14.8611 18.3611 14.5625 18.3333 14.2708 18.3333H13.3333C11.3611 18.3333 9.59028 18.5694 8.02083 19.0417C6.45139 19.5139 5.16667 20.0278 4.16667 20.5833C3.91667 20.7222 3.71528 20.9167 3.5625 21.1667C3.40972 21.4167 3.33333 21.6944 3.33333 22V23.3333H13.75L17.0833 26.6667H0ZM22.5833 27.3333L16.8333 21.5833L19.1667 19.25L22.5833 22.6667L31 14.25L33.3333 16.5833L22.5833 27.3333ZM13.3333 13.3333C11.5 13.3333 9.93056 12.6806 8.625 11.375C7.31944 10.0694 6.66667 8.5 6.66667 6.66667C6.66667 4.83333 7.31944 3.26389 8.625 1.95833C9.93056 0.652778 11.5 0 13.3333 0C15.1667 0 16.7361 0.652778 18.0417 1.95833C19.3472 3.26389 20 4.83333 20 6.66667C20 8.5 19.3472 10.0694 18.0417 11.375C16.7361 12.6806 15.1667 13.3333 13.3333 13.3333ZM13.3333 10C14.25 10 15.0347 9.67361 15.6875 9.02083C16.3403 8.36806 16.6667 7.58333 16.6667 6.66667C16.6667 5.75 16.3403 4.96528 15.6875 4.3125C15.0347 3.65972 14.25 3.33333 13.3333 3.33333C12.4167 3.33333 11.6319 3.65972 10.9792 4.3125C10.3264 4.96528 10 5.75 10 6.66667C10 7.58333 10.3264 8.36806 10.9792 9.02083C11.6319 9.67361 12.4167 10 13.3333 10Z" fill="#00696C"/>
</svg>
