<svg width="37" height="27" viewBox="0 0 37 27" fill="none" xmlns="http://www.w3.org/2000/svg">
<path d="M21.6667 15C20.2778 15 19.0972 14.5139 18.125 13.5417C17.1528 12.5694 16.6667 11.3889 16.6667 10C16.6667 8.61111 17.1528 7.43056 18.125 6.45833C19.0972 5.48611 20.2778 5 21.6667 5C23.0556 5 24.2361 5.48611 25.2083 6.45833C26.1806 7.43056 26.6667 8.61111 26.6667 10C26.6667 11.3889 26.1806 12.5694 25.2083 13.5417C24.2361 14.5139 23.0556 15 21.6667 15ZM10 20C9.08333 20 8.29861 19.6736 7.64583 19.0208C6.99306 18.3681 6.66667 17.5833 6.66667 16.6667V3.33333C6.66667 2.41667 6.99306 1.63194 7.64583 0.979167C8.29861 0.326389 9.08333 0 10 0H33.3333C34.25 0 35.0347 0.326389 35.6875 0.979167C36.3403 1.63194 36.6667 2.41667 36.6667 3.33333V16.6667C36.6667 17.5833 36.3403 18.3681 35.6875 19.0208C35.0347 19.6736 34.25 20 33.3333 20H10ZM13.3333 16.6667H30C30 15.75 30.3264 14.9653 30.9792 14.3125C31.6319 13.6597 32.4167 13.3333 33.3333 13.3333V6.66667C32.4167 6.66667 31.6319 6.34028 30.9792 5.6875C30.3264 5.03472 30 4.25 30 3.33333H13.3333C13.3333 4.25 13.0069 5.03472 12.3542 5.6875C11.7014 6.34028 10.9167 6.66667 10 6.66667V13.3333C10.9167 13.3333 11.7014 13.6597 12.3542 14.3125C13.0069 14.9653 13.3333 15.75 13.3333 16.6667ZM31.6667 26.6667H3.33333C2.41667 26.6667 1.63194 26.3403 0.979167 25.6875C0.326389 25.0347 0 24.25 0 23.3333V5H3.33333V23.3333H31.6667V26.6667Z" fill="#00696C"/>
</svg>
