<svg width="34" height="27" viewBox="0 0 34 27" fill="none" xmlns="http://www.w3.org/2000/svg">
<path d="M20 20H23.3333V16.6667H26.6667V13.3333H23.3333V10H20V13.3333H16.6667V16.6667H20V20ZM3.33333 26.6667C2.41667 26.6667 1.63194 26.3403 0.979167 25.6875C0.326389 25.0347 0 24.25 0 23.3333V3.33333C0 2.41667 0.326389 1.63194 0.979167 0.979167C1.63194 0.326389 2.41667 0 3.33333 0H13.3333L16.6667 3.33333H30C30.9167 3.33333 31.7014 3.65972 32.3542 4.3125C33.0069 4.96528 33.3333 5.75 33.3333 6.66667V23.3333C33.3333 24.25 33.0069 25.0347 32.3542 25.6875C31.7014 26.3403 30.9167 26.6667 30 26.6667H3.33333ZM3.33333 23.3333H30V6.66667H15.2917L11.9583 3.33333H3.33333V23.3333Z" fill="#00696C"/>
</svg>
