<svg width="40" height="40" viewBox="0 0 40 40" fill="none" xmlns="http://www.w3.org/2000/svg">
<mask id="mask0_7544_57143" style="mask-type:alpha" maskUnits="userSpaceOnUse" x="0" y="0" width="40" height="40">
<rect width="40" height="40" fill="#D9D9D9"/>
</mask>
<g mask="url(#mask0_7544_57143)">
<path d="M6.66797 31.6668V28.3335H10.0013V16.6668C10.0013 14.3613 10.6957 12.3127 12.0846 10.521C13.4735 8.72933 15.2791 7.55572 17.5013 7.00016V5.8335C17.5013 5.13905 17.7444 4.54877 18.2305 4.06266C18.7166 3.57655 19.3069 3.3335 20.0013 3.3335C20.6957 3.3335 21.286 3.57655 21.7721 4.06266C22.2582 4.54877 22.5013 5.13905 22.5013 5.8335V7.00016C24.7235 7.55572 26.5291 8.72933 27.918 10.521C29.3069 12.3127 30.0013 14.3613 30.0013 16.6668V28.3335H33.3346V31.6668H6.66797ZM20.0013 36.6668C19.0846 36.6668 18.2999 36.3404 17.6471 35.6877C16.9944 35.0349 16.668 34.2502 16.668 33.3335H23.3346C23.3346 34.2502 23.0082 35.0349 22.3555 35.6877C21.7027 36.3404 20.918 36.6668 20.0013 36.6668ZM13.3346 28.3335H26.668V16.6668C26.668 14.8335 26.0152 13.2641 24.7096 11.9585C23.4041 10.6529 21.8346 10.0002 20.0013 10.0002C18.168 10.0002 16.5985 10.6529 15.293 11.9585C13.9874 13.2641 13.3346 14.8335 13.3346 16.6668V28.3335Z" fill="#00696C"/>
</g>
</svg>
