<svg width="40" height="40" viewBox="0 0 40 40" fill="none" xmlns="http://www.w3.org/2000/svg">
<mask id="mask0_7544_57154" style="mask-type:alpha" maskUnits="userSpaceOnUse" x="0" y="0" width="40" height="40">
<rect width="40" height="40" fill="#D9D9D9"/>
</mask>
<g mask="url(#mask0_7544_57154)">
<path d="M6.66797 25.0002C5.27908 25.0002 4.09852 24.5141 3.1263 23.5418C2.15408 22.5696 1.66797 21.3891 1.66797 20.0002C1.66797 18.6113 2.15408 17.4307 3.1263 16.4585C4.09852 15.4863 5.27908 15.0002 6.66797 15.0002V11.6668C6.66797 10.7502 6.99436 9.96544 7.64714 9.31266C8.29991 8.65988 9.08464 8.3335 10.0013 8.3335H15.0013C15.0013 6.94461 15.4874 5.76405 16.4596 4.79183C17.4319 3.81961 18.6124 3.3335 20.0013 3.3335C21.3902 3.3335 22.5707 3.81961 23.543 4.79183C24.5152 5.76405 25.0013 6.94461 25.0013 8.3335H30.0013C30.918 8.3335 31.7027 8.65988 32.3555 9.31266C33.0082 9.96544 33.3346 10.7502 33.3346 11.6668V15.0002C34.7235 15.0002 35.9041 15.4863 36.8763 16.4585C37.8485 17.4307 38.3346 18.6113 38.3346 20.0002C38.3346 21.3891 37.8485 22.5696 36.8763 23.5418C35.9041 24.5141 34.7235 25.0002 33.3346 25.0002V31.6668C33.3346 32.5835 33.0082 33.3682 32.3555 34.021C31.7027 34.6738 30.918 35.0002 30.0013 35.0002H10.0013C9.08464 35.0002 8.29991 34.6738 7.64714 34.021C6.99436 33.3682 6.66797 32.5835 6.66797 31.6668V25.0002ZM15.0013 21.6668C15.6957 21.6668 16.286 21.4238 16.7721 20.9377C17.2582 20.4516 17.5013 19.8613 17.5013 19.1668C17.5013 18.4724 17.2582 17.8821 16.7721 17.396C16.286 16.9099 15.6957 16.6668 15.0013 16.6668C14.3069 16.6668 13.7166 16.9099 13.2305 17.396C12.7444 17.8821 12.5013 18.4724 12.5013 19.1668C12.5013 19.8613 12.7444 20.4516 13.2305 20.9377C13.7166 21.4238 14.3069 21.6668 15.0013 21.6668ZM25.0013 21.6668C25.6957 21.6668 26.286 21.4238 26.7721 20.9377C27.2582 20.4516 27.5013 19.8613 27.5013 19.1668C27.5013 18.4724 27.2582 17.8821 26.7721 17.396C26.286 16.9099 25.6957 16.6668 25.0013 16.6668C24.3069 16.6668 23.7166 16.9099 23.2305 17.396C22.7444 17.8821 22.5013 18.4724 22.5013 19.1668C22.5013 19.8613 22.7444 20.4516 23.2305 20.9377C23.7166 21.4238 24.3069 21.6668 25.0013 21.6668ZM15.0013 28.3335H25.0013C25.4735 28.3335 25.8694 28.1738 26.1888 27.8543C26.5082 27.5349 26.668 27.1391 26.668 26.6668C26.668 26.1946 26.5082 25.7988 26.1888 25.4793C25.8694 25.1599 25.4735 25.0002 25.0013 25.0002H15.0013C14.5291 25.0002 14.1332 25.1599 13.8138 25.4793C13.4944 25.7988 13.3346 26.1946 13.3346 26.6668C13.3346 27.1391 13.4944 27.5349 13.8138 27.8543C14.1332 28.1738 14.5291 28.3335 15.0013 28.3335ZM10.0013 31.6668H30.0013V11.6668H10.0013V31.6668Z" fill="#00696C"/>
</g>
</svg>
