<svg width="15" height="82" viewBox="0 0 15 82" fill="none" xmlns="http://www.w3.org/2000/svg">
<path d="M8.36328 1C8.36328 0.447715 7.91557 0 7.36328 0C6.811 0 6.36328 0.447715 6.36328 1H7.36328H8.36328ZM6.65617 81.7071C7.0467 82.0976 7.67986 82.0976 8.07039 81.7071L14.4343 75.3431C14.8249 74.9526 14.8249 74.3195 14.4343 73.9289C14.0438 73.5384 13.4107 73.5384 13.0201 73.9289L7.36328 79.5858L1.70643 73.9289C1.3159 73.5384 0.682738 73.5384 0.292213 73.9289C-0.0983109 74.3195 -0.0983109 74.9526 0.292213 75.3431L6.65617 81.7071ZM7.36328 1H6.36328V81H7.36328H8.36328V1H7.36328Z" fill="#00696C"/>
</svg>
