<svg width="34" height="34" viewBox="0 0 34 34" fill="none" xmlns="http://www.w3.org/2000/svg">
<path d="M19.1667 33.3333C16.1667 33.3333 13.6111 32.2778 11.5 30.1667C9.38889 28.0556 8.33333 25.5 8.33333 22.5V21.5417C5.94444 21.1528 3.95833 20.0347 2.375 18.1875C0.791667 16.3403 0 14.1667 0 11.6667V3.33333C0 2.86111 0.159722 2.46528 0.479167 2.14583C0.798611 1.82639 1.19444 1.66667 1.66667 1.66667H5C5 1.19444 5.15972 0.798611 5.47917 0.479167C5.79861 0.159722 6.19444 0 6.66667 0C7.13889 0 7.53472 0.159722 7.85417 0.479167C8.17361 0.798611 8.33333 1.19444 8.33333 1.66667V5C8.33333 5.47222 8.17361 5.86806 7.85417 6.1875C7.53472 6.50694 7.13889 6.66667 6.66667 6.66667C6.19444 6.66667 5.79861 6.50694 5.47917 6.1875C5.15972 5.86806 5 5.47222 5 5H3.33333V11.6667C3.33333 13.5 3.98611 15.0694 5.29167 16.375C6.59722 17.6806 8.16667 18.3333 10 18.3333C11.8333 18.3333 13.4028 17.6806 14.7083 16.375C16.0139 15.0694 16.6667 13.5 16.6667 11.6667V5H15C15 5.47222 14.8403 5.86806 14.5208 6.1875C14.2014 6.50694 13.8056 6.66667 13.3333 6.66667C12.8611 6.66667 12.4653 6.50694 12.1458 6.1875C11.8264 5.86806 11.6667 5.47222 11.6667 5V1.66667C11.6667 1.19444 11.8264 0.798611 12.1458 0.479167C12.4653 0.159722 12.8611 0 13.3333 0C13.8056 0 14.2014 0.159722 14.5208 0.479167C14.8403 0.798611 15 1.19444 15 1.66667H18.3333C18.8056 1.66667 19.2014 1.82639 19.5208 2.14583C19.8403 2.46528 20 2.86111 20 3.33333V11.6667C20 14.1667 19.2083 16.3403 17.625 18.1875C16.0417 20.0347 14.0556 21.1528 11.6667 21.5417V22.5C11.6667 24.5833 12.3958 26.3542 13.8542 27.8125C15.3125 29.2708 17.0833 30 19.1667 30C21.25 30 23.0208 29.2708 24.4792 27.8125C25.9375 26.3542 26.6667 24.5833 26.6667 22.5V19.7083C25.6944 19.3472 24.8958 18.7431 24.2708 17.8958C23.6458 17.0486 23.3333 16.0833 23.3333 15C23.3333 13.6111 23.8194 12.4306 24.7917 11.4583C25.7639 10.4861 26.9444 10 28.3333 10C29.7222 10 30.9028 10.4861 31.875 11.4583C32.8472 12.4306 33.3333 13.6111 33.3333 15C33.3333 16.0833 33.0208 17.0486 32.3958 17.8958C31.7708 18.7431 30.9722 19.3472 30 19.7083V22.5C30 25.5 28.9444 28.0556 26.8333 30.1667C24.7222 32.2778 22.1667 33.3333 19.1667 33.3333ZM28.3333 16.6667C28.8056 16.6667 29.2014 16.5069 29.5208 16.1875C29.8403 15.8681 30 15.4722 30 15C30 14.5278 29.8403 14.1319 29.5208 13.8125C29.2014 13.4931 28.8056 13.3333 28.3333 13.3333C27.8611 13.3333 27.4653 13.4931 27.1458 13.8125C26.8264 14.1319 26.6667 14.5278 26.6667 15C26.6667 15.4722 26.8264 15.8681 27.1458 16.1875C27.4653 16.5069 27.8611 16.6667 28.3333 16.6667Z" fill="#00696C"/>
</svg>
