<svg width="30" height="30" viewBox="0 0 30 30" fill="none" xmlns="http://www.w3.org/2000/svg">
<path d="M3.33333 30C2.41667 30 1.63194 29.6736 0.979167 29.0208C0.326389 28.3681 0 27.5833 0 26.6667V3.33333C0 2.41667 0.326389 1.63194 0.979167 0.979167C1.63194 0.326389 2.41667 0 3.33333 0H26.6667C27.5833 0 28.3681 0.326389 29.0208 0.979167C29.6736 1.63194 30 2.41667 30 3.33333V26.6667C30 27.5833 29.6736 28.3681 29.0208 29.0208C28.3681 29.6736 27.5833 30 26.6667 30H3.33333ZM6.66667 23.3333H18.3333V20H6.66667V23.3333ZM6.66667 16.6667H23.3333V13.3333H6.66667V16.6667ZM6.66667 10H23.3333V6.66667H6.66667V10Z" fill="#00696C"/>
</svg>
