<svg width="34" height="34" viewBox="0 0 34 34" fill="none" xmlns="http://www.w3.org/2000/svg">
<path d="M3.33333 33.375C2.41667 33.375 1.63194 33.0486 0.979167 32.3958C0.326389 31.7431 0 30.9583 0 30.0417V6.70833C0 5.79167 0.326389 5.00694 0.979167 4.35417C1.63194 3.70139 2.41667 3.375 3.33333 3.375H14.2083C14.7639 3.375 15.1806 3.54861 15.4583 3.89583C15.7361 4.24306 15.875 4.625 15.875 5.04167C15.875 5.45833 15.7292 5.84028 15.4375 6.1875C15.1458 6.53472 14.7222 6.70833 14.1667 6.70833H3.33333V30.0417H26.6667V19.1667C26.6667 18.6111 26.8403 18.1944 27.1875 17.9167C27.5347 17.6389 27.9167 17.5 28.3333 17.5C28.75 17.5 29.1319 17.6389 29.4792 17.9167C29.8264 18.1944 30 18.6111 30 19.1667V30.0417C30 30.9583 29.6736 31.7431 29.0208 32.3958C28.3681 33.0486 27.5833 33.375 26.6667 33.375H3.33333ZM10 21.7083V17.6667C10 17.2222 10.0833 16.7986 10.25 16.3958C10.4167 15.9931 10.6528 15.6389 10.9583 15.3333L25.2917 1C25.625 0.666667 26 0.416667 26.4167 0.25C26.8333 0.0833333 27.25 0 27.6667 0C28.1111 0 28.5347 0.0833333 28.9375 0.25C29.3403 0.416667 29.7083 0.666667 30.0417 1L32.375 3.375C32.6806 3.70833 32.9167 4.07639 33.0833 4.47917C33.25 4.88194 33.3333 5.29167 33.3333 5.70833C33.3333 6.125 33.2569 6.53472 33.1042 6.9375C32.9514 7.34028 32.7083 7.70833 32.375 8.04167L18.0417 22.375C17.7361 22.6806 17.3819 22.9236 16.9792 23.1042C16.5764 23.2847 16.1528 23.375 15.7083 23.375H11.6667C11.1944 23.375 10.7986 23.2153 10.4792 22.8958C10.1597 22.5764 10 22.1806 10 21.7083ZM13.3333 20.0417H15.6667L25.3333 10.375L24.1667 9.20833L22.9583 8.04167L13.3333 17.6667V20.0417Z" fill="#00696C"/>
</svg>
