<svg width="34" height="34" viewBox="0 0 34 34" fill="none" xmlns="http://www.w3.org/2000/svg">
<path d="M16.6667 33.3333C14.3889 33.3333 12.2361 32.8958 10.2083 32.0208C8.18056 31.1458 6.40972 29.9514 4.89583 28.4375C3.38194 26.9236 2.1875 25.1528 1.3125 23.125C0.4375 21.0972 0 18.9444 0 16.6667C0 14.3611 0.4375 12.2014 1.3125 10.1875C2.1875 8.17361 3.38194 6.40972 4.89583 4.89583C6.40972 3.38194 8.18056 2.1875 10.2083 1.3125C12.2361 0.4375 14.3889 0 16.6667 0C18.9722 0 21.1319 0.4375 23.1458 1.3125C25.1597 2.1875 26.9236 3.38194 28.4375 4.89583C29.9514 6.40972 31.1458 8.17361 32.0208 10.1875C32.8958 12.2014 33.3333 14.3611 33.3333 16.6667C33.3333 18.9444 32.8958 21.0972 32.0208 23.125C31.1458 25.1528 29.9514 26.9236 28.4375 28.4375C26.9236 29.9514 25.1597 31.1458 23.1458 32.0208C21.1319 32.8958 18.9722 33.3333 16.6667 33.3333ZM16.6667 29.9167C17.3889 28.9167 18.0139 27.875 18.5417 26.7917C19.0694 25.7083 19.5 24.5556 19.8333 23.3333H13.5C13.8333 24.5556 14.2639 25.7083 14.7917 26.7917C15.3194 27.875 15.9444 28.9167 16.6667 29.9167ZM12.3333 29.25C11.8333 28.3333 11.3958 27.3819 11.0208 26.3958C10.6458 25.4097 10.3333 24.3889 10.0833 23.3333H5.16667C5.97222 24.7222 6.97917 25.9306 8.1875 26.9583C9.39583 27.9861 10.7778 28.75 12.3333 29.25ZM21 29.25C22.5556 28.75 23.9375 27.9861 25.1458 26.9583C26.3542 25.9306 27.3611 24.7222 28.1667 23.3333H23.25C23 24.3889 22.6875 25.4097 22.3125 26.3958C21.9375 27.3819 21.5 28.3333 21 29.25ZM3.75 20H9.41667C9.33333 19.4444 9.27083 18.8958 9.22917 18.3542C9.1875 17.8125 9.16667 17.25 9.16667 16.6667C9.16667 16.0833 9.1875 15.5208 9.22917 14.9792C9.27083 14.4375 9.33333 13.8889 9.41667 13.3333H3.75C3.61111 13.8889 3.50694 14.4375 3.4375 14.9792C3.36806 15.5208 3.33333 16.0833 3.33333 16.6667C3.33333 17.25 3.36806 17.8125 3.4375 18.3542C3.50694 18.8958 3.61111 19.4444 3.75 20ZM12.75 20H20.5833C20.6667 19.4444 20.7292 18.8958 20.7708 18.3542C20.8125 17.8125 20.8333 17.25 20.8333 16.6667C20.8333 16.0833 20.8125 15.5208 20.7708 14.9792C20.7292 14.4375 20.6667 13.8889 20.5833 13.3333H12.75C12.6667 13.8889 12.6042 14.4375 12.5625 14.9792C12.5208 15.5208 12.5 16.0833 12.5 16.6667C12.5 17.25 12.5208 17.8125 12.5625 18.3542C12.6042 18.8958 12.6667 19.4444 12.75 20ZM23.9167 20H29.5833C29.7222 19.4444 29.8264 18.8958 29.8958 18.3542C29.9653 17.8125 30 17.25 30 16.6667C30 16.0833 29.9653 15.5208 29.8958 14.9792C29.8264 14.4375 29.7222 13.8889 29.5833 13.3333H23.9167C24 13.8889 24.0625 14.4375 24.1042 14.9792C24.1458 15.5208 24.1667 16.0833 24.1667 16.6667C24.1667 17.25 24.1458 17.8125 24.1042 18.3542C24.0625 18.8958 24 19.4444 23.9167 20ZM23.25 10H28.1667C27.3611 8.61111 26.3542 7.40278 25.1458 6.375C23.9375 5.34722 22.5556 4.58333 21 4.08333C21.5 5 21.9375 5.95139 22.3125 6.9375C22.6875 7.92361 23 8.94444 23.25 10ZM13.5 10H19.8333C19.5 8.77778 19.0694 7.625 18.5417 6.54167C18.0139 5.45833 17.3889 4.41667 16.6667 3.41667C15.9444 4.41667 15.3194 5.45833 14.7917 6.54167C14.2639 7.625 13.8333 8.77778 13.5 10ZM5.16667 10H10.0833C10.3333 8.94444 10.6458 7.92361 11.0208 6.9375C11.3958 5.95139 11.8333 5 12.3333 4.08333C10.7778 4.58333 9.39583 5.34722 8.1875 6.375C6.97917 7.40278 5.97222 8.61111 5.16667 10Z" fill="#00696C"/>
</svg>
