<svg width="82" height="100" viewBox="0 0 82 100" fill="none" xmlns="http://www.w3.org/2000/svg">
<path d="M40.769 98.2445C25.7483 90.1684 1.94922 69.471 1.94922 47.174V16.0987C1.94922 15.9426 2.06626 15.806 2.24183 15.767C4.38765 15.2793 17.9453 12.1582 22.432 10.539C26.9578 8.90041 39.0719 2.63852 40.769 1.76069C40.8861 1.70217 41.0421 1.70217 41.1592 1.76069C42.8563 2.63852 54.9704 8.90041 59.4962 10.539C63.9829 12.1582 77.5405 15.2793 79.6864 15.767C79.8619 15.806 79.979 15.9426 79.979 16.0987V47.174C79.979 69.471 56.1799 90.1684 41.1592 98.2445C41.0421 98.3225 40.8861 98.3225 40.769 98.2445Z" fill="white"/>
<path d="M40.9673 92.3332C27.078 83.9255 7.80469 65.8616 7.80469 47.271V19.8631C13.1107 18.6146 21.1283 16.6443 24.6786 15.3569C28.4436 13.9913 36.3051 10.0703 40.9673 7.69043C45.6296 10.0703 53.4911 13.9913 57.256 15.3569C60.8064 16.6443 68.8044 18.6146 74.13 19.8631V47.2515C74.13 65.8616 54.8566 83.9255 40.9673 92.3332Z" fill="#00696C"/>
<path d="M40.9656 100C40.5365 100 40.1073 99.9025 39.7366 99.6879C30.8022 94.8891 21.2436 87.1836 14.1819 79.0685C4.89637 68.4565 0 57.4153 0 47.1739V16.0985C0 15.1622 0.721775 14.3428 1.75567 14.1088C3.33577 13.7576 17.2641 10.5584 21.6923 8.95879C26.1205 7.33967 38.3906 0.999756 39.7757 0.277981C40.5169 -0.0926603 41.4143 -0.0926603 42.1556 0.277981C43.5406 0.999756 55.8108 7.33967 60.2585 8.95879C64.7062 10.5779 78.615 13.7576 80.1951 14.1088C81.229 14.3428 81.9507 15.1622 81.9507 16.0985V47.1739C81.9507 57.4153 77.0544 68.4565 67.7688 79.0685C60.7071 87.1641 51.1485 94.8891 42.1946 99.6879C41.8044 99.9025 41.3948 100 40.9656 100ZM3.90149 17.1519V47.1739C3.90149 59.1514 11.1778 70.0171 17.2836 77.0007C23.8576 84.5501 32.6554 91.7093 40.9656 96.3326C49.2758 91.7093 58.0736 84.5306 64.6477 77.0007C70.7535 70.0171 78.0297 59.1514 78.0297 47.1739V17.1519C73.8747 16.1961 62.853 13.6016 58.7564 12.119C54.5623 10.5974 44.4379 5.42794 40.9656 3.63326C37.4933 5.42794 27.3689 10.5974 23.1748 12.119C19.0783 13.6016 8.05657 16.1961 3.90149 17.1519Z" fill="#004F51"/>
<path d="M41.3587 26.4961H40.5784C33.6533 26.4961 28.0352 32.1142 28.0352 39.0394V47.1935H53.9215V39.0394C53.902 32.1142 48.2839 26.4961 41.3587 26.4961ZM50.4492 43.7407H31.4685V39.0199C31.4685 34.0065 35.5455 29.9294 40.5589 29.9294H41.3587C46.3721 29.9294 50.4492 34.0065 50.4492 39.0199V43.7407Z" fill="white"/>
<path d="M53.9971 73.5096H27.9352C25.1457 73.5096 22.8633 71.2272 22.8633 68.4377V48.8327C22.8633 46.0431 25.1457 43.7607 27.9352 43.7607H54.0167C56.8062 43.7607 59.0886 46.0431 59.0886 48.8327V68.4377C59.0886 71.2272 56.7867 73.5096 53.9971 73.5096Z" fill="white"/>
<path d="M44.846 54.86C44.846 56.2255 44.1438 57.4154 43.0904 58.0982C42.8368 58.2543 42.7002 58.5274 42.7002 58.82V65.2184C42.7002 65.6866 42.3101 66.0767 41.8419 66.0767H40.1252C39.6571 66.0767 39.2669 65.6866 39.2669 65.2184V58.8395C39.2669 58.5469 39.1109 58.2738 38.8768 58.1177C37.8234 57.4349 37.1211 56.2255 37.1211 54.86C37.1211 52.6751 38.9158 50.9195 41.1201 50.978C43.1489 51.0365 44.846 52.7922 44.846 54.86Z" fill="#00696C"/>
<path d="M9.01172 34.2014V20.9364C9.01172 20.9364 16.2295 19.1807 17.595 18.4004C17.595 18.4004 13.6935 21.1314 11.3526 21.9117L9.01172 34.2014Z" fill="white"/>
<path d="M39.0153 89.1734C39.0153 89.1734 28.0911 81.9946 25.9453 78.4053C25.9453 78.4053 30.8222 82.6774 32.5778 83.3602C34.3335 84.0429 39.0153 89.1734 39.0153 89.1734Z" fill="white"/>
<g opacity="0.2">
<path d="M79.9797 16.0986V47.174C79.9797 69.471 56.1806 90.1684 41.1599 98.2445C41.1014 98.2835 41.0234 98.303 40.9648 98.303V1.70215C41.0429 1.70215 41.1014 1.72166 41.1599 1.74117C42.8571 2.619 54.9712 8.88089 59.4969 10.5195C63.9836 12.1386 77.5413 15.2598 79.6871 15.7475C79.8627 15.806 79.9797 15.9426 79.9797 16.0986Z" fill="#004F51"/>
</g>
</svg>
