<svg width="27" height="27" viewBox="0 0 27 27" fill="none" xmlns="http://www.w3.org/2000/svg">
<path d="M0 26.6667V23.3333H4.58333L3.91667 22.75C2.47222 21.4722 1.45833 20.0139 0.875 18.375C0.291667 16.7361 0 15.0833 0 13.4167C0 10.3333 0.923611 7.59028 2.77083 5.1875C4.61806 2.78472 7.02778 1.19444 10 0.416667V3.91667C8 4.63889 6.38889 5.86806 5.16667 7.60417C3.94444 9.34028 3.33333 11.2778 3.33333 13.4167C3.33333 14.6667 3.56944 15.8819 4.04167 17.0625C4.51389 18.2431 5.25 19.3333 6.25 20.3333L6.66667 20.75V16.6667H10V26.6667H0ZM16.6667 26.25V22.75C18.6667 22.0278 20.2778 20.7986 21.5 19.0625C22.7222 17.3264 23.3333 15.3889 23.3333 13.25C23.3333 12 23.0972 10.7847 22.625 9.60417C22.1528 8.42361 21.4167 7.33333 20.4167 6.33333L20 5.91667V10H16.6667V0H26.6667V3.33333H22.0833L22.75 3.91667C24.1111 5.27778 25.1042 6.75694 25.7292 8.35417C26.3542 9.95139 26.6667 11.5833 26.6667 13.25C26.6667 16.3333 25.7431 19.0764 23.8958 21.4792C22.0486 23.8819 19.6389 25.4722 16.6667 26.25Z" fill="#00696C"/>
</svg>
