<svg width="30" height="36" viewBox="0 0 30 36" fill="none" xmlns="http://www.w3.org/2000/svg">
<path d="M15 35.8333C13 33.9444 10.7083 32.5 8.125 31.5C5.54167 30.5 2.83333 30 0 30V11.6667C2.80556 11.6667 5.5 12.1736 8.08333 13.1875C10.6667 14.2014 12.9722 15.6667 15 17.5833C17.0278 15.6667 19.3333 14.2014 21.9167 13.1875C24.5 12.1736 27.1944 11.6667 30 11.6667V30C27.1389 30 24.4236 30.5 21.8542 31.5C19.2847 32.5 17 33.9444 15 35.8333ZM15 13.3333C13.1667 13.3333 11.5972 12.6806 10.2917 11.375C8.98611 10.0694 8.33333 8.5 8.33333 6.66667C8.33333 4.83333 8.98611 3.26389 10.2917 1.95833C11.5972 0.652778 13.1667 0 15 0C16.8333 0 18.4028 0.652778 19.7083 1.95833C21.0139 3.26389 21.6667 4.83333 21.6667 6.66667C21.6667 8.5 21.0139 10.0694 19.7083 11.375C18.4028 12.6806 16.8333 13.3333 15 13.3333Z" fill="#00696C"/>
</svg>
