<svg width="64" height="64" viewBox="0 0 64 64" fill="none" xmlns="http://www.w3.org/2000/svg">
<rect width="64" height="64" rx="32" fill="#FEF7FF"/>
<mask id="mask0_3225_76525" style="mask-type:alpha" maskUnits="userSpaceOnUse" x="16" y="16" width="32" height="32">
<rect x="16" y="16" width="32" height="32" fill="#D9D9D9"/>
</mask>
<g mask="url(#mask0_3225_76525)">
<path d="M32.0001 45.3334C30.1779 45.3334 28.4556 44.9834 26.8334 44.2834C25.2112 43.5834 23.7945 42.6279 22.5834 41.4167C21.3723 40.2056 20.4167 38.789 19.7167 37.1667C19.0167 35.5445 18.6667 33.8223 18.6667 32.0001C18.6667 30.1556 19.0167 28.4279 19.7167 26.8167C20.4167 25.2056 21.3723 23.7945 22.5834 22.5834C23.7945 21.3723 25.2112 20.4167 26.8334 19.7167C28.4556 19.0167 30.1779 18.6667 32.0001 18.6667C33.8445 18.6667 35.5723 19.0167 37.1834 19.7167C38.7945 20.4167 40.2056 21.3723 41.4167 22.5834C42.6279 23.7945 43.5834 25.2056 44.2834 26.8167C44.9834 28.4279 45.3334 30.1556 45.3334 32.0001C45.3334 33.8223 44.9834 35.5445 44.2834 37.1667C43.5834 38.789 42.6279 40.2056 41.4167 41.4167C40.2056 42.6279 38.7945 43.5834 37.1834 44.2834C35.5723 44.9834 33.8445 45.3334 32.0001 45.3334ZM32.0001 42.6001C32.5779 41.8001 33.0779 40.9667 33.5001 40.1001C33.9223 39.2334 34.2667 38.3112 34.5334 37.3334H29.4667C29.7334 38.3112 30.0779 39.2334 30.5001 40.1001C30.9223 40.9667 31.4223 41.8001 32.0001 42.6001ZM28.5334 42.0667C28.1334 41.3334 27.7834 40.5723 27.4834 39.7834C27.1834 38.9945 26.9334 38.1779 26.7334 37.3334H22.8001C23.4445 38.4445 24.2501 39.4112 25.2167 40.2334C26.1834 41.0556 27.289 41.6667 28.5334 42.0667ZM35.4667 42.0667C36.7112 41.6667 37.8167 41.0556 38.7834 40.2334C39.7501 39.4112 40.5556 38.4445 41.2001 37.3334H37.2667C37.0667 38.1779 36.8167 38.9945 36.5167 39.7834C36.2167 40.5723 35.8667 41.3334 35.4667 42.0667ZM21.6667 34.6667H26.2001C26.1334 34.2223 26.0834 33.7834 26.0501 33.3501C26.0167 32.9167 26.0001 32.4667 26.0001 32.0001C26.0001 31.5334 26.0167 31.0834 26.0501 30.6501C26.0834 30.2167 26.1334 29.7779 26.2001 29.3334H21.6667C21.5556 29.7779 21.4723 30.2167 21.4167 30.6501C21.3612 31.0834 21.3334 31.5334 21.3334 32.0001C21.3334 32.4667 21.3612 32.9167 21.4167 33.3501C21.4723 33.7834 21.5556 34.2223 21.6667 34.6667ZM28.8667 34.6667H35.1334C35.2001 34.2223 35.2501 33.7834 35.2834 33.3501C35.3167 32.9167 35.3334 32.4667 35.3334 32.0001C35.3334 31.5334 35.3167 31.0834 35.2834 30.6501C35.2501 30.2167 35.2001 29.7779 35.1334 29.3334H28.8667C28.8001 29.7779 28.7501 30.2167 28.7167 30.6501C28.6834 31.0834 28.6667 31.5334 28.6667 32.0001C28.6667 32.4667 28.6834 32.9167 28.7167 33.3501C28.7501 33.7834 28.8001 34.2223 28.8667 34.6667ZM37.8001 34.6667H42.3334C42.4445 34.2223 42.5279 33.7834 42.5834 33.3501C42.639 32.9167 42.6667 32.4667 42.6667 32.0001C42.6667 31.5334 42.639 31.0834 42.5834 30.6501C42.5279 30.2167 42.4445 29.7779 42.3334 29.3334H37.8001C37.8667 29.7779 37.9167 30.2167 37.9501 30.6501C37.9834 31.0834 38.0001 31.5334 38.0001 32.0001C38.0001 32.4667 37.9834 32.9167 37.9501 33.3501C37.9167 33.7834 37.8667 34.2223 37.8001 34.6667ZM37.2667 26.6667H41.2001C40.5556 25.5556 39.7501 24.589 38.7834 23.7667C37.8167 22.9445 36.7112 22.3334 35.4667 21.9334C35.8667 22.6667 36.2167 23.4279 36.5167 24.2167C36.8167 25.0056 37.0667 25.8223 37.2667 26.6667ZM29.4667 26.6667H34.5334C34.2667 25.689 33.9223 24.7667 33.5001 23.9001C33.0779 23.0334 32.5779 22.2001 32.0001 21.4001C31.4223 22.2001 30.9223 23.0334 30.5001 23.9001C30.0779 24.7667 29.7334 25.689 29.4667 26.6667ZM22.8001 26.6667H26.7334C26.9334 25.8223 27.1834 25.0056 27.4834 24.2167C27.7834 23.4279 28.1334 22.6667 28.5334 21.9334C27.289 22.3334 26.1834 22.9445 25.2167 23.7667C24.2501 24.589 23.4445 25.5556 22.8001 26.6667Z" fill="#65558F"/>
</g>
</svg>
