<svg width="64" height="64" viewBox="0 0 64 64" fill="none" xmlns="http://www.w3.org/2000/svg">
<rect width="64" height="64" rx="32" fill="#FEF7FF"/>
<mask id="mask0_3225_76513" style="mask-type:alpha" maskUnits="userSpaceOnUse" x="16" y="16" width="32" height="32">
<rect x="16" y="16" width="32" height="32" fill="#D9D9D9"/>
</mask>
<g mask="url(#mask0_3225_76513)">
<path d="M42.6 44C39.8222 44 37.0778 43.3944 34.3667 42.1833C31.6556 40.9722 29.1889 39.2556 26.9667 37.0333C24.7444 34.8111 23.0278 32.3444 21.8167 29.6333C20.6056 26.9222 20 24.1778 20 21.4C20 21 20.1333 20.6667 20.4 20.4C20.6667 20.1333 21 20 21.4 20H26.8C27.1111 20 27.3889 20.1056 27.6333 20.3167C27.8778 20.5278 28.0222 20.7778 28.0667 21.0667L28.9333 25.7333C28.9778 26.0889 28.9667 26.3889 28.9 26.6333C28.8333 26.8778 28.7111 27.0889 28.5333 27.2667L25.3 30.5333C25.7444 31.3556 26.2722 32.15 26.8833 32.9167C27.4944 33.6833 28.1667 34.4222 28.9 35.1333C29.5889 35.8222 30.3111 36.4611 31.0667 37.05C31.8222 37.6389 32.6222 38.1778 33.4667 38.6667L36.6 35.5333C36.8 35.3333 37.0611 35.1833 37.3833 35.0833C37.7056 34.9833 38.0222 34.9556 38.3333 35L42.9333 35.9333C43.2444 36.0222 43.5 36.1833 43.7 36.4167C43.9 36.65 44 36.9111 44 37.2V42.6C44 43 43.8667 43.3333 43.6 43.6C43.3333 43.8667 43 44 42.6 44Z" fill="#65558F"/>
</g>
</svg>
