<svg width="273" height="267" viewBox="0 0 273 267" fill="none" xmlns="http://www.w3.org/2000/svg">
<path d="M185.899 177.179L67.9218 157.283L93.4459 5.93454L211.423 25.8307L185.899 177.179Z" fill="#EADDFF" stroke="#E8DEF8" stroke-width="0.745421"/>
<path d="M99.725 -3.79666e-05L74.0769 152.084L192.789 172.104L218.437 20.0201L99.725 -3.79666e-05Z" fill="white"/>
<path d="M106.973 10.3153L96.114 74.7066L144.628 82.8882L155.487 18.4969L106.973 10.3153Z" fill="#9F80F1"/>
<path d="M112.821 48.9645C112.747 49.2626 112.15 65.5874 112.15 65.5874L131.68 68.1963L136.898 54.257L112.821 48.9645Z" fill="#7A2A04"/>
<path d="M136.451 44.5663C136.451 44.5663 138.464 42.5536 139.582 43.7463C139.582 43.7463 140.253 44.7153 139.359 46.6534C139.209 47.0261 139.06 47.3989 138.911 47.697C138.837 47.9952 138.688 48.2934 138.613 48.5915C138.539 48.8897 138.613 49.2624 138.464 49.486C138.166 50.0824 137.793 50.6787 137.197 50.9769C136.899 51.126 136.675 51.2005 136.377 51.126C136.228 51.126 135.333 50.8278 135.333 50.7532L136.451 44.5663Z" fill="#F6BD91"/>
<path d="M136.302 45.2371C136.302 45.2371 137.868 43.5972 138.837 44.5662C138.837 44.5662 139.359 45.3117 138.688 46.877C138.539 47.1752 138.464 47.4734 138.315 47.7715C138.241 47.9952 138.166 48.2188 138.091 48.4424C138.017 48.666 138.091 48.9642 137.942 49.1878C137.719 49.6351 137.421 50.1569 136.899 50.3805C136.675 50.4551 136.452 50.5296 136.228 50.5296C136.153 50.5296 135.408 50.306 135.408 50.2314L136.302 45.2371Z" fill="#EBB58B"/>
<path d="M114.238 41.063C114.238 41.063 113.045 38.5286 111.554 39.274C111.554 39.274 110.585 39.9449 110.809 42.1066C110.809 42.4793 110.884 42.852 110.884 43.2993C110.884 43.5974 110.884 43.8956 110.884 44.1938C110.884 44.492 110.734 44.7901 110.734 45.1628C110.809 45.8337 110.958 46.5046 111.48 47.0264C111.704 47.25 111.927 47.3991 112.225 47.4736C112.374 47.4736 113.269 47.5482 113.343 47.3991L114.238 41.063Z" fill="#F6BD91"/>
<path d="M114.164 41.7336C114.164 41.7336 113.194 39.721 112.002 40.3173C112.002 40.3173 111.256 40.8391 111.405 42.5536C111.405 42.8517 111.48 43.1499 111.48 43.5226C111.48 43.7462 111.48 44.0444 111.48 44.268C111.48 44.4917 111.331 44.7898 111.331 45.0135C111.405 45.5353 111.555 46.1316 111.927 46.5043C112.076 46.6534 112.3 46.8025 112.524 46.877C112.598 46.877 113.418 46.9516 113.418 46.8025L114.164 41.7336Z" fill="#EBB58B"/>
<path d="M117.145 57.2383C117.145 57.2383 117.518 62.7544 114.462 64.7671L129.295 67.3015C129.295 67.3015 126.91 62.6053 129.295 58.7292L117.145 57.2383Z" fill="#F6BD91"/>
<path d="M116.698 61.1145C117.145 61.6363 117.741 62.009 118.338 62.3817C129.817 69.165 119.307 63.9471 123.034 63.6489C124.599 63.4998 126.314 62.829 127.432 61.6363C127.954 61.04 128.326 60.4436 128.774 59.7727C128.923 59.4 129.072 59.0273 129.295 58.6546L117.145 57.2383C117.145 57.2383 117.22 59.1764 116.698 61.1145Z" fill="#E3B087"/>
<path d="M138.165 41.8828C139.656 32.9377 135.258 24.7381 128.4 23.62C121.468 22.4273 114.685 28.7634 113.194 37.7084C112.448 42.0319 111.628 45.6099 113.119 49.7843C114.461 53.5114 116.325 56.4931 119.232 59.5493C119.232 59.5493 122.064 62.6055 125.866 61.0401C129.444 58.8039 133.767 55.8967 135.855 51.946C137.42 48.9643 137.569 45.2372 138.165 41.8828Z" fill="#F6BD91"/>
<path d="M140.477 71.6996L128.848 66.1089L122.586 64.6181H122.437H122.288L115.878 64.0217L103.056 65.5126C103.056 65.5126 96.1986 67.0034 96.124 74.8303L120.499 78.9301L120.052 78.8556L144.427 82.9554C146.44 75.3521 140.477 71.6996 140.477 71.6996Z" fill="#F6BD91"/>
<path d="M113.375 70.9292L112.271 77.4712L127.119 79.9753L128.223 73.4332L113.375 70.9292Z" fill="#9F80F1"/>
<path d="M119.679 78.7065C109.243 72.1468 114.909 64.0217 114.909 64.0217L103.131 65.3635C103.131 65.3635 96.273 66.8543 96.1985 74.6813L120.574 78.7811L120.126 78.7065L144.502 82.8063C146.365 75.2776 140.327 71.625 140.327 71.625L129.221 66.258C129.295 66.3325 130.264 76.023 119.679 78.7065Z" fill="white"/>
<path d="M116.622 61.562C116.622 61.562 115.951 63.5001 115.28 64.0219C115.28 64.0219 112.15 70.4325 119.678 78.7067C119.678 78.7067 102.906 70.6562 112.224 63.4256C112.224 63.4256 116.548 60.593 116.622 61.562Z" fill="#DEDEDE"/>
<path d="M119.679 78.7065C118.859 78.3338 118.113 77.9611 117.293 77.5139C116.548 77.0666 115.803 76.6194 115.057 76.0976C113.566 75.1285 112.225 74.0104 111.032 72.5941C110.734 72.2214 110.51 71.9232 110.212 71.5505C109.988 71.1778 109.765 70.8051 109.541 70.3578C109.168 69.5379 109.019 68.5688 109.094 67.6743C109.168 67.2271 109.243 66.7798 109.467 66.3325C109.541 66.1089 109.616 65.8853 109.765 65.7362C109.914 65.5126 109.988 65.3635 110.137 65.1399L110.585 64.6181L111.032 64.1708C111.33 63.8727 111.703 63.5745 112.076 63.2763C112.821 62.8291 113.492 62.3818 114.237 62.0091C114.61 61.7855 114.983 61.6364 115.355 61.4873C115.579 61.4128 115.728 61.3382 115.952 61.3382C116.026 61.3382 116.175 61.3382 116.25 61.3382C116.324 61.3382 116.473 61.4128 116.473 61.5618C116.473 61.4128 116.399 61.4128 116.25 61.4128C116.175 61.4128 116.026 61.4128 115.952 61.4873C115.728 61.5619 115.579 61.6364 115.355 61.7109C114.983 61.86 114.61 62.0836 114.237 62.3073C113.492 62.7545 112.821 63.2018 112.15 63.649C111.852 63.9472 111.479 64.1708 111.181 64.5435L110.734 64.9908L110.361 65.5126C110.212 65.6617 110.137 65.8853 110.063 66.0344C109.988 66.1835 109.839 66.4071 109.765 66.6307C109.616 67.0034 109.541 67.4507 109.467 67.8234C109.392 68.6433 109.541 69.4633 109.914 70.2833C110.063 70.656 110.287 71.0287 110.51 71.4014C110.734 71.7741 110.957 72.0723 111.256 72.445C111.777 73.1159 112.448 73.7122 113.045 74.3085C113.715 74.9049 114.386 75.4267 115.057 75.9485C116.697 76.9175 118.188 77.812 119.679 78.7065Z" fill="#C2C2C2"/>
<path d="M128.326 63.5C128.326 63.5 128.326 65.5872 128.773 66.2581C128.773 66.2581 129.593 73.3396 119.828 78.7066C119.828 78.7066 138.389 76.5449 131.904 66.7799C131.829 66.7799 128.699 62.6055 128.326 63.5Z" fill="#DEDEDE"/>
<path d="M119.828 78.7067C121.543 78.4085 123.257 77.9613 124.897 77.4395C125.717 77.1413 126.537 76.8431 127.357 76.545C128.177 76.2468 128.922 75.7995 129.668 75.3523C130.04 75.1287 130.413 74.905 130.711 74.6069C131.009 74.3087 131.382 74.0851 131.606 73.7124C132.202 73.116 132.649 72.3706 132.798 71.5506C132.873 71.1779 132.948 70.7307 132.948 70.2834C132.948 70.0598 132.948 69.8362 132.873 69.6871C132.798 69.4635 132.798 69.2398 132.724 69.0908L132.5 68.4944L132.277 67.8981C132.128 67.5254 131.829 67.1527 131.68 66.78C131.159 66.1091 130.637 65.4382 130.115 64.8419C129.817 64.5437 129.593 64.2455 129.295 63.9474C129.146 63.7983 128.997 63.6492 128.848 63.5746C128.773 63.5001 128.699 63.4256 128.55 63.4256C128.475 63.4256 128.326 63.4256 128.326 63.5001C128.326 63.4256 128.475 63.351 128.624 63.351C128.699 63.351 128.848 63.4256 128.922 63.5001C129.071 63.5746 129.295 63.7237 129.444 63.8728C129.742 64.171 130.04 64.4691 130.339 64.7673C130.935 65.3636 131.457 66.0345 131.978 66.6309C132.202 67.0036 132.5 67.3763 132.649 67.749L132.948 68.3453L133.171 69.0162C133.246 69.2398 133.246 69.4635 133.32 69.6871C133.395 69.9107 133.395 70.1343 133.395 70.358C133.469 70.8052 133.395 71.2525 133.246 71.6997C133.022 72.5942 132.575 73.4142 131.978 74.0851C131.68 74.3832 131.308 74.6814 131.009 74.9796C130.637 75.2778 130.264 75.5014 129.891 75.725C128.326 76.6195 126.686 77.2904 124.972 77.7376C124.152 77.9613 123.257 78.1849 122.363 78.334C121.543 78.4831 120.648 78.6321 119.828 78.7067Z" fill="#C2C2C2"/>
<path d="M140.178 38.7522C140.476 34.5778 139.657 26.7509 129.742 23.322C129.072 23.0238 128.55 22.9492 128.55 22.9492C116.623 22.3529 113.045 32.4161 112.001 36.9632C107.156 49.5608 108.423 60.2948 108.423 60.2948C107.976 65.2892 116.921 67.1527 116.921 67.1527C109.392 60.2203 117.07 39.6467 117.965 37.3359C122.437 35.3978 126.313 32.4161 128.401 30.6271C128.475 30.7016 128.475 30.7762 128.475 30.7762C128.475 30.7762 129.593 38.3049 134.289 40.8393C134.289 40.8393 135.408 65.2891 125.494 69.6126C125.494 69.6126 134.513 70.7307 135.78 65.8855C135.631 65.96 140.924 52.7661 140.178 38.7522Z" fill="#CA4416"/>
<path d="M140.178 38.7522C140.476 34.5778 139.657 26.7509 129.742 23.322C129.072 23.0238 128.55 22.9492 128.55 22.9492C116.623 22.3529 113.045 32.4161 112.001 36.9632C107.156 49.5608 108.423 60.2948 108.423 60.2948C108.2 63.202 111.107 65.0655 113.567 66.1091C112.672 65.7364 111.778 63.0529 111.48 62.2329C110.287 58.8785 110.734 55.226 111.405 51.797C112.672 45.3864 113.79 38.5285 117.443 33.0124C119.456 29.9562 123.854 26.2291 127.73 26.2291C127.804 26.2291 127.879 26.2291 127.953 26.2291C128.028 26.2291 128.028 26.2291 128.103 26.2291C128.177 26.2291 128.177 26.2291 128.252 26.2291C128.326 26.2291 128.326 26.2291 128.401 26.2291C128.475 26.2291 128.475 26.2291 128.55 26.2291C128.624 26.2291 128.773 26.3036 128.848 26.3036C128.922 26.3036 128.997 26.3782 129.072 26.4527C129.072 26.4527 129.146 26.4527 129.146 26.5273C129.221 26.5273 129.295 26.6018 129.295 26.6764L129.37 26.7509C129.444 26.8254 129.444 26.8254 129.519 26.9L129.593 26.9745C129.668 27.0491 129.668 27.0491 129.742 27.1236L129.817 27.1981C129.892 27.2727 129.892 27.3472 129.966 27.4218L130.041 27.4963C130.115 27.5709 130.19 27.6454 130.19 27.7199C130.19 27.7199 130.19 27.7945 130.264 27.7945C130.339 27.869 130.413 27.9436 130.413 28.0926C130.488 28.1672 130.562 28.3163 130.637 28.3908C131.084 29.1362 131.382 29.9562 131.606 30.478C132.277 32.267 132.65 34.1306 133.619 35.845C134.066 36.665 134.737 37.4104 135.557 37.9322C136.451 38.5285 137.644 38.6776 138.538 39.3485C138.613 39.4231 138.687 39.4976 138.762 39.5721C138.837 39.6467 138.911 39.7212 138.911 39.7958C138.986 39.8703 138.986 39.9448 139.06 40.0194C139.06 40.0194 139.06 40.0194 139.06 40.0939C139.135 40.1685 139.135 40.3176 139.209 40.3921C139.209 40.4666 139.284 40.5412 139.284 40.6903C139.284 40.7648 139.284 40.8394 139.284 40.8394C139.284 40.9139 139.284 40.9139 139.284 40.9884C139.284 41.063 139.284 41.1375 139.284 41.2121C139.284 41.2121 139.284 41.2121 139.284 41.2866C139.284 41.3611 139.284 41.5102 139.209 41.5848C139.135 42.032 138.911 42.5538 138.762 42.852C136.228 50.1571 137.569 58.2822 133.32 65.0655C132.351 66.5564 130.935 67.9727 129.295 68.7926C128.475 69.2399 127.581 69.5381 126.686 69.7617C129.295 69.8362 134.662 69.6126 135.557 65.96C135.631 65.96 140.924 52.7661 140.178 38.7522Z" fill="#DADADA"/>
<path d="M137.197 20.4895L130.339 19.3713L129.817 19.2968L122.959 18.1786L117.07 23.173L119.083 30.9999C119.083 30.9999 121.319 28.4655 128.102 29.5836C128.177 29.5836 128.251 29.5836 128.326 29.6581C128.401 29.6581 128.475 29.6581 128.55 29.7327C135.258 30.9253 136.526 34.0561 136.526 34.0561L140.998 27.3473L137.197 20.4895Z" fill="white"/>
<path d="M137.197 20.4895L130.339 19.3713L129.817 19.2968L122.959 18.1786L117.07 23.173L119.083 30.9999C119.083 30.9999 121.319 28.4655 128.102 29.5836C128.177 29.5836 128.251 29.5836 128.326 29.6581C128.401 29.6581 128.475 29.6581 128.55 29.7327C135.258 30.9253 136.526 34.0561 136.526 34.0561L140.998 27.3473L137.197 20.4895Z" fill="white"/>
<path d="M136.451 21.4583L129.668 20.3401L129.22 20.2656L123.406 19.2965L118.337 23.62L119.903 29.2852C119.903 29.2852 122.512 27.7198 128.251 28.6143C128.326 28.6143 128.4 28.6143 128.475 28.6143C128.55 28.6143 128.624 28.6143 128.699 28.6888C134.438 29.6579 136.078 31.7451 136.078 31.7451L139.731 26.9744L136.451 21.4583Z" fill="#EADDFF" stroke="#E8DEF8" stroke-width="0.495556" stroke-miterlimit="10"/>
<path d="M133.022 25.1109C132.649 27.1981 130.636 28.6144 128.549 28.3162C126.462 27.9435 125.046 25.9309 125.344 23.8437C125.717 21.7565 127.729 20.3402 129.816 20.6384C131.978 21.0111 133.394 23.0237 133.022 25.1109Z" fill="#9F80F1"/>
<path d="M128.997 25.6328C127.729 24.4401 127.208 22.2784 127.953 20.7876C126.611 21.2348 125.568 22.353 125.344 23.8438C124.971 25.931 126.388 27.9436 128.549 28.3163C130.04 28.5399 131.457 27.9436 132.277 26.8255C131.158 26.8255 129.742 26.3782 128.997 25.6328Z" fill="#DADADA"/>
<path d="M131.457 23.6945L129.966 23.4709L130.189 21.9055L129.146 21.6819L128.848 23.2472L127.357 23.0236L127.208 24.1417L128.699 24.3654L128.251 27.0489L129.295 27.198L129.742 24.5145L131.233 24.8126L131.457 23.6945Z" fill="white"/>
<path d="M129.444 21.3093C128.251 22.3529 129.071 24.5892 130.488 25.111C131.158 25.3346 131.755 25.3346 132.202 25.2601C132.277 25.111 132.277 24.9619 132.351 24.7383C132.649 23.1729 131.531 21.6075 129.966 21.3839C129.817 21.3093 129.668 21.3093 129.444 21.3093Z" fill="white"/>
<path d="M208.018 31.3102L160.827 23.3517L161.41 19.897L208.601 27.8554L208.018 31.3102Z" fill="#EADDFF" stroke="#E8DEF8" stroke-width="0.745421"/>
<path d="M206.555 40.0386L159.364 32.0801L159.947 28.6253L207.138 36.5838L206.555 40.0386Z" fill="#EADDFF" stroke="#E8DEF8" stroke-width="0.745421"/>
<path d="M205.026 48.7587L157.835 40.8002L158.418 37.3455L205.608 45.3039L205.026 48.7587Z" fill="#EADDFF" stroke="#E8DEF8" stroke-width="0.745421"/>
<path d="M203.584 57.4192L156.393 49.4607L156.976 46.006L204.167 53.9644L203.584 57.4192Z" fill="#EADDFF" stroke="#E8DEF8" stroke-width="0.745421"/>
<path d="M202.126 66.1514L154.935 58.193L155.518 54.7382L202.708 62.6966L202.126 66.1514Z" fill="#EADDFF" stroke="#E8DEF8" stroke-width="0.745421"/>
<path d="M200.669 74.8848L153.478 66.9264L154.061 63.4716L201.251 71.43L200.669 74.8848Z" fill="#EADDFF" stroke="#E8DEF8" stroke-width="0.745421"/>
<path d="M199.207 83.6129L152.016 75.6544L152.599 72.1997L199.79 80.1581L199.207 83.6129Z" fill="#EADDFF" stroke="#E8DEF8" stroke-width="0.745421"/>
<path d="M197.691 92.2631L150.5 84.3047L151.083 80.8499L198.274 88.8083L197.691 92.2631Z" fill="#EADDFF" stroke="#E8DEF8" stroke-width="0.745421"/>
<path d="M196.312 100.919L95.2412 83.8744L95.8238 80.4196L196.894 97.4646L196.312 100.919Z" fill="#EADDFF" stroke="#E8DEF8" stroke-width="0.745421"/>
<path d="M194.854 109.65L93.7835 92.6055L94.3661 89.1507L195.437 106.196L194.854 109.65Z" fill="#EADDFF" stroke="#E8DEF8" stroke-width="0.745421"/>
<path d="M193.335 118.296L92.2639 101.251L92.8465 97.7962L193.917 114.841L193.335 118.296Z" fill="#EADDFF" stroke="#E8DEF8" stroke-width="0.745421"/>
<path d="M191.878 127.028L90.8068 109.983L91.3895 106.529L192.46 123.574L191.878 127.028Z" fill="#EADDFF" stroke="#E8DEF8" stroke-width="0.745421"/>
<path d="M190.418 135.759L89.3474 118.714L89.93 115.259L191.001 132.304L190.418 135.759Z" fill="#EADDFF" stroke="#E8DEF8" stroke-width="0.745421"/>
<path d="M188.972 144.415L87.9009 127.37L88.4836 123.915L189.554 140.96L188.972 144.415Z" fill="#EADDFF" stroke="#E8DEF8" stroke-width="0.745421"/>
<path d="M187.517 153.151L86.4462 136.106L87.0289 132.652L188.1 149.697L187.517 153.151Z" fill="#EADDFF" stroke="#E8DEF8" stroke-width="0.745421"/>
<path d="M185.986 161.873L84.9154 144.828L85.498 141.373L186.569 158.418L185.986 161.873Z" fill="#EADDFF" stroke="#E8DEF8" stroke-width="0.745421"/>
<path d="M173.391 212.018L77.5831 140.365L169.504 17.4569L265.311 89.1093L173.391 212.018Z" fill="#EADDFF" stroke="#E8DEF8" stroke-width="0.745421"/>
<path d="M176.595 15.8501L84.2281 139.356L180.633 211.454L273 87.949L176.595 15.8501Z" fill="white"/>
<path d="M178.321 28.3411L139.213 80.6324L178.611 110.097L217.718 57.8056L178.321 28.3411Z" fill="#65558F"/>
<path d="M188.705 72.7433C188.705 72.7433 191.388 71.8488 191.835 73.4888C191.835 73.4888 191.984 74.6069 190.344 75.9486C190.046 76.1723 189.748 76.4704 189.45 76.6941C189.226 76.9177 189.003 77.1413 188.854 77.365C188.63 77.5886 188.555 77.8867 188.257 78.1104C187.735 78.4831 187.065 78.8558 186.394 78.8558C186.096 78.8558 185.797 78.7812 185.574 78.6322C185.499 78.5576 184.754 77.8867 184.828 77.8122L188.705 72.7433Z" fill="#F6BD91"/>
<path d="M188.257 73.265C188.257 73.265 190.419 72.5941 190.791 73.8614C190.791 73.8614 190.94 74.7559 189.599 75.874C189.375 76.0976 189.151 76.2467 188.853 76.4703C188.704 76.6194 188.481 76.843 188.331 76.9921C188.182 77.2158 188.033 77.4394 187.884 77.5885C187.437 77.8866 186.915 78.1848 186.393 78.1848C186.17 78.1848 185.946 78.1103 185.723 77.9612C185.648 77.8866 185.052 77.3648 185.126 77.2903L188.257 73.265Z" fill="#EBB58B"/>
<path d="M171.709 59.9967C171.709 59.9967 171.784 57.1641 170.144 57.1641C170.144 57.1641 169.026 57.3132 168.206 59.3258C168.057 59.6986 167.908 59.9967 167.759 60.3694C167.609 60.6676 167.46 60.8912 167.311 61.1894C167.162 61.413 166.864 61.6367 166.789 61.9348C166.566 62.5312 166.417 63.2766 166.64 63.8729C166.715 64.1711 166.864 64.3947 167.088 64.6183C167.162 64.6929 167.982 65.2147 168.057 65.0656L171.709 59.9967Z" fill="#F6BD91"/>
<path d="M171.262 60.593C171.262 60.593 171.336 58.3567 169.995 58.2822C169.995 58.2822 169.1 58.4313 168.429 59.9967C168.28 60.2948 168.206 60.593 168.057 60.8166C167.982 61.0403 167.833 61.2639 167.684 61.4875C167.535 61.7111 167.311 61.8602 167.237 62.0838C167.013 62.6056 166.938 63.1274 167.088 63.6492C167.162 63.8729 167.311 64.0965 167.46 64.2456C167.535 64.3201 168.206 64.6928 168.28 64.6183L171.262 60.593Z" fill="#EBB58B"/>
<path d="M166.491 75.2777C166.491 75.2777 164.255 80.3466 160.677 80.7193L172.753 89.7389C172.753 89.7389 172.753 84.4464 176.629 82.1356L166.491 75.2777Z" fill="#F6BD91"/>
<path d="M164.404 78.4831C164.553 79.1539 164.851 79.7503 165.298 80.3466C166.193 81.7629 167.311 82.9556 168.876 83.6265C170.367 84.2228 172.156 84.4464 173.647 83.8501C174.392 83.6265 174.989 83.1792 175.66 82.8065C175.958 82.5083 176.256 82.2847 176.629 82.0611L166.491 75.2777C166.491 75.2777 165.746 76.9922 164.404 78.4831Z" fill="#E3B087"/>
<path d="M192.134 70.8799C198.693 63.873 197.65 54.8534 191.761 50.3808C185.798 45.9083 177.598 47.5482 172.231 56.4187C169.995 60.1458 164.851 66.1092 165.597 71.2526C166.118 74.9797 165.82 73.4889 167.237 77.6632C167.237 77.6632 168.504 81.8376 172.753 82.2848C176.405 82.2848 179.76 83.5521 183.487 80.7195C186.245 78.7814 189.823 73.3398 192.134 70.8799Z" fill="#F6BD91"/>
<path d="M180.281 98.4605L172.529 88.1737L167.684 83.9994L167.609 83.9248L167.535 83.8503L162.168 80.3468L150.092 75.7997C150.092 75.7997 143.309 74.0107 139.134 80.4959L158.888 95.2552L159.111 95.4043L178.865 110.164C183.934 104.498 180.281 98.4605 180.281 98.4605Z" fill="#F6BD91"/>
<path d="M182.444 51.5735C182.444 51.5735 175.437 52.3189 171.039 58.2823C171.039 58.2823 174.989 45.2374 185.425 45.6846C185.425 45.6846 182.145 50.7535 182.444 51.5735Z" fill="#432918"/>
<path d="M175.809 53.9588C175.809 53.9588 170.293 60.593 168.355 65.6619L167.46 64.0219L171.709 57.2386C171.635 57.2386 174.318 53.8097 175.809 53.9588Z" fill="#432918"/>
<path d="M194.221 65.5125C194.221 65.5125 188.555 74.234 184.232 77.5138L186.096 77.9611L191.388 71.9977C191.388 71.9232 194.742 66.8543 194.221 65.5125Z" fill="#432918"/>
<path d="M172.827 88.3972L180.281 98.4604C180.281 98.4604 183.934 104.498 178.865 110.313L159.111 95.5533L158.888 95.4042L139.134 80.6449C143.309 74.1597 150.092 75.9487 150.092 75.9487L162.168 80.4958L165.671 86.6828L172.827 88.3972Z" fill="#9F80F1"/>
<path d="M182.816 50.2316C182.816 50.2316 179.462 53.4369 192.358 61.0402C192.358 61.0402 194.743 63.9473 193.699 66.7799L190.419 72.6688C190.419 72.6688 200.184 67.3763 200.408 57.8349C200.408 57.8349 199.886 53.8096 194.445 49.0389C194.445 49.0389 189.227 43.9701 182.593 46.0572L182.816 50.2316Z" fill="#432918"/>
<path d="M163.137 84.7447L168.057 88.4718L163.062 92.1244L160.975 90.559L163.137 84.7447Z" fill="#E6332A"/>
<path d="M161.423 97.2677L163.435 91.6025L161.348 90.0371L156.801 93.7642L161.423 97.2677Z" fill="#B02B1E"/>
<path d="M175.213 91.3044L180.356 98.4604C180.356 98.4604 184.009 104.498 178.94 110.313L159.186 95.5533L158.963 95.4042L139.209 80.6449C143.383 74.1597 150.167 75.9487 150.167 75.9487L158.292 79.0795L154.863 92.4225L159.186 95.6278L163.286 98.684L175.213 91.3044Z" fill="white"/>
<path d="M162.689 80.272L165.596 86.6081L157.173 87.7262L158.217 79.0048L162.689 80.272Z" fill="#B2B2B2"/>
<path d="M163.211 79.6012L165.596 86.6081L157.695 86.9808L158.216 79.0048L163.211 79.6012Z" fill="#9F80F1"/>
<path d="M172.454 87.6518L165.597 86.6082L166.938 95.0315L174.989 91.528L172.454 87.6518Z" fill="#B2B2B2"/>
<path d="M173.051 86.9064L165.597 86.6082L167.46 94.2861L174.989 91.528L173.051 86.9064Z" fill="#9F80F1"/>
<path d="M158.217 79.005L154.788 92.2735L152.701 90.7081L152.478 76.7687L158.217 79.005Z" fill="#CECECE"/>
<path d="M175.213 91.3043L163.212 98.6094L165.299 100.175L178.716 96.4477L175.213 91.3043Z" fill="#CECECE"/>
<path d="M258.565 93.2506L220.242 64.5897L222.34 61.7841L260.663 90.4451L258.565 93.2506Z" fill="#EADDFF" stroke="#E8DEF8" stroke-width="0.745421"/>
<path d="M253.281 100.327L214.958 71.6663L217.056 68.8607L255.379 97.5217L253.281 100.327Z" fill="#EADDFF" stroke="#E8DEF8" stroke-width="0.745421"/>
<path d="M248.002 107.414L209.679 78.7532L211.777 75.9476L250.1 104.609L248.002 107.414Z" fill="#EADDFF" stroke="#E8DEF8" stroke-width="0.745421"/>
<path d="M242.722 114.498L204.399 85.8369L206.497 83.0313L244.82 111.692L242.722 114.498Z" fill="#EADDFF" stroke="#E8DEF8" stroke-width="0.745421"/>
<path d="M237.437 121.575L199.113 92.9138L201.212 90.1082L239.535 118.769L237.437 121.575Z" fill="#EADDFF" stroke="#E8DEF8" stroke-width="0.745421"/>
<path d="M232.094 128.614L193.771 99.9527L195.869 97.1471L234.193 125.808L232.094 128.614Z" fill="#EADDFF" stroke="#E8DEF8" stroke-width="0.745421"/>
<path d="M226.812 135.693L188.489 107.032L190.587 104.227L228.91 132.888L226.812 135.693Z" fill="#EADDFF" stroke="#E8DEF8" stroke-width="0.745421"/>
<path d="M221.528 142.77L183.205 114.109L185.304 111.303L223.627 139.964L221.528 142.77Z" fill="#EADDFF" stroke="#E8DEF8" stroke-width="0.745421"/>
<path d="M216.333 149.754L134.255 88.3694L136.353 85.5638L218.431 146.948L216.333 149.754Z" fill="#EADDFF" stroke="#E8DEF8" stroke-width="0.745421"/>
<path d="M211.051 156.838L128.973 95.4534L131.071 92.6478L213.15 154.032L211.051 156.838Z" fill="#EADDFF" stroke="#E8DEF8" stroke-width="0.745421"/>
<path d="M205.768 163.912L123.689 102.528L125.788 99.7223L207.866 161.107L205.768 163.912Z" fill="#EADDFF" stroke="#E8DEF8" stroke-width="0.745421"/>
<path d="M200.485 170.993L118.407 109.608L120.505 106.802L202.583 168.187L200.485 170.993Z" fill="#EADDFF" stroke="#E8DEF8" stroke-width="0.745421"/>
<path d="M195.202 178.071L113.123 116.686L115.221 113.881L197.3 175.265L195.202 178.071Z" fill="#EADDFF" stroke="#E8DEF8" stroke-width="0.745421"/>
<path d="M189.919 185.153L107.841 123.768L109.939 120.963L192.017 182.347L189.919 185.153Z" fill="#EADDFF" stroke="#E8DEF8" stroke-width="0.745421"/>
<path d="M184.636 192.234L102.558 130.85L104.656 128.044L186.734 189.429L184.636 192.234Z" fill="#EADDFF" stroke="#E8DEF8" stroke-width="0.745421"/>
<path d="M179.295 199.265L97.2163 137.881L99.3145 135.075L181.393 196.46L179.295 199.265Z" fill="#EADDFF" stroke="#E8DEF8" stroke-width="0.745421"/>
<path d="M164.255 214.895C164.777 217.653 163.063 220.337 160.305 220.859L78.2338 237.556C75.4758 238.078 72.7923 236.363 72.2705 233.605L42.23 85.7138C41.7082 82.9558 43.4227 80.2722 46.1807 79.7504L128.252 63.053C131.01 62.5312 133.693 64.2457 134.215 67.0037L164.255 214.895Z" fill="#65558F"/>
<path d="M160.305 213.703C160.827 216.461 159.112 219.144 156.354 219.666L74.2834 236.363C71.5253 236.885 68.8418 235.171 68.32 232.413L38.205 84.5211C37.6832 81.763 39.3977 79.0795 42.1557 78.5577L124.227 61.8603C126.985 61.3385 129.668 63.053 130.19 65.811L160.305 213.703Z" fill="#15004A"/>
<path d="M125.448 73.9999L45.8302 90.2014L72.0349 218.978L151.653 202.776L125.448 73.9999Z" fill="#65558F"/>
<path d="M45.8083 90.1863L71.9726 218.921L151.584 202.745L45.8083 90.1863Z" fill="#65558F"/>
<path d="M95.9003 73.0414C96.124 74.0104 95.4531 74.9049 94.5586 75.1286L74.7304 79.1538C73.7613 79.3775 72.8668 78.7066 72.6432 77.8121C72.4196 76.843 73.0905 75.9485 73.985 75.7994L93.8132 71.7742C94.7822 71.5506 95.6767 72.1469 95.9003 73.0414Z" fill="white"/>
<path d="M126.016 216.46C126.314 218.026 125.345 219.517 123.78 219.815L104.25 223.766C102.684 224.064 101.193 223.095 100.895 221.529C100.597 219.964 101.566 218.473 103.131 218.175L122.661 214.224C124.227 213.926 125.718 214.895 126.016 216.46Z" fill="white"/>
<path d="M91.8009 223.393C92.2482 225.555 90.8319 227.642 88.7447 228.014C86.583 228.462 84.4958 227.045 84.1231 224.958C83.6758 222.797 85.0921 220.709 87.1793 220.262C89.2665 219.889 91.3537 221.306 91.8009 223.393Z" fill="white"/>
<path d="M142.862 213.032C143.31 215.193 141.893 217.281 139.806 217.653C137.644 218.101 135.557 216.684 135.11 214.597C134.663 212.435 136.079 210.348 138.166 209.901C140.402 209.528 142.49 210.87 142.862 213.032Z" fill="white"/>
<path d="M67.0525 116.872C51.6968 113.816 45.9571 127.308 44.9135 130.066C43.9444 127.308 38.2047 113.816 22.7745 116.872C12.1895 118.96 8.38784 130.365 10.6241 139.906C11.3695 143.186 12.5622 146.764 14.1276 149.746C14.1276 149.746 25.9798 172.108 44.8389 181.799C63.7726 172.108 75.6248 149.746 75.6248 149.746C77.1902 146.764 78.3829 143.186 79.1283 139.906C81.4391 130.365 77.6374 118.96 67.0525 116.872Z" fill="#D42A26"/>
<path d="M71.1521 118.289C73.0902 121.643 74.2083 125.221 74.4319 129.097C75.1028 140.055 71.3012 153.324 61.5362 159.511C54.6783 163.983 46.0314 164.207 39.0244 159.883C35.3719 157.647 30.6012 153.771 28.4395 150.044C25.8305 145.571 22.7743 137.968 23.147 132.75C23.4451 128.427 25.905 121.718 29.4085 118.885C30.303 118.14 31.2721 117.543 32.3156 117.096C29.6321 116.276 26.5014 116.053 22.8488 116.798C12.2638 118.885 8.46218 130.29 10.6984 139.831C11.4439 143.111 12.6365 146.689 14.2019 149.671C14.2019 149.671 26.0541 172.034 44.9133 181.724C63.847 172.034 75.6992 149.671 75.6992 149.671C77.2645 146.689 78.4572 143.111 79.2026 139.831C81.1407 131.706 78.6063 122.165 71.1521 118.289Z" fill="#D42A26"/>
<path d="M0.412231 142.515H35.8943L39.5468 157.2L44.9139 132.675L49.4609 167.412L57.8097 141.769H99.5532" stroke="white" stroke-width="3.41641" stroke-miterlimit="10"/>
<path d="M208.98 262.304C208.98 264.913 197.128 267 182.518 267C167.908 267 156.055 264.913 156.055 262.304C156.055 259.695 167.908 257.608 182.518 257.608C197.128 257.608 208.98 259.695 208.98 262.304Z" fill="#9980DA"/>
<path d="M183.86 263.198C182.891 263.198 182.145 263.124 181.773 263.124C175.064 263.273 169.771 261.409 166.044 257.682C160.453 252.092 160.453 244.19 160.453 243.519V201.03H165.075V243.594C165.075 243.668 165.001 250.153 169.324 254.477C172.157 257.309 176.406 258.651 181.847 258.577H181.996H182.145C182.22 258.577 189.003 259.397 193.476 255.52C196.159 253.21 197.575 249.557 197.65 244.712V202.372C197.65 201.627 197.426 196.558 199.141 191.265C201.675 183.438 207.117 178.966 214.72 178.22C215.093 178.146 224.262 177.326 230.896 183.14C234.996 186.718 237.157 191.862 237.381 198.57V198.645V218.249H232.759V198.645C232.61 193.278 230.896 189.253 227.84 186.569C222.696 182.097 215.242 182.767 215.167 182.767C201.303 184.035 202.197 201.328 202.272 202.074V202.223V244.637C202.197 250.899 200.184 255.67 196.457 258.875C192.283 262.602 186.916 263.198 183.86 263.198Z" fill="#482D8F"/>
<path d="M203.464 193.204C201.973 197.602 202.197 202.074 202.197 202.372V202.521V242.625C202.123 248.514 200.259 253.061 196.681 256.117C192.656 259.546 187.512 260.142 184.68 260.142C183.711 260.142 183.04 260.068 182.742 260.068C176.405 260.217 171.411 258.428 167.833 254.925C162.541 249.632 162.541 242.178 162.541 241.507V201.329H165.075V201.031H160.453V243.52C160.453 244.19 160.453 252.092 166.044 257.683C169.771 261.41 175.064 263.273 181.773 263.124C182.145 263.124 182.816 263.199 183.86 263.199C186.841 263.199 192.283 262.602 196.532 258.95C200.259 255.744 202.272 250.974 202.346 244.712V202.298V202.149C202.346 201.776 202.123 197.602 203.464 193.204Z" fill="#A895D8"/>
<path d="M237.456 198.571C237.232 191.862 235.07 186.644 230.97 183.141C224.336 177.326 215.167 178.221 214.795 178.221C207.117 178.892 201.75 183.439 199.215 191.266C197.501 196.558 197.65 201.627 197.725 202.372V243.967C197.725 243.52 197.799 243.072 197.799 242.625V202.596C197.799 201.925 197.575 197.08 199.215 192.086C201.601 184.706 206.744 180.457 213.975 179.786C214.347 179.786 222.994 178.966 229.256 184.408C233.132 187.762 235.145 192.682 235.368 199.018V199.093V217.653H232.834V218.25H237.456V198.645V198.571Z" fill="#A895D8"/>
<path d="M136.451 158.243C136.451 157.945 135.855 151.758 137.42 144.9C139.582 135.582 144.725 129.619 152.403 127.755L153.148 130.737C137.495 134.539 139.507 157.647 139.507 157.87L136.451 158.243Z" fill="#9980DA"/>
<path d="M139.209 145.496C141.222 136.775 145.843 131.035 152.627 128.799L152.403 127.755C144.8 129.619 139.582 135.508 137.42 144.9C135.855 151.758 136.377 157.945 136.451 158.243L138.166 158.094C138.016 156.156 137.867 151.087 139.209 145.496Z" fill="#885AFF"/>
<path d="M159.708 129.246C159.932 130.141 159.336 131.035 158.441 131.259L151.136 132.899C150.241 133.122 149.347 132.526 149.123 131.632L148.527 128.874C148.303 127.979 148.9 127.085 149.794 126.861L157.099 125.221C157.994 124.997 158.888 125.594 159.112 126.488L159.708 129.246Z" fill="#45366F"/>
<path d="M155.311 128.799C156.056 129.172 156.951 129.097 157.696 128.65C157.845 128.576 157.92 128.501 158.069 128.426L157.771 127.234C157.696 126.861 157.249 126.563 156.876 126.637L154.043 127.308C154.267 127.905 154.714 128.501 155.311 128.799Z" fill="white"/>
<path d="M157.696 131.185C154.565 132.005 150.615 129.992 150.018 126.936H149.869C148.975 127.159 148.378 128.054 148.602 128.948L149.198 131.706C149.422 132.601 150.317 133.197 151.211 132.974L158.516 131.334C159.038 131.185 159.485 130.812 159.709 130.365C159.038 130.663 158.367 130.961 157.696 131.185Z" fill="#736892"/>
<path d="M190.568 158.243C190.568 157.945 191.165 151.758 189.599 144.9C187.438 135.582 182.22 129.619 174.616 127.755L173.871 130.737C189.525 134.539 187.512 157.647 187.512 157.87L190.568 158.243Z" fill="#9980DA"/>
<path d="M187.811 145.496C185.798 136.775 181.176 131.035 174.393 128.799L174.617 127.755C182.22 129.619 187.438 135.508 189.6 144.9C191.165 151.758 190.643 157.945 190.569 158.243L188.854 158.094C188.929 156.156 189.078 151.087 187.811 145.496Z" fill="#885AFF"/>
<path d="M167.237 129.246C167.013 130.141 167.61 131.035 168.504 131.259L175.809 132.899C176.704 133.122 177.598 132.526 177.822 131.632L178.418 128.873C178.642 127.979 178.045 127.084 177.151 126.861L169.846 125.221C168.951 124.997 168.057 125.594 167.833 126.488L167.237 129.246Z" fill="#45366F"/>
<path d="M171.635 128.799C170.889 129.172 169.995 129.097 169.249 128.65C169.1 128.576 169.026 128.501 168.877 128.426L169.175 127.234C169.249 126.861 169.697 126.563 170.069 126.637L172.902 127.308C172.753 127.905 172.231 128.501 171.635 128.799Z" fill="white"/>
<path d="M169.249 131.185C172.38 132.004 176.331 129.992 176.927 126.936H177.076C177.971 127.159 178.567 128.054 178.344 128.948L177.747 131.706C177.524 132.601 176.629 133.197 175.735 132.974L168.429 131.334C167.908 131.185 167.46 130.812 167.237 130.365C167.908 130.663 168.579 130.961 169.249 131.185Z" fill="#736892"/>
<path d="M164.628 202.148C155.087 202.148 147.558 199.465 142.117 194.172C134.141 186.42 134.066 175.91 134.066 175.462V157.721H141.967V175.462C141.967 175.537 142.117 183.14 147.707 188.582C151.733 192.532 157.845 194.396 165.672 194.172H165.746C165.746 194.172 170.741 194.023 175.586 191.489C181.698 188.284 184.904 182.618 185.127 174.717V157.647H193.029V174.866C192.656 188.731 185.127 195.44 178.94 198.57C172.604 201.776 166.417 201.999 165.821 201.999C165.448 202.148 165.076 202.148 164.628 202.148Z" fill="#45366F"/>
<path d="M188.854 157.721V174.642C188.482 186.718 181.996 192.607 176.555 195.365C171.039 198.198 165.672 198.347 165.075 198.347C164.703 198.347 164.33 198.347 164.032 198.347C155.683 198.347 149.123 196.036 144.427 191.414C137.495 184.631 137.42 175.537 137.42 175.09V157.721H134.14V175.462C134.14 175.91 134.215 186.42 142.191 194.173C147.633 199.465 155.161 202.149 164.703 202.149C165.075 202.149 165.523 202.149 165.97 202.149C166.566 202.149 172.828 201.925 179.089 198.72C185.276 195.514 192.73 188.88 193.178 175.015V157.796H188.854V157.721Z" fill="#885AFF"/>
<path d="M246.252 219.89C246.252 226.3 241.034 231.444 234.623 231.444C228.213 231.444 223.069 226.226 223.069 219.89C223.069 213.479 228.287 208.335 234.623 208.335C241.034 208.335 246.252 213.553 246.252 219.89Z" fill="#402A7B"/>
<path d="M243.941 219.89C243.941 224.959 239.766 229.133 234.698 229.133C229.629 229.133 225.454 224.959 225.454 219.89C225.454 214.821 229.629 210.646 234.698 210.646C239.766 210.646 243.941 214.821 243.941 219.89Z" fill="#9980DA"/>
<path d="M240.885 219.889C240.885 223.318 238.126 226.151 234.623 226.151C231.194 226.151 228.361 223.393 228.361 219.889C228.361 216.46 231.12 213.628 234.623 213.628C238.126 213.702 240.885 216.46 240.885 219.889Z" fill="#3D2D66"/>
</svg>
