<svg width="248" height="267" viewBox="0 0 248 267" fill="none" xmlns="http://www.w3.org/2000/svg">
<path d="M211.171 56.8658C192.628 26.7197 166.257 11.0082 136.277 6.6223C106.798 2.23641 73.6536 9.1206 53.1676 24.0548C41.842 32.8266 27.1298 53.4792 19.0243 78.9618C10.4745 104.5 8.47591 134.924 12.3621 163.238C21.245 219.977 55.3883 268.332 184.633 252.565C201.4 250.4 218.666 240.851 230.102 226.805C241.817 212.759 247.646 194.216 247.979 174.063C248.756 133.758 227.937 87.0118 211.171 56.8658Z" fill="white"/>
<path d="M56.665 172.398H7.75396C3.70118 172.398 0.370117 169.067 0.370117 165.014V142.085C0.370117 138.033 3.70118 134.702 7.75396 134.702H56.7205C60.7733 134.702 64.1044 138.033 64.1044 142.085V165.014C64.0488 169.067 60.7733 172.398 56.665 172.398ZM7.75396 135.423C4.0898 135.423 1.14736 138.366 1.14736 142.03V164.959C1.14736 168.623 4.0898 171.565 7.75396 171.565H56.7205C60.3847 171.565 63.3271 168.623 63.3271 164.959V142.03C63.3271 138.366 60.3847 135.423 56.7205 135.423H7.75396Z" fill="#9883CF"/>
<path d="M6.41033 157.884C6.82632 157.554 7.01597 157.401 6.97926 157.425C8.1783 156.434 9.12039 155.62 9.80556 154.984C10.503 154.348 11.0902 153.681 11.5674 152.984C12.0446 152.286 12.2832 151.607 12.2832 150.947C12.2832 150.445 12.1669 150.053 11.9345 149.772C11.702 149.491 11.3533 149.35 10.8884 149.35C10.4234 149.35 10.0564 149.527 9.7872 149.882C9.53027 150.225 9.4018 150.714 9.4018 151.35H6.37363C6.3981 150.31 6.61833 149.442 7.03432 148.744C7.46254 148.047 8.01924 147.533 8.7044 147.203C9.4018 146.872 10.1726 146.707 11.0168 146.707C12.4728 146.707 13.5678 147.08 14.3019 147.827C15.0483 148.573 15.4214 149.546 15.4214 150.745C15.4214 152.054 14.9749 153.271 14.0817 154.397C13.1885 155.51 12.0507 156.599 10.6681 157.664H15.6233V160.215H6.41033V157.884ZM17.0785 158.012V155.48L22.8779 147.184H26.3832V155.296H27.8881V158.012H26.3832V160.398H23.2449V158.012H17.0785ZM23.4652 150.635L20.3819 155.296H23.4652V150.635ZM31.2055 160.545C30.6549 160.545 30.2022 160.386 29.8474 160.068C29.5048 159.738 29.3336 159.334 29.3336 158.857C29.3336 158.367 29.5048 157.957 29.8474 157.627C30.2022 157.297 30.6549 157.131 31.2055 157.131C31.7439 157.131 32.1843 157.297 32.5269 157.627C32.8817 157.957 33.0591 158.367 33.0591 158.857C33.0591 159.334 32.8817 159.738 32.5269 160.068C32.1843 160.386 31.7439 160.545 31.2055 160.545ZM31.2055 153.076C30.6549 153.076 30.2022 152.916 29.8474 152.598C29.5048 152.268 29.3336 151.864 29.3336 151.387C29.3336 150.898 29.5048 150.488 29.8474 150.157C30.2022 149.827 30.6549 149.662 31.2055 149.662C31.7439 149.662 32.1843 149.827 32.5269 150.157C32.8817 150.488 33.0591 150.898 33.0591 151.387C33.0591 151.864 32.8817 152.268 32.5269 152.598C32.1843 152.916 31.7439 153.076 31.2055 153.076ZM43.1931 149.35L38.5866 160.398H35.3749L40.0364 149.699H34.3288V147.019H43.1931V149.35Z" fill="#9883CF"/>
<path d="M62.3276 182.114C75.4852 160.295 171.808 193.994 168.866 201.656C154.598 238.742 134.389 241.24 111.461 252.399C96.1378 250.956 76.207 247.402 63.0493 234.578C62.9938 226.361 57.3865 190.275 62.3276 182.114Z" fill="#FFAA96"/>
<path d="M143.55 110.274C157.929 99.3368 202.121 77.6849 203.675 90.7871C205.063 102.446 167.478 124.431 156.819 127.595C146.326 130.76 126.728 123.098 143.55 110.274Z" fill="#FFAA96"/>
<path d="M72.8764 175.063L72.8209 213.759C72.7654 220.754 78.8724 226.361 86.4228 226.361L161.149 226.084C168.7 226.084 174.862 220.365 174.862 213.426V175.118H72.8764V175.063Z" fill="#21005D"/>
<path d="M163.481 27.7191H84.3684C76.818 27.7746 72.8762 34.1591 72.8762 41.0988V209.706C72.8762 216.701 78.9832 222.308 86.5336 222.197L161.26 221.531C168.811 221.476 175.029 215.757 175.029 208.762V40.2106C174.973 33.2709 171.031 27.6636 163.481 27.7191Z" fill="#65558F"/>
<path d="M124.179 218.092C127.056 217.927 129.265 215.634 129.112 212.971C128.959 210.307 126.503 208.282 123.625 208.447C120.748 208.613 118.539 210.906 118.692 213.569C118.845 216.232 121.301 218.257 124.179 218.092Z" fill="#21005D"/>
<path d="M77.9285 38.9892V200.712C77.9285 203.266 80.1492 205.265 82.8695 205.265L164.814 204.987C167.534 204.987 169.31 203.21 169.31 200.712V38.9892H77.9285Z" fill="white"/>
<mask id="mask0_3225_72672" style="mask-type:luminance" maskUnits="userSpaceOnUse" x="77" y="38" width="93" height="168">
<path d="M77.9285 38.9892V200.712C77.9285 203.266 80.1492 205.265 82.8695 205.265L164.814 204.987C167.534 204.987 169.31 203.21 169.31 200.712V38.9892H77.9285Z" fill="white"/>
</mask>
<g mask="url(#mask0_3225_72672)">
<path d="M108.408 174.841H77.4292V205.82H108.408V174.841Z" fill="#9883CF"/>
<path d="M139.387 174.841H108.408V205.82H139.387V174.841Z" fill="white"/>
<path d="M170.421 174.841H139.443V205.82H170.421V174.841Z" fill="#9883CF"/>
<path d="M92.9191 191.329C87.645 191.329 83.3701 195.604 83.3701 200.878H102.468C102.413 195.604 98.1378 191.329 92.9191 191.329Z" fill="white"/>
<path d="M92.9191 189.941C95.695 189.941 97.9712 187.665 97.9712 184.889C97.9712 182.113 95.695 179.837 92.9191 179.837C90.1432 179.837 87.867 182.113 87.867 184.889C87.8114 187.665 90.0877 189.941 92.9191 189.941Z" fill="white"/>
<path d="M130.448 177.894C127.617 177.894 125.174 179.671 124.23 182.169C123.287 179.671 120.844 177.894 118.012 177.894C114.348 177.894 111.35 180.892 111.35 184.556C111.35 193.439 124.286 202.766 124.286 202.766C124.286 202.766 137.222 193.439 137.222 184.556C137.111 180.892 134.168 177.894 130.448 177.894Z" fill="#65558F"/>
<path d="M133.502 188.831L126.618 188.776L125.452 185.223C125.341 184.834 124.952 184.556 124.564 184.612C124.175 184.612 123.842 184.89 123.731 185.278L121.732 192.44L120.455 181.67C120.4 181.225 120.067 180.892 119.623 180.892C119.178 180.837 118.79 181.114 118.679 181.503L116.514 188.387H109.851C109.352 188.387 108.963 188.776 108.963 189.275C108.963 189.775 109.352 190.164 109.851 190.164H117.18C117.568 190.164 117.901 189.886 118.068 189.553L119.178 186.055L120.511 197.159C120.566 197.603 120.899 197.936 121.344 197.936H121.399C121.788 197.936 122.176 197.659 122.287 197.27L124.73 188.554L125.174 189.886C125.285 190.275 125.618 190.497 126.007 190.497L133.557 190.552C134.057 190.552 134.446 190.164 134.446 189.664C134.39 189.22 134.002 188.831 133.502 188.831Z" fill="white"/>
<path d="M158.319 179.837H151.545V200.878H158.319V179.837Z" fill="white"/>
<path d="M165.437 193.735V186.962H144.396V193.735H165.437Z" fill="white"/>
</g>
<path d="M102.3 234.356C104.465 229.193 99.3023 196.992 72.2097 181.392C74.4859 167.957 71.488 126.818 57.7751 127.873C51.1685 128.373 42.3967 170.51 44.2843 185.112C46.0054 198.269 53.2782 207.763 63.1048 234.689C63.0493 234.633 97.7478 226.417 102.3 234.356Z" fill="#FFAA96"/>
<path d="M102.3 234.356C102.522 231.691 102.189 229.026 101.689 226.472C101.19 223.863 100.523 221.365 99.6906 218.866C98.0805 213.87 95.9154 209.095 93.306 204.598C91.9736 202.322 90.5857 200.157 89.0312 198.047C87.4767 195.938 85.8112 193.939 84.0346 191.996C82.258 190.053 80.3704 188.221 78.3718 186.444C76.4287 184.667 74.2635 183.057 72.1538 181.392C74.6521 182.447 77.0394 183.724 79.3156 185.223C81.5363 186.722 83.757 188.387 85.7556 190.219C87.7543 192.051 89.6419 194.05 91.3629 196.215C93.084 198.38 94.6384 200.657 96.0264 202.988C98.8023 207.707 100.856 212.87 102.078 218.2C102.689 220.865 103.077 223.585 103.188 226.306C103.244 227.694 103.244 229.026 103.077 230.414C103.022 231.746 102.8 233.079 102.3 234.356Z" fill="#C5715E"/>
<path d="M107.685 267C109.24 261.67 110.517 256.785 111.461 252.454C106.297 235.688 78.372 215.813 57.1643 219.643C52.5563 230.414 45.6166 247.236 37.6221 267H107.685Z" fill="#FFAA96"/>
<path d="M49.5582 237.742C46.0051 246.292 41.9523 256.174 37.5664 267H107.685C86.8105 248.957 69.489 240.407 49.5582 237.742Z" fill="#C5715E"/>
<path d="M103.632 267C80.9257 252.066 60.1621 245.57 34.9571 243.849C30.5712 250.844 25.9632 258.617 21.1887 267H103.632Z" fill="#D5C5FF"/>
<path d="M35.0683 267C38.2328 259.45 41.4528 252.01 44.7839 244.793C41.5638 244.404 38.3438 244.071 35.0128 243.849C30.6269 250.844 26.0189 258.617 21.2444 267H35.0683Z" fill="#9883CF"/>
<path d="M164.314 185.112C165.202 195.493 180.469 195.382 181.024 184.556C181.691 171.51 163.536 176.229 164.314 185.112Z" fill="#FFAA96"/>
<path d="M184.3 162.183C184.356 148.914 161.371 151.246 163.037 165.403C164.203 175.341 184.245 176.506 184.3 162.183Z" fill="#FFAA96"/>
<path d="M183.523 137.81C181.247 124.431 162.426 130.871 163.536 140.475C165.202 154.965 186.021 152.301 183.523 137.81Z" fill="#FFAA96"/>
<path d="M180.025 179.615C180.247 180.559 180.358 181.614 180.303 182.835C179.803 192.273 168.2 193.55 164.591 186.944C166.979 195.493 180.469 194.772 180.969 184.612C181.136 182.447 180.747 180.837 180.025 179.615Z" fill="#C5715E"/>
<path d="M178.693 154.077C180.802 155.521 182.246 157.852 182.19 161.128C182.135 170.788 173.03 173.453 166.701 171.066C172.808 175.007 184.189 173.009 184.244 162.183C184.3 157.852 181.913 155.188 178.693 154.077Z" fill="#C5715E"/>
<path d="M183.523 137.811C183.19 135.923 182.523 134.369 181.635 133.258C182.024 134.091 182.301 135.035 182.468 136.09C184.522 148.248 170.31 152.079 164.647 144.473C169.31 154.299 185.743 150.802 183.523 137.811Z" fill="#C5715E"/>
<path d="M60.9402 91.1757C59.8299 82.1264 59.3857 75.0201 59.3857 74.0763C59.4413 70.1345 66.0479 70.079 66.603 71.1339C67.2137 72.2997 69.601 80.3498 72.1548 89.3436C68.4351 89.8988 64.7154 90.565 60.9402 91.1757Z" fill="#FFAA96"/>
<path d="M59.719 79.295C59.9966 82.3485 60.3852 86.5123 60.9404 91.1203C64.6601 90.5096 68.4353 89.8989 72.1549 89.2327C70.9336 85.0689 69.8232 81.1271 68.8794 77.9626C65.9925 78.2957 62.7725 78.6843 59.719 79.295Z" fill="#C5715E"/>
<path d="M67.1027 73.1325C70.989 71.2449 68.3796 46.5395 65.9369 46.7061C63.7717 46.8171 64.9375 58.1427 64.4934 58.0872C63.9382 58.0317 63.383 56.9213 62.7723 56.8103C62.2172 56.6993 61.4399 57.8096 61.4399 57.8096C61.4399 57.8096 58.9972 55.7 58.0534 57.7541C57.8313 58.2538 57.4982 59.5862 57.4982 59.5862C57.4982 59.5862 56.0547 59.031 55.8326 59.3641C55.444 59.9193 55.1109 60.53 54.9999 61.3072C54.8333 62.3066 54.9999 69.4128 56.3878 72.0221C57.3316 73.7987 59.2192 74.687 61.1623 74.7425" fill="#FFAA96"/>
<path d="M63.7166 69.0242C63.4946 69.0242 63.328 68.8577 63.328 68.6356C63.3835 67.6363 63.8277 66.748 64.2718 66.1373C62.4953 65.8042 60.108 64.9159 60.0525 63.3614C60.0525 63.0283 60.108 62.5842 60.6632 62.14C61.8846 61.1407 64.716 60.8076 66.7701 61.3628C66.9922 61.4183 67.1032 61.6404 67.0477 61.8069C66.9922 62.029 66.7701 62.14 66.6036 62.0845C64.827 61.5848 62.1622 61.918 61.1628 62.6952C60.9408 62.8618 60.8297 63.0838 60.8297 63.2504C60.8853 64.3052 63.0504 65.1935 65.0491 65.4711C65.2156 65.4711 65.3267 65.5821 65.3822 65.6932C65.4377 65.8042 65.3822 65.9707 65.3267 66.0818C64.8825 66.5259 64.2163 67.4697 64.1608 68.6356C64.1053 68.8577 63.9387 69.0242 63.7166 69.0242Z" fill="#C5715E"/>
<path d="M61.0517 62.5287C60.8852 62.5287 60.7741 62.4176 60.7186 62.2511C60.1079 60.53 60.7741 57.199 62.2176 56.4772C62.8283 56.1997 63.7721 56.1997 64.8269 57.8652C64.9379 58.0317 64.8824 58.2538 64.7159 58.3648C64.5493 58.4759 64.3273 58.4204 64.2162 58.2538C63.8276 57.5876 63.1614 56.8659 62.6062 57.1435C61.6069 57.6431 60.9407 60.53 61.4958 61.9735C61.5514 62.1956 61.4403 62.4176 61.2738 62.4732C61.1627 62.4732 61.1072 62.5287 61.0517 62.5287Z" fill="#C5715E"/>
<path d="M60.2189 67.9693C59.6082 67.9693 58.9976 67.5807 58.5534 66.859C56.9434 64.4162 56.6658 58.1427 58.5534 56.6992C59.1641 56.2551 60.1634 56.033 61.6624 57.6986C61.8289 57.8651 61.7734 58.0872 61.6069 58.2537C61.4403 58.4203 61.2183 58.3648 61.0517 58.1982C60.441 57.532 59.6082 56.8103 58.9975 57.3099C57.5541 58.4203 57.6651 64.1941 59.1641 66.4703C59.8303 67.4141 60.3855 67.2476 60.7741 67.0255C60.9407 66.9145 61.1627 66.97 61.2738 67.1921C61.3848 67.3586 61.3293 67.6362 61.1072 67.6917C60.8296 67.9138 60.4965 67.9693 60.2189 67.9693Z" fill="#C5715E"/>
<path d="M57.2765 67.1921C56.6658 67.1921 56.1106 66.859 55.611 66.1928C54.3341 64.4717 53.8899 60.53 55.1668 59.3641C55.5555 59.031 56.3327 58.6424 57.6651 59.8082C57.8317 59.9748 57.8317 60.1969 57.7207 60.3634C57.5541 60.53 57.332 60.53 57.1655 60.4189C56.7213 60.0303 56.1106 59.5862 55.722 59.9748C54.8893 60.752 55.0558 64.1941 56.2217 65.8042C56.9434 66.8035 57.6651 66.4148 57.8872 66.2483C58.0538 66.1373 58.2758 66.1928 58.3869 66.3593C58.4979 66.5259 58.4424 66.7479 58.2758 66.859C57.9982 67.0811 57.6651 67.1921 57.2765 67.1921Z" fill="#C5715E"/>
<path d="M106.909 66.8035C101.524 64.1941 96.1939 61.5848 90.8642 58.92C86.0897 64.1941 73.4872 84.2915 76.0965 99.3368C74.6531 91.0647 71.211 79.628 70.4338 77.907C66.492 78.8508 62.4947 79.8501 58.553 80.7939C58.4419 80.7939 61.7175 122.044 78.7614 123.265C91.808 119.989 106.687 66.6924 106.909 66.8035Z" fill="#E1D6FF"/>
<path d="M99.7473 88.1222C96.6938 78.3511 93.7514 68.58 90.8089 58.7534C90.7534 58.6979 80.9268 98.1709 82.0927 121.433C88.5882 116.103 94.9728 101.058 99.7473 88.1222Z" fill="#9883CF"/>
<path d="M133.557 57.4209C125.951 56.4771 116.624 56.0885 107.853 56.7547C107.742 56.7547 104.022 57.4764 104.022 57.4764C101.357 97.1715 99.6359 134.701 99.2473 174.619C115.458 174.286 131.947 174.952 148.158 174.619C147.881 169.567 146.326 146.305 144.217 117.324C142.107 87.8446 139.22 58.1981 133.557 57.4209Z" fill="#9883CF"/>
<path d="M156.874 174.73C154.709 157.519 152.766 140.253 151.045 122.932C150.823 102.002 150.879 81.0715 151.267 60.1413C144.439 58.9754 137.61 57.8096 130.837 56.6437C126.95 77.6294 123.397 98.7816 120.122 119.989C121.621 138.255 123.397 156.464 125.396 174.674H156.874V174.73Z" fill="#E1D6FF"/>
<path d="M121.066 174.73C120.51 156.52 120.177 138.255 120.066 120.045C114.737 99.2258 109.685 78.2401 104.966 57.0879C100.247 57.7541 95.5275 58.3648 90.8085 59.031C89.5316 80.5718 88.5878 102.113 87.9771 123.654C87.644 140.642 87.4775 157.686 87.533 174.674H121.066V174.73Z" fill="#E1D6FF"/>
<path d="M109.962 24.8876C109.907 24.7766 77.984 52.1468 126.951 53.9788C138.887 54.423 146.604 50.0926 145.938 35.9911C145.604 29.1069 143.328 19.891 138.665 7.62161C131.836 8.23231 109.907 24.8321 109.962 24.8876Z" fill="#21005D"/>
<path d="M145.882 35.9357C144.994 47.3723 137.943 51.0365 127.506 50.6478C104.299 49.7596 99.8025 42.5423 101.357 35.436C97.3597 43.3195 98.6922 52.9796 126.951 53.9789C138.831 54.3675 146.493 50.0371 145.882 35.9357Z" fill="#65558F"/>
<path d="M129.282 56.9768C125.951 56.4771 114.071 56.0885 107.853 56.8103C109.463 62.8617 117.568 75.1311 117.568 75.0756C117.568 75.02 128.561 61.6958 129.282 56.9768Z" fill="#FFAA96"/>
<path d="M100.358 78.6841C99.8025 81.46 101.524 84.1248 104.244 84.68C106.909 85.2352 109.518 83.4586 110.073 80.6827C110.628 77.9069 108.907 75.242 106.187 74.6868C103.522 74.1872 100.857 75.9637 100.358 78.6841Z" fill="white"/>
<path d="M102.301 79.1282C101.968 80.7938 103.022 82.4038 104.632 82.7369C106.242 83.07 107.797 82.0151 108.13 80.3496C108.463 78.6841 107.408 77.0741 105.798 76.741C104.188 76.4079 102.578 77.4627 102.301 79.1282Z" fill="#65558F"/>
<path d="M125.341 98.1155C130.726 95.6172 134.779 90.4541 136 84.5692C137.221 78.6843 135.5 72.2998 131.558 67.8584C131.336 68.0805 131.059 68.3025 130.837 68.5246C134.612 72.7439 136.222 78.7954 135.056 84.3471C133.89 89.8989 130.06 94.84 124.952 97.1717C125.063 97.5603 125.229 97.8379 125.341 98.1155Z" fill="white"/>
<path d="M123.564 97.1161C122.343 97.6713 121.566 98.5595 121.843 99.2257C122.121 99.892 123.287 99.892 124.508 99.3923C125.729 98.8371 126.507 97.9488 126.229 97.2826C125.951 96.6719 124.786 96.6164 123.564 97.1161Z" fill="white"/>
<path d="M125.285 98.1154C125.507 97.8933 125.729 97.6713 126.007 97.4492C122.121 93.3409 120.344 87.2339 121.399 81.6267C122.454 76.0194 126.284 71.0228 131.392 68.6911C131.281 68.4135 131.114 68.0804 131.003 67.8028C125.618 70.3011 121.565 75.5197 120.455 81.4601C119.345 87.4005 121.232 93.785 125.285 98.1154Z" fill="white"/>
<path d="M127.339 97.8379C128.283 98.7817 128.672 99.9476 128.172 100.447C127.728 100.947 126.562 100.558 125.618 99.559C124.674 98.6152 124.286 97.4493 124.785 96.9497C125.285 96.5055 126.395 96.8941 127.339 97.8379Z" fill="white"/>
<path d="M131.114 68.5245C131.059 68.5245 131.059 68.5245 131.003 68.5245C130.781 68.4689 130.67 68.2469 130.726 68.0803C130.781 67.8582 130.892 67.5251 131.003 67.081C131.67 65.0268 133.058 60.6965 131.225 58.3092C130.171 56.9768 128.227 56.3106 125.452 56.4771C125.23 56.4771 125.063 56.3106 125.063 56.0885C125.063 55.8664 125.23 55.6999 125.452 55.6999C128.505 55.5888 130.67 56.3106 131.892 57.8651C134.001 60.5854 132.502 65.1379 131.836 67.3586C131.725 67.7472 131.614 68.0803 131.559 68.3024C131.448 68.3579 131.336 68.5245 131.114 68.5245Z" fill="#65558F"/>
<path d="M105.132 80.3497C104.966 80.3497 104.855 80.2387 104.799 80.0721C103.855 77.4628 99.2472 64.083 103.911 58.1427C105.687 55.8664 108.574 54.9226 112.46 55.3668C112.683 55.3668 112.849 55.5888 112.794 55.8109C112.794 56.033 112.571 56.1995 112.349 56.144C108.741 55.7554 106.076 56.5882 104.466 58.6423C100.08 64.2496 104.521 77.2962 105.465 79.85C105.521 80.0721 105.41 80.2942 105.243 80.3497C105.243 80.3497 105.188 80.3497 105.132 80.3497Z" fill="#65558F"/>
<path d="M118.734 27.9967C115.181 27.6636 111.572 27.3305 108.019 26.9974C101.024 26.3312 103.022 35.8802 105.798 36.1023C109.962 36.4909 114.181 36.8795 118.345 37.2682C118.456 34.1592 118.623 31.1057 118.734 27.9967Z" fill="#AD3F2A"/>
<path d="M127.894 38.4341C122.842 36.38 117.79 34.2703 112.738 32.1606C111.961 41.099 111.239 50.0373 110.573 58.9756C110.018 66.526 123.953 68.7467 124.785 61.7515C124.785 61.696 127.894 38.3786 127.894 38.4341Z" fill="#FFAA96"/>
<path d="M111.073 52.7578C115.014 55.9223 121.454 56.4775 126.34 49.8153C127.117 44.0415 127.839 38.3787 127.894 38.3787C126.229 37.7125 124.508 36.9908 122.842 36.3246C119.4 38.1566 115.07 40.5439 111.905 42.4315C111.628 45.8736 111.35 49.3157 111.073 52.7578Z" fill="#AD3F2A"/>
<path d="M135.223 38.434C138.554 38.7116 144.161 28.885 135.556 28.3298C135.445 31.7164 135.334 35.0475 135.223 38.434Z" fill="#C5715E"/>
<path d="M138.387 22.2229C138.665 17.3929 138.831 9.84247 130.504 5.34555C117.679 -1.64968 113.848 5.62313 110.295 11.397C106.798 16.8377 98.4701 51.5362 117.957 52.48C128.616 52.9242 137.332 42.3203 138.387 22.2229Z" fill="#FFAA96"/>
<path d="M129.227 36.7686C128.894 37.6013 124.508 36.602 119.234 36.491C113.904 36.3244 109.518 37.1017 109.185 36.2689C108.852 35.4917 113.349 33.2154 119.289 33.382C125.229 33.493 129.56 35.9913 129.227 36.7686Z" fill="#F5AA99"/>
<path d="M117.401 37.2128C116.458 37.2128 116.347 36.9352 116.291 36.7686C115.847 35.8248 116.513 28.441 117.013 28.1634L117.179 28.4965L117.568 28.552C117.29 30.2175 116.624 35.3252 116.957 36.38C117.235 36.491 118.123 36.38 119.011 36.2134C119.233 36.1579 119.4 36.3245 119.456 36.491C119.511 36.7131 119.345 36.8797 119.178 36.9352C118.345 37.1572 117.79 37.2128 117.401 37.2128Z" fill="#C5715E"/>
<path d="M113.404 38.6562C114.736 42.82 120.621 45.2628 124.397 38.4896C120.788 38.3231 117.124 38.3231 113.404 38.6562Z" fill="white"/>
<path d="M112.349 32.105C112.294 32.9933 112.849 33.7706 113.515 33.7706C114.181 33.8261 114.792 33.1043 114.848 32.2161C114.903 31.3278 114.348 30.5505 113.682 30.5505C112.96 30.5505 112.405 31.2168 112.349 32.105Z" fill="#AD3F2A"/>
<path d="M124.452 32.8268C124.397 33.7151 124.952 34.4368 125.618 34.4924C126.284 34.5479 126.895 33.8261 126.95 32.9934C127.006 32.1051 126.451 31.3834 125.784 31.3278C125.063 31.2723 124.508 31.9385 124.452 32.8268Z" fill="#AD3F2A"/>
<path d="M129.615 29.8844C129.449 29.8844 129.282 29.7734 129.227 29.5513C128.838 27.5527 127.506 26.7754 126.34 26.6644C125.007 26.5533 123.73 27.3306 123.286 28.6075C123.231 28.8296 123.009 28.8851 122.787 28.8296C122.564 28.774 122.509 28.552 122.564 28.3299C123.175 26.7199 124.73 25.7761 126.395 25.8871C127.783 25.9982 129.449 26.9975 129.948 29.3847C130.004 29.6068 129.837 29.7734 129.671 29.8289C129.671 29.8844 129.615 29.8844 129.615 29.8844Z" fill="#AD3F2A"/>
<path d="M110.517 29.2737C110.462 29.2737 110.406 29.2737 110.351 29.2182C110.129 29.1627 110.073 28.9406 110.129 28.7185C110.85 26.9975 112.349 25.8871 114.015 25.8871C115.514 25.8871 116.846 26.7754 117.513 28.3299C117.568 28.552 117.513 28.774 117.29 28.8296C117.068 28.8851 116.846 28.8296 116.791 28.6075C116.291 27.3861 115.236 26.6088 114.015 26.6088C112.682 26.6088 111.406 27.5526 110.795 28.9406C110.795 29.1627 110.628 29.2737 110.517 29.2737Z" fill="#AD3F2A"/>
<path d="M136.722 11.4525C137.943 14.7281 137.832 18.1701 137.721 20.7795C136.666 40.8769 127.894 51.4807 117.235 50.9811C112.238 50.759 109.074 48.2607 107.186 44.5965C108.963 49.038 112.294 52.2025 117.957 52.48C128.616 52.9797 137.332 42.3203 138.387 22.2785C138.554 19.225 138.665 15.1722 136.722 11.4525Z" fill="#C5715E"/>
<path d="M130.504 5.34555C117.679 -1.64968 113.849 5.62313 110.295 11.397C109.13 13.2846 107.297 18.6143 106.298 24.8878C111.739 23.8329 116.957 21.9453 121.621 19.2805C121.288 20.8905 120.344 22.3895 119.012 23.5553C122.065 23.4998 125.063 22.556 127.506 20.946C129.282 25.2764 132.891 30.1619 136.722 33.604C137.555 30.2174 138.11 26.4422 138.332 22.2229C138.665 17.3929 138.831 9.84247 130.504 5.34555Z" fill="#C5715E"/>
<path d="M82.037 143.751C77.318 130.038 71.7662 116.492 65.3262 103.056C76.9849 103.334 86.4784 103.001 99.3585 98.615C102.412 108.553 111.961 138.144 113.238 140.753C107.52 142.196 101.468 144.417 95.4167 144.806C90.6422 145.194 86.8115 144.195 82.037 143.751Z" fill="white"/>
<path d="M98.6924 119.268C93.1406 120.656 85.2571 120.6 79.7053 119.101C82.2036 121.544 85.0905 122.71 88.4771 122.932C91.9192 123.154 95.9165 121.266 98.6924 119.268Z" fill="#E1D6FF"/>
<path d="M138.609 7.62162C134.668 -0.206369 125.119 -0.983616 119.178 0.792949C113.238 2.56951 108.574 6.84437 105.299 11.6189C102.301 15.9493 100.247 20.8903 96.416 24.721C105.41 24.7766 114.404 22.4448 122.01 18.17C121.677 19.78 120.733 21.279 119.4 22.3893C122.454 22.3338 125.452 21.39 127.895 19.8355C129.893 24.721 134.224 30.2728 138.554 33.7704C141.718 26.6086 141.774 15.7272 138.609 7.62162Z" fill="#21005D"/>
<path d="M146.604 148.081C141.33 148.914 135.722 147.36 131.559 143.918C136.222 145.361 141.996 146.693 146.604 148.081Z" fill="#9883CF"/>
<path d="M93.1958 149.303C98.5255 149.913 104.022 148.026 108.019 144.417C103.467 146.083 97.7482 147.693 93.1958 149.303Z" fill="#9883CF"/>
<path d="M122.898 117.991C122.231 121.599 121.565 125.153 120.899 128.761C120.954 129.705 121.065 130.649 121.121 131.593C124.508 132.314 139.164 135.312 152.433 136.423C151.933 131.926 151.489 127.373 151.045 122.876C151.045 122.71 151.045 122.543 151.045 122.321C141.663 120.878 132.28 119.434 122.898 117.991Z" fill="#9883CF"/>
<path d="M106.797 122.266C106.797 122.266 97.4704 123.098 97.5259 124.653C97.5259 125.985 105.909 125.597 105.909 125.597C105.909 125.597 100.024 127.151 97.5814 127.762C94.8611 128.484 95.2497 130.149 97.9145 129.927C100.69 129.705 106.131 128.706 106.131 128.706C106.131 128.706 102.189 130.316 99.7466 131.204C97.5814 131.981 98.4142 133.314 100.135 133.036C102.634 132.647 107.297 131.093 107.297 131.093C107.297 131.093 103.189 133.036 103.355 133.758C103.744 135.257 109.407 133.147 111.239 131.759C113.459 130.149 116.402 128.595 115.958 125.486C115.736 124.042 110.017 118.157 105.354 117.436C105.798 119.046 106.298 120.656 106.797 122.266Z" fill="#FFAA96"/>
<path d="M133.113 128.872C126.395 128.983 119.678 129.039 112.96 129.15C112.904 126.707 112.904 124.264 112.849 121.766C120.399 120.711 127.95 119.656 135.5 118.602C134.723 122.044 133.946 125.486 133.113 128.872Z" fill="#FFAA96"/>
<path d="M158.04 115.937L141.829 84.125L144.883 111.717L121.121 121.599L158.04 115.937Z" fill="#9883CF"/>
<path d="M116.069 129.15C121.787 129.094 127.45 128.983 133.168 128.928C133.946 125.486 134.778 122.099 135.556 118.712C128.838 119.656 123.397 120.378 116.624 121.322C116.291 123.709 115.902 127.54 116.069 129.15Z" fill="#C5715E"/>
<path d="M151.267 60.0859C148.103 63.1949 142.384 74.2429 141.607 84.0695C141.829 96.0613 148.047 114.216 148.103 114.216C137.776 115.604 127.45 116.991 117.124 118.435C117.568 122.987 118.012 127.54 118.456 132.092C118.456 132.092 146.493 129.927 161.927 124.93C161.427 105.721 158.151 76.9632 151.267 60.0859Z" fill="#E1D6FF"/>
<path d="M183.412 75.242C183.356 75.242 183.301 75.242 183.245 75.1865C183.079 75.131 183.023 74.9644 183.023 74.8534L183.412 28.4407C183.467 23.4996 187.465 19.5023 192.406 19.5023H192.461L235.765 19.8354C240.762 19.8909 244.759 23.9437 244.703 28.9403L244.537 51.2584C244.481 56.1995 240.484 60.1967 235.543 60.1967H235.487L199.29 59.9192L183.689 75.131C183.578 75.242 183.523 75.242 183.412 75.242ZM192.406 20.2796C187.909 20.2796 184.189 23.9437 184.134 28.4407L183.745 73.9096L198.846 59.1974C198.901 59.1419 199.012 59.0864 199.123 59.0864L235.487 59.364H235.543C240.04 59.364 243.759 55.6998 243.815 51.2029L243.982 28.8848C244.037 24.3324 240.373 20.6127 235.82 20.5572L192.517 20.224C192.461 20.2796 192.406 20.2796 192.406 20.2796Z" fill="#9883CF"/>
<path d="M231.435 33.7147H196.347C196.125 33.7147 195.959 33.5481 195.959 33.3261C195.959 33.104 196.125 32.9374 196.347 32.9374H231.435C231.657 32.9374 231.823 33.104 231.823 33.3261C231.823 33.5481 231.657 33.7147 231.435 33.7147Z" fill="#9883CF"/>
<path d="M231.435 38.9889H222.996C222.774 38.9889 222.607 38.8224 222.607 38.6003C222.607 38.3782 222.774 38.2117 222.996 38.2117H231.435C231.657 38.2117 231.823 38.3782 231.823 38.6003C231.823 38.8224 231.657 38.9889 231.435 38.9889Z" fill="#9883CF"/>
<path d="M217.999 38.9889H196.347C196.125 38.9889 195.959 38.8224 195.959 38.6003C195.959 38.3782 196.125 38.2117 196.347 38.2117H217.999C218.221 38.2117 218.388 38.3782 218.388 38.6003C218.388 38.8224 218.166 38.9889 217.999 38.9889Z" fill="#9883CF"/>
<path d="M210.671 44.2075H196.347C196.125 44.2075 195.959 44.041 195.959 43.8189C195.959 43.5968 196.125 43.4303 196.347 43.4303H210.671C210.893 43.4303 211.06 43.5968 211.06 43.8189C211.06 44.041 210.893 44.2075 210.671 44.2075Z" fill="#9883CF"/>
<path d="M50.5027 105.777C50.3917 105.777 50.3362 105.721 50.2252 105.666L38.6775 94.3957L11.918 94.6178H11.8625C8.14279 94.6178 5.14484 91.6198 5.08932 87.9002L4.97828 71.3559C4.92277 67.6362 7.97624 64.5828 11.6959 64.5272L43.7851 64.2496C47.5603 64.1941 50.5583 67.2476 50.6138 70.9673L50.8914 105.333C50.8914 105.499 50.7803 105.61 50.6693 105.666C50.5583 105.777 50.5027 105.777 50.5027 105.777ZM38.844 93.674C38.9551 93.674 39.0661 93.7295 39.1216 93.785L50.1141 104.5L49.8365 71.0228C49.8365 69.4128 49.1703 67.9138 48.06 66.8035C46.9496 65.6931 45.4506 65.0824 43.8406 65.0824H43.7851L11.6959 65.36C8.36486 65.36 5.70001 68.0804 5.75553 71.4114L5.86657 87.9557C5.86657 91.2312 8.58693 93.8961 11.8625 93.8961H11.918L38.844 93.674Z" fill="#65558F"/>
<path d="M40.898 75.02H14.9157C14.6937 75.02 14.5271 74.8535 14.5271 74.6314C14.5271 74.4093 14.6937 74.2428 14.9157 74.2428H40.898C41.12 74.2428 41.2866 74.4093 41.2866 74.6314C41.2866 74.8535 41.12 75.02 40.898 75.02Z" fill="#65558F"/>
<path d="M21.189 78.9063H14.9155C14.6934 78.9063 14.5269 78.7397 14.5269 78.5177C14.5269 78.2956 14.6934 78.129 14.9155 78.129H21.189C21.411 78.129 21.5776 78.2956 21.5776 78.5177C21.5776 78.7397 21.3555 78.9063 21.189 78.9063Z" fill="#65558F"/>
<path d="M40.8978 78.9063H24.8532C24.6312 78.9063 24.4646 78.7397 24.4646 78.5177C24.4646 78.2956 24.6312 78.129 24.8532 78.129H40.8978C41.1199 78.129 41.2864 78.2956 41.2864 78.5177C41.2864 78.7397 41.1199 78.9063 40.8978 78.9063Z" fill="#65558F"/>
<path d="M40.898 82.7925H30.2941C30.0721 82.7925 29.9055 82.626 29.9055 82.4039C29.9055 82.1818 30.0721 82.0153 30.2941 82.0153H40.898C41.1201 82.0153 41.2866 82.1818 41.2866 82.4039C41.2866 82.626 41.1201 82.7925 40.898 82.7925Z" fill="#65558F"/>
<path d="M236.542 185L236.82 164.681C236.875 160.684 233.655 157.408 229.658 157.408L210.949 157.242L190.74 157.075L203.62 170.288L203.398 184.778C203.343 188.776 206.563 192.051 210.56 192.051L229.269 192.218C233.267 192.218 236.542 188.998 236.542 185Z" fill="#9883CF"/>
<path d="M225.605 168.734H216.667C216.445 168.734 216.278 168.567 216.278 168.345V165.07C216.278 164.848 216.445 164.681 216.667 164.681H225.605C225.827 164.681 225.994 164.848 225.994 165.07V168.345C225.994 168.567 225.827 168.734 225.605 168.734ZM217.056 167.957H225.272V165.458H217.056V167.957Z" fill="white"/>
<path d="M225.661 184.168H216.667C215.112 184.168 213.78 182.891 213.78 181.281V172.231C213.78 170.677 215.057 169.345 216.667 169.345H225.661C227.215 169.345 228.548 170.621 228.548 172.231V181.281C228.492 182.891 227.215 184.168 225.661 184.168ZM216.611 170.177C215.446 170.177 214.502 171.121 214.502 172.287V181.336C214.502 182.502 215.446 183.446 216.611 183.446H225.605C226.771 183.446 227.715 182.502 227.715 181.336V172.287C227.715 171.121 226.771 170.177 225.605 170.177H216.611Z" fill="white"/>
<path d="M226.105 180.115H216.167C215.945 180.115 215.779 179.949 215.779 179.726V173.731C215.779 173.509 215.945 173.342 216.167 173.342H226.105C226.327 173.342 226.493 173.509 226.493 173.731V179.726C226.493 179.949 226.327 180.115 226.105 180.115ZM216.556 179.338H225.772V174.119H216.556V179.338Z" fill="white"/>
</svg>
