<svg width="452" height="308" viewBox="0 0 452 308" fill="none" xmlns="http://www.w3.org/2000/svg">
<path d="M413.236 307.977H92.4257C52.4802 264.817 36.8037 198.504 48.6759 140.914C50.3157 132.978 52.6114 124.91 57.5964 118.547C62.5814 112.185 70.9771 107.856 78.8482 109.693C85.8009 111.332 91.8354 117.367 98.9193 116.448C107.709 115.268 111.251 104.904 114.268 96.5741C124.369 68.9599 148.441 47.8394 175.793 37.0823C203.145 26.2596 233.448 24.9478 262.637 28.4242C303.172 33.278 342.921 47.5114 375.652 71.9116C408.382 96.3118 433.766 131.207 444.129 170.693C456.395 216.739 440.653 269.081 413.236 307.977Z" fill="#65558F"/>
<path d="M92.7541 96.5087C100.035 93.2946 104.889 86.4075 109.349 79.8483C114.006 73.0267 118.663 66.2052 123.32 59.3836C125.944 55.5793 128.567 51.6438 129.42 47.1179C131.388 36.9512 122.926 26.7189 112.76 24.4231C102.658 22.193 91.967 26.4565 84.096 33.2125C72.5518 43.248 66.5173 58.9245 67.4356 74.0762C68.2227 87.2602 76.4217 103.724 92.7541 96.5087Z" fill="#65558F"/>
<path d="M381.295 292.76H111.975V137.176C111.975 130.748 117.156 125.566 123.584 125.566H369.685C376.113 125.566 381.295 130.748 381.295 137.176V292.76Z" fill="white"/>
<path d="M115.843 292.76V137.176C115.843 132.912 119.319 129.436 123.583 129.436H369.683C373.947 129.436 377.423 132.912 377.423 137.176V292.76H115.843Z" fill="#402C49"/>
<path d="M365.815 281.151V141.047L127.52 141.047L127.52 281.151L365.815 281.151Z" fill="#AB8BFF"/>
<path d="M377.489 307.977H115.778C109.022 307.977 102.463 305.944 96.8872 302.074H396.314C390.805 305.878 384.18 307.977 377.489 307.977Z" fill="#C7D2D7"/>
<path d="M396.379 292.76H96.9521V301.943H396.379V292.76Z" fill="white"/>
<path d="M269.459 297.417H223.873C221.315 297.417 219.281 295.383 219.281 292.825H274.116C274.05 295.318 271.952 297.417 269.459 297.417Z" fill="#C7D2D7"/>
<path d="M338.725 245.14C332.297 236.023 321.408 228.676 320.949 217.526C320.49 206.31 331.182 196.471 329.345 185.451C328.492 180.138 324.622 175.547 319.834 173.054C315.046 170.562 309.471 169.972 304.092 170.496C292.351 171.677 281.856 178.105 271.427 183.615C260.998 189.19 249.388 194.175 237.713 192.273C229.645 190.961 222.496 186.501 215.018 183.221C207.541 180.007 198.62 178.039 191.34 181.778C178.418 188.403 178.812 207.687 168.514 217.919C163.988 222.445 157.625 224.806 153.034 229.267C145.36 236.679 143.851 248.813 146.672 259.177C148.902 267.244 153.296 274.394 158.281 281.15H342.726C347.252 269.475 346.005 255.438 338.725 245.14Z" fill="#5F46A0"/>
<path d="M170.416 183.746C173.892 180.072 179.271 177.383 179.992 172.398C180.648 167.938 176.778 163.74 172.384 162.822C167.989 161.903 163.398 163.609 159.659 166.101C150.148 172.529 143.13 187.222 147.787 198.569C155.527 217.263 166.087 188.271 170.416 183.746Z" fill="#5F46A0"/>
<path d="M202.03 173.251C209.376 170.168 207.867 158.755 199.799 158.362C194.093 158.099 188.386 163.543 191.272 169.25C193.109 173.054 198.094 174.891 202.03 173.251Z" fill="#5F46A0"/>
<path d="M329.739 218.772C330.001 221.723 330.985 224.741 333.149 226.708C335.314 228.676 338.921 229.266 341.217 227.364C343.054 225.856 343.513 223.363 343.906 221.002C344.759 216.082 350.466 198.635 340.824 199.029C332.362 199.356 329.083 212.081 329.739 218.772Z" fill="#5F46A0"/>
<path d="M365.748 141.046H127.452V149.966H365.748V141.046Z" fill="#65558F"/>
<path d="M133.028 147.539C134.151 147.539 135.061 146.629 135.061 145.506C135.061 144.383 134.151 143.473 133.028 143.473C131.905 143.473 130.995 144.383 130.995 145.506C130.995 146.629 131.905 147.539 133.028 147.539Z" fill="#CC6164"/>
<path d="M138.471 147.539C139.594 147.539 140.505 146.629 140.505 145.506C140.505 144.383 139.594 143.473 138.471 143.473C137.348 143.473 136.438 144.383 136.438 145.506C136.438 146.629 137.348 147.539 138.471 147.539Z" fill="#F0BF6C"/>
<path d="M143.981 147.539C145.104 147.539 146.014 146.629 146.014 145.506C146.014 144.383 145.104 143.473 143.981 143.473C142.858 143.473 141.948 144.383 141.948 145.506C141.948 146.629 142.858 147.539 143.981 147.539Z" fill="#62B29A"/>
<path d="M246.635 225.134L229.253 229.529L231.549 281.15H246.635H261.721L264.017 229.529L246.635 225.134Z" fill="#7DD3E9"/>
<path d="M267.622 263.375C262.965 263.571 256.865 264.752 251.093 266.785C245.321 268.819 239.877 271.705 236.138 274.525C240.598 273.017 246.174 270.852 251.88 268.884C257.521 266.851 263.228 265.014 267.622 263.375Z" fill="#5FA5CC"/>
<path d="M250.698 265.211C244.86 262.784 235.087 260.423 228.79 259.964C234.562 262.325 244.401 264.686 250.698 265.211Z" fill="#5FA5CC"/>
<path d="M273.855 251.305L269.066 256.487L274.445 260.816C276.281 262.325 276.872 264.883 275.888 267.047L269.198 281.215H309.733L302.781 257.668C299.173 245.402 289.334 235.957 276.937 232.808L264.147 229.594L274.445 245.074C275.626 246.976 275.429 249.6 273.855 251.305Z" fill="white"/>
<path d="M218.822 260.816L224.201 256.487L219.412 251.305C217.773 249.535 217.576 246.911 218.888 244.943L229.185 229.463L216.395 232.677C203.998 235.826 194.159 245.271 190.552 257.537L183.599 281.084H224.135L217.445 266.982C216.395 264.817 216.985 262.259 218.822 260.816Z" fill="white"/>
<path d="M229.252 229.529L218.954 245.009C217.643 246.977 217.839 249.6 219.479 251.371L224.267 256.553L218.889 260.882C217.052 262.391 216.462 264.949 217.446 267.113L224.136 281.281H231.548L229.252 229.529Z" fill="#E4E4E0"/>
<path d="M275.822 266.982C276.806 264.818 276.216 262.259 274.379 260.751L269.001 256.422L273.789 251.24C275.429 249.469 275.626 246.845 274.314 244.878L264.016 229.398L261.72 281.019H269.198L275.822 266.982Z" fill="#E4E4E0"/>
<path d="M205.574 279.838C206.952 274.984 207.673 268.425 207.28 261.866C206.952 255.307 205.509 248.813 203.606 244.222C203.934 249.207 204.525 255.635 204.918 261.997C205.246 268.425 205.377 274.788 205.574 279.838Z" fill="#E4E4E0"/>
<path d="M287.693 279.838C287.89 274.853 288.021 268.425 288.349 261.997C288.677 255.569 289.333 249.207 289.661 244.222C287.759 248.879 286.316 255.307 285.988 261.866C285.594 268.425 286.316 274.984 287.693 279.838Z" fill="#E4E4E0"/>
<path d="M237.19 224.15C230.434 225.79 225.449 231.365 224.465 238.252L224.203 240.023C223.219 247.042 223.153 254.126 223.94 261.144L225.187 272.032L226.958 271.835L225.711 260.947C224.924 254.06 224.99 247.107 225.974 240.22L226.236 238.449C227.089 232.283 231.549 227.298 237.584 225.855L238.699 225.593L238.305 223.888L237.19 224.15Z" fill="#495375"/>
<path d="M232.337 275.312C232.337 278.526 229.713 281.084 226.565 281.084C223.351 281.084 220.793 278.46 220.793 275.312C220.793 272.098 223.417 269.54 226.565 269.54C229.713 269.54 232.337 272.098 232.337 275.312Z" fill="#C7D2D7"/>
<path d="M230.828 275.312C230.828 277.673 228.86 279.641 226.499 279.641C224.138 279.641 222.17 277.673 222.17 275.312C222.17 272.95 224.138 270.983 226.499 270.983C228.926 270.983 230.828 272.95 230.828 275.312Z" fill="#99A3B0"/>
<path d="M229.057 275.312C229.057 276.689 227.942 277.804 226.565 277.804C225.187 277.804 224.072 276.689 224.072 275.312C224.072 273.934 225.187 272.819 226.565 272.819C227.877 272.819 229.057 273.934 229.057 275.312Z" fill="#495375"/>
<path d="M266.18 239.63L265.656 234.186C265.196 229.004 261.523 224.806 256.407 223.757L255.882 223.625L255.489 225.331L256.013 225.462C260.343 226.38 263.491 229.922 263.819 234.317L264.278 239.696C259.49 240.417 255.882 244.549 255.882 249.534V252.486H257.653V249.534C257.653 245.008 261.326 241.335 265.852 241.335C270.378 241.335 274.051 245.008 274.051 249.534V252.486H275.822V249.534C275.953 244.156 271.559 239.696 266.18 239.63Z" fill="#495375"/>
<path d="M260.537 272.623C258.242 272.623 256.339 270.721 256.339 268.425V252.552H257.192V268.491C257.192 270.327 258.701 271.77 260.472 271.77V272.623H260.537Z" fill="#C7D2D7"/>
<path d="M261.653 271.442L260.669 271.573C260.603 271.573 260.538 271.639 260.538 271.77V272.754C260.538 272.82 260.603 272.885 260.669 272.951L261.653 273.082C262.112 273.148 262.505 272.754 262.505 272.295C262.505 271.704 262.112 271.377 261.653 271.442Z" fill="#99A3B0"/>
<path d="M271.363 272.623C273.659 272.623 275.561 270.72 275.561 268.425V252.552H274.708V268.49C274.708 270.327 273.199 271.77 271.428 271.77V272.623H271.363Z" fill="#C7D2D7"/>
<path d="M270.246 271.442L271.23 271.573C271.295 271.573 271.361 271.639 271.361 271.77V272.754C271.361 272.819 271.295 272.885 271.23 272.95L270.246 273.082C269.787 273.147 269.393 272.754 269.393 272.295C269.393 271.704 269.787 271.376 270.246 271.442Z" fill="#99A3B0"/>
<path d="M232.793 225.135H260.473L246.633 234.121L232.793 225.135Z" fill="#5FA5CC"/>
<path d="M232.793 225.135L246.633 234.121L237.45 246.124L231.546 228.939L232.793 225.135Z" fill="#A8EFFA"/>
<path d="M260.473 225.135L246.633 234.121L255.816 246.124L261.719 228.939L260.473 225.135Z" fill="#A8EFFA"/>
<path d="M256.865 216.345C254.11 220.74 250.437 223.167 246.633 223.167C242.763 223.167 239.09 220.74 236.4 216.345C236.072 215.82 235.744 215.23 235.417 214.64V226.84L246.698 234.12L257.98 226.84V214.64C257.587 215.23 257.259 215.755 256.865 216.345Z" fill="#F0BF9C"/>
<path d="M246.633 234.121L240.992 241.533L243.484 246.78H246.633H249.781L252.274 241.533L246.633 234.121Z" fill="#CC6164"/>
<path d="M249.78 246.78H246.632H243.484L237.646 281.15H246.632H255.618L249.78 246.78Z" fill="#CC6164"/>
<path d="M243.483 246.78H249.845L255.618 281.15H251.879L247.615 252.749C247.353 250.847 245.648 249.404 243.745 249.404H243.024L243.483 246.78Z" fill="#A34262"/>
<path d="M235.35 199.554V214.64C235.678 215.23 236.006 215.755 236.334 216.345C239.089 220.74 242.762 223.167 246.566 223.167C250.436 223.167 254.109 220.74 256.799 216.345C257.127 215.82 257.455 215.23 257.783 214.64V199.554H235.35Z" fill="#422C4F"/>
<path d="M226.494 191.551C226.494 195.421 223.412 198.504 219.542 198.504C215.672 198.504 212.589 195.421 212.589 191.551C212.589 187.681 215.672 184.599 219.542 184.599C223.346 184.599 226.494 187.681 226.494 191.551Z" fill="#EBA588"/>
<path d="M223.344 191.552C223.344 193.651 221.639 195.421 219.474 195.421C217.375 195.421 215.604 193.716 215.604 191.552C215.604 189.453 217.31 187.682 219.474 187.682C221.639 187.682 223.344 189.387 223.344 191.552Z" fill="#E78882"/>
<path d="M273.723 198.504C277.563 198.504 280.675 195.391 280.675 191.551C280.675 187.711 277.563 184.599 273.723 184.599C269.883 184.599 266.77 187.711 266.77 191.551C266.77 195.391 269.883 198.504 273.723 198.504Z" fill="#EBA588"/>
<path d="M273.723 195.421C275.86 195.421 277.593 193.689 277.593 191.552C277.593 189.414 275.86 187.682 273.723 187.682C271.586 187.682 269.853 189.414 269.853 191.552C269.853 193.689 271.586 195.421 273.723 195.421Z" fill="#E78882"/>
<path d="M246.634 150.032C232.859 150.032 221.774 161.182 221.774 174.891V185.123C221.774 195.29 225.841 204.998 233.122 212.147C236.729 215.689 241.583 217.723 246.699 217.723C251.75 217.723 256.669 215.755 260.277 212.147C267.492 204.998 271.624 195.29 271.624 185.123V174.891C271.493 161.117 260.408 150.032 246.634 150.032Z" fill="#F0BF9C"/>
<path d="M261.392 165.249C262.9 176.99 270.771 192.535 270.771 192.535C272.673 185.582 275.297 170.168 273.657 163.084C273.001 160.133 271.558 157.115 269 155.41C266.573 153.77 262.835 153.77 261.129 156.197C259.686 158.427 261.064 162.691 261.392 165.249Z" fill="#8C404C"/>
<path d="M231.875 165.249C230.366 176.99 222.495 192.535 222.495 192.535C220.593 185.582 217.969 170.168 219.609 163.084C220.265 160.133 221.708 157.115 224.266 155.41C226.693 153.77 230.432 153.77 232.137 156.197C233.58 158.427 232.203 162.691 231.875 165.249Z" fill="#8C404C"/>
<path d="M264.54 162.494C263.95 167.413 260.998 171.808 257.128 174.891C253.258 177.974 248.601 179.876 243.747 180.991C232.99 183.614 221.446 182.762 211.214 178.629C214.231 177.711 216.133 174.169 217.183 171.152C218.232 168.135 218.495 164.921 219.347 161.904C221.381 154.623 226.825 148.326 233.777 145.309C240.73 142.292 249.06 142.685 255.751 146.227C261.195 149.244 265.262 156.328 264.54 162.494Z" fill="#8C404C"/>
<path d="M237.45 186.435C237.45 187.616 236.532 188.534 235.351 188.534C234.171 188.534 233.252 187.616 233.252 186.435C233.252 185.254 234.171 184.336 235.351 184.336C236.532 184.271 237.45 185.254 237.45 186.435Z" fill="#422C4F"/>
<path d="M257.915 188.534C259.074 188.534 260.014 187.594 260.014 186.435C260.014 185.276 259.074 184.336 257.915 184.336C256.756 184.336 255.816 185.276 255.816 186.435C255.816 187.594 256.756 188.534 257.915 188.534Z" fill="#422C4F"/>
<path d="M258.375 177.843C255.817 177.777 253.521 178.892 252.013 180.794L264.541 181.188C263.163 179.22 260.933 177.908 258.375 177.843Z" fill="#8C404C"/>
<path d="M250.306 195.618C247.945 195.027 245.452 195.093 243.157 195.814C243.747 197.126 245.19 197.979 246.633 197.979C248.011 197.979 249.585 196.864 250.306 195.618Z" fill="#EBA588"/>
<path d="M256.538 200.668C250.176 202.243 243.617 202.964 237.058 202.964C238.566 206.965 243.092 209.851 247.356 209.458C251.685 209.13 255.686 204.866 256.538 200.668Z" fill="white"/>
<path d="M258.44 161.904C256.472 163.806 254.177 165.905 251.487 167.741C248.798 169.578 245.781 171.218 242.632 172.53C239.484 173.776 236.139 174.694 232.925 175.219C229.711 175.744 226.628 175.875 223.873 175.809C226.431 176.728 229.645 177.252 233.122 177.187C236.532 177.121 240.205 176.334 243.616 174.957C247.027 173.579 250.175 171.611 252.733 169.25C255.292 166.954 257.259 164.331 258.44 161.904Z" fill="#A64F5A"/>
<path d="M251.42 163.215C247.484 165.117 242.302 167.085 236.858 168.004C231.414 168.922 225.839 168.791 221.51 168.266C223.478 169.184 225.97 169.906 228.659 170.234C231.349 170.562 234.3 170.496 237.186 170.037C240.072 169.578 242.827 168.659 245.32 167.413C247.747 166.167 249.845 164.724 251.42 163.215Z" fill="#A64F5A"/>
<path d="M251.944 149.507C249.779 151.999 246.893 155.082 243.614 157.706C240.334 160.329 236.727 162.494 233.775 164.068C237.054 163.478 241.187 161.707 244.598 158.952C248.008 156.197 250.632 152.59 251.944 149.507Z" fill="#A64F5A"/>
<path d="M202.295 144.325H105.875C102.267 144.325 99.3154 141.374 99.3154 137.766V34.9181C99.3154 31.3105 102.267 28.3589 105.875 28.3589H202.295C205.902 28.3589 208.854 31.3105 208.854 34.9181V137.766C208.854 141.374 205.968 144.325 202.295 144.325Z" fill="#454F6B"/>
<path d="M205.575 34.9183C205.575 33.0817 204.132 31.6387 202.295 31.6387H105.875C104.039 31.6387 102.596 33.0817 102.596 34.9183V41.3463H205.575V34.9183Z" fill="#402C49"/>
<path d="M102.596 41.3462V137.766C102.596 139.603 104.039 141.046 105.875 141.046H202.295C204.132 141.046 205.575 139.603 205.575 137.766V41.3462H102.596Z" fill="#E68799"/>
<path d="M108.826 38.5257C109.949 38.5257 110.86 37.6153 110.86 36.4923C110.86 35.3693 109.949 34.459 108.826 34.459C107.703 34.459 106.793 35.3693 106.793 36.4923C106.793 37.6153 107.703 38.5257 108.826 38.5257Z" fill="#CC6164"/>
<path d="M114.337 38.5257C115.46 38.5257 116.37 37.6153 116.37 36.4923C116.37 35.3693 115.46 34.459 114.337 34.459C113.214 34.459 112.304 35.3693 112.304 36.4923C112.304 37.6153 113.214 38.5257 114.337 38.5257Z" fill="#F0BF6C"/>
<path d="M119.846 38.5257C120.969 38.5257 121.88 37.6153 121.88 36.4923C121.88 35.3693 120.969 34.459 119.846 34.459C118.723 34.459 117.813 35.3693 117.813 36.4923C117.813 37.6153 118.723 38.5257 119.846 38.5257Z" fill="#62B29A"/>
<path d="M151.789 48.8231C148.443 46.3306 143.852 46.0682 139.72 46.7897C129.619 48.4951 120.698 55.1199 115.123 63.7124C109.547 72.305 107.252 82.7341 107.317 92.9664C107.383 101.034 109.023 109.299 113.417 116.055C117.812 122.745 124.765 127.533 132.242 130.419C139.72 133.305 147.787 134.289 155.855 134.683C164.973 135.076 174.352 134.617 182.748 131.075C191.144 127.533 198.49 120.449 200.392 111.529C201.245 107.659 200.917 103.33 198.752 99.9847C197.375 97.8858 195.342 96.246 194.358 94.0159C192.456 89.6212 195.079 84.6362 197.441 80.504C199.802 76.3061 202.032 71.0587 199.474 66.9264C197.965 64.4995 195.014 63.2533 192.128 63.1221C189.242 63.0565 186.487 63.9748 183.863 65.1555C179.665 67.0576 175.861 69.6157 171.597 71.2555C167.334 72.8953 162.414 73.6168 158.217 71.649C154.281 69.8125 151.198 64.7619 153.166 60.564C154.084 58.5307 155.331 57.4812 155.134 54.9887C155.003 52.6274 153.691 50.2661 151.789 48.8231Z" fill="#EBA7AC"/>
<path d="M167.07 68.1728C169.956 67.9105 172.646 66.5986 175.204 65.2868C178.746 63.5158 182.288 61.8104 185.764 60.0394C187.797 58.99 189.962 57.9405 191.274 55.9727C193.242 52.8899 192.192 48.4953 189.437 46.134C186.682 43.7727 182.681 43.2479 179.139 44.035C175.597 44.8877 172.449 46.9211 169.628 49.2168C167.202 51.1845 165.037 53.2835 162.545 55.1856C161.167 56.2351 159.921 57.1534 159.265 58.7932C156.904 64.4997 161.429 68.7632 167.07 68.1728Z" fill="#EBA7AC"/>
<path d="M183.207 78.0118L181.502 74.7978C179.731 71.5182 178.354 68.1074 177.37 64.4999L176.451 61.2203C173.959 52.4309 165.957 46.3965 156.839 46.3965H154.15H151.461C142.344 46.3965 134.341 52.4309 131.849 61.2203L130.931 64.4999C129.947 68.0418 128.504 71.5182 126.798 74.7978L125.093 78.0118C120.37 86.9323 125.355 97.8861 135.128 100.182L154.15 104.642L173.172 100.182C182.945 97.8861 187.93 86.9323 183.207 78.0118Z" fill="#8C404C"/>
<path d="M174.68 83.7838L173.499 81.2913C172.253 78.7332 171.269 76.044 170.547 73.2235L169.892 70.6654C168.121 63.7783 162.48 59.0557 156.052 59.0557H154.149H152.247C145.819 59.0557 140.113 63.7783 138.407 70.6654L137.751 73.2235C137.03 76.044 136.046 78.7332 134.8 81.2913L133.619 83.7838C130.274 90.7366 133.75 99.3291 140.703 101.166L154.149 104.642L167.596 101.166C174.483 99.3291 178.025 90.7366 174.68 83.7838Z" fill="#472948"/>
<path d="M131.849 95.4591C130.603 94.2785 129.751 92.5075 129.488 90.5397C129.226 88.572 129.554 86.5386 130.275 84.5053C130.997 82.4719 131.981 80.5698 132.899 78.602C133.817 76.6998 134.539 74.7977 134.867 73.0923C134.014 74.6009 132.965 76.2407 131.849 78.0117C130.734 79.7827 129.554 81.7504 128.767 83.9149C127.98 86.0795 127.717 88.572 128.308 90.7365C128.832 93.0322 130.275 94.7376 131.849 95.4591Z" fill="#A64F5A"/>
<path d="M176.319 95.4591C177.565 94.2785 178.418 92.5075 178.68 90.5397C178.943 88.572 178.615 86.5386 177.893 84.5053C177.172 82.4719 176.188 80.5698 175.27 78.602C174.351 76.6998 173.63 74.7977 173.302 73.0923C174.154 74.6009 175.204 76.2407 176.319 78.0117C177.434 79.7827 178.615 81.7504 179.402 83.9149C180.189 86.0795 180.451 88.572 179.861 90.7365C179.336 93.0322 177.893 94.7376 176.319 95.4591Z" fill="#A64F5A"/>
<path d="M154.085 104.052L142.606 106.938L144.18 141.046H154.085H164.055L165.629 106.938L154.085 104.052Z" fill="#645B79"/>
<path d="M167.923 129.305C164.841 129.436 160.84 130.223 157.035 131.535C153.231 132.847 149.623 134.814 147.131 136.651C150.082 135.667 153.756 134.224 157.494 132.912C161.299 131.6 165.037 130.42 167.923 129.305Z" fill="#4F4963"/>
<path d="M156.772 130.485C152.902 128.911 146.474 127.337 142.276 127.009C146.146 128.649 152.64 130.223 156.772 130.485Z" fill="#4F4963"/>
<path d="M172.056 121.368L168.908 124.779L172.449 127.599C173.696 128.583 174.089 130.289 173.368 131.666L168.973 141.046H195.735L191.143 125.5C188.716 117.433 182.223 111.201 174.089 109.102L165.628 107.003L172.449 117.236C173.302 118.482 173.105 120.187 172.056 121.368Z" fill="white"/>
<path d="M135.783 127.599L139.325 124.778L136.177 121.368C135.128 120.187 134.996 118.482 135.849 117.17L142.671 106.938L134.209 109.036C126.01 111.07 119.517 117.301 117.155 125.434L112.564 140.98H139.325L134.931 131.6C134.144 130.288 134.537 128.583 135.783 127.599Z" fill="white"/>
<path d="M142.605 106.938L135.784 117.17C134.931 118.482 135.062 120.187 136.112 121.368L139.26 124.778L135.718 127.599C134.472 128.583 134.078 130.288 134.8 131.666L139.195 141.045H144.114L142.605 106.938Z" fill="#E4E4E0"/>
<path d="M173.434 131.731C174.09 130.288 173.697 128.648 172.516 127.665L168.974 124.844L172.122 121.433C173.172 120.253 173.303 118.547 172.45 117.235L165.629 106.938L164.12 141.045H169.04L173.434 131.731Z" fill="#E4E4E0"/>
<path d="M126.994 140.193C127.913 136.979 128.372 132.65 128.11 128.321C127.913 123.992 126.929 119.728 125.683 116.646C125.879 119.925 126.339 124.189 126.535 128.386C126.798 132.65 126.863 136.848 126.994 140.193Z" fill="#E4E4E0"/>
<path d="M181.24 140.193C181.371 136.913 181.436 132.65 181.699 128.452C181.895 124.254 182.355 119.991 182.551 116.711C181.305 119.794 180.387 124.057 180.124 128.386C179.862 132.65 180.321 136.979 181.24 140.193Z" fill="#E4E4E0"/>
<path d="M160.905 98.2793C159.068 101.165 156.641 102.805 154.149 102.805C151.591 102.805 149.164 101.165 147.393 98.2793C147.196 97.8857 146.934 97.5578 146.737 97.1642V107.593L154.149 112.382L161.561 107.593V97.0986C161.364 97.4922 161.101 97.8857 160.905 98.2793Z" fill="#EBA588"/>
<path d="M146.672 87.1945V97.0989C146.869 97.4924 147.132 97.886 147.328 98.2139C149.165 101.1 151.592 102.74 154.084 102.74C156.642 102.74 159.069 101.1 160.84 98.2139C161.037 97.8204 161.299 97.4924 161.496 97.0989V87.1289H146.672V87.1945Z" fill="#422C4F"/>
<path d="M154.083 104.052L143.458 106.741L144.113 109.627C145.032 113.759 148.705 116.645 152.968 116.645H155.264C159.462 116.645 163.135 113.694 164.119 109.627L164.775 106.741L154.083 104.052Z" fill="#EBA588"/>
<path d="M154.082 52.562C144.571 52.562 136.831 60.3019 136.831 69.8127V76.8966C136.831 83.9149 139.652 90.6709 144.702 95.5903C147.195 98.0828 150.605 99.4602 154.082 99.4602C157.558 99.4602 160.969 98.0828 163.461 95.5903C168.512 90.6709 171.332 83.9149 171.332 76.8966V69.8127C171.267 60.3019 163.593 52.562 154.082 52.562Z" fill="#EBA588"/>
<path d="M147.719 77.8146C147.719 78.6017 147.063 79.2576 146.276 79.2576C145.489 79.2576 144.833 78.6017 144.833 77.8146C144.833 77.0275 145.489 76.3716 146.276 76.3716C147.063 76.3716 147.719 77.0275 147.719 77.8146Z" fill="#422C4F"/>
<path d="M160.379 77.8146C160.379 78.6017 161.035 79.2576 161.822 79.2576C162.609 79.2576 163.265 78.6017 163.265 77.8146C163.265 77.0275 162.609 76.3716 161.822 76.3716C161.035 76.3716 160.379 77.0275 160.379 77.8146Z" fill="#422C4F"/>
<path d="M156.575 84.1774C154.935 83.7838 153.23 83.8494 151.59 84.3085C152.049 85.2268 153.033 85.8172 154.017 85.8172C155.001 85.8172 156.116 85.0301 156.575 84.1774Z" fill="#E78882"/>
<path d="M159.067 88.1128C155.787 88.8343 152.376 88.8343 149.097 88.1784C149.425 90.4085 151.72 92.3107 154.016 92.4419C156.312 92.5074 158.542 90.3429 159.067 88.1128Z" fill="white"/>
<path d="M149.95 79.6514C147.786 79.6514 144.703 80.4385 142.866 81.5535C143.916 81.7503 145.293 81.6847 146.605 81.2912C147.851 80.9632 149.097 80.3729 149.95 79.6514Z" fill="#E78882"/>
<path d="M158.147 79.6514C160.312 79.6514 163.395 80.4385 165.231 81.5535C164.182 81.7503 162.804 81.6847 161.493 81.2912C160.181 80.9632 158.935 80.3729 158.147 79.6514Z" fill="#E78882"/>
<path d="M156.115 93.1631C154.737 93.2287 153.36 93.2943 151.982 93.3599C152.442 93.9502 153.294 94.3437 154.081 94.3437C154.803 94.4093 155.656 93.7534 156.115 93.1631Z" fill="#E78882"/>
<path d="M172.316 65.3524C171.791 58.0061 166.019 52.0373 158.673 51.3813C155.656 51.119 152.573 51.119 149.556 51.3813C142.209 52.1029 136.437 58.0061 135.913 65.3524L135.322 73.7482H154.147H172.972L172.316 65.3524Z" fill="#8C404C"/>
<path d="M166.609 65.3526C166.412 61.1547 165.034 57.416 162.936 54.8579C164.116 57.4816 164.903 60.8268 165.034 64.4343L165.428 73.7484H167.068L166.609 65.3526Z" fill="#A64F5A"/>
<path d="M145.291 54.8579C143.192 57.416 141.815 61.1547 141.618 65.3526L141.225 73.7484H142.864L143.258 64.4343C143.324 60.7612 144.111 57.4816 145.291 54.8579Z" fill="#A64F5A"/>
<path d="M155.787 73.7481L156.574 62.4663L158.148 73.7481H155.787Z" fill="#A64F5A"/>
<path d="M387.394 144.325H290.974C287.366 144.325 284.415 141.373 284.415 137.766V34.9176C284.415 31.31 287.366 28.3584 290.974 28.3584H387.394C391.001 28.3584 393.953 31.31 393.953 34.9176V137.766C393.953 141.373 391.001 144.325 387.394 144.325Z" fill="#454F6B"/>
<path d="M390.675 34.9178C390.675 33.0812 389.232 31.6382 387.395 31.6382H290.975C289.139 31.6382 287.696 33.0812 287.696 34.9178V41.3458H390.675V34.9178Z" fill="#402C49"/>
<path d="M287.696 41.3457V137.766C287.696 139.602 289.139 141.045 290.975 141.045H387.395C389.232 141.045 390.675 139.602 390.675 137.766V41.3457H287.696Z" fill="#F0BF6C"/>
<path d="M293.861 38.5252C294.984 38.5252 295.894 37.6148 295.894 36.4918C295.894 35.3689 294.984 34.4585 293.861 34.4585C292.738 34.4585 291.828 35.3689 291.828 36.4918C291.828 37.6148 292.738 38.5252 293.861 38.5252Z" fill="#CC6164"/>
<path d="M299.371 38.5252C300.494 38.5252 301.404 37.6148 301.404 36.4918C301.404 35.3689 300.494 34.4585 299.371 34.4585C298.248 34.4585 297.337 35.3689 297.337 36.4918C297.337 37.6148 298.248 38.5252 299.371 38.5252Z" fill="#F0BF6C"/>
<path d="M304.881 38.5252C306.003 38.5252 306.914 37.6148 306.914 36.4918C306.914 35.3689 306.003 34.4585 304.881 34.4585C303.758 34.4585 302.847 35.3689 302.847 36.4918C302.847 37.6148 303.758 38.5252 304.881 38.5252Z" fill="#62B29A"/>
<path d="M300.224 123.86C295.042 117.236 293.534 107.2 298.65 100.575C300.486 98.1484 303.176 96.2462 304.291 93.3601C305.865 89.2279 303.635 84.5708 301.077 80.9633C298.453 77.3557 295.37 73.7482 294.845 69.3535C294.321 64.3029 297.994 59.1212 302.913 57.9405C307.045 56.9566 311.44 58.5964 314.982 60.9577C318.524 63.3191 321.541 66.4019 325.018 68.8288C328.494 71.2557 332.757 73.0922 336.955 72.4363C345.286 71.1245 349.418 61.2201 357.092 57.6781C361.487 55.6448 366.996 56.0384 371.063 58.7276C375.13 61.4169 377.688 66.2051 377.622 71.1245C377.557 75.9783 374.999 80.7009 375.983 85.4891C376.835 89.8838 380.508 93.229 382.476 97.2957C385.428 103.527 384.05 111.201 380.246 116.908C376.442 122.614 370.538 126.681 364.307 129.698C348.631 137.372 327.838 141.242 311.768 132.978C307.373 130.682 303.307 127.796 300.224 123.86Z" fill="#F5D896"/>
<path d="M318.064 60.6954C315.637 59.1868 313.801 56.3008 314.391 53.4803C315.047 50.3975 318.327 48.5609 321.278 47.5114C325.017 46.1996 328.887 45.2813 332.822 44.8878C335.643 44.6254 338.594 44.6254 341.284 45.5437C343.973 46.462 346.4 48.4953 347.318 51.1846C348.302 54.2018 347.187 57.6126 344.957 59.9083C342.727 62.204 339.644 63.3847 336.496 63.8438C330.855 64.6965 322.984 63.7782 318.064 60.6954Z" fill="#F5D896"/>
<path d="M339.184 104.052L327.64 106.938L329.214 141.046H339.184H349.089L350.663 106.938L339.184 104.052Z" fill="#56438C"/>
<path d="M353.023 129.305C349.94 129.436 345.939 130.223 342.135 131.535C338.331 132.847 334.723 134.814 332.23 136.651C335.182 135.667 338.855 134.224 342.594 132.912C346.333 131.6 350.071 130.42 353.023 129.305Z" fill="#433672"/>
<path d="M341.808 130.485C337.938 128.911 331.51 127.337 327.312 127.009C331.182 128.649 337.676 130.223 341.808 130.485Z" fill="#433672"/>
<path d="M357.091 121.368L353.942 124.779L357.484 127.599C358.73 128.583 359.124 130.289 358.402 131.666L354.008 141.046H380.769L376.178 125.5C373.751 117.433 367.257 111.201 359.124 109.102L350.663 107.003L357.484 117.236C358.337 118.482 358.206 120.187 357.091 121.368Z" fill="white"/>
<path d="M320.818 127.599L324.36 124.778L321.212 121.368C320.162 120.187 320.031 118.482 320.884 117.17L327.705 106.938L319.244 109.036C311.045 111.07 304.551 117.301 302.19 125.434L297.599 140.98H324.36L319.965 131.6C319.178 130.288 319.572 128.583 320.818 127.599Z" fill="white"/>
<path d="M327.641 106.938L320.819 117.17C319.966 118.482 320.098 120.187 321.147 121.368L324.295 124.778L320.753 127.599C319.507 128.583 319.114 130.288 319.835 131.666L324.23 141.045H329.149L327.641 106.938Z" fill="#E4E4E0"/>
<path d="M358.468 131.731C359.124 130.288 358.73 128.648 357.55 127.665L354.008 124.844L357.156 121.433C358.205 120.253 358.337 118.547 357.484 117.235L350.662 106.938L349.154 141.045H354.073L358.468 131.731Z" fill="#E4E4E0"/>
<path d="M312.029 140.193C312.947 136.979 313.407 132.65 313.144 128.321C312.947 123.992 311.964 119.728 310.717 116.646C310.914 119.925 311.373 124.189 311.57 128.386C311.832 132.65 311.898 136.848 312.029 140.193Z" fill="#E4E4E0"/>
<path d="M366.273 140.193C366.404 136.913 366.47 132.65 366.732 128.452C366.929 124.254 367.388 119.991 367.585 116.711C366.339 119.794 365.421 124.057 365.158 128.386C364.896 132.65 365.355 136.979 366.273 140.193Z" fill="#E4E4E0"/>
<path d="M332.953 103.396C328.493 104.511 325.214 108.118 324.558 112.71L324.426 113.891C323.771 118.548 323.705 123.205 324.23 127.862L325.017 135.077L326.197 134.946L325.41 127.73C324.886 123.205 324.951 118.613 325.607 114.087L325.738 112.907C326.329 108.84 329.28 105.56 333.216 104.576L333.937 104.38L333.675 103.265L332.953 103.396Z" fill="#495375"/>
<path d="M329.674 137.176C329.674 139.275 327.969 140.98 325.87 140.98C323.771 140.98 322.065 139.275 322.065 137.176C322.065 135.077 323.771 133.372 325.87 133.372C327.969 133.372 329.674 135.077 329.674 137.176Z" fill="#C7D2D7"/>
<path d="M328.756 137.176C328.756 138.75 327.445 140.062 325.87 140.062C324.296 140.062 322.984 138.75 322.984 137.176C322.984 135.602 324.296 134.29 325.87 134.29C327.445 134.356 328.756 135.602 328.756 137.176Z" fill="#99A3B0"/>
<path d="M327.509 137.176C327.509 138.094 326.788 138.816 325.869 138.816C324.951 138.816 324.229 138.094 324.229 137.176C324.229 136.258 324.951 135.536 325.869 135.536C326.788 135.536 327.509 136.258 327.509 137.176Z" fill="#495375"/>
<path d="M352.041 113.628L351.713 110.021C351.45 106.61 348.958 103.855 345.613 103.133L345.285 103.068L345.022 104.183L345.35 104.249C348.171 104.839 350.27 107.2 350.532 110.086L350.86 113.628C347.712 114.153 345.285 116.842 345.285 120.122V122.09H346.465V120.122C346.465 117.105 348.892 114.678 351.91 114.678C354.927 114.678 357.354 117.105 357.354 120.122V122.09H358.534V120.122C358.469 116.645 355.583 113.694 352.041 113.628Z" fill="#495375"/>
<path d="M348.299 135.47C346.791 135.47 345.544 134.224 345.544 132.715V122.221H346.135V132.715C346.135 133.896 347.119 134.88 348.299 134.88V135.47Z" fill="#C7D2D7"/>
<path d="M349.021 134.618L348.366 134.683C348.3 134.683 348.234 134.749 348.234 134.814V135.47C348.234 135.536 348.3 135.602 348.366 135.602L349.021 135.667C349.349 135.733 349.612 135.47 349.612 135.142C349.612 134.814 349.349 134.618 349.021 134.618Z" fill="#99A3B0"/>
<path d="M355.515 135.47C357.024 135.47 358.27 134.224 358.27 132.715V122.221H357.68V132.715C357.68 133.896 356.696 134.88 355.515 134.88V135.47Z" fill="#C7D2D7"/>
<path d="M354.729 134.618L355.385 134.683C355.451 134.683 355.451 134.749 355.451 134.814V135.47C355.451 135.536 355.385 135.602 355.385 135.602L354.729 135.667C354.402 135.733 354.139 135.47 354.139 135.142C354.205 134.814 354.467 134.618 354.729 134.618Z" fill="#99A3B0"/>
<path d="M330.003 104.052H348.303L339.186 115.793L330.003 104.052Z" fill="#56438C"/>
<path d="M330.002 104.052L339.185 115.793L333.085 121.302L329.215 106.61L330.002 104.052Z" fill="#6C6FC3"/>
<path d="M348.302 104.052L339.185 115.793L345.219 121.302L349.089 106.61L348.302 104.052Z" fill="#6C6FC3"/>
<path d="M345.941 98.2793C344.105 101.165 341.678 102.805 339.185 102.805C336.693 102.805 334.2 101.165 332.429 98.2793C332.233 97.8857 331.97 97.5578 331.773 97.1642V106.282L339.185 115.858L346.597 106.282V97.0986C346.4 97.4922 346.138 97.8857 345.941 98.2793Z" fill="#BD6C67"/>
<path d="M331.706 87.1945V97.0989C331.903 97.4924 332.165 97.886 332.362 98.2139C334.199 101.1 336.625 102.74 339.118 102.74C341.61 102.74 344.103 101.1 345.874 98.2139C346.071 97.8204 346.333 97.4924 346.53 97.0989V87.1289H331.706V87.1945Z" fill="#422C4F"/>
<path d="M339.184 92.0485C352.008 92.0485 362.403 81.6527 362.403 68.8289C362.403 56.0051 352.008 45.6094 339.184 45.6094C326.36 45.6094 315.964 56.0051 315.964 68.8289C315.964 81.6527 326.36 92.0485 339.184 92.0485Z" fill="#422C4F"/>
<path d="M325.476 81.4223C325.476 84.046 323.377 86.1449 320.753 86.1449C318.13 86.1449 316.031 84.046 316.031 81.4223C316.031 78.7986 318.13 76.6997 320.753 76.6997C323.377 76.6997 325.476 78.7986 325.476 81.4223Z" fill="#A64F5A"/>
<path d="M323.377 81.4225C323.377 82.8655 322.197 84.0462 320.754 84.0462C319.311 84.0462 318.13 82.8655 318.13 81.4225C318.13 79.9795 319.311 78.7988 320.754 78.7988C322.197 78.7988 323.377 79.9795 323.377 81.4225Z" fill="#8C404C"/>
<path d="M352.826 81.4223C352.826 84.046 354.925 86.1449 357.548 86.1449C360.172 86.1449 362.271 84.046 362.271 81.4223C362.271 78.7986 360.172 76.6997 357.548 76.6997C354.925 76.6997 352.826 78.7986 352.826 81.4223Z" fill="#A64F5A"/>
<path d="M357.548 84.0462C358.997 84.0462 360.172 82.8715 360.172 81.4225C360.172 79.9735 358.997 78.7988 357.548 78.7988C356.099 78.7988 354.924 79.9735 354.924 81.4225C354.924 82.8715 356.099 84.0462 357.548 84.0462Z" fill="#8C404C"/>
<path d="M339.183 59.5806C329.869 59.5806 322.326 60.8268 322.326 70.1409V77.0936C322.326 83.9808 325.081 90.6055 330 95.3937C332.427 97.8206 335.772 99.1325 339.183 99.1325C342.594 99.1325 345.939 97.7551 348.366 95.3937C353.285 90.5399 356.04 83.9808 356.04 77.0936V70.1409C356.04 60.8268 348.497 59.5806 339.183 59.5806Z" fill="#BD6C67"/>
<path d="M332.954 77.9464C332.954 78.7335 332.298 79.3895 331.511 79.3895C330.724 79.3895 330.068 78.7335 330.068 77.9464C330.068 77.1593 330.724 76.5034 331.511 76.5034C332.298 76.5034 332.954 77.1593 332.954 77.9464Z" fill="#422C4F"/>
<path d="M345.35 77.9464C345.35 78.7335 346.006 79.3895 346.793 79.3895C347.58 79.3895 348.236 78.7335 348.236 77.9464C348.236 77.1593 347.58 76.5034 346.793 76.5034C346.006 76.5034 345.35 77.1593 345.35 77.9464Z" fill="#422C4F"/>
<path d="M330.788 70.6653C328.886 70.9277 327.312 72.1084 326.524 73.6826C329.542 73.0922 332.559 72.6987 335.642 72.5019C334.527 71.1901 332.69 70.4686 330.788 70.6653Z" fill="#422C4F"/>
<path d="M347.513 70.6653C349.416 70.9277 350.99 72.1084 351.777 73.6826C348.76 73.0922 345.742 72.6987 342.66 72.5019C343.775 71.1901 345.611 70.4686 347.513 70.6653Z" fill="#422C4F"/>
<path d="M343.906 84.0459C340.824 83.718 337.675 83.8492 334.527 84.3083C335.773 85.5546 337.478 86.4073 339.184 86.3417C340.955 86.3417 342.66 85.3578 343.906 84.0459Z" fill="#A64F5A"/>
<path d="M330.066 83.7184C331.181 83.6528 332.493 83.0625 333.608 82.2098C334.723 81.3571 335.576 80.1764 335.969 79.127C334.985 79.6517 333.936 80.5044 332.886 81.2915C331.902 82.0786 330.853 82.9313 330.066 83.7184Z" fill="#B56361"/>
<path d="M348.235 83.7184C347.12 83.6528 345.808 83.0625 344.693 82.2098C343.578 81.3571 342.725 80.1764 342.332 79.127C343.315 79.6517 344.365 80.5044 345.414 81.2915C346.398 82.0786 347.448 82.9313 348.235 83.7184Z" fill="#B56361"/>
<path d="M344.759 88.6377C341.151 89.6872 337.347 90.1463 333.542 89.8839C334.789 91.7205 337.281 92.77 339.446 92.5732C341.676 92.442 343.84 90.6055 344.759 88.6377Z" fill="white"/>
<path d="M342.267 93.7539C340.299 93.8195 338.397 93.9507 336.429 94.0163C337.282 94.6066 338.331 95.0002 339.381 94.9346C340.496 94.9346 341.48 94.4098 342.267 93.7539Z" fill="#A64F5A"/>
<path d="M144.246 280.363H47.8258C44.2182 280.363 41.2666 277.411 41.2666 273.804V170.956C41.2666 167.348 44.2182 164.396 47.8258 164.396H144.246C147.853 164.396 150.805 167.348 150.805 170.956V273.804C150.805 277.411 147.853 280.363 144.246 280.363Z" fill="#454F6B"/>
<path d="M147.525 170.956C147.525 169.119 146.082 167.676 144.246 167.676H47.8255C45.9889 167.676 44.5459 169.119 44.5459 170.956V177.384H147.525V170.956Z" fill="#402C49"/>
<path d="M44.5459 177.384V273.804C44.5459 275.64 45.9889 277.083 47.8255 277.083H144.246C146.082 277.083 147.525 275.64 147.525 273.804V177.384H44.5459Z" fill="#B193FA"/>
<path d="M50.7755 174.563C51.8985 174.563 52.8089 173.653 52.8089 172.53C52.8089 171.407 51.8985 170.497 50.7755 170.497C49.6525 170.497 48.7422 171.407 48.7422 172.53C48.7422 173.653 49.6525 174.563 50.7755 174.563Z" fill="#CC6164"/>
<path d="M56.2863 174.563C57.4093 174.563 58.3196 173.653 58.3196 172.53C58.3196 171.407 57.4093 170.497 56.2863 170.497C55.1633 170.497 54.2529 171.407 54.2529 172.53C54.2529 173.653 55.1633 174.563 56.2863 174.563Z" fill="#F0BF6C"/>
<path d="M61.7951 174.563C62.9181 174.563 63.8284 173.653 63.8284 172.53C63.8284 171.407 62.9181 170.497 61.7951 170.497C60.6721 170.497 59.7617 171.407 59.7617 172.53C59.7617 173.653 60.6721 174.563 61.7951 174.563Z" fill="#62B29A"/>
<path d="M93.7398 184.795C90.3946 182.303 85.8031 182.04 81.6709 182.762C71.5697 184.467 62.6492 191.092 57.0739 199.685C51.4986 208.277 49.2029 218.706 49.2685 228.939C49.334 237.006 50.9738 245.271 55.3685 252.027C59.7632 258.717 66.7159 263.506 74.1934 266.392C81.6709 269.278 89.7387 270.261 97.8065 270.655C106.924 271.049 116.303 270.589 124.699 267.047C133.095 263.506 140.441 256.422 142.343 247.501C143.196 243.631 142.868 239.302 140.704 235.957C139.326 233.858 137.293 232.218 136.309 229.988C134.407 225.593 137.03 220.608 139.392 216.476C141.753 212.278 143.983 207.031 141.425 202.899C139.916 200.472 136.965 199.225 134.079 199.094C131.193 199.029 128.438 199.947 125.814 201.128C121.616 203.03 117.812 205.588 113.549 207.228C109.285 208.867 104.366 209.589 100.168 207.621C96.2323 205.785 93.1494 200.734 95.1172 196.536C96.0355 194.503 97.2817 193.453 97.085 190.961C96.9538 188.6 95.6419 186.238 93.7398 184.795Z" fill="#C1B3FB"/>
<path d="M109.022 204.21C111.908 203.948 114.597 202.636 117.155 201.324C120.697 199.553 124.239 197.848 127.715 196.077C129.749 195.028 131.913 193.978 133.225 192.01C135.193 188.928 134.143 184.533 131.388 182.172C128.634 179.81 124.632 179.286 121.09 180.073C117.549 180.925 114.4 182.959 111.58 185.254C109.153 187.222 106.988 189.321 104.496 191.223C103.118 192.273 101.872 193.191 101.216 194.831C98.8548 200.472 103.381 204.735 109.022 204.21Z" fill="#C1B3FB"/>
<path d="M96.0347 240.089L84.5562 242.975L86.0648 277.083H96.0347H106.005L107.513 242.975L96.0347 240.089Z" fill="#645B79"/>
<path d="M109.874 265.342C106.791 265.473 102.79 266.261 98.9859 267.572C95.1816 268.884 91.574 270.852 89.0815 272.689C92.0332 271.705 95.7063 270.262 99.4451 268.95C103.249 267.638 106.988 266.392 109.874 265.342Z" fill="#4F4963"/>
<path d="M98.7253 266.523C94.8554 264.949 88.4274 263.374 84.2295 263.046C88.0994 264.621 94.593 266.195 98.7253 266.523Z" fill="#4F4963"/>
<path d="M114.007 257.34L110.858 260.751L114.4 263.571C115.646 264.555 116.04 266.26 115.318 267.638L110.924 277.018H137.685L133.094 261.472C130.667 253.404 124.173 247.173 116.04 245.074L107.579 242.975L114.4 253.208C115.187 254.454 115.056 256.225 114.007 257.34Z" fill="white"/>
<path d="M77.7342 263.637L81.2761 260.816L78.1277 257.406C77.0783 256.225 76.9471 254.52 77.7998 253.208L84.6213 242.975L76.16 245.074C67.961 247.108 61.4674 253.339 59.1061 261.472L54.5146 277.018H81.2761L76.8815 267.638C76.0944 266.26 76.4879 264.621 77.7342 263.637Z" fill="white"/>
<path d="M84.5561 242.975L77.7346 253.208C76.8819 254.52 77.0131 256.225 78.0625 257.406L81.2109 260.816L77.669 263.637C76.4227 264.621 76.0292 266.326 76.7507 267.703L81.1453 277.083H86.0647L84.5561 242.975Z" fill="#E4E4E0"/>
<path d="M115.319 267.703C115.975 266.26 115.582 264.621 114.401 263.637L110.859 260.816L114.008 257.406C115.057 256.225 115.188 254.52 114.336 253.208L107.514 242.975L106.005 277.083H110.925L115.319 267.703Z" fill="#E4E4E0"/>
<path d="M68.9447 276.165C69.8629 272.951 70.3221 268.622 70.0597 264.293C69.8629 259.964 68.8791 255.7 67.6328 252.617C67.8296 255.897 68.2887 260.16 68.4855 264.358C68.7479 268.622 68.8135 272.885 68.9447 276.165Z" fill="#E4E4E0"/>
<path d="M123.19 276.165C123.321 272.885 123.387 268.622 123.649 264.424C123.846 260.226 124.305 255.962 124.502 252.683C123.256 255.766 122.338 260.029 122.075 264.358C121.813 268.622 122.272 273.016 123.19 276.165Z" fill="#E4E4E0"/>
<path d="M86.9189 240.089H105.219L96.0362 245.993L86.9189 240.089Z" fill="#645B79"/>
<path d="M86.9191 240.089L96.0364 245.993L90.0019 253.929L86.0664 242.582L86.9191 240.089Z" fill="#967F92"/>
<path d="M105.219 240.089L96.0361 245.993L102.136 253.929L106.006 242.582L105.219 240.089Z" fill="#967F92"/>
<path d="M102.858 234.252C101.022 237.138 98.5948 238.777 96.1023 238.777C93.5442 238.777 91.1173 237.138 89.3463 234.252C89.1496 233.858 88.8872 233.53 88.6904 233.136V241.204L96.1023 245.992L103.514 241.204V233.136C103.252 233.53 103.055 233.924 102.858 234.252Z" fill="#EBA588"/>
<path d="M96.0356 245.992L92.2969 250.912L93.9367 254.388H96.0356H98.1346L99.7744 250.912L96.0356 245.992Z" fill="#73D2F2"/>
<path d="M98.136 254.388H96.0371H93.9381L90.1338 277.083H96.0371H101.94L98.136 254.388Z" fill="#73D2F2"/>
<path d="M93.9373 254.388H98.1352L101.94 277.083H99.4471L96.6266 258.324C96.4298 257.077 95.3148 256.094 94.0685 256.094H93.6094L93.9373 254.388Z" fill="#5AA5C7"/>
<path d="M88.626 223.167V233.136C88.8228 233.53 89.0851 233.924 89.2819 234.252C91.1185 237.138 93.5454 238.777 96.0379 238.777C98.5959 238.777 101.023 237.138 102.794 234.252C102.991 233.858 103.253 233.53 103.45 233.136V223.167H88.626Z" fill="#422C4F"/>
<path d="M110.794 216.804C110.794 219.624 113.09 221.855 115.845 221.855C118.665 221.855 120.896 219.559 120.896 216.804C120.896 213.984 118.6 211.753 115.845 211.753C113.025 211.753 110.794 214.049 110.794 216.804Z" fill="#E78882"/>
<path d="M113.026 216.804C113.026 218.378 114.272 219.624 115.846 219.624C117.421 219.624 118.667 218.378 118.667 216.804C118.667 215.23 117.421 213.983 115.846 213.983C114.272 214.049 113.026 215.295 113.026 216.804Z" fill="#DE7274"/>
<path d="M117.811 206.965C117.352 212.278 111.383 220.543 111.383 220.543L112.498 198.438L115.581 201.325C116.959 202.636 117.746 204.342 117.811 206.244V206.965Z" fill="#472948"/>
<path d="M81.2503 217.446C81.6082 214.68 79.6558 212.148 76.8896 211.79C74.1234 211.432 71.5908 213.384 71.233 216.151C70.8751 218.917 72.8274 221.449 75.5936 221.807C78.3598 222.165 80.8924 220.213 81.2503 217.446Z" fill="#E78882"/>
<path d="M79.0462 216.804C79.0462 218.379 77.7999 219.625 76.2257 219.625C74.6515 219.625 73.4053 218.379 73.4053 216.804C73.4053 215.23 74.6515 213.984 76.2257 213.984C77.7999 214.049 79.0462 215.296 79.0462 216.804Z" fill="#DE7274"/>
<path d="M74.3242 206.965C74.7834 212.278 80.7522 220.543 80.7522 220.543L79.6372 198.438L76.5543 201.325C75.1769 202.636 74.3898 204.342 74.3242 206.244V206.965Z" fill="#472948"/>
<path d="M96.0352 186.5C85.9996 186.5 77.8662 194.634 77.8662 204.669V212.147C77.8662 219.559 80.8179 226.643 86.1308 231.89C88.7545 234.514 92.2964 235.957 96.0352 235.957C99.7083 235.957 103.316 234.514 105.94 231.89C111.252 226.708 114.204 219.559 114.204 212.147V204.669C114.204 194.634 106.071 186.5 96.0352 186.5Z" fill="#EBA588"/>
<path d="M89.3444 213.065C89.3444 213.918 88.6884 214.574 87.8358 214.574C86.9831 214.574 86.3271 213.918 86.3271 213.065C86.3271 212.213 86.9831 211.557 87.8358 211.557C88.6884 211.557 89.3444 212.213 89.3444 213.065Z" fill="#422C4F"/>
<path d="M102.724 213.065C102.724 213.918 103.38 214.574 104.233 214.574C105.085 214.574 105.741 213.918 105.741 213.065C105.741 212.213 105.085 211.557 104.233 211.557C103.446 211.557 102.724 212.213 102.724 213.065Z" fill="#422C4F"/>
<path d="M99.1832 220.215C97.1499 219.821 95.0509 219.821 93.0176 220.215C93.6735 221.264 94.5918 222.117 95.838 222.117C96.9531 222.248 98.4617 221.264 99.1832 220.215Z" fill="#E78882"/>
<path d="M86.7202 204.014C84.9492 204.342 83.4406 205.457 82.5879 206.9C85.6051 206.572 88.6879 205.981 91.6396 205.26C90.2621 204.21 88.4912 203.686 86.7202 204.014Z" fill="#472948"/>
<path d="M105.415 204.014C107.186 204.342 108.695 205.457 109.547 206.9C106.53 206.572 103.447 205.981 100.496 205.26C101.873 204.21 103.644 203.686 105.415 204.014Z" fill="#472948"/>
<path d="M102.463 223.757C98.3967 225.2 93.8053 225.331 89.6074 224.15C90.1977 225.921 91.3784 227.824 92.9526 228.807C94.5268 229.791 96.6257 230.054 98.3311 229.201C99.315 228.742 100.102 227.955 100.758 227.036C101.414 226.118 102.07 224.741 102.463 223.757Z" fill="white"/>
<path d="M98.0029 230.578C96.6911 230.644 95.3792 230.644 94.0674 230.71C94.5265 231.3 95.3792 231.693 96.1007 231.628C96.8878 231.628 97.5438 231.169 98.0029 230.578Z" fill="#E78882"/>
<path d="M445.441 280.363H349.021C345.414 280.363 342.462 277.411 342.462 273.804V170.956C342.462 167.348 345.414 164.396 349.021 164.396H445.441C449.049 164.396 452 167.348 452 170.956V273.804C452 277.411 449.049 280.363 445.441 280.363Z" fill="#454F6B"/>
<path d="M448.721 170.956C448.721 169.119 447.277 167.676 445.441 167.676H349.021C347.184 167.676 345.741 169.119 345.741 170.956V177.384H448.721V170.956Z" fill="#402C49"/>
<path d="M345.741 177.384V273.804C345.741 275.64 347.184 277.083 349.021 277.083H445.441C447.277 277.083 448.721 275.64 448.721 273.804V177.384H345.741Z" fill="#62B29A"/>
<path d="M351.972 174.563C353.095 174.563 354.006 173.653 354.006 172.53C354.006 171.407 353.095 170.497 351.972 170.497C350.849 170.497 349.939 171.407 349.939 172.53C349.939 173.653 350.849 174.563 351.972 174.563Z" fill="#CC6164"/>
<path d="M357.415 174.563C358.538 174.563 359.448 173.653 359.448 172.53C359.448 171.407 358.538 170.497 357.415 170.497C356.292 170.497 355.381 171.407 355.381 172.53C355.381 173.653 356.292 174.563 357.415 174.563Z" fill="#F0BF6C"/>
<path d="M362.925 174.563C364.048 174.563 364.959 173.653 364.959 172.53C364.959 171.407 364.048 170.497 362.925 170.497C361.802 170.497 360.892 171.407 360.892 172.53C360.892 173.653 361.802 174.563 362.925 174.563Z" fill="#62B29A"/>
<path d="M394.871 184.795C391.525 182.303 386.934 182.04 382.802 182.762C372.701 184.467 363.78 191.092 358.205 199.685C352.629 208.277 350.334 218.706 350.399 228.939C350.465 237.006 352.105 245.271 356.499 252.027C360.894 258.717 367.847 263.506 375.324 266.392C382.802 269.278 390.87 270.261 398.937 270.655C408.055 271.049 417.434 270.589 425.83 267.047C434.226 263.506 441.572 256.422 443.474 247.501C444.327 243.631 443.999 239.302 441.834 235.957C440.457 233.858 438.424 232.218 437.44 229.988C435.538 225.593 438.161 220.608 440.523 216.476C442.884 212.278 445.114 207.031 442.556 202.899C441.047 200.472 438.096 199.225 435.21 199.094C432.324 199.029 429.569 199.947 426.945 201.128C422.747 203.03 418.943 205.588 414.679 207.228C410.416 208.867 405.497 209.589 401.299 207.621C397.363 205.785 394.28 200.734 396.248 196.536C397.166 194.503 398.413 193.453 398.216 190.961C398.085 188.6 396.838 186.238 394.871 184.795Z" fill="#52969E"/>
<path d="M410.153 204.21C413.039 203.948 415.729 202.636 418.287 201.324C421.829 199.553 425.371 197.848 428.847 196.077C430.88 195.028 433.045 193.978 434.357 192.01C436.324 188.928 435.275 184.533 432.52 182.172C429.765 179.81 425.764 179.286 422.222 180.073C418.68 180.925 415.532 182.959 412.711 185.254C410.284 187.222 408.12 189.321 405.627 191.223C404.25 192.273 403.004 193.191 402.348 194.831C399.987 200.472 404.578 204.735 410.153 204.21Z" fill="#52969E"/>
<path d="M374.998 260.16C372.636 260.554 370.209 259.832 368.373 258.258C366.602 256.684 365.421 254.454 365.487 252.092C363.126 251.764 360.961 249.993 360.239 247.763C359.452 245.468 360.108 242.778 361.748 241.073C359.846 239.302 358.993 236.482 359.584 233.989C360.174 231.431 362.142 228.873 364.569 228.02C363.388 226.905 363.06 225.003 363.716 223.56C364.372 222.117 366.077 221.133 367.651 221.264C366.536 219.493 366.143 217.329 366.536 215.295C366.93 213.262 368.242 210.966 369.947 209.786C367.192 208.08 365.552 204.801 365.815 201.587C366.077 198.373 368.242 195.421 371.259 194.175C370.669 192.535 370.997 190.567 372.046 189.124C373.096 187.681 374.932 186.894 376.703 187.025C377.031 184.402 378.802 181.975 381.229 180.86C383.656 179.745 386.935 179.876 389.166 181.319C390.543 178.761 393.823 177.646 396.709 178.105C399.595 178.564 402.087 180.335 404.12 182.434C405.563 180.794 408.515 180.138 410.614 180.794C412.713 181.45 414.353 183.418 414.615 185.582C417.436 184.664 420.781 185.779 422.486 188.206C424.192 190.633 423.995 194.175 422.158 196.47C425.372 198.963 426.094 203.948 423.929 207.424C425.635 207.687 427.143 208.802 427.996 210.31C428.849 211.819 428.98 213.656 428.324 215.295C430.751 215.689 432.981 217.722 434.227 219.887C435.473 222.051 435.605 224.806 434.686 227.102C437.048 228.414 438.687 231.562 438.687 234.317C438.687 237.006 437.113 239.696 434.752 241.007C435.801 242.713 436.064 244.943 435.408 246.845C434.752 248.747 433.243 250.387 431.407 251.174C430.816 253.732 429.177 255.962 427.012 257.405C424.454 259.111 421.306 259.504 418.288 259.898C407.007 261.144 395.594 261.472 384.246 260.882C381.426 260.554 377.556 259.701 374.998 260.16Z" fill="#472948"/>
<path d="M397.233 240.089L385.755 242.975L387.264 277.083H397.233H407.203L408.712 242.975L397.233 240.089Z" fill="#F0BF6C"/>
<path d="M411.074 265.342C407.991 265.473 403.99 266.261 400.186 267.572C396.381 268.884 392.774 270.852 390.281 272.689C393.233 271.705 396.906 270.262 400.645 268.95C404.384 267.638 408.188 266.392 411.074 265.342Z" fill="#EBA25D"/>
<path d="M399.923 266.523C396.053 264.949 389.625 263.374 385.427 263.046C389.297 264.621 395.725 266.195 399.923 266.523Z" fill="#EBA25D"/>
<path d="M415.139 257.34L411.991 260.751L415.533 263.571C416.779 264.555 417.173 266.26 416.451 267.638L412.057 277.018H438.818L434.227 261.472C431.8 253.404 425.306 247.173 417.173 245.074L408.711 242.975L415.533 253.208C416.386 254.454 416.255 256.225 415.139 257.34Z" fill="white"/>
<path d="M378.867 263.637L382.409 260.816L379.261 257.406C378.212 256.225 378.08 254.52 378.933 253.208L385.755 242.975L377.293 245.074C369.094 247.108 362.601 253.339 360.239 261.472L355.648 277.018H382.409L378.015 267.638C377.228 266.26 377.621 264.621 378.867 263.637Z" fill="white"/>
<path d="M385.755 242.975L378.933 253.208C378.081 254.52 378.212 256.225 379.261 257.406L382.41 260.816L378.868 263.637C377.621 264.621 377.228 266.326 377.949 267.703L382.344 277.083H387.263L385.755 242.975Z" fill="#E4E4E0"/>
<path d="M416.517 267.703C417.173 266.26 416.779 264.621 415.598 263.637L412.056 260.816L415.205 257.406C416.254 256.225 416.386 254.52 415.533 253.208L408.711 242.975L407.203 277.083H412.122L416.517 267.703Z" fill="#E4E4E0"/>
<path d="M370.079 276.165C370.998 272.951 371.457 268.622 371.194 264.293C370.998 259.964 370.014 255.7 368.768 252.617C368.964 255.897 369.423 260.16 369.62 264.358C369.883 268.622 369.948 272.885 370.079 276.165Z" fill="#E4E4E0"/>
<path d="M424.322 276.165C424.453 272.885 424.519 268.622 424.781 264.424C424.978 260.226 425.437 255.963 425.634 252.683C424.388 255.766 423.469 260.029 423.207 264.358C422.945 268.622 423.404 273.017 424.322 276.165Z" fill="#E4E4E0"/>
<path d="M391.003 239.433C386.543 240.549 383.263 244.156 382.607 248.747L382.476 249.928C381.82 254.585 381.755 259.242 382.28 263.899L383.067 271.114L384.247 270.983L383.46 263.768C382.935 259.242 383.001 254.651 383.657 250.125L383.788 248.944C384.378 244.878 387.33 241.598 391.266 240.614L391.987 240.417L391.725 239.302L391.003 239.433Z" fill="#495375"/>
<path d="M387.788 273.213C387.788 275.312 386.083 277.018 383.984 277.018C381.885 277.018 380.18 275.312 380.18 273.213C380.18 271.114 381.885 269.409 383.984 269.409C386.017 269.409 387.788 271.114 387.788 273.213Z" fill="#C7D2D7"/>
<path d="M386.804 273.213C386.804 274.787 385.492 276.099 383.918 276.099C382.344 276.099 381.032 274.787 381.032 273.213C381.032 271.639 382.344 270.327 383.918 270.327C385.492 270.327 386.804 271.639 386.804 273.213Z" fill="#99A3B0"/>
<path d="M385.558 273.213C385.558 274.132 384.836 274.853 383.918 274.853C383 274.853 382.278 274.132 382.278 273.213C382.278 272.295 383 271.573 383.918 271.573C384.836 271.573 385.558 272.295 385.558 273.213Z" fill="#495375"/>
<path d="M410.091 249.666L409.763 246.058C409.5 242.647 407.008 239.892 403.663 239.171L403.335 239.105L403.072 240.22L403.4 240.286C406.221 240.876 408.32 243.238 408.582 246.124L408.91 249.666C405.762 250.19 403.335 252.88 403.335 256.159V258.127H404.515V256.159C404.515 253.142 406.942 250.715 409.959 250.715C412.977 250.715 415.404 253.142 415.404 256.159V258.127H416.584V256.159C416.584 252.617 413.698 249.731 410.091 249.666Z" fill="#495375"/>
<path d="M406.416 271.442C404.907 271.442 403.661 270.196 403.661 268.687V258.193H404.251V268.687C404.251 269.868 405.235 270.852 406.416 270.852V271.442Z" fill="#C7D2D7"/>
<path d="M407.139 270.655L406.483 270.721C406.417 270.721 406.417 270.786 406.417 270.852V271.508C406.417 271.573 406.483 271.639 406.483 271.639L407.139 271.705C407.466 271.77 407.729 271.508 407.729 271.18C407.663 270.852 407.401 270.59 407.139 270.655Z" fill="#99A3B0"/>
<path d="M413.566 271.442C415.075 271.442 416.321 270.196 416.321 268.687V258.193H415.731V268.687C415.731 269.868 414.747 270.852 413.566 270.852V271.442Z" fill="#C7D2D7"/>
<path d="M412.845 270.655L413.501 270.721C413.567 270.721 413.567 270.786 413.567 270.852V271.508C413.567 271.573 413.501 271.639 413.501 271.639L412.845 271.705C412.517 271.77 412.255 271.508 412.255 271.18C412.255 270.852 412.517 270.59 412.845 270.655Z" fill="#99A3B0"/>
<path d="M403.989 234.252C402.153 237.138 399.726 238.778 397.233 238.778C394.675 238.778 392.248 237.138 390.477 234.252C390.28 233.858 390.018 233.531 389.821 233.137V245.534C394.347 248.485 400.185 248.485 404.711 245.534V233.137C404.448 233.531 404.186 233.924 403.989 234.252Z" fill="#BD6C67"/>
<path d="M389.756 223.167V233.137C389.953 233.531 390.215 233.924 390.412 234.252C392.248 237.138 394.675 238.778 397.168 238.778C399.726 238.778 402.153 237.138 403.924 234.252C404.12 233.858 404.383 233.531 404.58 233.137V223.167H389.756Z" fill="#422C4F"/>
<path d="M383.326 217.723C383.326 220.346 381.227 222.445 378.603 222.445C375.98 222.445 373.881 220.346 373.881 217.723C373.881 215.099 375.98 213 378.603 213C381.227 213 383.326 215.099 383.326 217.723Z" fill="#A64F5A"/>
<path d="M381.228 217.723C381.228 219.166 380.047 220.346 378.604 220.346C377.161 220.346 375.98 219.166 375.98 217.723C375.98 216.28 377.161 215.099 378.604 215.099C380.047 215.099 381.228 216.28 381.228 217.723Z" fill="#8C404C"/>
<path d="M379.26 222.511C379.26 222.97 378.867 223.364 378.407 223.364C377.948 223.364 377.555 222.97 377.555 222.511C377.555 222.052 377.948 221.658 378.407 221.658C378.867 221.658 379.26 222.052 379.26 222.511Z" fill="white"/>
<path d="M410.876 217.723C410.876 220.346 412.975 222.445 415.599 222.445C418.222 222.445 420.321 220.346 420.321 217.723C420.321 215.099 418.222 213 415.599 213C413.04 213 410.876 215.099 410.876 217.723Z" fill="#A64F5A"/>
<path d="M413.041 217.723C413.041 219.166 414.222 220.346 415.665 220.346C417.108 220.346 418.288 219.166 418.288 217.723C418.288 216.28 417.108 215.099 415.665 215.099C414.222 215.099 413.041 216.28 413.041 217.723Z" fill="#8C404C"/>
<path d="M415.009 222.511C415.009 222.97 415.402 223.364 415.861 223.364C416.321 223.364 416.714 222.97 416.714 222.511C416.714 222.052 416.321 221.658 415.861 221.658C415.402 221.658 415.009 222.052 415.009 222.511Z" fill="white"/>
<path d="M397.102 197.979C387.722 197.979 380.113 199.488 380.113 208.868V213.328C380.113 220.281 382.934 226.906 387.853 231.759C390.346 234.186 393.625 235.564 397.102 235.564C400.578 235.564 403.923 234.186 406.35 231.759C411.269 226.906 414.09 220.215 414.09 213.328V208.868C414.155 199.488 406.547 197.979 397.102 197.979Z" fill="#BD6C67"/>
<path d="M397.102 193.912C405.433 193.912 412.516 196.93 415.599 202.374V201.39C415.599 192.01 407.335 186.5 397.102 186.5C386.87 186.5 378.605 192.01 378.605 201.39V202.374C381.688 196.93 388.838 193.912 397.102 193.912Z" fill="#F0BF6C"/>
<path d="M390.871 214.246C390.871 215.033 390.215 215.689 389.428 215.689C388.641 215.689 387.985 215.033 387.985 214.246C387.985 213.459 388.641 212.803 389.428 212.803C390.215 212.803 390.871 213.459 390.871 214.246Z" fill="#422C4F"/>
<path d="M403.398 214.246C403.398 215.033 404.054 215.689 404.841 215.689C405.629 215.689 406.284 215.033 406.284 214.246C406.284 213.459 405.629 212.803 404.841 212.803C404.054 212.803 403.398 213.459 403.398 214.246Z" fill="#422C4F"/>
<path d="M401.233 220.674C398.544 220.084 395.723 220.15 393.1 220.871C393.821 222.183 395.395 223.036 397.035 223.101C398.675 223.101 400.446 221.921 401.233 220.674Z" fill="#A64F5A"/>
<path d="M389.296 207.228C387.722 207.293 386.41 208.08 385.558 209.195L393.101 208.999C392.248 207.883 390.871 207.228 389.296 207.228Z" fill="#472948"/>
<path d="M404.973 207.228C406.548 207.293 407.859 208.08 408.712 209.195L401.169 208.999C402.022 207.883 403.399 207.228 404.973 207.228Z" fill="#472948"/>
<path d="M402.414 224.741C399.069 225.462 395.527 225.462 392.182 224.675C392.51 226.052 393.1 227.561 394.149 228.545C395.199 229.529 396.773 230.054 398.216 229.726C399.266 229.463 400.184 228.742 400.84 227.889C401.496 226.971 402.086 225.725 402.414 224.741Z" fill="white"/>
</svg>
