<svg width="24" height="24" viewBox="0 0 24 24" fill="none" xmlns="http://www.w3.org/2000/svg">
<g clip-path="url(#clip0_8233_4337)">
<path d="M24 0H0V8H24V0Z" fill="#0090DA"/>
<path d="M24 8H0V16H24V8Z" fill="#78BE20"/>
<path d="M24 16H0V24H24V16Z" fill="#FEDD00"/>
<path d="M11.6406 16.991L12.5006 17.9001L12.7464 5.516L12.2549 5L11.6406 16.991Z" fill="#CC0033"/>
<path d="M18.5184 18.1459L20.1647 17.4333C16.995 14.2882 15.1767 13.1333 12.179 13.0596C8.37035 13.3299 5.88861 14.8533 4.83203 17.8756L5.56917 17.7282C8.59149 13.9933 10.3115 14.411 12.2281 14.1899C14.2675 14.2636 16.3561 15.5904 18.5184 18.1459Z" fill="#CC0033"/>
<path d="M7.41243 5.36865L5.83984 5.78637C7.36328 8.48924 9.55016 10.1356 12.3513 10.2584C16.0617 10.283 18.1994 7.77667 19.6737 5.51608L18.4205 5.88466C16.0371 9.25097 13.4571 9.37383 12.3022 9.20183C10.361 9.05441 8.76387 7.45724 7.41243 5.36865Z" fill="#CC0033"/>
</g>
<defs>
<clipPath id="clip0_8233_4337">
<rect width="24" height="24" rx="12" fill="white"/>
</clipPath>
</defs>
</svg>
