<svg width="48" height="48" viewBox="0 0 48 48" fill="none" xmlns="http://www.w3.org/2000/svg">
<mask id="mask0_3225_76321" style="mask-type:alpha" maskUnits="userSpaceOnUse" x="0" y="0" width="48" height="48">
<rect width="48" height="48" fill="#D9D9D9"/>
</mask>
<g mask="url(#mask0_3225_76321)">
<path d="M8 40C6.9 40 5.95833 39.6083 5.175 38.825C4.39167 38.0417 4 37.1 4 36V12C4 10.9 4.39167 9.95833 5.175 9.175C5.95833 8.39167 6.9 8 8 8H20L24 12H40C41.1 12 42.0417 12.3917 42.825 13.175C43.6083 13.9583 44 14.9 44 16V36C44 37.1 43.6083 38.0417 42.825 38.825C42.0417 39.6083 41.1 40 40 40H8ZM22 34H38V32.9C38 31.4 37.2667 30.2083 35.8 29.325C34.3333 28.4417 32.4 28 30 28C27.6 28 25.6667 28.4417 24.2 29.325C22.7333 30.2083 22 31.4 22 32.9V34ZM30 26C31.1 26 32.0417 25.6083 32.825 24.825C33.6083 24.0417 34 23.1 34 22C34 20.9 33.6083 19.9583 32.825 19.175C32.0417 18.3917 31.1 18 30 18C28.9 18 27.9583 18.3917 27.175 19.175C26.3917 19.9583 26 20.9 26 22C26 23.1 26.3917 24.0417 27.175 24.825C27.9583 25.6083 28.9 26 30 26Z" fill="#65558F"/>
</g>
</svg>
