<svg width="49" height="48" viewBox="0 0 49 48" fill="none" xmlns="http://www.w3.org/2000/svg">
<mask id="mask0_3225_73602" style="mask-type:alpha" maskUnits="userSpaceOnUse" x="0" y="0" width="49" height="48">
<rect x="0.666748" width="48" height="48" fill="#D9D9D9"/>
</mask>
<g mask="url(#mask0_3225_73602)">
<path d="M0.666748 36V32.85C0.666748 31.4167 1.40008 30.25 2.86675 29.35C4.33341 28.45 6.26675 28 8.66675 28C9.10008 28 9.51675 28.0083 9.91675 28.025C10.3167 28.0417 10.7001 28.0833 11.0667 28.15C10.6001 28.85 10.2501 29.5833 10.0167 30.35C9.78341 31.1167 9.66675 31.9167 9.66675 32.75V36H0.666748ZM12.6667 36V32.75C12.6667 31.6833 12.9584 30.7083 13.5417 29.825C14.1251 28.9417 14.9501 28.1667 16.0167 27.5C17.0834 26.8333 18.3584 26.3333 19.8417 26C21.3251 25.6667 22.9334 25.5 24.6667 25.5C26.4334 25.5 28.0584 25.6667 29.5417 26C31.0251 26.3333 32.3001 26.8333 33.3667 27.5C34.4334 28.1667 35.2501 28.9417 35.8167 29.825C36.3834 30.7083 36.6667 31.6833 36.6667 32.75V36H12.6667ZM39.6667 36V32.75C39.6667 31.8833 39.5584 31.0667 39.3417 30.3C39.1251 29.5333 38.8001 28.8167 38.3667 28.15C38.7334 28.0833 39.1084 28.0417 39.4917 28.025C39.8751 28.0083 40.2667 28 40.6667 28C43.0667 28 45.0001 28.4417 46.4667 29.325C47.9334 30.2083 48.6667 31.3833 48.6667 32.85V36H39.6667ZM8.66675 26C7.56675 26 6.62508 25.6083 5.84175 24.825C5.05841 24.0417 4.66675 23.1 4.66675 22C4.66675 20.8667 5.05841 19.9167 5.84175 19.15C6.62508 18.3833 7.56675 18 8.66675 18C9.80008 18 10.7501 18.3833 11.5167 19.15C12.2834 19.9167 12.6667 20.8667 12.6667 22C12.6667 23.1 12.2834 24.0417 11.5167 24.825C10.7501 25.6083 9.80008 26 8.66675 26ZM40.6667 26C39.5667 26 38.6251 25.6083 37.8417 24.825C37.0584 24.0417 36.6667 23.1 36.6667 22C36.6667 20.8667 37.0584 19.9167 37.8417 19.15C38.6251 18.3833 39.5667 18 40.6667 18C41.8001 18 42.7501 18.3833 43.5168 19.15C44.2834 19.9167 44.6667 20.8667 44.6667 22C44.6667 23.1 44.2834 24.0417 43.5168 24.825C42.7501 25.6083 41.8001 26 40.6667 26ZM24.6667 24C23.0001 24 21.5834 23.4167 20.4167 22.25C19.2501 21.0833 18.6667 19.6667 18.6667 18C18.6667 16.3 19.2501 14.875 20.4167 13.725C21.5834 12.575 23.0001 12 24.6667 12C26.3667 12 27.7917 12.575 28.9417 13.725C30.0917 14.875 30.6667 16.3 30.6667 18C30.6667 19.6667 30.0917 21.0833 28.9417 22.25C27.7917 23.4167 26.3667 24 24.6667 24Z" fill="#65558F"/>
</g>
</svg>
