<svg width="160" height="48" viewBox="0 0 160 48" fill="none" xmlns="http://www.w3.org/2000/svg">
<g clip-path="url(#clip0_6254_120827)">
<path d="M47.6304 26.1548H44.1207V17.2349L40.1637 23.7377H39.7693L35.8124 17.2349V26.1548H32.3047V10.8291H35.8124L39.9612 17.6314L44.1207 10.8291H47.6304V26.1548Z" fill="#CCE8E8"/>
<path d="M51.5631 24.1653C50.8044 23.4305 50.2057 22.5468 49.8046 21.5697C49.4036 20.5926 49.2087 19.5431 49.2324 18.4872C49.2085 17.4325 49.4033 16.3842 49.8044 15.4084C50.2055 14.4327 50.8043 13.5505 51.5631 12.8176C53.0669 11.3439 55.0884 10.5186 57.1938 10.5186C59.2992 10.5186 61.3207 11.3439 62.8244 12.8176C64.3873 14.3425 65.1741 16.2409 65.1741 18.4872C65.1741 20.7335 64.3937 22.6361 62.8307 24.1653C61.3239 25.6329 59.3035 26.4542 57.2001 26.4542C55.0966 26.4542 53.0763 25.6329 51.5695 24.1653H51.5631ZM60.365 21.7903C61.2319 20.9466 61.6601 19.8561 61.6601 18.4872C61.6601 17.1183 61.2382 16.0152 60.365 15.182C59.5052 14.3771 58.3715 13.9293 57.1938 13.9293C56.016 13.9293 54.8823 14.3771 54.0225 15.182C53.1577 16.0257 52.7296 17.1183 52.7296 18.4872C52.7296 19.8561 53.1514 20.9571 54.0225 21.7903C54.8823 22.5952 56.016 23.043 57.1938 23.043C58.3715 23.043 59.5052 22.5952 60.365 21.7903Z" fill="#CCE8E8"/>
<path d="M78.8151 26.1548H76.1849L70.279 17.8444V26.1548H66.7734V10.8291H69.3952L75.3011 19.1395V10.8291H78.8088L78.8151 26.1548Z" fill="#CCE8E8"/>
<path d="M95.3362 26.1543H91.8265V14.1971H87.8906V10.8223H99.27V14.1971H95.3362V26.1543Z" fill="#CCE8E8"/>
<path d="M100.962 24.1655C100.203 23.4307 99.6042 22.547 99.2031 21.5699C98.802 20.5928 98.6072 19.5433 98.6309 18.4874C98.607 17.4327 98.8017 16.3844 99.2028 15.4086C99.6039 14.4328 100.203 13.5507 100.962 12.8177C102.466 11.344 104.488 10.5186 106.593 10.5186C108.699 10.5186 110.721 11.344 112.225 12.8177C113.786 14.3469 114.566 16.2305 114.566 18.4874C114.566 20.7443 113.786 22.6363 112.225 24.1655C110.717 25.6327 108.697 26.4537 106.593 26.4537C104.49 26.4537 102.469 25.6327 100.962 24.1655ZM109.763 21.7905C110.63 20.9468 111.059 19.8563 111.059 18.4874C111.059 17.1185 110.637 16.0154 109.763 15.1822C108.904 14.3779 107.771 13.9305 106.593 13.9305C105.416 13.9305 104.283 14.3779 103.423 15.1822C102.556 16.0259 102.128 17.1185 102.128 18.4874C102.128 19.8563 102.55 20.9573 103.423 21.7905C104.283 22.5947 105.416 23.0422 106.593 23.0422C107.771 23.0422 108.904 22.5947 109.763 21.7905Z" fill="#CCE8E8"/>
<path d="M117.859 25.0644C116.737 24.1342 116.172 22.8391 116.172 21.2045V10.8291H119.68V20.8923C119.68 22.3266 120.482 23.0437 122.086 23.0437C123.691 23.0437 124.493 22.3266 124.493 20.8923V10.8291H127.99V21.2045C127.99 24.4864 126.021 26.2364 122.084 26.4544C120.395 26.4544 118.983 25.9945 117.859 25.0644Z" fill="#CCE8E8"/>
<path d="M129.59 26.186V10.8602H135.591C136.836 10.8267 138.049 11.2533 138.999 12.0583C139.463 12.444 139.833 12.9308 140.08 13.4814C140.326 14.032 140.444 14.6318 140.423 15.2348C140.423 16.5003 139.974 17.5022 139.086 18.2405C140.336 18.9892 140.967 20.1388 140.967 21.6954C140.967 23.0538 140.486 24.1337 139.514 24.9563C138.539 25.7828 137.294 26.2207 136.017 26.186H129.59ZM135.591 16.861C136.371 16.861 136.82 16.4118 136.915 15.5027C136.915 14.7117 136.479 14.2624 135.591 14.1443H133.093V16.861H135.591ZM136.012 22.904C136.889 22.904 137.373 22.4118 137.466 21.4275C137.466 20.5838 136.985 20.0903 136.012 19.9511H133.093V22.904H136.012Z" fill="#CCE8E8"/>
<path d="M146.067 26.1861H142.57V10.8604H146.067V26.1861Z" fill="#CCE8E8"/>
<path d="M147.676 26.1859V10.8602H153.674C154.921 10.827 156.135 11.2535 157.087 12.0582C157.551 12.444 157.92 12.9309 158.167 13.4815C158.413 14.0321 158.53 14.6319 158.509 15.2348C158.509 16.5003 158.06 17.5022 157.172 18.2404C158.424 18.9892 159.055 20.1387 159.055 21.6954C159.055 23.0537 158.574 24.1336 157.6 24.9563C156.625 25.783 155.38 26.2208 154.103 26.1859H147.676ZM153.674 16.861C154.455 16.861 154.904 16.4117 155.001 15.5026C155.001 14.7117 154.562 14.2624 153.674 14.1443H151.173V16.861H153.674ZM154.096 22.904C154.974 22.904 155.455 22.4104 155.552 21.4275C155.552 20.5838 155.071 20.0902 154.096 19.951H151.173V22.904H154.096Z" fill="#CCE8E8"/>
<path d="M55.0067 37.0506H53.6505V34.6946H51.7838V37.0506H50.4297V31.1152H51.7838V33.3869H53.6505V31.1152H55.0067V37.0506Z" fill="#CCE8E8"/>
<path d="M58.5 37.0511C58.1176 37.0615 57.7373 36.9919 57.3835 36.8466C57.0297 36.7013 56.7102 36.4836 56.4456 36.2074C55.9154 35.6309 55.6211 34.8762 55.6211 34.0929C55.6211 33.3096 55.9154 32.5549 56.4456 31.9784C56.7106 31.7028 57.0302 31.4854 57.3839 31.3401C57.7376 31.1949 58.1177 31.1249 58.5 31.1347H60.875V32.4403H58.5C58.1772 32.4239 57.858 32.5139 57.5913 32.6964C57.3246 32.8789 57.1251 33.1439 57.0235 33.4506H60.2295L59.525 34.7563H57.0256C57.128 35.0623 57.3277 35.3263 57.5944 35.508C57.861 35.6897 58.1798 35.779 58.5021 35.7624H60.8771V37.0701L58.5 37.0511Z" fill="#CCE8E8"/>
<path d="M67.2621 37.0506H65.7857L63.4887 35.4814L62.9909 37.0506H61.5039L63.5267 31.1152H65.252L67.2621 37.0506ZM65.1086 34.9519L64.3788 32.6697L63.9106 34.1462L65.1086 34.9519Z" fill="#CCE8E8"/>
<path d="M71.3549 37.0358H67.8789V31.1025H69.2351V35.7302H71.3549V37.0358Z" fill="#CCE8E8"/>
<path d="M74.8599 37.0358H73.5015V32.4082H71.9766V31.1025H76.3849V32.4082H74.8599V37.0358Z" fill="#CCE8E8"/>
<path d="M81.581 37.0506H80.2268V34.6946H78.358V37.0506H77.0039V31.1152H78.358V33.3869H80.2268V31.1152H81.581V37.0506Z" fill="#CCE8E8"/>
<path d="M85.0827 37.0511C84.7003 37.0615 84.32 36.9919 83.9662 36.8466C83.6124 36.7013 83.2929 36.4836 83.0283 36.2074C82.4953 35.6322 82.1992 34.877 82.1992 34.0929C82.1992 33.3088 82.4953 32.5536 83.0283 31.9784C83.2933 31.7028 83.6129 31.4854 83.9666 31.3401C84.3203 31.1949 84.7004 31.1249 85.0827 31.1347H87.4556V32.4403H85.0827C84.0294 32.5303 83.5035 33.0836 83.5049 34.1003C83.6259 35.2083 84.1518 35.7624 85.0827 35.7624H87.4556V37.0701L85.0827 37.0511Z" fill="#CCE8E8"/>
<path d="M93.8385 37.0506H92.362L90.0629 35.4814L89.5651 37.0506H88.0781L90.0988 31.1152H91.8262L93.8385 37.0506ZM91.6849 34.9519L90.9572 32.6697L90.489 34.1462L91.6849 34.9519Z" fill="#CCE8E8"/>
<path d="M99.038 37.0361H97.5805L96.4584 35.0893H95.8256V37.0361H94.4673V33.8997H95.7813L94.4609 31.6386V31.0986H96.8338C97.3733 31.0992 97.8905 31.3139 98.2717 31.6955C98.653 32.0772 98.8671 32.5946 98.8671 33.134C98.8671 33.8575 98.5044 34.4333 97.7788 34.8531L99.038 37.0361ZM97.1692 33.8006C97.2793 33.7297 97.3689 33.6313 97.4292 33.5152C97.4895 33.399 97.5184 33.2691 97.513 33.1383C97.5192 32.9382 97.4482 32.7433 97.3147 32.5941C97.2544 32.5265 97.1802 32.4728 97.0972 32.4364C97.0142 32.4 96.9244 32.3818 96.8338 32.3832H96.3466L97.1692 33.8006Z" fill="#CCE8E8"/>
<path d="M102.039 37.0511C101.657 37.0615 101.276 36.9919 100.923 36.8466C100.569 36.7013 100.249 36.4836 99.9846 36.2074C99.4544 35.6309 99.1602 34.8762 99.1602 34.0929C99.1602 33.3096 99.4544 32.5549 99.9846 31.9784C100.25 31.7028 100.569 31.4854 100.923 31.3401C101.277 31.1949 101.657 31.1249 102.039 31.1347H104.408V32.4403H102.039C101.716 32.4239 101.397 32.5139 101.13 32.6964C100.864 32.8789 100.664 33.1439 100.563 33.4506H103.775L103.07 34.7563H100.565C100.667 35.0623 100.867 35.3263 101.133 35.508C101.4 35.6897 101.719 35.779 102.041 35.7624H104.408V37.0701L102.039 37.0511Z" fill="#CCE8E8"/>
<path d="M22.8919 5.39063H6.5158C6.31021 5.39062 6.10665 5.43129 5.91685 5.51028C5.72705 5.58927 5.55474 5.70503 5.40986 5.85089C5.26498 5.99675 5.15039 6.16983 5.07268 6.36016C4.99497 6.55049 4.95568 6.75432 4.95707 6.9599V16.6055C5.08784 16.924 5.22072 17.2382 5.34939 17.5546C5.51391 17.949 5.67843 18.3435 5.84295 18.7421V9.02485C5.84295 8.88723 5.89761 8.75526 5.99492 8.65795C6.09223 8.56064 6.22421 8.50597 6.36182 8.50597H23.0438C23.1816 8.50597 23.3138 8.56057 23.4115 8.65782C23.5091 8.75507 23.5642 8.88704 23.5648 9.02485V18.7717L24.4528 16.6308V6.94724C24.4517 6.53402 24.2867 6.13809 23.9941 5.84629C23.7015 5.55449 23.3052 5.39062 22.8919 5.39063ZM18.3739 7.22356C18.3361 7.26157 18.2911 7.29162 18.2414 7.31191C18.1918 7.3322 18.1386 7.34232 18.085 7.34167H11.3228C11.269 7.34347 11.2155 7.33467 11.1651 7.31577C11.1148 7.29687 11.0687 7.26824 11.0294 7.23152C10.9901 7.19479 10.9585 7.15069 10.9362 7.10174C10.914 7.05278 10.9017 6.99993 10.8999 6.94619C10.8981 6.89245 10.9069 6.83889 10.9258 6.78856C10.9447 6.73822 10.9733 6.6921 11.01 6.65283C11.0467 6.61356 11.0908 6.58191 11.1398 6.55968C11.1887 6.53746 11.2416 6.52509 11.2953 6.52329H18.085C18.1398 6.52326 18.1941 6.53425 18.2446 6.5556C18.295 6.57695 18.3407 6.60823 18.3789 6.64758C18.4171 6.68692 18.4469 6.73354 18.4667 6.78466C18.4865 6.83577 18.4959 6.89034 18.4942 6.94514C18.49 7.04964 18.4472 7.14886 18.3739 7.22356Z" fill="#CCE8E8"/>
<path d="M23.5648 29.0313V35.5235C23.5648 35.6611 23.5101 35.7931 23.4128 35.8904C23.3155 35.9877 23.1835 36.0424 23.0459 36.0424H6.36179C6.22417 36.0424 6.09219 35.9877 5.99489 35.8904C5.89758 35.7931 5.84291 35.6611 5.84291 35.5235V28.9638C5.66995 28.6326 5.50543 28.3036 5.34513 27.9746C5.21014 27.6961 5.07937 27.4135 4.95703 27.1309V38.6853C4.95759 39.0985 5.12199 39.4947 5.41419 39.7869C5.70639 40.079 6.10253 40.2435 6.51576 40.244H22.8919C23.3055 40.244 23.7022 40.0799 23.9948 39.7876C24.2875 39.4953 24.4522 39.0989 24.4527 38.6853V27.1456C24.1701 27.81 23.8769 28.4365 23.5648 29.0313ZM16.2668 38.8097C16.2668 38.9473 16.2121 39.0793 16.1148 39.1766C16.0175 39.2739 15.8855 39.3286 15.7479 39.3286H13.6598C13.5221 39.3286 13.3902 39.2739 13.2929 39.1766C13.1956 39.0793 13.1409 38.9473 13.1409 38.8097V37.5442C13.1409 37.4066 13.1956 37.2746 13.2929 37.1773C13.3902 37.08 13.5221 37.0253 13.6598 37.0253H15.7479C15.8855 37.0253 16.0175 37.08 16.1148 37.1773C16.2121 37.2746 16.2668 37.4066 16.2668 37.5442V38.8097Z" fill="#CCE8E8"/>
<path d="M28.5011 12.2083C27.1322 16.1926 25.8414 20.2065 24.4535 24.1888L24.154 25.0325C23.9698 25.5499 23.7736 26.0611 23.5655 26.5659C22.5805 28.9388 21.2812 31.1451 19.3871 32.9738C18.3325 33.9799 17.1344 34.7265 15.6833 34.9986C15.3461 35.0636 15.0036 35.0961 14.6603 35.0957C13.2281 35.0957 11.9562 34.5135 10.7835 33.6192C8.69956 32.0204 7.4087 29.8226 6.28448 27.5172C6.1305 27.1987 5.98286 26.8844 5.84576 26.5596C5.51671 25.8045 5.22986 25.0409 4.95987 24.2668C4.47264 22.8832 4.04235 21.4784 3.56567 20.0926C2.54901 17.1523 1.57454 14.1868 0.576872 11.2465C0.222519 10.1982 -0.0179342 9.12669 0.001049 8.2387C-0.0432451 4.79431 1.60618 2.53109 4.69411 1.59459C5.27415 1.42163 5.6728 1.05462 6.08199 0.674957C6.49118 0.295294 6.96154 0 7.51206 0C7.57835 1.52068e-05 7.64457 0.0042422 7.71032 0.0126554C8.05064 0.0323663 8.37619 0.158384 8.64108 0.372946C8.90597 0.587507 9.09684 0.87979 9.18679 1.2086C9.30151 1.52794 9.31613 1.87467 9.2287 2.20254C9.14127 2.5304 8.95594 2.82381 8.69745 3.04363C8.39732 3.31622 8.00608 3.4667 7.60064 3.46548C7.33213 3.46092 7.06679 3.40657 6.81812 3.30518C6.73833 3.27144 6.66144 3.23123 6.58821 3.18495C5.87739 2.76311 5.36485 2.53531 4.87129 2.53531C4.32921 2.53531 3.81667 2.80318 3.08054 3.36002C1.20543 4.78798 0.728737 6.74957 0.973409 8.97482C1.10629 10.1961 1.61884 11.295 2.08709 12.4108C3.0489 14.7127 4.00579 17.0145 4.95777 19.3164C5.25165 20.0279 5.54695 20.7395 5.84365 21.451C6.45673 22.9275 7.07544 24.4039 7.69978 25.8804C8.65737 28.1457 9.86808 30.2634 11.7727 31.9002C12.7366 32.7291 13.7196 33.1425 14.7046 33.1425C15.6896 33.1425 16.6641 32.7312 17.6132 31.9128C19.6254 30.1917 20.8509 27.9327 21.857 25.5471C22.4195 24.1888 22.989 22.8297 23.5655 21.47L24.4535 19.3417C25.5925 16.6039 26.7237 13.8619 27.8472 11.1157C28.6909 9.02544 28.8407 6.91409 27.6869 4.8618C27.2812 4.169 26.712 3.58605 26.0291 3.16386C25.4596 2.79474 24.9027 2.54796 24.3417 2.54796C23.803 2.56233 23.2879 2.77226 22.8926 3.13855C22.61 3.37427 22.2525 3.50142 21.8844 3.49712C21.5057 3.49721 21.1365 3.37762 20.8298 3.15542C20.5454 2.93419 20.3334 2.63329 20.2207 2.29107C20.108 1.94885 20.0997 1.58082 20.197 1.23391C20.3026 0.912841 20.4976 0.628573 20.7592 0.414488C21.0207 0.200404 21.3379 0.0653923 21.6735 0.0253109C21.7431 0.0253109 21.8148 0.0253109 21.8844 0.0253109C22.1415 0.0287289 22.3952 0.084335 22.6302 0.188756C22.8651 0.293177 23.0764 0.444237 23.2512 0.632772C23.8034 1.18069 24.4901 1.57353 25.2423 1.77176C27.5309 2.43195 29.2119 4.7247 29.387 7.21782C29.5114 8.95795 29.0622 10.58 28.5011 12.2083Z" fill="#CCE8E8"/>
<path d="M45.4486 32.7771C45.1117 32.7764 44.7784 32.8475 44.4711 32.9857C44.1637 33.1239 43.8894 33.3261 43.6663 33.5787C43.072 33.392 42.4621 33.2593 41.844 33.1821L41.8039 33.4394C40.782 33.3101 39.7456 33.3557 38.7391 33.5744C36.9442 33.971 35.6322 34.8801 34.5882 35.7195C32.0149 37.7803 30.8189 39.7039 29.7622 41.3976C28.7055 43.0913 27.7985 44.5615 25.7209 45.7405C24.8983 46.2088 23.1898 47.1854 21.0047 46.9133C18.2479 46.5737 16.6744 44.5045 16.5056 44.2704C15.8722 43.3868 15.4651 42.3612 15.3202 41.2837H14.2656C14.4148 42.5817 14.8925 43.8201 15.6535 44.8821C15.8518 45.1521 17.6784 47.5503 20.8675 47.9468C21.1573 47.9823 21.4489 47.9999 21.7408 47.9995C23.85 47.9995 25.4805 47.0694 26.2271 46.6412C28.5325 45.325 29.5555 43.6883 30.6376 41.946C31.6479 40.3198 32.7953 38.4805 35.2315 36.5274C36.5962 35.4327 37.6761 34.8695 38.9543 34.5869C39.8361 34.3956 40.7438 34.3542 41.6394 34.4645L41.6077 34.6755V34.7134C42.101 34.773 42.5884 34.8732 43.0652 35.0129C43.0652 35.0593 43.0652 35.1079 43.0652 35.1543C43.0652 35.6265 43.2052 36.0881 43.4676 36.4808C43.7299 36.8734 44.1029 37.1795 44.5391 37.3602C44.9754 37.5409 45.4555 37.5882 45.9187 37.496C46.3818 37.4039 46.8073 37.1765 47.1412 36.8426C47.4751 36.5087 47.7025 36.0832 47.7946 35.6201C47.8868 35.1569 47.8395 34.6768 47.6588 34.2405C47.4781 33.8043 47.172 33.4314 46.7794 33.169C46.3867 32.9066 45.9251 32.7666 45.4529 32.7666L45.4486 32.7771ZM45.4486 36.3629C45.2125 36.3629 44.9817 36.2928 44.7854 36.1617C44.5891 36.0305 44.436 35.844 44.3457 35.6259C44.2553 35.4077 44.2317 35.1677 44.2778 34.9361C44.3238 34.7045 44.4375 34.4918 44.6045 34.3249C44.7714 34.1579 44.9842 34.0442 45.2157 33.9981C45.4473 33.9521 45.6874 33.9757 45.9055 34.0661C46.1236 34.1564 46.3101 34.3094 46.4413 34.5058C46.5725 34.7021 46.6425 34.9329 46.6425 35.169C46.6419 35.4851 46.5163 35.7881 46.2929 36.0118C46.0696 36.2355 45.7668 36.3617 45.4508 36.3629H45.4486Z" fill="#CCE8E8"/>
</g>
<defs>
<clipPath id="clip0_6254_120827">
<rect width="159.054" height="48" fill="white"/>
</clipPath>
</defs>
</svg>
