<svg width="618" height="390" viewBox="0 0 618 390" fill="none" xmlns="http://www.w3.org/2000/svg">
<path d="M413.494 375.432C412.723 372.653 410.716 370.184 408.092 369.258C405.314 368.332 401.919 369.721 401.147 372.499C398.677 370.493 394.819 372.036 392.812 374.66C389.571 378.827 392.04 385.619 392.658 385.927C393.275 386.39 394.819 386.39 394.819 386.39L419.051 386.236C419.051 386.236 423.527 385.927 425.533 385.155C429.701 383.458 432.479 376.358 429.855 372.808C428.003 370.338 424.453 369.875 421.52 370.801C418.433 371.573 415.655 373.425 413.494 375.432Z" fill="#21005D"/>
<path d="M394.354 387.164C393.737 387.164 392.657 387.01 392.039 386.547C391.113 385.775 388.644 378.521 392.039 374.045C393.428 372.193 395.589 370.958 397.75 370.649C398.83 370.495 399.757 370.649 400.683 371.112C401.146 370.186 402.072 369.414 402.998 368.797C404.541 368.025 406.548 367.717 408.245 368.334C410.715 369.106 412.722 371.112 413.802 373.89C416.117 372.038 418.741 370.495 421.211 369.723C424.143 368.797 428.156 369.106 430.317 372.038C431.552 373.736 431.86 376.206 431.089 378.83C430.163 381.916 428.002 384.695 425.687 385.621C423.526 386.547 419.204 386.855 418.895 386.855L394.663 387.01C394.509 387.164 394.509 387.164 394.354 387.164ZM398.367 372.347C398.213 372.347 398.059 372.347 397.904 372.347C396.361 372.501 394.509 373.582 393.274 375.125C390.496 378.83 392.502 384.849 392.965 385.466C393.12 385.621 393.891 385.621 394.509 385.621L418.741 385.466C418.741 385.466 423.063 385.158 424.915 384.386C426.767 383.614 428.619 381.299 429.391 378.675C430.008 376.514 429.854 374.508 428.928 373.273C427.23 370.958 423.834 370.804 421.519 371.575C419.05 372.347 416.271 374.045 413.802 376.206C413.648 376.36 413.339 376.514 413.03 376.36C412.722 376.36 412.567 376.051 412.413 375.897C411.487 373.119 409.789 370.958 407.474 370.341C406.239 369.878 404.696 370.032 403.461 370.649C402.38 371.112 401.763 372.038 401.454 372.964C401.3 373.273 401.146 373.427 400.991 373.427C400.683 373.427 400.528 373.427 400.22 373.273C399.911 372.501 399.139 372.347 398.367 372.347Z" fill="#EADDFF"/>
<path d="M387.867 374.508C387.249 375.897 386.941 377.286 387.095 378.83C387.249 379.601 388.33 379.601 388.33 378.83C388.175 377.595 388.33 376.206 388.947 375.125C389.256 374.354 388.33 373.736 387.867 374.508Z" fill="#EADDFF"/>
<path d="M384.473 375.433C384.164 376.822 384.01 378.211 384.319 379.446C384.473 380.217 385.708 379.909 385.553 379.137C385.245 377.902 385.399 376.822 385.708 375.741C385.862 374.97 384.627 374.661 384.473 375.433Z" fill="#EADDFF"/>
<path d="M391.108 372.965C391.879 372.965 391.879 371.73 391.108 371.73C390.336 371.884 390.336 372.965 391.108 372.965Z" fill="#EADDFF"/>
<path d="M394.504 378.832C394.504 379.141 394.504 379.604 394.504 379.913C394.504 380.685 395.739 380.685 395.739 379.913C395.739 379.604 395.739 379.141 395.739 378.832C395.739 378.061 394.504 378.061 394.504 378.832Z" fill="#EADDFF"/>
<path d="M414.88 380.681C414.88 380.835 414.88 380.99 414.88 381.144C414.88 381.916 416.115 381.916 416.115 381.144C416.115 380.99 416.115 380.835 416.115 380.681C416.115 379.909 414.88 379.909 414.88 380.681Z" fill="#EADDFF"/>
<path d="M412.567 379.294C412.721 379.449 412.721 379.449 412.875 379.603C413.493 380.22 414.264 379.294 413.647 378.677C413.493 378.523 413.493 378.523 413.338 378.368C412.875 377.905 412.104 378.677 412.567 379.294Z" fill="#EADDFF"/>
<path d="M71.46 352.742H30.8672C29.9411 352.742 29.3237 351.97 29.3237 351.199C29.3237 350.273 30.0955 349.655 30.8672 349.655H71.46C72.386 349.655 73.0034 350.427 73.0034 351.199C73.1578 352.125 72.386 352.742 71.46 352.742Z" fill="#65558F"/>
<path d="M429.383 211.827H428.149C428.149 210.901 427.377 210.129 426.451 210.129C425.525 210.129 424.753 210.901 424.753 211.827H423.518C423.518 210.283 424.753 208.894 426.451 208.894C427.994 208.894 429.383 210.283 429.383 211.827Z" fill="white"/>
<path d="M433.398 144.22H432.164C432.164 143.294 431.392 142.523 430.466 142.523C429.54 142.523 428.768 143.294 428.768 144.22H427.533C427.533 142.677 428.768 141.288 430.466 141.288C432.164 141.288 433.398 142.677 433.398 144.22Z" fill="white"/>
<path d="M288.926 379.138H233.67L234.596 376.977C238.146 368.334 238.609 361.08 237.992 352.591V350.893L284.604 350.739V352.282C284.604 357.684 286.147 370.032 288.308 376.977L288.926 379.138ZM238.455 375.897H284.604C282.752 369.106 281.671 359.536 281.363 353.826L241.387 353.98C241.85 361.543 241.387 368.18 238.455 375.897Z" fill="#65558F"/>
<path d="M217.938 353.82C175.956 353.82 142 353.666 140.611 353.049C137.061 351.814 132.276 346.721 132.276 343.325C132.122 335.608 131.813 325.267 131.505 313.228C130.424 276.956 128.726 227.103 130.887 199.63C131.196 194.536 135.363 190.677 140.302 190.677H140.457L382.161 190.986C387.255 191.141 391.422 195.154 391.422 200.401C391.576 208.427 391.885 216.607 392.194 224.942C393.274 259.824 394.509 295.941 390.65 330.051C390.496 331.44 390.496 332.829 390.342 334.373C390.033 341.473 389.57 350.425 380.463 352.277C375.679 353.203 286.159 353.82 217.938 353.82ZM140.148 193.301C136.444 193.301 133.511 196.08 133.202 199.784C131.196 227.257 132.739 276.802 133.82 313.073C134.128 325.112 134.592 335.608 134.592 343.171C134.592 345.331 138.296 349.499 141.228 350.579C146.322 351.66 373.672 350.888 379.537 349.807C386.792 348.418 387.1 341.164 387.409 334.373C387.409 332.829 387.563 331.286 387.718 329.897C391.576 295.941 390.342 259.979 389.261 225.251C388.952 216.916 388.798 208.736 388.489 200.71C388.335 196.851 385.403 193.919 381.698 193.764L140.148 193.301Z" fill="#65558F"/>
<path fill-rule="evenodd" clip-rule="evenodd" d="M375.216 199.325L147.403 199.016C143.235 199.016 139.84 201.794 139.531 205.498C136.907 236.059 140.457 299.649 140.92 325.27C140.92 327.74 145.087 331.444 148.02 332.37C151.415 333.451 367.962 332.679 373.21 331.753C382.779 330.055 381.081 320.331 381.853 314.157C386.329 278.967 383.551 240.689 382.625 206.27C382.779 202.411 379.383 199.479 375.216 199.325Z" fill="#D0BCFE"/>
<path d="M308.687 387.937H213.919C210.215 387.937 208.208 385.004 208.208 382.071C208.208 379.139 210.215 376.206 213.919 376.206H308.687C312.392 376.206 314.398 379.139 314.398 382.071C314.552 384.85 312.546 387.937 308.687 387.937ZM213.919 378.676C211.45 378.676 210.832 380.682 210.832 381.917C210.832 383.152 211.45 385.158 213.919 385.158H308.687C311.157 385.158 311.774 383.152 311.774 381.917C311.774 380.682 311.157 378.676 308.687 378.676H213.919Z" fill="#65558F"/>
<path d="M148.025 344.868C152.347 344.868 152.347 338.231 148.025 338.231C143.704 338.231 143.704 344.868 148.025 344.868Z" fill="#65558F"/>
<path d="M161.3 344.868C165.622 344.868 165.622 338.231 161.3 338.231C157.133 338.231 157.133 344.868 161.3 344.868Z" fill="#65558F"/>
<path d="M174.727 344.868C179.049 344.868 179.049 338.231 174.727 338.231C170.405 338.231 170.405 344.868 174.727 344.868Z" fill="#65558F"/>
<path d="M261.311 197.467C263.317 197.467 263.317 194.38 261.311 194.38C259.304 194.38 259.304 197.467 261.311 197.467Z" fill="#65558F"/>
<path d="M528.634 381.603H496.067L508.569 340.393H516.132L528.634 381.603Z" fill="#D0BCFE"/>
<path d="M531.409 381.602H493.286V386.387H531.409V381.602Z" fill="#D0BCFE"/>
<path d="M499.154 371.262L496.067 381.603H528.634L525.547 371.262H499.154Z" fill="#65558F"/>
<path d="M502.239 360.921H522.304L519.217 350.58H505.48L502.239 360.921Z" fill="#65558F"/>
<path d="M542.062 386.082H549.316V357.991H586.513V386.082H593.767V357.991H601.485V335.611H595.311V333.605H584.815V335.611H551.785V333.605H541.29V335.611H534.499V357.991H542.062V386.082ZM599.015 337.926L594.539 355.676H586.513L590.989 337.926H599.015ZM578.178 355.676H570.153L574.629 337.926H582.654L578.178 355.676ZM561.972 355.676H553.946L558.422 337.926H566.448L561.972 355.676ZM542.062 337.926H550.088L545.612 355.676H537.586L542.062 337.926Z" fill="#D0BCFE"/>
<path d="M185.529 111.811L187.69 109.65C188.153 109.187 188.153 108.57 187.69 108.107L185.837 106.255C185.374 105.792 185.22 105.02 185.529 104.402L187.072 100.698C187.227 100.081 187.844 99.6177 188.461 99.6177H191.085C191.703 99.6177 192.166 99.1547 192.166 98.5373V95.4504C192.166 94.833 191.703 94.37 191.085 94.37H188.616C187.998 94.37 187.381 93.9069 187.227 93.2896L185.683 89.5853C185.374 88.9679 185.529 88.1962 185.992 87.7331L187.844 85.881C188.307 85.418 188.307 84.8006 187.844 84.3375L185.683 82.1767C185.22 81.7137 184.603 81.7137 184.14 82.1767L182.288 84.0288C181.824 84.4919 181.053 84.6462 180.435 84.3375L176.731 82.7941C176.114 82.6397 175.651 82.0223 175.651 81.405V78.7811C175.651 78.1637 175.188 77.7007 174.57 77.7007H171.483C170.866 77.7007 170.403 78.1637 170.403 78.7811V81.405C170.403 82.0223 169.94 82.6397 169.323 82.7941L165.618 84.3375C165.001 84.6462 164.229 84.4919 163.766 84.0288L161.914 82.1767C161.451 81.7137 160.834 81.7137 160.37 82.1767L158.21 84.3375C157.747 84.8006 157.747 85.418 158.21 85.881L160.062 87.7331C160.525 88.1962 160.679 88.9679 160.37 89.5853L158.827 93.2896C158.673 93.9069 158.055 94.37 157.438 94.37H154.814C154.197 94.37 153.734 94.833 153.734 95.4504V98.5373C153.734 99.1547 154.197 99.6177 154.814 99.6177H157.438C158.055 99.6177 158.673 100.081 158.827 100.698L160.37 104.402C160.679 105.02 160.525 105.792 160.062 106.255L158.21 108.107C157.747 108.57 157.747 109.187 158.21 109.65L160.37 111.811C160.834 112.274 161.451 112.274 161.914 111.811L163.766 109.959C164.229 109.496 165.001 109.341 165.618 109.65L169.323 111.194C169.94 111.348 170.403 111.965 170.403 112.583V115.207C170.403 115.824 170.866 116.287 171.483 116.287H174.57C175.188 116.287 175.651 115.824 175.651 115.207V112.583C175.651 111.965 176.114 111.348 176.731 111.194L180.435 109.65C181.053 109.341 181.824 109.496 182.288 109.959L184.14 111.811C184.448 112.12 185.22 112.12 185.529 111.811ZM172.872 105.792C167.933 105.792 163.92 101.779 163.92 96.8395C163.92 91.9004 167.933 87.8875 172.872 87.8875C177.812 87.8875 181.824 91.9004 181.824 96.8395C181.824 101.779 177.812 105.792 172.872 105.792Z" fill="#D0BCFE"/>
<path d="M206.368 120.298L205.75 118.446C205.596 118.137 205.287 117.828 204.824 117.982L203.281 118.446C202.972 118.6 202.509 118.446 202.2 117.982L200.657 115.976C200.348 115.667 200.348 115.204 200.503 114.896L201.274 113.506C201.429 113.198 201.274 112.735 200.966 112.58L199.422 111.654C199.113 111.5 198.65 111.654 198.496 111.963L197.724 113.352C197.57 113.661 197.107 113.97 196.644 113.815L194.174 113.506C193.866 113.506 193.403 113.198 193.248 112.889L192.785 111.346C192.631 111.037 192.322 110.728 191.859 110.883L190.007 111.5C189.698 111.654 189.39 111.963 189.544 112.426L190.007 113.97C190.161 114.278 190.007 114.741 189.544 115.05L187.538 116.593C187.229 116.902 186.766 116.902 186.457 116.748L185.068 115.976C184.759 115.822 184.296 115.976 184.142 116.285L183.216 117.982C183.062 118.291 183.216 118.754 183.525 118.909L184.914 119.68C185.222 119.835 185.531 120.298 185.377 120.761L185.068 123.23C185.068 123.539 184.759 124.002 184.451 124.156L182.907 124.619C182.598 124.774 182.29 125.082 182.444 125.545L183.062 127.398C183.216 127.706 183.525 128.015 183.988 127.861L185.531 127.398C185.84 127.243 186.303 127.398 186.611 127.706L188.155 129.713C188.464 130.021 188.464 130.484 188.309 130.793L187.538 132.182C187.383 132.491 187.538 132.954 187.846 133.108L189.544 134.034C189.853 134.189 190.316 134.034 190.47 133.726L191.242 132.337C191.396 132.028 191.859 131.719 192.322 131.874L194.792 132.182C195.255 132.182 195.563 132.491 195.718 132.8L196.181 134.343C196.335 134.652 196.644 134.96 197.107 134.806L198.959 134.189C199.268 134.034 199.576 133.726 199.422 133.263L198.959 131.719C198.805 131.411 198.959 130.947 199.268 130.639L201.274 129.095C201.583 128.787 202.046 128.787 202.355 128.941L203.744 129.713C204.052 129.867 204.515 129.713 204.67 129.404L205.596 127.706C205.75 127.398 205.596 126.935 205.287 126.78L203.898 126.008C203.589 125.854 203.281 125.391 203.435 124.928L203.744 122.458C203.744 122.15 204.052 121.687 204.361 121.532L205.905 121.069C206.213 120.915 206.522 120.606 206.368 120.298ZM199.422 125.391C198.033 128.169 194.637 129.095 191.859 127.706C189.081 126.317 188.155 122.922 189.544 120.143C190.933 117.365 194.329 116.439 197.107 117.828C199.885 119.372 200.811 122.767 199.422 125.391Z" fill="#D0BCFE"/>
<path d="M297.268 155.336H246.952C246.026 155.336 245.408 154.564 245.408 153.793C245.408 152.867 246.18 152.249 246.952 152.249H297.268C298.195 152.249 298.812 153.021 298.812 153.793C298.812 154.719 298.195 155.336 297.268 155.336Z" fill="#65558F"/>
<path d="M194.782 178.177H113.442C112.516 178.177 111.899 177.405 111.899 176.634C111.899 175.707 112.671 175.09 113.442 175.09H194.782C195.708 175.09 196.326 175.862 196.326 176.634C196.48 177.56 195.708 178.177 194.782 178.177Z" fill="#65558F"/>
<path d="M584.503 221.549H503.163C502.237 221.549 501.62 220.777 501.62 220.005C501.62 219.079 502.392 218.462 503.163 218.462H584.503C585.429 218.462 586.047 219.233 586.047 220.005C586.047 220.777 585.429 221.549 584.503 221.549Z" fill="#65558F"/>
<path d="M616.456 389.477H1.54418C0.618113 389.477 0.000732422 388.705 0.000732422 387.933C0.000732422 387.007 0.772459 386.39 1.54418 386.39H616.456C617.382 386.39 617.999 387.161 617.999 387.933C617.999 388.705 617.382 389.477 616.456 389.477Z" fill="#65558F"/>
<path d="M390.952 135.272C387.556 135.272 384.315 136.661 381.846 138.976C377.678 143.144 376.907 149.626 379.839 154.565L379.994 154.874L366.874 167.993C366.874 167.993 366.257 168.611 366.257 169.537C366.257 170.154 366.566 170.926 367.183 171.543C367.955 172.315 368.572 172.624 369.344 172.624C370.27 172.624 370.887 172.16 370.887 172.16L383.852 159.041L384.161 159.195C386.167 160.43 388.328 160.893 390.643 160.893C394.039 160.893 397.28 159.504 399.75 157.189C404.843 152.096 404.843 143.915 399.75 138.976C397.589 136.661 394.348 135.272 390.952 135.272ZM390.952 157.189C386.013 157.189 381.846 153.176 381.846 148.083C381.846 143.144 385.859 138.976 390.952 138.976C395.891 138.976 400.058 142.989 400.058 148.083C399.904 153.176 395.891 157.189 390.952 157.189Z" fill="#D0BCFE"/>
<path d="M386.169 150.089H395.584V147.62H386.169V150.089Z" fill="#D0BCFE"/>
<path d="M151.103 386.543C150.177 386.543 149.56 385.771 149.56 384.999V261.677C149.56 260.751 150.331 260.134 151.103 260.134C152.029 260.134 152.646 260.906 152.646 261.677V384.845C152.801 385.771 152.029 386.543 151.103 386.543Z" fill="#65558F"/>
<path d="M179.813 386.543C178.887 386.543 178.27 385.771 178.27 384.999V261.677C178.27 260.751 179.042 260.134 179.813 260.134C180.739 260.134 181.357 260.906 181.357 261.677V384.845C181.357 385.771 180.739 386.543 179.813 386.543Z" fill="#65558F"/>
<path d="M179.811 271.71H151.103C150.177 271.71 149.56 270.939 149.56 270.167C149.56 269.395 150.331 268.624 151.103 268.624H179.811C180.737 268.624 181.355 269.395 181.355 270.167C181.355 270.939 180.737 271.71 179.811 271.71Z" fill="#65558F"/>
<path d="M179.811 285.755H151.103C150.177 285.755 149.56 284.983 149.56 284.212C149.56 283.286 150.331 282.668 151.103 282.668H179.811C180.737 282.668 181.355 283.44 181.355 284.212C181.355 284.983 180.737 285.755 179.811 285.755Z" fill="#65558F"/>
<path d="M179.811 299.8H151.103C150.177 299.8 149.56 299.028 149.56 298.256C149.56 297.33 150.331 296.713 151.103 296.713H179.811C180.737 296.713 181.355 297.485 181.355 298.256C181.355 299.028 180.737 299.8 179.811 299.8Z" fill="#65558F"/>
<path d="M179.811 313.847H151.103C150.177 313.847 149.56 313.075 149.56 312.303C149.56 311.377 150.331 310.76 151.103 310.76H179.811C180.737 310.76 181.355 311.531 181.355 312.303C181.355 313.229 180.737 313.847 179.811 313.847Z" fill="#65558F"/>
<path d="M179.811 328.046H151.103C150.177 328.046 149.56 327.275 149.56 326.503C149.56 325.577 150.331 324.959 151.103 324.959H179.811C180.737 324.959 181.355 325.731 181.355 326.503C181.355 327.275 180.737 328.046 179.811 328.046Z" fill="#65558F"/>
<path d="M179.811 342.091H151.103C150.177 342.091 149.56 341.32 149.56 340.548C149.56 339.622 150.331 339.004 151.103 339.004H179.811C180.737 339.004 181.355 339.776 181.355 340.548C181.355 341.32 180.737 342.091 179.811 342.091Z" fill="#65558F"/>
<path d="M179.811 356.136H151.103C150.177 356.136 149.56 355.364 149.56 354.593C149.56 353.666 150.331 353.049 151.103 353.049H179.811C180.737 353.049 181.355 353.821 181.355 354.593C181.355 355.364 180.737 356.136 179.811 356.136Z" fill="#65558F"/>
<path d="M179.811 370.183H151.103C150.177 370.183 149.56 369.411 149.56 368.639C149.56 367.713 150.331 367.096 151.103 367.096H179.811C180.737 367.096 181.355 367.868 181.355 368.639C181.355 369.565 180.737 370.183 179.811 370.183Z" fill="#65558F"/>
<path d="M112.21 267.545C111.284 267.545 110.666 266.773 110.666 266.001V259.828C110.666 258.902 111.438 258.284 112.21 258.284C113.136 258.284 113.753 259.056 113.753 259.828V266.001C113.753 266.928 112.981 267.545 112.21 267.545Z" fill="#65558F"/>
<path d="M115.296 264.457H109.122C108.196 264.457 107.578 263.685 107.578 262.914C107.578 262.142 108.35 261.37 109.122 261.37H115.296C116.222 261.37 116.839 262.142 116.839 262.914C116.839 263.685 116.222 264.457 115.296 264.457Z" fill="#65558F"/>
<path d="M256.053 44.6697C255.127 44.6697 254.509 43.8979 254.509 43.1262V36.9524C254.509 36.0263 255.281 35.4089 256.053 35.4089C256.979 35.4089 257.596 36.1807 257.596 36.9524V43.1262C257.751 43.8979 256.979 44.6697 256.053 44.6697Z" fill="#65558F"/>
<path d="M259.296 41.5818H253.122C252.196 41.5818 251.579 40.8101 251.579 40.0383C251.579 39.2666 252.35 38.4949 253.122 38.4949H259.296C260.222 38.4949 260.839 39.2666 260.839 40.0383C260.839 40.8101 260.068 41.5818 259.296 41.5818Z" fill="#65558F"/>
<path d="M306.526 367.407C306.371 367.407 306.217 367.407 306.063 367.407L300.043 365.709C299.117 365.401 298.654 364.629 298.963 363.703C299.271 362.777 300.043 362.314 300.969 362.622L306.989 364.32C307.915 364.629 308.378 365.401 308.069 366.327C307.915 366.944 307.297 367.407 306.526 367.407Z" fill="#65558F"/>
<path d="M302.667 369.415C302.512 369.415 302.358 369.415 302.204 369.415C301.278 369.106 300.815 368.334 301.123 367.408L302.821 361.389C303.13 360.463 303.902 360 304.828 360.308C305.754 360.617 306.217 361.389 305.908 362.315L304.21 368.334C304.056 369.106 303.438 369.415 302.667 369.415Z" fill="#65558F"/>
<path d="M275.042 179.104C274.888 179.104 274.733 179.104 274.579 179.104L268.56 177.407C267.634 177.098 267.171 176.326 267.479 175.4C267.788 174.474 268.56 174.011 269.486 174.32L275.505 176.017C276.431 176.326 276.894 177.098 276.586 178.024C276.431 178.641 275.814 179.104 275.042 179.104Z" fill="#65558F"/>
<path d="M271.179 181.265C271.025 181.265 270.871 181.265 270.716 181.265C269.79 180.957 269.327 180.185 269.636 179.259L271.334 173.239C271.643 172.313 272.414 171.85 273.34 172.159C274.266 172.468 274.729 173.239 274.421 174.165L272.723 180.185C272.569 180.802 271.951 181.265 271.179 181.265Z" fill="#65558F"/>
<path d="M286.627 135.863C295.306 127.183 295.306 113.111 286.627 104.431C277.947 95.7516 263.875 95.7516 255.195 104.431C246.516 113.111 246.516 127.183 255.195 135.863C263.875 144.542 277.947 144.542 286.627 135.863Z" fill="#D0BCFE"/>
<path d="M270.874 136.813C280.08 136.813 287.543 129.35 287.543 120.143C287.543 110.937 280.08 103.474 270.874 103.474C261.667 103.474 254.204 110.937 254.204 120.143C254.204 129.35 261.667 136.813 270.874 136.813Z" fill="white"/>
<path d="M270.871 137.432C261.301 137.432 253.584 129.715 253.584 120.146C253.584 110.576 261.301 102.859 270.871 102.859C280.44 102.859 288.158 110.576 288.158 120.146C288.158 129.715 280.44 137.432 270.871 137.432ZM270.871 104.094C262.073 104.094 254.819 111.348 254.819 120.146C254.819 128.943 262.073 136.198 270.871 136.198C279.669 136.198 286.923 128.943 286.923 120.146C286.923 111.348 279.669 104.094 270.871 104.094Z" fill="#65558F"/>
<path d="M270.881 120.763C270.573 120.763 270.264 120.455 270.264 120.146V111.657C270.264 111.348 270.573 111.04 270.881 111.04C271.19 111.04 271.499 111.348 271.499 111.657V120.146C271.499 120.455 271.19 120.763 270.881 120.763Z" fill="#65558F"/>
<path d="M280.759 120.761H270.881C270.573 120.761 270.264 120.452 270.264 120.143C270.264 119.835 270.573 119.526 270.881 119.526H280.759C281.068 119.526 281.377 119.835 281.377 120.143C281.531 120.452 281.222 120.761 280.759 120.761Z" fill="#65558F"/>
<path d="M271.499 105.325C271.499 105.634 271.191 105.943 270.882 105.943C270.573 105.943 270.265 105.634 270.265 105.325C270.265 105.017 270.573 104.708 270.882 104.708C271.191 104.708 271.499 105.017 271.499 105.325Z" fill="#65558F"/>
<path d="M281.37 110.267C281.711 110.267 281.987 109.99 281.987 109.649C281.987 109.308 281.711 109.032 281.37 109.032C281.029 109.032 280.752 109.308 280.752 109.649C280.752 109.99 281.029 110.267 281.37 110.267Z" fill="#65558F"/>
<path d="M285.697 120.76C285.389 120.76 285.08 120.451 285.08 120.142C285.08 119.834 285.389 119.525 285.697 119.525C286.006 119.525 286.315 119.834 286.315 120.142C286.315 120.451 286.006 120.76 285.697 120.76Z" fill="#65558F"/>
<path d="M281.37 131.105C281.711 131.105 281.987 130.828 281.987 130.487C281.987 130.147 281.711 129.87 281.37 129.87C281.029 129.87 280.752 130.147 280.752 130.487C280.752 130.828 281.029 131.105 281.37 131.105Z" fill="#65558F"/>
<path d="M270.265 134.806C270.265 134.498 270.573 134.189 270.882 134.189C271.191 134.189 271.499 134.498 271.499 134.806C271.499 135.115 271.191 135.424 270.882 135.424C270.573 135.424 270.265 135.269 270.265 134.806Z" fill="#65558F"/>
<path d="M259.921 130.023C260.229 129.714 260.538 129.714 260.847 130.023C261.155 130.331 261.155 130.64 260.847 130.949C260.538 131.258 260.229 131.258 259.921 130.949C259.766 130.795 259.766 130.331 259.921 130.023Z" fill="#65558F"/>
<path d="M256.064 120.76C256.405 120.76 256.681 120.483 256.681 120.142C256.681 119.801 256.405 119.525 256.064 119.525C255.723 119.525 255.447 119.801 255.447 120.142C255.447 120.483 255.723 120.76 256.064 120.76Z" fill="#65558F"/>
<path d="M260.845 109.185C261.154 109.493 261.154 109.802 260.845 110.111C260.537 110.419 260.228 110.419 259.919 110.111C259.611 109.802 259.611 109.493 259.919 109.185C260.228 108.876 260.691 108.876 260.845 109.185Z" fill="#65558F"/>
<path d="M303.45 111.654H294.19C293.881 111.654 293.572 111.345 293.572 111.037C293.572 110.728 293.881 110.419 294.19 110.419H303.45C303.759 110.419 304.068 110.728 304.068 111.037C304.068 111.345 303.759 111.654 303.45 111.654Z" fill="#65558F"/>
<path d="M303.45 129.87H294.19C293.881 129.87 293.572 129.561 293.572 129.253C293.572 128.944 293.881 128.635 294.19 128.635H303.45C303.759 128.635 304.068 128.944 304.068 129.253C304.068 129.561 303.759 129.87 303.45 129.87Z" fill="#65558F"/>
<path d="M315.025 120.76H297.584C297.275 120.76 296.966 120.451 296.966 120.143C296.966 119.834 297.275 119.525 297.584 119.525H315.025C315.333 119.525 315.642 119.834 315.642 120.143C315.642 120.451 315.333 120.76 315.025 120.76Z" fill="#65558F"/>
<path d="M345.425 360.923H335.084V371.264H345.425V360.923Z" fill="white"/>
<path d="M346.197 372.036H334.312V360.151H346.197V372.036ZM336.01 370.493H344.653V361.695H336.01V370.493Z" fill="#65558F"/>
<path d="M358.543 363.239H349.283C348.974 363.239 348.665 362.93 348.665 362.622C348.665 362.313 348.974 362.004 349.283 362.004H358.543C358.852 362.004 359.161 362.313 359.161 362.622C359.161 362.93 358.852 363.239 358.543 363.239Z" fill="#65558F"/>
<path d="M362.09 370.338H349.434C348.971 370.338 348.508 370.029 348.508 369.72C348.508 369.412 348.971 369.103 349.434 369.103H362.09C362.553 369.103 363.016 369.412 363.016 369.72C362.862 370.029 362.553 370.338 362.09 370.338Z" fill="#65558F"/>
<path d="M366.566 366.481H349.125C348.816 366.481 348.508 366.172 348.508 365.863C348.508 365.555 348.816 365.246 349.125 365.246H366.566C366.875 365.246 367.183 365.555 367.183 365.863C367.183 366.326 367.029 366.481 366.566 366.481Z" fill="#65558F"/>
<path d="M108.681 219.852H119.022V209.511H108.681V219.852Z" fill="white"/>
<path d="M119.777 220.779H107.893V208.894H119.777V220.779ZM109.436 219.081H118.08V210.437H109.436V219.081Z" fill="#65558F"/>
<path d="M95.6939 211.827H104.955C105.263 211.827 105.572 211.518 105.572 211.209C105.572 210.901 105.263 210.592 104.955 210.592H95.6939C95.3852 210.592 95.0765 210.901 95.0765 211.209C94.9222 211.518 95.2309 211.827 95.6939 211.827Z" fill="#65558F"/>
<path d="M92.1458 218.925H104.802C105.265 218.925 105.728 218.617 105.728 218.308C105.728 217.999 105.265 217.691 104.802 217.691H92.1458C91.6828 217.691 91.2197 217.999 91.2197 218.308C91.2197 218.617 91.6828 218.925 92.1458 218.925Z" fill="#65558F"/>
<path d="M87.517 215.221H104.958C105.267 215.221 105.575 214.912 105.575 214.603C105.575 214.295 105.267 213.986 104.958 213.986H87.517C87.2084 213.986 86.8997 214.295 86.8997 214.603C86.8997 214.912 87.2084 215.221 87.517 215.221Z" fill="#65558F"/>
<path d="M426.452 248.407H423.211V386.083H426.452V248.407Z" fill="#65558F"/>
<path d="M425.22 265.075H424.448C419.2 265.075 414.878 260.753 414.878 255.506V242.849C414.878 237.602 419.2 233.28 424.448 233.28H425.22C430.467 233.28 434.789 237.602 434.789 242.849V255.506C434.635 260.753 430.467 265.075 425.22 265.075Z" fill="#D0BCFE"/>
<path d="M437.721 255.815C438.801 255.969 440.036 256.123 441.116 256.432C441.888 256.586 442.197 255.352 441.425 255.352C440.345 255.197 439.11 255.043 438.029 254.734C437.258 254.58 436.949 255.66 437.721 255.815Z" fill="#65558F"/>
<path d="M437.558 248.407C438.484 248.253 439.256 248.253 440.182 248.253C440.954 248.253 440.954 247.172 440.182 247.018C439.256 246.863 438.176 247.018 437.25 247.172C436.478 247.481 436.787 248.561 437.558 248.407Z" fill="#65558F"/>
<path d="M437.253 241.77C438.179 241.461 438.951 241.152 439.877 240.689C440.649 240.381 440.34 239.3 439.568 239.454C438.642 239.763 437.871 240.072 436.945 240.535C436.173 240.844 436.482 242.078 437.253 241.77Z" fill="#65558F"/>
<path d="M407.777 256.895C408.703 256.741 409.475 256.587 410.401 256.278C411.173 255.969 410.864 254.889 410.092 255.043C409.321 255.352 408.395 255.506 407.468 255.661C406.697 255.815 407.005 257.05 407.777 256.895Z" fill="#65558F"/>
<path d="M406.229 248.408C407.309 248.408 408.39 248.562 409.47 248.871C410.242 249.025 410.551 247.945 409.779 247.636C408.544 247.328 407.464 247.173 406.229 247.019C405.457 247.173 405.457 248.408 406.229 248.408Z" fill="#65558F"/>
<path d="M407.311 238.529C408.237 238.838 409.009 239.146 409.935 239.301C410.706 239.609 411.015 238.375 410.243 238.066C409.317 237.757 408.546 237.449 407.619 237.294C406.848 237.14 406.539 238.22 407.311 238.529Z" fill="#65558F"/>
<path d="M417.345 387.933L419.506 369.412H429.847L432.317 387.625L417.345 387.933Z" fill="#65558F"/>
<path d="M123.63 299.803C123.167 296.87 121.161 289.307 116.53 291.777C109.122 295.635 118.074 310.298 109.122 312.922C108.659 307.057 107.424 303.044 104.8 303.353C99.3979 303.816 100.787 316.472 100.633 319.405C100.478 322.183 100.478 325.115 100.324 328.048C93.8415 329.128 95.2306 312.459 91.2176 310.144C85.1981 306.594 83.809 314.62 83.9634 318.324C84.2721 324.652 85.9699 332.215 91.835 335.457C93.8415 336.537 97.2371 337.772 99.8609 337.617C99.8609 342.711 100.015 347.65 100.941 352.435H101.096L104.646 352.589C104.646 354.132 107.115 354.132 107.115 352.589C107.115 349.502 108.967 334.685 109.276 322.028C112.209 322.492 115.758 321.102 117.765 319.559C123.939 315.083 124.711 306.748 123.63 299.803Z" fill="#21005D"/>
<path d="M105.879 354.443C105.571 354.443 105.108 354.288 104.799 354.134C104.49 353.825 104.182 353.517 104.027 353.053L101.403 352.899H100.477L100.323 352.282C99.5512 348.269 99.2425 343.638 99.2425 338.082C96.3099 338.082 93.0687 336.693 91.5252 335.767C85.1971 332.217 83.4993 324.191 83.3449 318.017C83.1906 315.548 83.808 310.454 86.5862 308.756C87.9753 307.985 89.6731 308.139 91.6796 309.219C93.5317 310.3 94.3034 313.695 95.0752 317.708C96.1556 323.111 97.236 326.969 99.7055 326.969V325.58C99.8599 323.265 99.8599 321.104 100.014 318.789C100.014 318.326 100.014 317.708 100.014 316.937C99.8599 311.998 99.5512 302.583 104.799 302.12C105.571 301.965 106.342 302.274 106.96 302.891C108.349 304.126 109.429 306.904 109.738 311.535C112.979 309.991 112.825 306.287 112.671 301.811C112.516 297.335 112.207 292.704 116.22 290.698C117.455 290.081 118.69 289.926 119.77 290.544C123.012 292.241 124.092 298.57 124.246 299.341C125.172 304.743 125.481 314.467 118.227 319.715C116.22 321.258 112.825 322.493 109.892 322.339C109.738 330.673 108.812 339.625 108.349 345.799C108.04 348.886 107.886 351.201 107.886 352.282C107.886 353.053 107.577 353.517 106.96 353.825C106.651 354.288 106.342 354.443 105.879 354.443ZM101.558 351.664L105.416 351.819V352.436C105.416 352.745 105.571 352.899 105.571 352.899C105.725 353.053 106.034 353.053 106.188 352.899C106.342 352.745 106.497 352.745 106.497 352.436C106.497 351.356 106.651 349.04 106.96 345.954C107.577 339.78 108.349 330.21 108.503 321.876V321.104L109.275 321.258C111.899 321.721 115.449 320.332 117.301 318.943C123.938 314.004 123.629 304.898 122.703 299.959C122.394 297.798 121.16 293.322 118.999 292.241C118.227 291.933 117.455 291.933 116.683 292.396C113.597 294.094 113.751 297.952 113.905 302.274C114.06 306.904 114.368 312.152 109.121 313.695L108.349 314.004V313.232C107.886 307.367 106.805 305.361 105.879 304.589C105.571 304.28 105.108 304.126 104.645 304.126C100.632 304.435 100.94 313.232 101.095 317.554C101.095 318.48 101.095 319.098 101.095 319.561C101.095 321.721 100.94 324.037 100.786 326.352L100.632 328.821L100.169 328.976C95.8469 329.747 94.6121 323.882 93.3774 318.635C92.6056 315.239 91.9882 311.843 90.5991 311.072C89.0557 310.146 87.8209 309.991 86.8949 310.609C84.8884 311.843 84.271 316.165 84.4253 318.635C84.734 324.345 86.2775 332.063 91.9883 335.304C93.9947 336.384 97.236 337.465 99.7055 337.31H100.477V338.082C100.632 343.175 100.94 347.651 101.558 351.664Z" fill="#EADDFF"/>
<path d="M116.532 386.394H90.4473C89.0582 386.394 87.9778 385.468 87.6691 384.079L81.804 353.673L84.2735 353.21L90.1386 383.616C90.1386 383.924 90.4473 383.924 90.4473 383.924H116.532C116.532 383.924 116.84 383.924 116.84 383.616L122.705 353.21L125.175 353.673L119.31 384.079C119.001 385.468 117.921 386.394 116.532 386.394Z" fill="#65558F"/>
<path d="M82.1088 343.947H125.326C126.097 343.947 126.715 344.719 126.715 345.799V352.436C126.715 353.362 126.097 354.288 125.326 354.288H82.1088C81.3371 354.288 80.7197 353.516 80.7197 352.436V345.799C80.7197 344.719 81.3371 343.947 82.1088 343.947Z" fill="#D0BCFE"/>
<path d="M125.326 354.751H82.1095C81.0291 354.751 80.103 353.67 80.103 352.281V345.644C80.103 344.255 81.0291 343.175 82.1095 343.175H125.326C126.407 343.175 127.333 344.255 127.333 345.644V352.281C127.333 353.67 126.407 354.751 125.326 354.751ZM82.1095 344.564C81.8008 344.564 81.4921 345.027 81.4921 345.644V352.281C81.4921 352.899 81.8008 353.362 82.1095 353.362H125.326C125.635 353.362 125.944 352.899 125.944 352.281V345.644C125.944 345.027 125.635 344.564 125.326 344.564H82.1095Z" fill="#65558F"/>
<path d="M125.331 354.751H82.1146C81.0342 354.751 80.2625 353.671 80.2625 352.436V345.799C80.2625 344.41 81.1885 343.484 82.1146 343.484H125.331C126.412 343.484 127.183 344.565 127.183 345.799V352.436C127.183 353.671 126.412 354.751 125.331 354.751ZM82.1146 344.41C81.8059 344.41 81.3429 344.873 81.3429 345.645V352.282C81.3429 353.054 81.8059 353.517 82.1146 353.517H125.331C125.64 353.517 126.103 353.054 126.103 352.282V345.645C126.103 344.873 125.64 344.41 125.331 344.41H82.1146Z" fill="#D0BCFE"/>
<path d="M125.333 355.37H82.1163C80.7272 355.37 79.4924 353.981 79.4924 352.283V345.646C79.4924 343.948 80.7272 342.559 82.1163 342.559H125.333C126.722 342.559 127.957 343.948 127.957 345.646V352.283C127.957 353.981 126.722 355.37 125.333 355.37ZM82.1163 345.183C82.1163 345.183 81.962 345.492 81.962 345.8V352.437C81.962 352.746 82.1163 353.055 82.1163 353.055H125.333C125.333 353.055 125.487 352.9 125.487 352.437V345.8C125.487 345.492 125.333 345.183 125.333 345.183H82.1163Z" fill="#65558F"/>
<path d="M86.7402 318.015C87.5119 318.169 88.1293 318.169 88.901 318.323C89.6727 318.478 89.6727 317.243 88.901 317.088C88.1293 316.934 87.5119 316.934 86.7402 316.78C85.9684 316.78 85.9684 318.015 86.7402 318.015Z" fill="#EADDFF"/>
<path d="M89.8303 308.598C89.8303 308.907 89.8303 309.37 89.8303 309.679C89.8303 310.45 91.0651 310.45 91.0651 309.679C91.0651 309.37 91.0651 308.907 91.0651 308.598C91.0651 307.827 89.8303 307.827 89.8303 308.598Z" fill="#EADDFF"/>
<path d="M93.9957 319.712C94.4587 319.404 95.0761 319.095 95.5391 318.786C96.1565 318.478 95.5391 317.397 94.9217 317.706C94.4587 318.015 93.8413 318.323 93.3783 318.632C92.7609 318.941 93.3783 320.021 93.9957 319.712Z" fill="#EADDFF"/>
<path d="M87.8257 333.447C88.4431 332.984 89.0605 332.521 89.6779 332.058C90.2953 331.595 89.6779 330.515 89.0605 330.978C88.4431 331.441 87.8257 331.904 87.2084 332.367C86.591 332.83 87.2084 333.911 87.8257 333.447Z" fill="#EADDFF"/>
<path d="M83.3429 323.108C83.8059 323.262 84.2689 323.417 84.732 323.571C85.5037 323.88 85.8124 322.645 85.0407 322.336C84.5776 322.182 84.1146 322.028 83.6516 321.873C83.0342 321.719 82.7255 322.799 83.3429 323.108Z" fill="#EADDFF"/>
<path d="M92.1418 328.665C92.4505 328.665 92.6048 328.819 92.7592 328.974C93.2222 329.591 94.1483 328.665 93.6852 328.202C93.3765 327.739 92.7592 327.585 92.1418 327.43C91.3701 327.43 91.3701 328.665 92.1418 328.665Z" fill="#EADDFF"/>
<path d="M94.7661 334.375C94.6118 335.147 94.7661 335.919 95.0748 336.69C95.3835 337.462 96.4639 336.845 96.1552 336.073C96.0009 335.61 95.8465 335.147 96.0009 334.684C96.0009 333.912 94.9205 333.604 94.7661 334.375Z" fill="#EADDFF"/>
<path d="M100.944 334.53C101.253 334.684 101.716 334.684 102.025 334.839C102.797 334.993 103.105 333.913 102.334 333.604C102.025 333.449 101.562 333.45 101.253 333.295C100.636 333.295 100.327 334.376 100.944 334.53Z" fill="#EADDFF"/>
<path d="M104.796 322.799C104.796 323.417 104.95 324.034 105.568 324.497C106.185 324.96 106.957 324.189 106.494 323.726C106.185 323.417 106.031 323.263 106.185 322.799C106.185 322.028 104.95 322.028 104.796 322.799Z" fill="#EADDFF"/>
<path d="M103.26 314.157C102.951 314.62 102.797 315.083 102.951 315.7C103.105 316.472 104.186 316.163 104.186 315.391C104.186 315.083 104.186 314.928 104.34 314.774C104.803 314.157 103.723 313.539 103.26 314.157Z" fill="#EADDFF"/>
<path d="M109.892 317.708C109.892 318.017 109.892 318.48 109.892 318.789C109.892 319.561 111.127 319.561 111.127 318.789C111.127 318.48 111.127 318.017 111.127 317.708C111.127 316.937 109.892 316.937 109.892 317.708Z" fill="#EADDFF"/>
<path d="M98.7822 315.853C99.0909 316.008 99.2452 316.162 99.5539 316.317C100.171 316.78 100.789 315.699 100.171 315.236C99.8626 315.082 99.7082 314.927 99.3996 314.773C98.6278 314.31 98.1648 315.39 98.7822 315.853Z" fill="#EADDFF"/>
<path d="M100.789 305.82C101.098 306.129 101.098 306.438 101.098 306.746C101.098 307.518 102.332 307.518 102.332 306.746C102.332 306.129 102.024 305.512 101.561 305.049C101.098 304.431 100.326 305.357 100.789 305.82Z" fill="#EADDFF"/>
<path d="M103.722 302.272C103.722 302.735 103.722 303.352 103.722 303.815C103.722 304.587 104.957 304.587 104.957 303.815C104.957 303.352 104.957 302.735 104.957 302.272C104.957 301.5 103.722 301.5 103.722 302.272Z" fill="#EADDFF"/>
<path d="M111.129 309.372C111.283 309.526 111.437 309.681 111.592 309.989C112.055 310.607 112.981 309.681 112.364 309.063C112.209 308.909 112.055 308.754 111.9 308.446C111.592 307.828 110.666 308.754 111.129 309.372Z" fill="#EADDFF"/>
<path d="M112.361 302.116C112.824 302.116 113.442 302.116 113.905 302.271C114.676 302.271 114.676 301.19 113.905 301.036C113.442 301.036 112.824 301.036 112.361 300.882C111.59 300.882 111.59 302.116 112.361 302.116Z" fill="#EADDFF"/>
<path d="M114.062 292.549C114.371 292.858 114.834 293.321 115.143 293.629C115.76 294.247 116.532 293.321 115.915 292.858C115.606 292.549 115.143 292.086 114.834 291.777C114.371 291.16 113.599 291.932 114.062 292.549Z" fill="#EADDFF"/>
<path d="M118.688 289.461C118.688 290.079 118.688 290.696 118.688 291.313C118.688 292.085 119.923 292.085 119.923 291.313C119.923 290.696 119.923 290.079 119.923 289.461C119.923 288.69 118.688 288.69 118.688 289.461Z" fill="#EADDFF"/>
<path d="M120.851 300.729C121.005 300.42 121.16 300.266 121.314 299.957C121.777 299.34 120.697 298.722 120.234 299.34C120.079 299.648 119.925 299.803 119.771 300.111C119.462 300.729 120.542 301.346 120.851 300.729Z" fill="#EADDFF"/>
<path d="M116.841 312.459C117.304 312.304 117.767 312.15 118.23 311.996C119.002 311.687 118.693 310.607 117.921 310.761C117.458 310.915 116.995 311.07 116.532 311.224C115.76 311.533 116.069 312.767 116.841 312.459Z" fill="#EADDFF"/>
<path d="M122.085 310.758C122.548 310.604 123.011 310.604 123.474 310.449C124.245 310.295 123.937 309.06 123.165 309.215C122.702 309.369 122.239 309.369 121.776 309.523C121.004 309.832 121.313 310.913 122.085 310.758Z" fill="#EADDFF"/>
<path d="M118.688 316.317C118.688 316.471 118.688 316.471 118.688 316.625C118.688 317.397 119.923 317.397 119.923 316.625C119.923 316.471 119.923 316.471 119.923 316.317C119.923 315.545 118.688 315.545 118.688 316.317Z" fill="#EADDFF"/>
<path d="M108.348 334.838C108.657 334.684 108.811 334.529 109.12 334.375C109.737 333.912 109.12 332.832 108.503 333.295C108.194 333.449 108.04 333.603 107.731 333.758C107.113 334.221 107.731 335.147 108.348 334.838Z" fill="#EADDFF"/>
<path d="M107.733 339.159C108.196 338.696 108.659 338.388 109.431 338.233C110.203 338.079 109.894 336.844 109.122 336.999C108.351 337.153 107.579 337.616 106.962 338.233C106.344 338.851 107.116 339.777 107.733 339.159Z" fill="#EADDFF"/>
<path d="M102.794 339.932C102.948 340.086 102.948 340.24 103.103 340.395C103.412 341.012 104.492 340.549 104.183 339.777C104.029 339.623 104.029 339.469 103.875 339.314C103.412 338.543 102.485 339.16 102.794 339.932Z" fill="#EADDFF"/>
<path d="M98.159 341.165C98.7764 341.474 99.5481 341.628 100.166 341.474C100.937 341.319 100.629 340.239 99.8568 340.239C99.3938 340.393 99.0851 340.239 98.7764 340.084C98.159 339.776 97.5417 340.856 98.159 341.165Z" fill="#EADDFF"/>
<path d="M108.042 329.746C108.814 329.591 109.586 329.592 110.512 329.437C111.284 329.283 111.284 328.202 110.512 328.202C109.74 328.357 108.968 328.357 108.042 328.511C107.425 328.665 107.425 329.9 108.042 329.746Z" fill="#EADDFF"/>
<path d="M215.619 277.267C228.584 265.537 241.395 253.961 254.36 242.231C256.212 240.533 253.434 237.6 251.582 239.452C238.617 251.183 225.806 262.759 212.841 274.489C210.835 276.032 213.767 278.965 215.619 277.267Z" fill="#D0BCFE"/>
<path d="M259.453 295.016C272.418 283.286 285.228 271.71 298.193 259.98C300.045 258.282 297.267 255.349 295.415 257.201C282.45 268.932 269.639 280.508 256.674 292.238C254.668 293.936 257.601 296.868 259.453 295.016Z" fill="#D0BCFE"/>
<path d="M211.912 308.293C238.923 281.9 266.087 255.507 293.098 229.114C294.95 227.262 292.172 224.484 290.32 226.336C263.309 252.729 236.144 279.122 209.134 305.515C207.127 307.367 210.06 310.146 211.912 308.293Z" fill="#D0BCFE"/>
<path d="M336.012 61.9585H334.314V173.704H336.012V61.9585Z" fill="#65558F"/>
<path d="M342.187 173.86C342.187 177.719 338.945 180.96 335.087 180.96C331.228 180.96 327.987 177.719 327.987 173.86C327.987 170.001 331.228 166.76 335.087 166.76C339.1 166.76 342.187 169.847 342.187 173.86Z" fill="#65558F"/>
<path d="M335.239 197.627C335.084 197.627 332.769 197.627 331.071 195.93C329.991 194.849 329.374 193.306 329.374 191.299C329.374 190.836 329.837 190.373 330.3 190.373C330.763 190.373 331.226 190.836 331.226 191.299C331.226 192.688 331.689 193.923 332.306 194.695C333.387 195.775 335.084 195.93 335.084 195.93C337.708 195.93 339.869 193.769 339.869 191.145C339.869 188.521 337.708 186.36 335.084 186.36C334.621 186.36 334.158 185.897 334.158 185.434V180.186C334.158 179.723 334.621 179.26 335.084 179.26C335.547 179.26 336.01 179.723 336.01 180.186V184.508C339.252 184.971 341.721 187.749 341.721 191.145C341.876 194.54 338.943 197.627 335.239 197.627Z" fill="#65558F"/>
<path d="M298.043 201.947C297.735 201.947 297.426 201.638 297.272 201.175C297.272 200.712 297.58 200.249 298.043 200.249L336.475 194.539C336.938 194.539 337.401 194.847 337.401 195.31C337.401 195.773 337.093 196.236 336.63 196.236L298.198 201.947H298.043Z" fill="#65558F"/>
<path d="M371.667 214.758C371.512 214.758 371.512 214.758 371.358 214.603L336.013 196.236C335.55 196.082 335.395 195.465 335.704 195.002C335.858 194.538 336.476 194.384 336.939 194.693L372.284 213.06C372.747 213.214 372.901 213.832 372.593 214.295C372.438 214.603 372.13 214.758 371.667 214.758Z" fill="#65558F"/>
<path d="M368.891 288.533L274.741 272.172C269.801 271.246 266.56 266.616 267.332 261.676L276.747 207.501C277.673 202.562 282.303 199.321 287.242 200.093L381.393 216.453C386.332 217.379 389.573 222.01 388.802 226.949L379.387 281.124C378.461 286.063 373.83 289.304 368.891 288.533Z" fill="white"/>
<path d="M370.123 289.768C369.506 289.768 368.889 289.768 368.271 289.614L274.892 273.408C272.114 272.945 269.645 271.401 268.101 269.086C266.403 266.771 265.786 263.993 266.403 261.214L275.664 207.657C276.59 201.946 282.147 198.087 287.857 199.013L381.236 215.219C384.014 215.682 386.484 217.226 388.028 219.541C389.725 221.856 390.343 224.634 389.88 227.413L380.619 280.971C379.693 286.064 375.217 289.768 370.123 289.768ZM286.005 201.174C282.147 201.174 278.597 203.952 277.979 207.965L268.719 261.523C268.41 263.684 268.873 265.845 270.108 267.697C271.342 269.549 273.195 270.629 275.355 271.092L368.734 287.299C373.21 288.07 377.378 285.138 378.149 280.662L387.41 227.104C387.719 224.943 387.256 222.782 386.021 220.93C384.786 219.078 382.934 217.998 380.773 217.535L287.394 201.328C286.931 201.328 286.468 201.174 286.005 201.174Z" fill="#65558F"/>
<path d="M368.113 282.668L277.358 266.925C274.271 266.308 272.11 263.375 272.573 260.288L281.217 210.898C281.834 207.811 284.767 205.65 287.854 206.113L378.609 221.856C381.696 222.474 383.856 225.406 383.393 228.493L374.75 277.884C374.287 281.125 371.2 283.131 368.113 282.668Z" fill="#D0BCFE"/>
<path d="M368.887 283.903C368.424 283.903 368.116 283.903 367.653 283.749L277.361 268.005C275.508 267.697 273.811 266.616 272.73 265.073C271.65 263.529 271.187 261.523 271.495 259.671L279.984 210.589C280.602 206.73 284.461 204.106 288.319 204.724L378.611 220.467C382.47 221.084 385.094 224.943 384.476 228.802L375.987 277.883C375.679 279.736 374.598 281.433 373.055 282.514C371.82 283.44 370.431 283.903 368.887 283.903ZM368.116 281.433C369.35 281.588 370.585 281.433 371.666 280.662C372.746 279.89 373.363 278.81 373.672 277.575L382.161 228.493C382.624 225.869 380.926 223.4 378.302 222.937L288.01 207.193C285.387 206.73 282.917 208.428 282.454 211.052L273.965 260.134C273.811 261.369 273.965 262.603 274.737 263.684C275.508 264.764 276.589 265.381 277.824 265.69L368.116 281.433Z" fill="#65558F"/>
<path d="M325.054 275.107L348.515 253.653L361.48 281.435L325.054 275.107Z" fill="white"/>
<path d="M362.867 282.515L323.354 275.569L348.821 252.263L362.867 282.515ZM326.75 274.643L360.088 280.508L348.204 255.041L326.75 274.643Z" fill="#65558F"/>
<path d="M278.599 267.08L320.272 228.957L343.27 278.348L278.599 267.08Z" fill="white"/>
<path d="M344.656 279.427L276.899 267.696L320.578 227.721L344.656 279.427ZM280.449 266.616L342.032 277.266L320.115 230.19L280.449 266.616Z" fill="#65558F"/>
<path d="M369.815 236.21C369.198 239.451 366.265 241.458 363.024 240.995C359.783 240.377 357.776 237.445 358.24 234.203C358.857 230.962 361.789 228.956 365.031 229.419C368.272 230.036 370.278 232.969 369.815 236.21Z" fill="white"/>
<path d="M364.106 241.766C363.797 241.766 363.334 241.766 363.025 241.612C359.475 240.994 357.006 237.599 357.623 233.894C357.932 232.197 358.858 230.653 360.401 229.573C361.79 228.492 363.643 228.184 365.34 228.492C367.038 228.801 368.582 229.727 369.662 231.271C370.742 232.66 371.051 234.512 370.742 236.21C370.434 237.907 369.508 239.451 367.964 240.531C366.729 241.303 365.34 241.766 364.106 241.766ZM364.106 230.19C363.025 230.19 362.099 230.499 361.173 231.116C360.093 231.888 359.321 232.968 359.166 234.357C359.012 235.747 359.166 236.981 359.938 238.062C360.71 239.142 361.79 239.914 363.179 240.068C364.569 240.223 365.803 240.068 366.884 239.297C367.964 238.525 368.736 237.444 368.89 236.055C369.353 233.277 367.501 230.653 364.877 230.19C364.569 230.19 364.26 230.19 364.106 230.19Z" fill="#65558F"/>
<path d="M407.006 58.2534H319.801V67.8228H407.006V58.2534Z" fill="#D0BCFE"/>
<path d="M482.944 256.735H453.927V0.676514H482.944V256.735ZM456.86 253.803H480.166V3.45473H456.86V253.803Z" fill="#65558F"/>
<path d="M482.636 28.7686H454.391V0.523438H482.636V28.7686ZM457.169 25.8361H479.549V3.456H457.169V25.8361Z" fill="#65558F"/>
<path d="M456.836 0.8407L454.762 2.91431L480.082 28.2342L482.156 26.1606L456.836 0.8407Z" fill="#65558F"/>
<path d="M480.083 0.951598L454.763 26.2715L456.836 28.3451L482.156 3.02521L480.083 0.951598Z" fill="#65558F"/>
<path d="M482.636 54.084H454.391V25.8389H482.636V54.084ZM457.169 51.1515H479.549V28.7714H457.169V51.1515Z" fill="#65558F"/>
<path d="M456.823 26.1635L454.75 28.2371L480.07 53.557L482.143 51.4834L456.823 26.1635Z" fill="#65558F"/>
<path d="M480.07 26.2734L454.75 51.5933L456.823 53.6669L482.143 28.347L480.07 26.2734Z" fill="#65558F"/>
<path d="M482.636 79.3936H454.391V51.1484H482.636V79.3936ZM457.169 76.4611H479.549V54.081H457.169V76.4611Z" fill="#65558F"/>
<path d="M456.808 51.4782L454.735 53.5518L480.055 78.8717L482.128 76.7981L456.808 51.4782Z" fill="#65558F"/>
<path d="M480.067 51.6096L454.747 76.9294L456.821 79.003L482.141 53.6832L480.067 51.6096Z" fill="#65558F"/>
<path d="M482.636 104.709H454.391V76.4634H482.636V104.709ZM457.169 101.776H479.549V79.396H457.169V101.776Z" fill="#65558F"/>
<path d="M456.9 76.9076L454.826 78.9812L480.146 104.301L482.22 102.227L456.9 76.9076Z" fill="#65558F"/>
<path d="M480.032 76.9067L454.712 102.227L456.785 104.3L482.105 78.9803L480.032 76.9067Z" fill="#65558F"/>
<path d="M482.636 130.018H454.391V101.773H482.636V130.018ZM457.169 127.086H479.549V104.705H457.169V127.086Z" fill="#65558F"/>
<path d="M456.887 102.227L454.813 104.301L480.133 129.621L482.207 127.547L456.887 102.227Z" fill="#65558F"/>
<path d="M480.029 102.247L454.709 127.567L456.783 129.64L482.102 104.32L480.029 102.247Z" fill="#65558F"/>
<path d="M482.636 155.334H454.391V127.088H482.636V155.334ZM457.169 152.555H479.549V130.175H457.169V152.555Z" fill="#65558F"/>
<path d="M456.864 127.544L454.791 129.618L480.11 154.938L482.184 152.864L456.864 127.544Z" fill="#65558F"/>
<path d="M480.121 127.677L454.801 152.997L456.874 155.07L482.194 129.75L480.121 127.677Z" fill="#65558F"/>
<path d="M482.636 180.801H454.391V152.556H482.636V180.801ZM457.169 177.869H479.549V155.488H457.169V177.869Z" fill="#65558F"/>
<path d="M456.851 152.867L454.778 154.94L480.098 180.26L482.171 178.186L456.851 152.867Z" fill="#65558F"/>
<path d="M480.108 152.998L454.788 178.318L456.862 180.391L482.182 155.072L480.108 152.998Z" fill="#65558F"/>
<path d="M482.636 206.111H454.391V177.865H482.636V206.111ZM457.169 203.178H479.549V180.798H457.169V203.178Z" fill="#65558F"/>
<path d="M456.836 178.182L454.762 180.256L480.082 205.576L482.156 203.502L456.836 178.182Z" fill="#65558F"/>
<path d="M480.093 178.314L454.773 203.634L456.846 205.707L482.166 180.388L480.093 178.314Z" fill="#65558F"/>
<path d="M482.636 231.426H454.391V203.181H482.636V231.426ZM457.169 228.493H479.549V206.113H457.169V228.493Z" fill="#65558F"/>
<path d="M456.821 203.505L454.747 205.579L480.067 230.899L482.141 228.825L456.821 203.505Z" fill="#65558F"/>
<path d="M480.07 203.637L454.75 228.957L456.823 231.03L482.143 205.71L480.07 203.637Z" fill="#65558F"/>
<path d="M482.636 256.735H454.391V228.49H482.636V256.735ZM457.169 253.803H479.549V231.423H457.169V253.803Z" fill="#65558F"/>
<path d="M456.808 228.818L454.735 230.892L480.055 256.212L482.128 254.138L456.808 228.818Z" fill="#65558F"/>
<path d="M480.048 228.9L454.724 254.216L456.798 256.29L482.121 230.974L480.048 228.9Z" fill="#65558F"/>
<path d="M532.948 53.6229H504.703V25.3777H532.948V53.6229ZM507.635 50.8447H530.016V28.3102H507.635V50.8447Z" fill="#65558F"/>
<path d="M530.584 25.9248L505.268 51.2483L507.342 53.3216L532.658 27.9981L530.584 25.9248Z" fill="#65558F"/>
<path d="M507.214 25.9008L505.14 27.9744L530.46 53.2943L532.534 51.2207L507.214 25.9008Z" fill="#65558F"/>
<path d="M507.632 53.6229H479.387V25.3777H507.632V53.6229ZM482.32 50.8447H504.7V28.3102H482.32V50.8447Z" fill="#65558F"/>
<path d="M505.258 25.907L479.942 51.2305L482.016 53.3038L507.332 27.9803L505.258 25.907Z" fill="#65558F"/>
<path d="M481.886 25.8817L479.812 27.9553L505.132 53.2752L507.206 51.2016L481.886 25.8817Z" fill="#65558F"/>
<path d="M482.319 53.6219H454.074V25.3767H482.319V53.6219ZM457.007 50.8437H479.387V28.3093H457.007V50.8437Z" fill="#65558F"/>
<path d="M457.014 53.6229H428.769V25.3777H457.014V53.6229ZM431.701 50.8447H454.081V28.3102H431.701V50.8447Z" fill="#65558F"/>
<path d="M454.511 25.9648L429.191 51.2847L431.265 53.3583L456.585 28.0384L454.511 25.9648Z" fill="#65558F"/>
<path d="M431.255 25.8539L429.181 27.9275L454.501 53.2474L456.574 51.1738L431.255 25.8539Z" fill="#65558F"/>
<path d="M431.698 53.6229H403.453V25.3777H431.698V53.6229ZM406.231 50.8447H428.611V28.3102H406.231V50.8447Z" fill="#65558F"/>
<path d="M429.182 25.9457L403.863 51.2656L405.936 53.3392L431.256 28.0194L429.182 25.9457Z" fill="#65558F"/>
<path d="M405.939 25.8409L403.865 27.9146L429.185 53.2345L431.259 51.1609L405.939 25.8409Z" fill="#65558F"/>
<path d="M406.225 53.6229H377.98V25.3777H406.225V53.6229ZM380.912 50.8447H403.292V28.3102H380.912V50.8447Z" fill="#65558F"/>
<path d="M379.524 53.623H354.211C353.594 53.623 353.131 53.3143 352.822 52.6969C352.668 52.0795 352.668 51.4621 353.131 51.1534L378.444 25.8408L380.45 27.8473L357.607 50.6904H378.907L403.756 25.8408L405.763 27.8473L380.45 53.1599C380.296 53.4686 379.833 53.623 379.524 53.623Z" fill="#65558F"/>
<path d="M380.618 25.8207L378.545 27.8943L403.865 53.2142L405.938 51.1406L380.618 25.8207Z" fill="#65558F"/>
<path d="M482.945 284.983H453.928V256.738H482.945V284.983ZM457.015 282.051H480.013V259.671H457.015V282.051Z" fill="#65558F"/>
<path d="M480.476 284.52L454.391 259.208L456.552 257.201L482.637 282.514L480.476 284.52Z" fill="#65558F"/>
<path d="M456.552 284.52L454.391 282.514L480.476 257.201L482.637 259.208L456.552 284.52Z" fill="#65558F"/>
<path d="M482.945 386.233H453.928V357.988H482.945V386.233ZM457.015 383.455H480.013V361.074H457.015V383.455Z" fill="#65558F"/>
<path d="M480.476 385.924L454.391 360.457L456.552 358.451L482.637 383.763L480.476 385.924Z" fill="#65558F"/>
<path d="M456.552 385.924L454.391 383.763L480.476 358.451L482.637 360.457L456.552 385.924Z" fill="#65558F"/>
<path d="M482.947 307.83H453.93V279.584H482.947V307.83ZM457.017 305.051H480.014V282.671H457.017V305.051Z" fill="#65558F"/>
<path d="M480.477 307.521L454.393 282.054L456.554 280.048L482.638 305.36L480.477 307.521Z" fill="#65558F"/>
<path d="M456.554 307.521L454.393 305.36L480.477 280.048L482.638 282.054L456.554 307.521Z" fill="#65558F"/>
<path d="M482.947 333.139H453.93V304.894H482.947V333.139ZM457.017 330.361H480.014V307.98H457.017V330.361Z" fill="#65558F"/>
<path d="M480.477 332.83L454.393 307.518L456.554 305.357L482.638 330.669L480.477 332.83Z" fill="#65558F"/>
<path d="M456.554 332.83L454.393 330.669L480.477 305.357L482.638 307.518L456.554 332.83Z" fill="#65558F"/>
<path d="M482.947 358.606H453.93V330.361H482.947V358.606ZM457.017 355.674H480.014V333.294H457.017V355.674Z" fill="#65558F"/>
<path d="M480.477 358.14L454.393 332.827L456.554 330.666L482.638 356.133L480.477 358.14Z" fill="#65558F"/>
<path d="M456.554 358.14L454.393 356.133L480.477 330.666L482.638 332.827L456.554 358.14Z" fill="#65558F"/>
<path d="M159.128 154.101C162.215 154.101 162.215 149.316 159.128 149.316C156.042 149.316 156.042 154.101 159.128 154.101Z" fill="#65558F"/>
<path d="M419.508 103.939C422.595 103.939 422.595 99.1541 419.508 99.1541C416.421 99.1541 416.421 103.939 419.508 103.939Z" fill="#65558F"/>
<path d="M527.239 275.876C527.547 275.876 528.01 275.876 528.319 275.876C529.554 275.876 530.789 274.796 530.789 273.406C530.789 272.172 529.708 270.937 528.319 270.937C528.01 270.937 527.547 270.937 527.239 270.937C526.004 270.937 524.769 272.017 524.769 273.406C524.923 274.641 525.849 275.876 527.239 275.876Z" fill="#65558F"/>
<path d="M64.0552 311.067C67.1421 311.067 67.1421 306.283 64.0552 306.283C60.9683 306.283 60.9683 311.067 64.0552 311.067Z" fill="#65558F"/>
<path d="M293.562 80.4776C296.649 80.4776 296.649 75.6929 293.562 75.6929C290.475 75.6929 290.475 80.4776 293.562 80.4776Z" fill="#65558F"/>
</svg>
