<svg width="34" height="34" viewBox="0 0 34 34" fill="none" xmlns="http://www.w3.org/2000/svg">
<path d="M19.1667 33.3333C16.1667 33.3333 13.6111 32.2778 11.5 30.1667C9.38889 28.0556 8.33333 25.5 8.33333 22.5V21.5417C5.94444 21.1528 3.95833 20.0347 2.375 18.1875C0.791667 16.3403 0 14.1667 0 11.6667V1.66667H5V0H8.33333V6.66667H5V5H3.33333V11.6667C3.33333 13.5 3.98611 15.0694 5.29167 16.375C6.59722 17.6806 8.16667 18.3333 10 18.3333C11.8333 18.3333 13.4028 17.6806 14.7083 16.375C16.0139 15.0694 16.6667 13.5 16.6667 11.6667V5H15V6.66667H11.6667V0H15V1.66667H20V11.6667C20 14.1667 19.2083 16.3403 17.625 18.1875C16.0417 20.0347 14.0556 21.1528 11.6667 21.5417V22.5C11.6667 24.5833 12.3958 26.3542 13.8542 27.8125C15.3125 29.2708 17.0833 30 19.1667 30C21.25 30 23.0208 29.2708 24.4792 27.8125C25.9375 26.3542 26.6667 24.5833 26.6667 22.5V19.7083C25.6944 19.375 24.8958 18.7778 24.2708 17.9167C23.6458 17.0556 23.3333 16.0833 23.3333 15C23.3333 13.6111 23.8194 12.4306 24.7917 11.4583C25.7639 10.4861 26.9444 10 28.3333 10C29.7222 10 30.9028 10.4861 31.875 11.4583C32.8472 12.4306 33.3333 13.6111 33.3333 15C33.3333 16.0833 33.0208 17.0556 32.3958 17.9167C31.7708 18.7778 30.9722 19.375 30 19.7083V22.5C30 25.5 28.9444 28.0556 26.8333 30.1667C24.7222 32.2778 22.1667 33.3333 19.1667 33.3333Z" fill="#00696C"/>
</svg>
