<svg width="30" height="30" viewBox="0 0 30 30" fill="none" xmlns="http://www.w3.org/2000/svg">
<path d="M15 30C11.1667 30 7.82639 28.7292 4.97917 26.1875C2.13194 23.6458 0.5 20.4722 0.0833333 16.6667H3.5C3.88889 19.5556 5.17361 21.9444 7.35417 23.8333C9.53472 25.7222 12.0833 26.6667 15 26.6667C18.25 26.6667 21.0069 25.5347 23.2708 23.2708C25.5347 21.0069 26.6667 18.25 26.6667 15C26.6667 11.75 25.5347 8.99306 23.2708 6.72917C21.0069 4.46528 18.25 3.33333 15 3.33333C13.0833 3.33333 11.2917 3.77778 9.625 4.66667C7.95833 5.55556 6.55556 6.77778 5.41667 8.33333H10V11.6667H0V1.66667H3.33333V5.58333C4.75 3.80556 6.47917 2.43056 8.52083 1.45833C10.5625 0.486111 12.7222 0 15 0C17.0833 0 19.0347 0.395833 20.8542 1.1875C22.6736 1.97917 24.2569 3.04861 25.6042 4.39583C26.9514 5.74306 28.0208 7.32639 28.8125 9.14583C29.6042 10.9653 30 12.9167 30 15C30 17.0833 29.6042 19.0347 28.8125 20.8542C28.0208 22.6736 26.9514 24.2569 25.6042 25.6042C24.2569 26.9514 22.6736 28.0208 20.8542 28.8125C19.0347 29.6042 17.0833 30 15 30ZM19.6667 22L13.3333 15.6667V6.66667H16.6667V14.3333L22 19.6667L19.6667 22Z" fill="#00696C"/>
</svg>
