<svg width="34" height="34" viewBox="0 0 34 34" fill="none" xmlns="http://www.w3.org/2000/svg">
<path d="M22.1667 24.5L24.5 22.1667L18.3333 16V8.33333H15V17.3333L22.1667 24.5ZM16.6667 33.3333C14.3611 33.3333 12.1944 32.8958 10.1667 32.0208C8.13889 31.1458 6.375 29.9583 4.875 28.4583C3.375 26.9583 2.1875 25.1944 1.3125 23.1667C0.4375 21.1389 0 18.9722 0 16.6667C0 14.3611 0.4375 12.1944 1.3125 10.1667C2.1875 8.13889 3.375 6.375 4.875 4.875C6.375 3.375 8.13889 2.1875 10.1667 1.3125C12.1944 0.4375 14.3611 0 16.6667 0C18.9722 0 21.1389 0.4375 23.1667 1.3125C25.1944 2.1875 26.9583 3.375 28.4583 4.875C29.9583 6.375 31.1458 8.13889 32.0208 10.1667C32.8958 12.1944 33.3333 14.3611 33.3333 16.6667C33.3333 18.9722 32.8958 21.1389 32.0208 23.1667C31.1458 25.1944 29.9583 26.9583 28.4583 28.4583C26.9583 29.9583 25.1944 31.1458 23.1667 32.0208C21.1389 32.8958 18.9722 33.3333 16.6667 33.3333ZM16.6667 30C20.3611 30 23.5069 28.7014 26.1042 26.1042C28.7014 23.5069 30 20.3611 30 16.6667C30 12.9722 28.7014 9.82639 26.1042 7.22917C23.5069 4.63194 20.3611 3.33333 16.6667 3.33333C12.9722 3.33333 9.82639 4.63194 7.22917 7.22917C4.63194 9.82639 3.33333 12.9722 3.33333 16.6667C3.33333 20.3611 4.63194 23.5069 7.22917 26.1042C9.82639 28.7014 12.9722 30 16.6667 30Z" fill="#00696C"/>
</svg>
