<svg width="34" height="34" viewBox="0 0 34 34" fill="none" xmlns="http://www.w3.org/2000/svg">
<path d="M16.6667 33.3333C14.3611 33.3333 12.1944 32.8958 10.1667 32.0208C8.13889 31.1458 6.375 29.9583 4.875 28.4583C3.375 26.9583 2.1875 25.1944 1.3125 23.1667C0.4375 21.1389 0 18.9722 0 16.6667C0 14.3611 0.4375 12.1944 1.3125 10.1667C2.1875 8.13889 3.375 6.375 4.875 4.875C6.375 3.375 8.13889 2.1875 10.1667 1.3125C12.1944 0.4375 14.3611 0 16.6667 0C18.9722 0 21.1389 0.4375 23.1667 1.3125C25.1944 2.1875 26.9583 3.375 28.4583 4.875C29.9583 6.375 31.1458 8.13889 32.0208 10.1667C32.8958 12.1944 33.3333 14.3611 33.3333 16.6667C33.3333 18.9722 32.8958 21.1389 32.0208 23.1667C31.1458 25.1944 29.9583 26.9583 28.4583 28.4583C26.9583 29.9583 25.1944 31.1458 23.1667 32.0208C21.1389 32.8958 18.9722 33.3333 16.6667 33.3333ZM15 29.9167V26.6667C14.0833 26.6667 13.2986 26.3403 12.6458 25.6875C11.9931 25.0347 11.6667 24.25 11.6667 23.3333V21.6667L3.66667 13.6667C3.58333 14.1667 3.50694 14.6667 3.4375 15.1667C3.36806 15.6667 3.33333 16.1667 3.33333 16.6667C3.33333 20.0278 4.4375 22.9722 6.64583 25.5C8.85417 28.0278 11.6389 29.5 15 29.9167ZM26.5 25.6667C27.0556 25.0556 27.5556 24.3958 28 23.6875C28.4444 22.9792 28.8125 22.2431 29.1042 21.4792C29.3958 20.7153 29.6181 19.9306 29.7708 19.125C29.9236 18.3194 30 17.5 30 16.6667C30 13.9444 29.2431 11.4583 27.7292 9.20833C26.2153 6.95833 24.1944 5.33333 21.6667 4.33333V5C21.6667 5.91667 21.3403 6.70139 20.6875 7.35417C20.0347 8.00694 19.25 8.33333 18.3333 8.33333H15V11.6667C15 12.1389 14.8403 12.5347 14.5208 12.8542C14.2014 13.1736 13.8056 13.3333 13.3333 13.3333H10V16.6667H20C20.4722 16.6667 20.8681 16.8264 21.1875 17.1458C21.5069 17.4653 21.6667 17.8611 21.6667 18.3333V23.3333H23.3333C24.0556 23.3333 24.7083 23.5486 25.2917 23.9792C25.875 24.4097 26.2778 24.9722 26.5 25.6667Z" fill="#00696C"/>
</svg>
