<svg width="40" height="20" viewBox="0 0 40 20" fill="none" xmlns="http://www.w3.org/2000/svg">
<path d="M0 20V17.375C0 16.1806 0.611111 15.2083 1.83333 14.4583C3.05556 13.7083 4.66667 13.3333 6.66667 13.3333C7.02778 13.3333 7.375 13.3403 7.70833 13.3542C8.04167 13.3681 8.36111 13.4028 8.66667 13.4583C8.27778 14.0417 7.98611 14.6528 7.79167 15.2917C7.59722 15.9306 7.5 16.5972 7.5 17.2917V20H0ZM10 20V17.2917C10 16.4028 10.2431 15.5903 10.7292 14.8542C11.2153 14.1181 11.9028 13.4722 12.7917 12.9167C13.6806 12.3611 14.7431 11.9444 15.9792 11.6667C17.2153 11.3889 18.5556 11.25 20 11.25C21.4722 11.25 22.8264 11.3889 24.0625 11.6667C25.2986 11.9444 26.3611 12.3611 27.25 12.9167C28.1389 13.4722 28.8194 14.1181 29.2917 14.8542C29.7639 15.5903 30 16.4028 30 17.2917V20H10ZM32.5 20V17.2917C32.5 16.5694 32.4097 15.8889 32.2292 15.25C32.0486 14.6111 31.7778 14.0139 31.4167 13.4583C31.7222 13.4028 32.0347 13.3681 32.3542 13.3542C32.6736 13.3403 33 13.3333 33.3333 13.3333C35.3333 13.3333 36.9444 13.7014 38.1667 14.4375C39.3889 15.1736 40 16.1528 40 17.375V20H32.5ZM13.5417 16.6667H26.5C26.2222 16.1111 25.4514 15.625 24.1875 15.2083C22.9236 14.7917 21.5278 14.5833 20 14.5833C18.4722 14.5833 17.0764 14.7917 15.8125 15.2083C14.5486 15.625 13.7917 16.1111 13.5417 16.6667ZM6.66667 11.6667C5.75 11.6667 4.96528 11.3403 4.3125 10.6875C3.65972 10.0347 3.33333 9.25 3.33333 8.33333C3.33333 7.38889 3.65972 6.59722 4.3125 5.95833C4.96528 5.31944 5.75 5 6.66667 5C7.61111 5 8.40278 5.31944 9.04167 5.95833C9.68056 6.59722 10 7.38889 10 8.33333C10 9.25 9.68056 10.0347 9.04167 10.6875C8.40278 11.3403 7.61111 11.6667 6.66667 11.6667ZM33.3333 11.6667C32.4167 11.6667 31.6319 11.3403 30.9792 10.6875C30.3264 10.0347 30 9.25 30 8.33333C30 7.38889 30.3264 6.59722 30.9792 5.95833C31.6319 5.31944 32.4167 5 33.3333 5C34.2778 5 35.0694 5.31944 35.7083 5.95833C36.3472 6.59722 36.6667 7.38889 36.6667 8.33333C36.6667 9.25 36.3472 10.0347 35.7083 10.6875C35.0694 11.3403 34.2778 11.6667 33.3333 11.6667ZM20 10C18.6111 10 17.4306 9.51389 16.4583 8.54167C15.4861 7.56944 15 6.38889 15 5C15 3.58333 15.4861 2.39583 16.4583 1.4375C17.4306 0.479167 18.6111 0 20 0C21.4167 0 22.6042 0.479167 23.5625 1.4375C24.5208 2.39583 25 3.58333 25 5C25 6.38889 24.5208 7.56944 23.5625 8.54167C22.6042 9.51389 21.4167 10 20 10ZM20 6.66667C20.4722 6.66667 20.8681 6.50694 21.1875 6.1875C21.5069 5.86806 21.6667 5.47222 21.6667 5C21.6667 4.52778 21.5069 4.13194 21.1875 3.8125C20.8681 3.49306 20.4722 3.33333 20 3.33333C19.5278 3.33333 19.1319 3.49306 18.8125 3.8125C18.4931 4.13194 18.3333 4.52778 18.3333 5C18.3333 5.47222 18.4931 5.86806 18.8125 6.1875C19.1319 6.50694 19.5278 6.66667 20 6.66667Z" fill="#00696C"/>
</svg>
