<svg width="30" height="33" viewBox="0 0 30 33" fill="none" xmlns="http://www.w3.org/2000/svg">
<path d="M3.33333 26.6667C2.41667 26.6667 1.63194 26.3403 0.979167 25.6875C0.326389 25.0347 0 24.25 0 23.3333V22C0 21.0556 0.243056 20.1875 0.729167 19.3958C1.21528 18.6042 1.86111 18 2.66667 17.5833C4.38889 16.7222 6.13889 16.0764 7.91667 15.6458C9.69445 15.2153 11.5 15 13.3333 15C13.6389 15 13.9375 15.0069 14.2292 15.0208C14.5208 15.0347 14.8194 15.0556 15.125 15.0833C15.5694 15.1389 15.9375 15.3264 16.2292 15.6458C16.5208 15.9653 16.6667 16.3472 16.6667 16.7917C16.6667 17.2639 16.4792 17.6597 16.1042 17.9792C15.7292 18.2986 15.3056 18.4306 14.8333 18.375C14.5833 18.3472 14.3333 18.3333 14.0833 18.3333H13.3333C11.7778 18.3333 10.2361 18.5208 8.70833 18.8958C7.18056 19.2708 5.66667 19.8333 4.16667 20.5833C3.91667 20.7222 3.71528 20.9167 3.5625 21.1667C3.40972 21.4167 3.33333 21.6944 3.33333 22V23.3333H15C15.4722 23.3333 15.8681 23.4931 16.1875 23.8125C16.5069 24.1319 16.6667 24.5278 16.6667 25C16.6667 25.4722 16.5069 25.8681 16.1875 26.1875C15.8681 26.5069 15.4722 26.6667 15 26.6667H3.33333ZM13.3333 13.3333C11.5 13.3333 9.93056 12.6806 8.625 11.375C7.31945 10.0694 6.66667 8.5 6.66667 6.66667C6.66667 4.83333 7.31945 3.26389 8.625 1.95833C9.93056 0.652778 11.5 0 13.3333 0C15.1667 0 16.7361 0.652778 18.0417 1.95833C19.3472 3.26389 20 4.83333 20 6.66667C20 8.5 19.3472 10.0694 18.0417 11.375C16.7361 12.6806 15.1667 13.3333 13.3333 13.3333ZM13.3333 10C14.25 10 15.0347 9.67361 15.6875 9.02083C16.3403 8.36806 16.6667 7.58333 16.6667 6.66667C16.6667 5.75 16.3403 4.96528 15.6875 4.3125C15.0347 3.65972 14.25 3.33333 13.3333 3.33333C12.4167 3.33333 11.6319 3.65972 10.9792 4.3125C10.3264 4.96528 10 5.75 10 6.66667C10 7.58333 10.3264 8.36806 10.9792 9.02083C11.6319 9.67361 12.4167 10 13.3333 10ZM23.3333 25H21.6667C21.1944 25 20.7986 24.8403 20.4792 24.5208C20.1597 24.2014 20 23.8056 20 23.3333V16.6667C20 16.1944 20.1597 15.7986 20.4792 15.4792C20.7986 15.1597 21.1944 15 21.6667 15H27.9583C28.4306 15 28.7917 15.1944 29.0417 15.5833C29.2917 15.9722 29.3056 16.375 29.0833 16.7917L26.6667 21.6667H27.8333C28.3056 21.6667 28.6597 21.875 28.8958 22.2917C29.1319 22.7083 29.1389 23.125 28.9167 23.5417L24.125 31.9583C24.0139 32.1528 23.8542 32.2222 23.6458 32.1667C23.4375 32.1111 23.3333 31.9722 23.3333 31.75V25Z" fill="#00696C"/>
</svg>
