<svg width="27" height="35" viewBox="0 0 27 35" fill="none" xmlns="http://www.w3.org/2000/svg">
<path d="M13.3333 18.3333C11.9444 18.3333 10.7639 17.8472 9.79167 16.875C8.81944 15.9028 8.33333 14.7222 8.33333 13.3333C8.33333 11.9444 8.81944 10.7639 9.79167 9.79167C10.7639 8.81944 11.9444 8.33333 13.3333 8.33333C14.7222 8.33333 15.9028 8.81944 16.875 9.79167C17.8472 10.7639 18.3333 11.9444 18.3333 13.3333C18.3333 14.7222 17.8472 15.9028 16.875 16.875C15.9028 17.8472 14.7222 18.3333 13.3333 18.3333ZM3.33333 35V22.125C2.27778 20.9583 1.45833 19.625 0.875 18.125C0.291667 16.625 0 15.0278 0 13.3333C0 9.61111 1.29167 6.45833 3.875 3.875C6.45833 1.29167 9.61111 0 13.3333 0C17.0556 0 20.2083 1.29167 22.7917 3.875C25.375 6.45833 26.6667 9.61111 26.6667 13.3333C26.6667 15.0278 26.375 16.625 25.7917 18.125C25.2083 19.625 24.3889 20.9583 23.3333 22.125V35L13.3333 31.6667L3.33333 35ZM13.3333 23.3333C16.1111 23.3333 18.4722 22.3611 20.4167 20.4167C22.3611 18.4722 23.3333 16.1111 23.3333 13.3333C23.3333 10.5556 22.3611 8.19444 20.4167 6.25C18.4722 4.30556 16.1111 3.33333 13.3333 3.33333C10.5556 3.33333 8.19444 4.30556 6.25 6.25C4.30556 8.19444 3.33333 10.5556 3.33333 13.3333C3.33333 16.1111 4.30556 18.4722 6.25 20.4167C8.19444 22.3611 10.5556 23.3333 13.3333 23.3333Z" fill="#00696C"/>
</svg>
