<svg width="37" height="30" viewBox="0 0 37 30" fill="none" xmlns="http://www.w3.org/2000/svg">
<path d="M16.5417 18.4167L26 9L23.625 6.625L16.5417 13.7083L13 10.1667L10.6667 12.5L16.5417 18.4167ZM0 30V26.6667H36.6667V30H0ZM5 25C4.08333 25 3.29861 24.6736 2.64583 24.0208C1.99306 23.3681 1.66667 22.5833 1.66667 21.6667V3.33333C1.66667 2.41667 1.99306 1.63194 2.64583 0.979167C3.29861 0.326389 4.08333 0 5 0H31.6667C32.5833 0 33.3681 0.326389 34.0208 0.979167C34.6736 1.63194 35 2.41667 35 3.33333V21.6667C35 22.5833 34.6736 23.3681 34.0208 24.0208C33.3681 24.6736 32.5833 25 31.6667 25H5Z" fill="#00696C"/>
</svg>
