<svg width="22" height="18" viewBox="0 0 22 18" fill="none" xmlns="http://www.w3.org/2000/svg">
<path d="M9.925 11.05L15.6 5.4L14.175 3.975L9.925 8.225L7.8 6.1L6.4 7.5L9.925 11.05ZM0 18V16H22V18H0ZM3 15C2.45 15 1.97917 14.8042 1.5875 14.4125C1.19583 14.0208 1 13.55 1 13V2C1 1.45 1.19583 0.979167 1.5875 0.5875C1.97917 0.195833 2.45 0 3 0H19C19.55 0 20.0208 0.195833 20.4125 0.5875C20.8042 0.979167 21 1.45 21 2V13C21 13.55 20.8042 14.0208 20.4125 14.4125C20.0208 14.8042 19.55 15 19 15H3Z" fill="#3F4949"/>
</svg>
