<svg width="48" height="49" viewBox="0 0 48 49" fill="none" xmlns="http://www.w3.org/2000/svg">
<mask id="mask0_3225_77026" style="mask-type:alpha" maskUnits="userSpaceOnUse" x="0" y="0" width="48" height="49">
<rect y="0.806641" width="48" height="48" fill="#D9D9D9"/>
</mask>
<g mask="url(#mask0_3225_77026)">
<path d="M21.85 28.9066L33.2 17.6066L30.35 14.7566L21.85 23.2566L17.6 19.0066L14.8 21.8066L21.85 28.9066ZM2 42.8066V38.8066H46V42.8066H2ZM8 36.8066C6.9 36.8066 5.95833 36.415 5.175 35.6316C4.39167 34.8483 4 33.9066 4 32.8066V10.8066C4 9.70664 4.39167 8.76497 5.175 7.98164C5.95833 7.19831 6.9 6.80664 8 6.80664H40C41.1 6.80664 42.0417 7.19831 42.825 7.98164C43.6083 8.76497 44 9.70664 44 10.8066V32.8066C44 33.9066 43.6083 34.8483 42.825 35.6316C42.0417 36.415 41.1 36.8066 40 36.8066H8Z" fill="#65558F"/>
</g>
</svg>
