<svg width="34" height="27" viewBox="0 0 34 27" fill="none" xmlns="http://www.w3.org/2000/svg">
<path d="M3.33333 26.6667C2.41667 26.6667 1.63194 26.3403 0.979167 25.6875C0.326389 25.0347 0 24.25 0 23.3333V17.7083C0 17.4028 0.0972222 17.1389 0.291667 16.9167C0.486111 16.6944 0.736111 16.5556 1.04167 16.5C1.70833 16.2778 2.25694 15.875 2.6875 15.2917C3.11806 14.7083 3.33333 14.0556 3.33333 13.3333C3.33333 12.6111 3.11806 11.9583 2.6875 11.375C2.25694 10.7917 1.70833 10.3889 1.04167 10.1667C0.736111 10.1111 0.486111 9.97222 0.291667 9.75C0.0972222 9.52778 0 9.26389 0 8.95833V3.33333C0 2.41667 0.326389 1.63194 0.979167 0.979167C1.63194 0.326389 2.41667 0 3.33333 0H30C30.9167 0 31.7014 0.326389 32.3542 0.979167C33.0069 1.63194 33.3333 2.41667 33.3333 3.33333V8.95833C33.3333 9.26389 33.2361 9.52778 33.0417 9.75C32.8472 9.97222 32.5972 10.1111 32.2917 10.1667C31.625 10.3889 31.0764 10.7917 30.6458 11.375C30.2153 11.9583 30 12.6111 30 13.3333C30 14.0556 30.2153 14.7083 30.6458 15.2917C31.0764 15.875 31.625 16.2778 32.2917 16.5C32.5972 16.5556 32.8472 16.6944 33.0417 16.9167C33.2361 17.1389 33.3333 17.4028 33.3333 17.7083V23.3333C33.3333 24.25 33.0069 25.0347 32.3542 25.6875C31.7014 26.3403 30.9167 26.6667 30 26.6667H3.33333ZM3.33333 23.3333H30V19.0833C28.9722 18.4722 28.1597 17.6597 27.5625 16.6458C26.9653 15.6319 26.6667 14.5278 26.6667 13.3333C26.6667 12.1389 26.9653 11.0347 27.5625 10.0208C28.1597 9.00694 28.9722 8.19444 30 7.58333V3.33333H3.33333V7.58333C4.36111 8.19444 5.17361 9.00694 5.77083 10.0208C6.36806 11.0347 6.66667 12.1389 6.66667 13.3333C6.66667 14.5278 6.36806 15.6319 5.77083 16.6458C5.17361 17.6597 4.36111 18.4722 3.33333 19.0833V23.3333ZM16.6667 21.6667C17.1389 21.6667 17.5347 21.5069 17.8542 21.1875C18.1736 20.8681 18.3333 20.4722 18.3333 20C18.3333 19.5278 18.1736 19.1319 17.8542 18.8125C17.5347 18.4931 17.1389 18.3333 16.6667 18.3333C16.1944 18.3333 15.7986 18.4931 15.4792 18.8125C15.1597 19.1319 15 19.5278 15 20C15 20.4722 15.1597 20.8681 15.4792 21.1875C15.7986 21.5069 16.1944 21.6667 16.6667 21.6667ZM16.6667 15C17.1389 15 17.5347 14.8403 17.8542 14.5208C18.1736 14.2014 18.3333 13.8056 18.3333 13.3333C18.3333 12.8611 18.1736 12.4653 17.8542 12.1458C17.5347 11.8264 17.1389 11.6667 16.6667 11.6667C16.1944 11.6667 15.7986 11.8264 15.4792 12.1458C15.1597 12.4653 15 12.8611 15 13.3333C15 13.8056 15.1597 14.2014 15.4792 14.5208C15.7986 14.8403 16.1944 15 16.6667 15ZM16.6667 8.33333C17.1389 8.33333 17.5347 8.17361 17.8542 7.85417C18.1736 7.53472 18.3333 7.13889 18.3333 6.66667C18.3333 6.19444 18.1736 5.79861 17.8542 5.47917C17.5347 5.15972 17.1389 5 16.6667 5C16.1944 5 15.7986 5.15972 15.4792 5.47917C15.1597 5.79861 15 6.19444 15 6.66667C15 7.13889 15.1597 7.53472 15.4792 7.85417C15.7986 8.17361 16.1944 8.33333 16.6667 8.33333Z" fill="#00696C"/>
</svg>
