<svg width="36" height="25" viewBox="0 0 36 25" fill="none" xmlns="http://www.w3.org/2000/svg">
<path d="M17.875 20C19.9583 20 21.7292 19.2708 23.1875 17.8125C24.6458 16.3542 25.375 14.5833 25.375 12.5C25.375 10.4167 24.6458 8.64583 23.1875 7.1875C21.7292 5.72917 19.9583 5 17.875 5C15.7917 5 14.0208 5.72917 12.5625 7.1875C11.1042 8.64583 10.375 10.4167 10.375 12.5C10.375 14.5833 11.1042 16.3542 12.5625 17.8125C14.0208 19.2708 15.7917 20 17.875 20ZM17.875 17C16.625 17 15.5625 16.5625 14.6875 15.6875C13.8125 14.8125 13.375 13.75 13.375 12.5C13.375 11.25 13.8125 10.1875 14.6875 9.3125C15.5625 8.4375 16.625 8 17.875 8C19.125 8 20.1875 8.4375 21.0625 9.3125C21.9375 10.1875 22.375 11.25 22.375 12.5C22.375 13.75 21.9375 14.8125 21.0625 15.6875C20.1875 16.5625 19.125 17 17.875 17ZM17.875 25C14.1528 25 10.7569 24 7.6875 22C4.61806 20 2.19444 17.3611 0.416667 14.0833C0.277778 13.8333 0.173611 13.5764 0.104167 13.3125C0.0347222 13.0486 0 12.7778 0 12.5C0 12.2222 0.0347222 11.9514 0.104167 11.6875C0.173611 11.4236 0.277778 11.1667 0.416667 10.9167C2.19444 7.63889 4.61806 5 7.6875 3C10.7569 1 14.1528 0 17.875 0C21.5972 0 24.9931 1 28.0625 3C31.1319 5 33.5556 7.63889 35.3333 10.9167C35.4722 11.1667 35.5764 11.4236 35.6458 11.6875C35.7153 11.9514 35.75 12.2222 35.75 12.5C35.75 12.7778 35.7153 13.0486 35.6458 13.3125C35.5764 13.5764 35.4722 13.8333 35.3333 14.0833C33.5556 17.3611 31.1319 20 28.0625 22C24.9931 24 21.5972 25 17.875 25ZM17.875 21.6667C21.0139 21.6667 23.8958 20.8403 26.5208 19.1875C29.1458 17.5347 31.1528 15.3056 32.5417 12.5C31.1528 9.69444 29.1458 7.46528 26.5208 5.8125C23.8958 4.15972 21.0139 3.33333 17.875 3.33333C14.7361 3.33333 11.8542 4.15972 9.22917 5.8125C6.60417 7.46528 4.59722 9.69444 3.20833 12.5C4.59722 15.3056 6.60417 17.5347 9.22917 19.1875C11.8542 20.8403 14.7361 21.6667 17.875 21.6667Z" fill="#00696C"/>
</svg>
