<svg width="34" height="34" viewBox="0 0 34 34" fill="none" xmlns="http://www.w3.org/2000/svg">
<path d="M11.6667 20H28.3333L22.5833 12.5L18.75 17.5L16.1667 14.1667L11.6667 20ZM10 26.6667C9.08333 26.6667 8.29861 26.3403 7.64583 25.6875C6.99306 25.0347 6.66667 24.25 6.66667 23.3333V3.33333C6.66667 2.41667 6.99306 1.63194 7.64583 0.979167C8.29861 0.326389 9.08333 0 10 0H30C30.9167 0 31.7014 0.326389 32.3542 0.979167C33.0069 1.63194 33.3333 2.41667 33.3333 3.33333V23.3333C33.3333 24.25 33.0069 25.0347 32.3542 25.6875C31.7014 26.3403 30.9167 26.6667 30 26.6667H10ZM10 23.3333H30V3.33333H10V23.3333ZM3.33333 33.3333C2.41667 33.3333 1.63194 33.0069 0.979167 32.3542C0.326389 31.7014 0 30.9167 0 30V6.66667H3.33333V30H26.6667V33.3333H3.33333Z" fill="#00696C"/>
</svg>
