<svg width="31" height="31" viewBox="0 0 31 31" fill="none" xmlns="http://www.w3.org/2000/svg">
<path d="M5.41667 0C4.49 3.3475 3.2975 4.49167 0 5.41667C3.2975 6.34167 4.49 7.48583 5.41667 10.8333C6.34333 7.48583 7.53583 6.34167 10.8333 5.41667C7.53583 4.49167 6.34333 3.3475 5.41667 0ZM5.41667 14.1667C4.49 17.5142 3.2975 18.6583 0 19.5833C3.2975 20.5083 4.49 21.6525 5.41667 25C6.34333 21.6525 7.53583 20.5083 10.8333 19.5833C7.53583 18.6583 6.34333 17.5142 5.41667 14.1667ZM14.1667 5.41667C17.4642 4.49167 18.6567 3.3475 19.5833 0C20.51 3.3475 21.7025 4.49167 25 5.41667C21.7025 6.34167 20.51 7.48583 19.5833 10.8333C18.6567 7.48583 17.4642 6.34167 14.1667 5.41667Z" fill="#00696C"/>
<path fill-rule="evenodd" clip-rule="evenodd" d="M24.8331 29.5464L24.6414 29.3548L24.6297 29.3439L9.51142 14.2256C9.19896 13.913 9.02344 13.4892 9.02344 13.0472C9.02344 12.6053 9.19896 12.1815 9.51142 11.8689L11.8689 9.51142C12.1815 9.19896 12.6053 9.02344 13.0472 9.02344C13.4892 9.02344 13.913 9.19896 14.2256 9.51142L29.5464 24.8331C29.8589 25.1456 30.0344 25.5695 30.0344 26.0114C30.0344 26.4534 29.8589 26.8772 29.5464 27.1897L27.1897 29.5473C27.035 29.7021 26.8512 29.8249 26.649 29.9087C26.4467 29.9925 26.2299 30.0356 26.011 30.0356C25.7921 30.0356 25.5753 29.9925 25.373 29.9087C25.1708 29.8249 24.987 29.7021 24.8322 29.5473M13.8456 16.2031L10.6897 13.0472L13.0464 10.6897L16.2031 13.8464L13.8456 16.2031Z" fill="#00696C"/>
</svg>
