<svg width="30" height="34" viewBox="0 0 30 34" fill="none" xmlns="http://www.w3.org/2000/svg">
<path d="M3.33333 33.3333C2.41667 33.3333 1.63194 33.0069 0.979167 32.3542C0.326389 31.7014 0 30.9167 0 30V6.66667C0 5.75 0.326389 4.96528 0.979167 4.3125C1.63194 3.65972 2.41667 3.33333 3.33333 3.33333H5V1.66667C5 1.19444 5.15972 0.798611 5.47917 0.479167C5.79861 0.159722 6.19444 0 6.66667 0C7.13889 0 7.53472 0.159722 7.85417 0.479167C8.17361 0.798611 8.33333 1.19444 8.33333 1.66667V3.33333H21.6667V1.66667C21.6667 1.19444 21.8264 0.798611 22.1458 0.479167C22.4653 0.159722 22.8611 0 23.3333 0C23.8056 0 24.2014 0.159722 24.5208 0.479167C24.8403 0.798611 25 1.19444 25 1.66667V3.33333H26.6667C27.5833 3.33333 28.3681 3.65972 29.0208 4.3125C29.6736 4.96528 30 5.75 30 6.66667V30C30 30.9167 29.6736 31.7014 29.0208 32.3542C28.3681 33.0069 27.5833 33.3333 26.6667 33.3333H3.33333ZM3.33333 30H26.6667V13.3333H3.33333V30ZM3.33333 10H26.6667V6.66667H3.33333V10Z" fill="#00696C"/>
</svg>
