<svg width="30" height="30" viewBox="0 0 30 30" fill="none" xmlns="http://www.w3.org/2000/svg">
<path d="M11.25 30C9.83333 30 8.61111 29.5069 7.58333 28.5208C6.55556 27.5347 5.97222 26.3472 5.83333 24.9583C4.16667 24.7361 2.77778 24 1.66667 22.75C0.555556 21.5 0 20.0278 0 18.3333C0 17.75 0.0763889 17.1736 0.229167 16.6042C0.381944 16.0347 0.611111 15.5 0.916667 15C0.611111 14.5 0.381944 13.9722 0.229167 13.4167C0.0763889 12.8611 0 12.2778 0 11.6667C0 9.97222 0.555556 8.50694 1.66667 7.27083C2.77778 6.03472 4.15278 5.30556 5.79167 5.08333C5.875 3.66667 6.44444 2.46528 7.5 1.47917C8.55556 0.493056 9.80556 0 11.25 0C11.9722 0 12.6458 0.138889 13.2708 0.416667C13.8958 0.694444 14.4722 1.06944 15 1.54167C15.5 1.06944 16.0694 0.694444 16.7083 0.416667C17.3472 0.138889 18.0278 0 18.75 0C20.1944 0 21.4375 0.486111 22.4792 1.45833C23.5208 2.43056 24.0833 3.625 24.1667 5.04167C25.8056 5.26389 27.1875 6 28.3125 7.25C29.4375 8.5 30 9.97222 30 11.6667C30 12.2778 29.9236 12.8611 29.7708 13.4167C29.6181 13.9722 29.3889 14.5 29.0833 15C29.3889 15.5 29.6181 16.0347 29.7708 16.6042C29.9236 17.1736 30 17.75 30 18.3333C30 20.0556 29.4375 21.5347 28.3125 22.7708C27.1875 24.0069 25.7917 24.7361 24.125 24.9583C23.9861 26.3472 23.4097 27.5347 22.3958 28.5208C21.3819 29.5069 20.1667 30 18.75 30C18.0556 30 17.3819 29.8681 16.7292 29.6042C16.0764 29.3403 15.5 28.9722 15 28.5C14.4722 28.9722 13.8889 29.3403 13.25 29.6042C12.6111 29.8681 11.9444 30 11.25 30ZM16.6667 5.41667V24.5833C16.6667 25.1667 16.8681 25.6597 17.2708 26.0625C17.6736 26.4653 18.1667 26.6667 18.75 26.6667C19.3056 26.6667 19.7847 26.4444 20.1875 26C20.5903 25.5556 20.8056 25.0556 20.8333 24.5C20.25 24.2778 19.7153 23.9792 19.2292 23.6042C18.7431 23.2292 18.3056 22.7778 17.9167 22.25C17.6389 21.8611 17.5347 21.4444 17.6042 21C17.6736 20.5556 17.9028 20.1944 18.2917 19.9167C18.6806 19.6389 19.0972 19.5347 19.5417 19.6042C19.9861 19.6736 20.3472 19.9028 20.625 20.2917C20.9306 20.7361 21.3194 21.0764 21.7917 21.3125C22.2639 21.5486 22.7778 21.6667 23.3333 21.6667C24.25 21.6667 25.0347 21.3403 25.6875 20.6875C26.3403 20.0347 26.6667 19.25 26.6667 18.3333C26.6667 18.1944 26.6597 18.0556 26.6458 17.9167C26.6319 17.7778 26.5972 17.6389 26.5417 17.5C26.0694 17.7778 25.5625 17.9861 25.0208 18.125C24.4792 18.2639 23.9167 18.3333 23.3333 18.3333C22.8611 18.3333 22.4653 18.1736 22.1458 17.8542C21.8264 17.5347 21.6667 17.1389 21.6667 16.6667C21.6667 16.1944 21.8264 15.7986 22.1458 15.4792C22.4653 15.1597 22.8611 15 23.3333 15C24.25 15 25.0347 14.6736 25.6875 14.0208C26.3403 13.3681 26.6667 12.5833 26.6667 11.6667C26.6667 10.75 26.3403 9.97222 25.6875 9.33333C25.0347 8.69444 24.25 8.36111 23.3333 8.33333C23.0278 8.83333 22.6319 9.27083 22.1458 9.64583C21.6597 10.0208 21.125 10.3194 20.5417 10.5417C20.0972 10.7083 19.6667 10.6944 19.25 10.5C18.8333 10.3056 18.5556 9.98611 18.4167 9.54167C18.2778 9.09722 18.2986 8.66667 18.4792 8.25C18.6597 7.83333 18.9722 7.55556 19.4167 7.41667C19.8333 7.27778 20.1736 7.02778 20.4375 6.66667C20.7014 6.30556 20.8333 5.88889 20.8333 5.41667C20.8333 4.83333 20.6319 4.34028 20.2292 3.9375C19.8264 3.53472 19.3333 3.33333 18.75 3.33333C18.1667 3.33333 17.6736 3.53472 17.2708 3.9375C16.8681 4.34028 16.6667 4.83333 16.6667 5.41667ZM13.3333 24.5833V5.41667C13.3333 4.83333 13.1319 4.34028 12.7292 3.9375C12.3264 3.53472 11.8333 3.33333 11.25 3.33333C10.6667 3.33333 10.1736 3.53472 9.77083 3.9375C9.36806 4.34028 9.16667 4.83333 9.16667 5.41667C9.16667 5.86111 9.29167 6.27083 9.54167 6.64583C9.79167 7.02083 10.125 7.27778 10.5417 7.41667C10.9861 7.55556 11.3056 7.83333 11.5 8.25C11.6944 8.66667 11.7222 9.09722 11.5833 9.54167C11.4167 9.98611 11.125 10.3056 10.7083 10.5C10.2917 10.6944 9.86111 10.7083 9.41667 10.5417C8.83333 10.3194 8.29861 10.0208 7.8125 9.64583C7.32639 9.27083 6.93056 8.83333 6.625 8.33333C5.73611 8.36111 4.96528 8.70139 4.3125 9.35417C3.65972 10.0069 3.33333 10.7778 3.33333 11.6667C3.33333 12.5833 3.65972 13.3681 4.3125 14.0208C4.96528 14.6736 5.75 15 6.66667 15C7.13889 15 7.53472 15.1597 7.85417 15.4792C8.17361 15.7986 8.33333 16.1944 8.33333 16.6667C8.33333 17.1389 8.17361 17.5347 7.85417 17.8542C7.53472 18.1736 7.13889 18.3333 6.66667 18.3333C6.08333 18.3333 5.52083 18.2639 4.97917 18.125C4.4375 17.9861 3.93056 17.7778 3.45833 17.5C3.40278 17.6389 3.36806 17.7778 3.35417 17.9167C3.34028 18.0556 3.33333 18.1944 3.33333 18.3333C3.33333 19.25 3.65972 20.0347 4.3125 20.6875C4.96528 21.3403 5.75 21.6667 6.66667 21.6667C7.22222 21.6667 7.73611 21.5486 8.20833 21.3125C8.68056 21.0764 9.06944 20.7361 9.375 20.2917C9.65278 19.9028 10.0139 19.6736 10.4583 19.6042C10.9028 19.5347 11.3194 19.6389 11.7083 19.9167C12.0972 20.1944 12.3264 20.5556 12.3958 21C12.4653 21.4444 12.3611 21.8611 12.0833 22.25C11.6944 22.7778 11.25 23.2361 10.75 23.625C10.25 24.0139 9.70833 24.3194 9.125 24.5417C9.15278 25.0972 9.375 25.5903 9.79167 26.0208C10.2083 26.4514 10.6944 26.6667 11.25 26.6667C11.8333 26.6667 12.3264 26.4653 12.7292 26.0625C13.1319 25.6597 13.3333 25.1667 13.3333 24.5833Z" fill="#00696C"/>
</svg>
