<svg width="30" height="30" viewBox="0 0 30 30" fill="none" xmlns="http://www.w3.org/2000/svg">
<path d="M16.6667 8.33333V1.66667C16.6667 1.19444 16.8264 0.798611 17.1458 0.479167C17.4653 0.159722 17.8611 0 18.3333 0H28.3333C28.8056 0 29.2014 0.159722 29.5208 0.479167C29.8403 0.798611 30 1.19444 30 1.66667V8.33333C30 8.80556 29.8403 9.20139 29.5208 9.52083C29.2014 9.84028 28.8056 10 28.3333 10H18.3333C17.8611 10 17.4653 9.84028 17.1458 9.52083C16.8264 9.20139 16.6667 8.80556 16.6667 8.33333ZM0 15V1.66667C0 1.19444 0.159722 0.798611 0.479167 0.479167C0.798611 0.159722 1.19444 0 1.66667 0H11.6667C12.1389 0 12.5347 0.159722 12.8542 0.479167C13.1736 0.798611 13.3333 1.19444 13.3333 1.66667V15C13.3333 15.4722 13.1736 15.8681 12.8542 16.1875C12.5347 16.5069 12.1389 16.6667 11.6667 16.6667H1.66667C1.19444 16.6667 0.798611 16.5069 0.479167 16.1875C0.159722 15.8681 0 15.4722 0 15ZM16.6667 28.3333V15C16.6667 14.5278 16.8264 14.1319 17.1458 13.8125C17.4653 13.4931 17.8611 13.3333 18.3333 13.3333H28.3333C28.8056 13.3333 29.2014 13.4931 29.5208 13.8125C29.8403 14.1319 30 14.5278 30 15V28.3333C30 28.8056 29.8403 29.2014 29.5208 29.5208C29.2014 29.8403 28.8056 30 28.3333 30H18.3333C17.8611 30 17.4653 29.8403 17.1458 29.5208C16.8264 29.2014 16.6667 28.8056 16.6667 28.3333ZM0 28.3333V21.6667C0 21.1944 0.159722 20.7986 0.479167 20.4792C0.798611 20.1597 1.19444 20 1.66667 20H11.6667C12.1389 20 12.5347 20.1597 12.8542 20.4792C13.1736 20.7986 13.3333 21.1944 13.3333 21.6667V28.3333C13.3333 28.8056 13.1736 29.2014 12.8542 29.5208C12.5347 29.8403 12.1389 30 11.6667 30H1.66667C1.19444 30 0.798611 29.8403 0.479167 29.5208C0.159722 29.2014 0 28.8056 0 28.3333ZM3.33333 13.3333H10V3.33333H3.33333V13.3333ZM20 26.6667H26.6667V16.6667H20V26.6667ZM20 6.66667H26.6667V3.33333H20V6.66667ZM3.33333 26.6667H10V23.3333H3.33333V26.6667Z" fill="#00696C"/>
</svg>
