<svg width="40" height="40" viewBox="0 0 40 40" fill="none" xmlns="http://www.w3.org/2000/svg">
<mask id="mask0_7557_89908" style="mask-type:alpha" maskUnits="userSpaceOnUse" x="0" y="0" width="40" height="40">
<rect width="40" height="40" fill="#D9D9D9"/>
</mask>
<g mask="url(#mask0_7557_89908)">
<path d="M19.9987 36.6668C17.7209 36.6668 15.5681 36.2293 13.5404 35.3543C11.5126 34.4793 9.74175 33.2849 8.22786 31.771C6.71398 30.2571 5.51953 28.4863 4.64453 26.4585C3.76953 24.4307 3.33203 22.2779 3.33203 20.0002C3.33203 17.6946 3.76953 15.5349 4.64453 13.521C5.51953 11.5071 6.71398 9.74322 8.22786 8.22933C9.74175 6.71544 11.5126 5.521 13.5404 4.646C15.5681 3.771 17.7209 3.3335 19.9987 3.3335C22.3043 3.3335 24.464 3.771 26.4779 4.646C28.4918 5.521 30.2556 6.71544 31.7695 8.22933C33.2834 9.74322 34.4779 11.5071 35.3529 13.521C36.2279 15.5349 36.6654 17.6946 36.6654 20.0002C36.6654 22.2779 36.2279 24.4307 35.3529 26.4585C34.4779 28.4863 33.2834 30.2571 31.7695 31.771C30.2556 33.2849 28.4918 34.4793 26.4779 35.3543C24.464 36.2293 22.3043 36.6668 19.9987 36.6668ZM19.9987 33.2502C20.7209 32.2502 21.3459 31.2085 21.8737 30.1252C22.4015 29.0418 22.832 27.8891 23.1654 26.6668H16.832C17.1654 27.8891 17.5959 29.0418 18.1237 30.1252C18.6515 31.2085 19.2765 32.2502 19.9987 33.2502ZM15.6654 32.5835C15.1654 31.6668 14.7279 30.7154 14.3529 29.7293C13.9779 28.7432 13.6654 27.7224 13.4154 26.6668H8.4987C9.30425 28.0557 10.3112 29.2641 11.5195 30.2918C12.7279 31.3196 14.1098 32.0835 15.6654 32.5835ZM24.332 32.5835C25.8876 32.0835 27.2695 31.3196 28.4779 30.2918C29.6862 29.2641 30.6931 28.0557 31.4987 26.6668H26.582C26.332 27.7224 26.0195 28.7432 25.6445 29.7293C25.2695 30.7154 24.832 31.6668 24.332 32.5835ZM7.08203 23.3335H12.7487C12.6654 22.7779 12.6029 22.2293 12.5612 21.6877C12.5195 21.146 12.4987 20.5835 12.4987 20.0002C12.4987 19.4168 12.5195 18.8543 12.5612 18.3127C12.6029 17.771 12.6654 17.2224 12.7487 16.6668H7.08203C6.94314 17.2224 6.83898 17.771 6.76953 18.3127C6.70009 18.8543 6.66536 19.4168 6.66536 20.0002C6.66536 20.5835 6.70009 21.146 6.76953 21.6877C6.83898 22.2293 6.94314 22.7779 7.08203 23.3335ZM16.082 23.3335H23.9154C23.9987 22.7779 24.0612 22.2293 24.1029 21.6877C24.1445 21.146 24.1654 20.5835 24.1654 20.0002C24.1654 19.4168 24.1445 18.8543 24.1029 18.3127C24.0612 17.771 23.9987 17.2224 23.9154 16.6668H16.082C15.9987 17.2224 15.9362 17.771 15.8945 18.3127C15.8529 18.8543 15.832 19.4168 15.832 20.0002C15.832 20.5835 15.8529 21.146 15.8945 21.6877C15.9362 22.2293 15.9987 22.7779 16.082 23.3335ZM27.2487 23.3335H32.9154C33.0543 22.7779 33.1584 22.2293 33.2279 21.6877C33.2973 21.146 33.332 20.5835 33.332 20.0002C33.332 19.4168 33.2973 18.8543 33.2279 18.3127C33.1584 17.771 33.0543 17.2224 32.9154 16.6668H27.2487C27.332 17.2224 27.3945 17.771 27.4362 18.3127C27.4779 18.8543 27.4987 19.4168 27.4987 20.0002C27.4987 20.5835 27.4779 21.146 27.4362 21.6877C27.3945 22.2293 27.332 22.7779 27.2487 23.3335ZM26.582 13.3335H31.4987C30.6931 11.9446 29.6862 10.7363 28.4779 9.7085C27.2695 8.68072 25.8876 7.91683 24.332 7.41683C24.832 8.3335 25.2695 9.28488 25.6445 10.271C26.0195 11.2571 26.332 12.2779 26.582 13.3335ZM16.832 13.3335H23.1654C22.832 12.1113 22.4015 10.9585 21.8737 9.87516C21.3459 8.79183 20.7209 7.75016 19.9987 6.75016C19.2765 7.75016 18.6515 8.79183 18.1237 9.87516C17.5959 10.9585 17.1654 12.1113 16.832 13.3335ZM8.4987 13.3335H13.4154C13.6654 12.2779 13.9779 11.2571 14.3529 10.271C14.7279 9.28488 15.1654 8.3335 15.6654 7.41683C14.1098 7.91683 12.7279 8.68072 11.5195 9.7085C10.3112 10.7363 9.30425 11.9446 8.4987 13.3335Z" fill="#00696C"/>
</g>
</svg>
