<svg width="24" height="32" viewBox="0 0 24 32" fill="none" xmlns="http://www.w3.org/2000/svg">
<path d="M11.5545 20C10.1656 20 8.98504 19.5139 8.01282 18.5417C7.0406 17.5694 6.55449 16.3889 6.55449 15V5C6.55449 3.61111 7.0406 2.43056 8.01282 1.45833C8.98504 0.486111 10.1656 0 11.5545 0C12.9434 0 14.1239 0.486111 15.0962 1.45833C16.0684 2.43056 16.5545 3.61111 16.5545 5V15C16.5545 16.3889 16.0684 17.5694 15.0962 18.5417C14.1239 19.5139 12.9434 20 11.5545 20ZM9.88782 30V26.5417C7.33227 26.1806 5.14477 25.0972 3.32532 23.2917C1.50588 21.4861 0.401709 19.2917 0.0128205 16.7083C-0.042735 16.2361 0.082265 15.8333 0.387821 15.5C0.693376 15.1667 1.08227 15 1.55449 15C2.02671 15 2.42254 15.1597 2.74199 15.4792C3.06143 15.7986 3.27671 16.1944 3.38782 16.6667C3.77671 18.6111 4.74199 20.2083 6.28365 21.4583C7.82532 22.7083 9.58227 23.3333 11.5545 23.3333C13.5545 23.3333 15.3184 22.7014 16.8462 21.4375C18.3739 20.1736 19.3323 18.5833 19.7212 16.6667C19.8323 16.1944 20.0475 15.7986 20.367 15.4792C20.6864 15.1597 21.0823 15 21.5545 15C22.0267 15 22.4156 15.1667 22.7212 15.5C23.0267 15.8333 23.1517 16.2361 23.0962 16.7083C22.7073 19.2361 21.61 21.4167 19.8045 23.25C17.9989 25.0833 15.8045 26.1806 13.2212 26.5417V30C13.2212 30.4722 13.0614 30.8681 12.742 31.1875C12.4225 31.5069 12.0267 31.6667 11.5545 31.6667C11.0823 31.6667 10.6864 31.5069 10.367 31.1875C10.0475 30.8681 9.88782 30.4722 9.88782 30ZM11.5545 16.6667C12.0267 16.6667 12.4225 16.5069 12.742 16.1875C13.0614 15.8681 13.2212 15.4722 13.2212 15V5C13.2212 4.52778 13.0614 4.13194 12.742 3.8125C12.4225 3.49306 12.0267 3.33333 11.5545 3.33333C11.0823 3.33333 10.6864 3.49306 10.367 3.8125C10.0475 4.13194 9.88782 4.52778 9.88782 5V15C9.88782 15.4722 10.0475 15.8681 10.367 16.1875C10.6864 16.5069 11.0823 16.6667 11.5545 16.6667Z" fill="#00696C"/>
</svg>
