<svg width="14" height="19" viewBox="0 0 14 19" fill="none" xmlns="http://www.w3.org/2000/svg">
<path d="M0 19V17H5V15C3.61667 15 2.4375 14.5125 1.4625 13.5375C0.4875 12.5625 0 11.3833 0 10C0 9.05 0.241667 8.175 0.725 7.375C1.20833 6.575 1.875 5.96667 2.725 5.55C2.65833 5.91667 2.67083 6.275 2.7625 6.625C2.85417 6.975 3 7.30833 3.2 7.625C2.81667 7.89167 2.52083 8.23333 2.3125 8.65C2.10417 9.06667 2 9.51667 2 10C2 10.8333 2.29167 11.5417 2.875 12.125C3.45833 12.7083 4.16667 13 5 13H13V15H8V17H14V19H0ZM9 10.1L8.7 9.15L7.75 9.5L7.25 8.175C7.58333 7.90833 7.84167 7.5875 8.025 7.2125C8.20833 6.8375 8.3 6.43333 8.3 6C8.3 5.21667 8.025 4.55417 7.475 4.0125C6.925 3.47083 6.25 3.2 5.45 3.2L5 1.95L5.95 1.6L5.6 0.7L7.5 0L7.8 0.95L8.75 0.6L11.5 8.1L10.55 8.45L10.9 9.4L9 10.1ZM5.5 7.8C5 7.8 4.575 7.625 4.225 7.275C3.875 6.925 3.7 6.5 3.7 6C3.7 5.5 3.875 5.075 4.225 4.725C4.575 4.375 5 4.2 5.5 4.2C6 4.2 6.425 4.375 6.775 4.725C7.125 5.075 7.3 5.5 7.3 6C7.3 6.5 7.125 6.925 6.775 7.275C6.425 7.625 6 7.8 5.5 7.8Z" fill="#00696C"/>
</svg>
