<svg width="27" height="34" viewBox="0 0 27 34" fill="none" xmlns="http://www.w3.org/2000/svg">
<path d="M11.5833 26.6667L21 17.25L18.5833 14.8333L11.5417 21.875L8.04167 18.375L5.66667 20.75L11.5833 26.6667ZM3.33333 33.3333C2.41667 33.3333 1.63194 33.0069 0.979167 32.3542C0.326389 31.7014 0 30.9167 0 30V3.33333C0 2.41667 0.326389 1.63194 0.979167 0.979167C1.63194 0.326389 2.41667 0 3.33333 0H16.6667L26.6667 10V30C26.6667 30.9167 26.3403 31.7014 25.6875 32.3542C25.0347 33.0069 24.25 33.3333 23.3333 33.3333H3.33333ZM15 11.6667V3.33333H3.33333V30H23.3333V11.6667H15Z" fill="#00696C"/>
</svg>
