<svg width="49" height="49" viewBox="0 0 49 49" fill="none" xmlns="http://www.w3.org/2000/svg">
<mask id="mask0_3225_77021" style="mask-type:alpha" maskUnits="userSpaceOnUse" x="0" y="0" width="49" height="49">
<rect x="0.33252" y="0.806641" width="48" height="48" fill="#D9D9D9"/>
</mask>
<g mask="url(#mask0_3225_77021)">
<path d="M10.3325 44.8066C9.23252 44.8066 8.29085 44.415 7.50752 43.6316C6.72419 42.8483 6.33252 41.9066 6.33252 40.8066V12.8066C6.33252 11.7066 6.72419 10.765 7.50752 9.98164C8.29085 9.19831 9.23252 8.80664 10.3325 8.80664H12.3325V6.80664C12.3325 6.23997 12.5242 5.76497 12.9075 5.38164C13.2909 4.99831 13.7659 4.80664 14.3325 4.80664C14.8992 4.80664 15.3742 4.99831 15.7575 5.38164C16.1409 5.76497 16.3325 6.23997 16.3325 6.80664V8.80664H32.3325V6.80664C32.3325 6.23997 32.5242 5.76497 32.9075 5.38164C33.2909 4.99831 33.7659 4.80664 34.3325 4.80664C34.8992 4.80664 35.3742 4.99831 35.7575 5.38164C36.1409 5.76497 36.3325 6.23997 36.3325 6.80664V8.80664H38.3325C39.4325 8.80664 40.3742 9.19831 41.1575 9.98164C41.9409 10.765 42.3325 11.7066 42.3325 12.8066V40.8066C42.3325 41.9066 41.9409 42.8483 41.1575 43.6316C40.3742 44.415 39.4325 44.8066 38.3325 44.8066H10.3325ZM10.3325 40.8066H38.3325V20.8066H10.3325V40.8066ZM24.3325 28.8066C23.7659 28.8066 23.2909 28.615 22.9075 28.2316C22.5242 27.8483 22.3325 27.3733 22.3325 26.8066C22.3325 26.24 22.5242 25.765 22.9075 25.3816C23.2909 24.9983 23.7659 24.8066 24.3325 24.8066C24.8992 24.8066 25.3742 24.9983 25.7575 25.3816C26.1409 25.765 26.3325 26.24 26.3325 26.8066C26.3325 27.3733 26.1409 27.8483 25.7575 28.2316C25.3742 28.615 24.8992 28.8066 24.3325 28.8066ZM16.3325 28.8066C15.7659 28.8066 15.2909 28.615 14.9075 28.2316C14.5242 27.8483 14.3325 27.3733 14.3325 26.8066C14.3325 26.24 14.5242 25.765 14.9075 25.3816C15.2909 24.9983 15.7659 24.8066 16.3325 24.8066C16.8992 24.8066 17.3742 24.9983 17.7575 25.3816C18.1409 25.765 18.3325 26.24 18.3325 26.8066C18.3325 27.3733 18.1409 27.8483 17.7575 28.2316C17.3742 28.615 16.8992 28.8066 16.3325 28.8066ZM32.3325 28.8066C31.7659 28.8066 31.2909 28.615 30.9075 28.2316C30.5242 27.8483 30.3325 27.3733 30.3325 26.8066C30.3325 26.24 30.5242 25.765 30.9075 25.3816C31.2909 24.9983 31.7659 24.8066 32.3325 24.8066C32.8992 24.8066 33.3742 24.9983 33.7575 25.3816C34.1409 25.765 34.3325 26.24 34.3325 26.8066C34.3325 27.3733 34.1409 27.8483 33.7575 28.2316C33.3742 28.615 32.8992 28.8066 32.3325 28.8066ZM24.3325 36.8066C23.7659 36.8066 23.2909 36.615 22.9075 36.2316C22.5242 35.8483 22.3325 35.3733 22.3325 34.8066C22.3325 34.24 22.5242 33.765 22.9075 33.3816C23.2909 32.9983 23.7659 32.8066 24.3325 32.8066C24.8992 32.8066 25.3742 32.9983 25.7575 33.3816C26.1409 33.765 26.3325 34.24 26.3325 34.8066C26.3325 35.3733 26.1409 35.8483 25.7575 36.2316C25.3742 36.615 24.8992 36.8066 24.3325 36.8066ZM16.3325 36.8066C15.7659 36.8066 15.2909 36.615 14.9075 36.2316C14.5242 35.8483 14.3325 35.3733 14.3325 34.8066C14.3325 34.24 14.5242 33.765 14.9075 33.3816C15.2909 32.9983 15.7659 32.8066 16.3325 32.8066C16.8992 32.8066 17.3742 32.9983 17.7575 33.3816C18.1409 33.765 18.3325 34.24 18.3325 34.8066C18.3325 35.3733 18.1409 35.8483 17.7575 36.2316C17.3742 36.615 16.8992 36.8066 16.3325 36.8066ZM32.3325 36.8066C31.7659 36.8066 31.2909 36.615 30.9075 36.2316C30.5242 35.8483 30.3325 35.3733 30.3325 34.8066C30.3325 34.24 30.5242 33.765 30.9075 33.3816C31.2909 32.9983 31.7659 32.8066 32.3325 32.8066C32.8992 32.8066 33.3742 32.9983 33.7575 33.3816C34.1409 33.765 34.3325 34.24 34.3325 34.8066C34.3325 35.3733 34.1409 35.8483 33.7575 36.2316C33.3742 36.615 32.8992 36.8066 32.3325 36.8066Z" fill="#65558F"/>
</g>
</svg>
