<svg width="49" height="48" viewBox="0 0 49 48" fill="none" xmlns="http://www.w3.org/2000/svg">
<mask id="mask0_3225_73576" style="mask-type:alpha" maskUnits="userSpaceOnUse" x="0" y="0" width="49" height="48">
<rect x="0.333252" width="48" height="48" fill="#D9D9D9"/>
</mask>
<g mask="url(#mask0_3225_73576)">
<path d="M34.3333 32C32.6666 32 31.2499 31.4167 30.0833 30.25C28.9166 29.0833 28.3333 27.6667 28.3333 26C28.3333 24.3333 28.9166 22.9167 30.0833 21.75C31.2499 20.5833 32.6666 20 34.3333 20C35.9999 20 37.4166 20.5833 38.5833 21.75C39.7499 22.9167 40.3333 24.3333 40.3333 26C40.3333 27.6667 39.7499 29.0833 38.5833 30.25C37.4166 31.4167 35.9999 32 34.3333 32ZM22.3333 46V40.2C22.3333 39.5 22.4999 38.8417 22.8333 38.225C23.1666 37.6083 23.6333 37.1167 24.2333 36.75C25.2999 36.1167 26.4249 35.5917 27.6083 35.175C28.7916 34.7583 29.9999 34.45 31.2333 34.25L34.3333 38L37.4333 34.25C38.6666 34.45 39.8666 34.7583 41.0333 35.175C42.1999 35.5917 43.3166 36.1167 44.3833 36.75C44.9832 37.1167 45.4583 37.6083 45.8083 38.225C46.1583 38.8417 46.3333 39.5 46.3333 40.2V46H22.3333ZM18.3333 40.2V42H10.3333C9.23325 42 8.29159 41.6083 7.50825 40.825C6.72492 40.0417 6.33325 39.1 6.33325 38V10C6.33325 8.9 6.72492 7.95833 7.50825 7.175C8.29159 6.39167 9.23325 6 10.3333 6H38.3333C39.4333 6 40.3749 6.39167 41.1583 7.175C41.9416 7.95833 42.3333 8.9 42.3333 10V20C41.2999 18.7 40.1333 17.7083 38.8333 17.025C37.5333 16.3417 36.0333 16 34.3333 16V14H14.3333V18H28.3333C27.6666 18.5333 27.0666 19.1333 26.5333 19.8C25.9999 20.4667 25.5499 21.2 25.1833 22H14.3333V26H24.3333C24.3333 26.7 24.4083 27.3833 24.5583 28.05C24.7083 28.7167 24.9166 29.3667 25.1833 30H14.3333V34H21.2333C20.3333 34.7667 19.6249 35.6917 19.1083 36.775C18.5916 37.8583 18.3333 39 18.3333 40.2Z" fill="#65558F"/>
</g>
</svg>
