<svg width="530" height="358" viewBox="0 0 530 358" fill="none" xmlns="http://www.w3.org/2000/svg">
<path d="M413.951 354.281C404.83 360.013 392.752 356.943 387.498 347.549L301.587 194.06L318.214 183.597L419.342 327.532C425.529 336.335 423.072 348.55 413.951 354.281Z" fill="url(#paint0_linear_3225_82866)"/>
<path d="M469.974 200.156L461.535 188.26L462.217 156.461L470.702 167.47L469.974 200.156Z" fill="url(#paint1_linear_3225_82866)"/>
<path d="M505.457 137.968L495.972 127.778L519.855 127.756L530 137.946L505.457 137.968Z" fill="url(#paint2_linear_3225_82866)"/>
<path d="M431.761 138.014L424.346 127.802L463.901 127.779L472.453 137.992L431.761 138.014Z" fill="url(#paint3_linear_3225_82866)"/>
<path d="M473.113 108.604L464.515 99.2097L496.655 99.2325L506.185 108.626L473.113 108.604Z" fill="url(#paint4_linear_3225_82866)"/>
<path d="M472.453 137.991L463.901 127.778L464.515 99.2097L473.113 108.604L472.453 137.991Z" fill="url(#paint5_linear_3225_82866)"/>
<path d="M389.181 167.629L382.971 156.575L383.335 132.828L389.59 143.223L389.181 167.629Z" fill="url(#paint6_linear_3225_82866)"/>
<path d="M500.226 43.187L431.761 138.014L472.453 137.991L473.113 108.604L506.185 108.627L505.457 137.969L530 137.946L529.227 167.356L504.729 167.402L503.91 200.065L469.974 200.156L470.702 167.47L389.181 167.629L389.59 143.223L463.241 43.0732L500.226 43.187Z" fill="url(#paint7_linear_3225_82866)"/>
<path d="M389.59 143.223L383.335 132.828L454.893 35.4988L463.241 43.0731L389.59 143.223Z" fill="url(#paint8_linear_3225_82866)"/>
<path d="M463.241 43.0731L454.893 35.4988L490.809 35.5898L500.226 43.1869L463.241 43.0731Z" fill="url(#paint9_linear_3225_82866)"/>
<path d="M118.46 138.196L117.778 127.892H142.207L143.572 138.196H118.46Z" fill="url(#paint10_linear_3225_82866)"/>
<path d="M43.0579 138.264L44.5363 127.915H84.9557L84.6827 138.242L43.0579 138.264Z" fill="url(#paint11_linear_3225_82866)"/>
<path d="M84.6599 108.513L84.9556 99.0049L117.846 99.0277L118.506 108.513H84.6599Z" fill="url(#paint12_linear_3225_82866)"/>
<path d="M0 143.519L2.70673 133.01L73.6509 34.5664L73.014 42.209L0 143.519Z" fill="url(#paint13_linear_3225_82866)"/>
<path d="M73.0139 42.209L73.6508 34.5664L110.385 34.6801L110.84 42.3227L73.0139 42.209Z" fill="url(#paint14_linear_3225_82866)"/>
<path d="M110.84 42.3225L43.0578 138.264L84.6826 138.242L84.6599 108.513H118.506L118.46 138.196H143.572L143.481 167.948L118.415 167.993L118.346 200.997L83.6136 201.111L83.5908 168.061L0.18195 168.221L0 143.519L73.014 42.2087L110.84 42.3225Z" fill="url(#paint15_linear_3225_82866)"/>
<path d="M340.323 111.47C340.277 110.355 340.232 109.241 340.141 108.126C340.05 107.012 339.936 105.92 339.8 104.828C339.663 103.736 339.504 102.645 339.322 101.576C339.14 100.507 338.935 99.4375 338.708 98.3684L337.434 92.4545C337.662 93.4781 337.844 94.4789 338.026 95.5252C338.208 96.5487 338.344 97.595 338.481 98.6413C338.617 99.6876 338.708 100.734 338.799 101.78C338.89 102.827 338.935 103.896 338.981 104.965C339.299 114.7 337.616 124.048 334.295 132.601C330.974 141.131 326.039 148.887 319.852 155.46C313.665 162.034 306.227 167.402 297.902 171.246C289.577 175.067 280.388 177.342 270.653 177.66C260.94 177.979 251.592 176.341 243.016 173.088C234.441 169.836 226.639 164.968 219.998 158.85C213.356 152.731 207.851 145.361 203.916 137.104C199.981 128.825 197.593 119.658 197.161 109.969C196.933 104.874 197.275 99.8924 198.093 95.0475C198.912 90.2027 200.232 85.5398 202.006 81.0816C203.78 76.6234 205.986 72.3699 208.602 68.3894C211.218 64.4089 214.22 60.7013 217.587 57.335L213.31 61.6339C209.808 65.1595 206.646 69.0263 203.916 73.1888C201.187 77.3513 198.867 81.7867 197.024 86.4496C195.182 91.1125 193.794 96.0028 192.93 101.052C192.066 106.102 191.725 111.311 191.975 116.656C192.43 126.801 194.932 136.377 199.049 145.043C203.166 153.686 208.92 161.397 215.881 167.789C222.841 174.18 231.007 179.275 239.968 182.664C248.93 186.076 258.688 187.805 268.856 187.464C279.023 187.123 288.645 184.757 297.356 180.776C306.068 176.773 313.847 171.155 320.329 164.286C326.812 157.417 331.975 149.319 335.455 140.403C338.89 131.418 340.664 121.66 340.323 111.47Z" fill="url(#paint16_linear_3225_82866)"/>
<path d="M360.999 55.356C356.268 46.9401 350.422 39.2293 343.666 32.4283C336.911 25.6273 329.223 19.7134 320.852 14.914C312.482 10.1146 303.384 6.40706 293.808 4.01875C284.232 1.63044 274.178 0.515907 263.829 0.902586C259.689 1.06181 255.64 1.44848 251.637 2.06262C247.656 2.67675 243.744 3.49561 239.923 4.54191C236.102 5.58822 232.371 6.81649 228.732 8.24948C225.093 9.68246 221.567 11.3202 218.155 13.1171L213.902 15.3689C217.473 13.481 221.158 11.7751 224.956 10.2738C228.755 8.77262 232.667 7.47612 236.67 6.38432C240.673 5.29252 244.768 4.42817 248.93 3.79129C253.115 3.15441 257.369 2.74499 261.691 2.58577C272.518 2.17634 283.026 3.33638 293.057 5.83841C303.065 8.34045 312.573 12.2072 321.353 17.2341C330.11 22.2609 338.139 28.425 345.236 35.5444C352.31 42.6639 358.428 50.7159 363.364 59.5185C362.568 58.1538 361.795 56.7663 360.999 55.356Z" fill="url(#paint17_linear_3225_82866)"/>
<path d="M377.421 110.173C376.944 94.8652 373.373 80.3761 367.277 67.229C361.204 54.0819 352.583 42.3224 342.097 32.5417C331.611 22.761 319.238 14.9819 305.613 9.79585C291.988 4.6098 277.135 2.01678 261.691 2.58543C246.269 3.17682 231.689 6.86164 218.542 13.0485C205.44 19.2354 193.772 27.8788 184.127 38.3646C174.506 48.8276 166.909 61.1104 161.905 74.5987C156.901 88.0414 154.49 102.69 155.218 117.884C155.923 133.055 159.698 147.385 165.908 160.305C172.095 173.202 180.693 184.688 191.11 194.242C201.505 203.772 213.72 211.369 227.094 216.441C240.492 221.514 255.072 224.107 270.243 223.629C285.437 223.129 299.813 219.626 312.846 213.689C325.879 207.73 337.525 199.337 347.238 189.101C356.95 178.843 364.729 166.742 369.961 153.413C375.192 140.084 377.876 125.436 377.421 110.173ZM340.346 112.311C340.573 122.183 338.799 131.668 335.433 140.357C331.975 149.273 326.789 157.371 320.307 164.24C313.824 171.109 306.045 176.727 297.356 180.731C288.644 184.711 279.023 187.099 268.856 187.418C258.688 187.759 248.93 186.03 239.968 182.618C231.007 179.207 222.841 174.134 215.881 167.72C208.92 161.328 203.188 153.618 199.071 144.997C194.932 136.331 192.452 126.778 191.998 116.61C191.543 106.443 193.203 96.6621 196.547 87.7002C196.729 87.2453 196.911 86.7904 197.093 86.3128C199.049 81.3997 201.505 76.7368 204.439 72.4151C204.462 72.3696 204.485 72.3468 204.508 72.3241C206.6 69.2307 208.92 66.3192 211.445 63.5897C217.905 56.6067 225.684 50.8748 234.418 46.7805C243.176 42.6863 252.888 40.2297 263.146 39.8658C273.427 39.4791 283.322 41.2078 292.398 44.6652C301.473 48.1225 309.707 53.2858 316.713 59.7911C323.696 66.2737 329.45 74.0982 333.522 82.8554C337.548 91.4533 339.936 100.938 340.323 110.969C340.346 111.128 340.346 111.31 340.346 111.47C340.368 111.743 340.368 112.016 340.368 112.288C340.346 112.311 340.346 112.311 340.346 112.311Z" fill="url(#paint18_linear_3225_82866)"/>
<path d="M301.405 99.8922C304.319 99.8922 306.682 97.5296 306.682 94.6152C306.682 91.7008 304.319 89.3381 301.405 89.3381C298.49 89.3381 296.128 91.7008 296.128 94.6152C296.128 97.5296 298.49 99.8922 301.405 99.8922Z" fill="#65558F"/>
<path d="M236.011 99.8922C238.925 99.8922 241.288 97.5296 241.288 94.6152C241.288 91.7008 238.925 89.3381 236.011 89.3381C233.096 89.3381 230.734 91.7008 230.734 94.6152C230.734 97.5296 233.096 99.8922 236.011 99.8922Z" fill="#65558F"/>
<path d="M293.012 130.099C291.806 130.099 290.669 129.371 290.214 128.165C286.847 119.249 278.159 113.267 268.628 113.267C259.098 113.267 250.682 118.999 247.156 127.847C246.542 129.371 244.813 130.121 243.289 129.53C241.765 128.916 241.015 127.187 241.606 125.663C246.019 114.518 256.618 107.307 268.628 107.307C280.638 107.307 291.556 114.836 295.809 126.073C296.401 127.619 295.627 129.348 294.081 129.917C293.739 130.053 293.376 130.099 293.012 130.099Z" fill="#65558F"/>
<defs>
<linearGradient id="paint0_linear_3225_82866" x1="345.982" y1="281.569" x2="377.864" y2="261.521" gradientUnits="userSpaceOnUse">
<stop stop-color="#65558F"/>
<stop offset="0.3687" stop-color="#21005D"/>
<stop offset="1" stop-color="#EADDFF"/>
</linearGradient>
<linearGradient id="paint1_linear_3225_82866" x1="461.53" y1="178.31" x2="470.712" y2="178.31" gradientUnits="userSpaceOnUse">
<stop stop-color="#65558F"/>
<stop offset="1" stop-color="#21005D"/>
</linearGradient>
<linearGradient id="paint2_linear_3225_82866" x1="495.978" y1="132.865" x2="530.005" y2="132.865" gradientUnits="userSpaceOnUse">
<stop stop-color="#65558F"/>
<stop offset="1" stop-color="#EADDFF"/>
</linearGradient>
<linearGradient id="paint3_linear_3225_82866" x1="473.997" y1="132.905" x2="427.114" y2="132.905" gradientUnits="userSpaceOnUse">
<stop stop-color="#65558F"/>
<stop offset="1" stop-color="#21005D"/>
</linearGradient>
<linearGradient id="paint4_linear_3225_82866" x1="464.511" y1="103.914" x2="506.183" y2="103.914" gradientUnits="userSpaceOnUse">
<stop stop-color="#65558F"/>
<stop offset="1" stop-color="#21005D"/>
</linearGradient>
<linearGradient id="paint5_linear_3225_82866" x1="468.499" y1="101.994" x2="468.499" y2="131.621" gradientUnits="userSpaceOnUse">
<stop stop-color="#65558F"/>
<stop offset="1" stop-color="#21005D"/>
</linearGradient>
<linearGradient id="paint6_linear_3225_82866" x1="382.968" y1="150.23" x2="389.588" y2="150.23" gradientUnits="userSpaceOnUse">
<stop stop-color="#65558F"/>
<stop offset="1" stop-color="#21005D"/>
</linearGradient>
<linearGradient id="paint7_linear_3225_82866" x1="465.896" y1="30.0107" x2="456.038" y2="220.263" gradientUnits="userSpaceOnUse">
<stop stop-color="#EADDFF"/>
<stop offset="1" stop-color="#65558F"/>
</linearGradient>
<linearGradient id="paint8_linear_3225_82866" x1="383.344" y1="89.35" x2="463.252" y2="89.35" gradientUnits="userSpaceOnUse">
<stop stop-color="#65558F"/>
<stop offset="1" stop-color="#EADDFF"/>
</linearGradient>
<linearGradient id="paint9_linear_3225_82866" x1="454.891" y1="39.3321" x2="500.217" y2="39.3321" gradientUnits="userSpaceOnUse">
<stop stop-color="#65558F"/>
<stop offset="1" stop-color="#21005D"/>
</linearGradient>
<linearGradient id="paint10_linear_3225_82866" x1="117.789" y1="133.046" x2="143.581" y2="133.046" gradientUnits="userSpaceOnUse">
<stop stop-color="#65558F"/>
<stop offset="1" stop-color="#EADDFF"/>
</linearGradient>
<linearGradient id="paint11_linear_3225_82866" x1="43.0507" y1="133.086" x2="84.966" y2="133.086" gradientUnits="userSpaceOnUse">
<stop stop-color="#65558F"/>
<stop offset="1" stop-color="#21005D"/>
</linearGradient>
<linearGradient id="paint12_linear_3225_82866" x1="84.6554" y1="103.764" x2="118.513" y2="103.764" gradientUnits="userSpaceOnUse">
<stop stop-color="#65558F"/>
<stop offset="1" stop-color="#21005D"/>
</linearGradient>
<linearGradient id="paint13_linear_3225_82866" x1="0.00348011" y1="89.0391" x2="73.6442" y2="89.0391" gradientUnits="userSpaceOnUse">
<stop stop-color="#65558F"/>
<stop offset="1" stop-color="#EADDFF"/>
</linearGradient>
<linearGradient id="paint14_linear_3225_82866" x1="73.0194" y1="38.439" x2="110.851" y2="38.439" gradientUnits="userSpaceOnUse">
<stop stop-color="#65558F"/>
<stop offset="1" stop-color="#21005D"/>
</linearGradient>
<linearGradient id="paint15_linear_3225_82866" x1="79.2001" y1="11.7241" x2="69.3413" y2="202.002" gradientUnits="userSpaceOnUse">
<stop stop-color="#EADDFF"/>
<stop offset="1" stop-color="#65558F"/>
</linearGradient>
<linearGradient id="paint16_linear_3225_82866" x1="191.905" y1="122.404" x2="340.366" y2="122.404" gradientUnits="userSpaceOnUse">
<stop stop-color="#65558F"/>
<stop offset="1" stop-color="#21005D"/>
</linearGradient>
<linearGradient id="paint17_linear_3225_82866" x1="213.907" y1="30.2019" x2="363.362" y2="30.2019" gradientUnits="userSpaceOnUse">
<stop stop-color="#65558F"/>
<stop offset="1" stop-color="#21005D"/>
</linearGradient>
<linearGradient id="paint18_linear_3225_82866" x1="155.101" y1="113.119" x2="377.473" y2="113.119" gradientUnits="userSpaceOnUse">
<stop stop-color="#EADDFF"/>
<stop offset="1" stop-color="#65558F"/>
</linearGradient>
</defs>
</svg>
