<svg width="20" height="21" viewBox="0 0 20 21" fill="none" xmlns="http://www.w3.org/2000/svg">
<path d="M10.001 7.80664C9.20535 7.80664 8.44229 8.12271 7.87968 8.68532C7.31707 9.24793 7.001 10.011 7.001 10.8066C7.001 11.6023 7.31707 12.3654 7.87968 12.928C8.44229 13.4906 9.20535 13.8066 10.001 13.8066C10.7966 13.8066 11.5597 13.4906 12.1223 12.928C12.6849 12.3654 13.001 11.6023 13.001 10.8066C13.001 10.011 12.6849 9.24793 12.1223 8.68532C11.5597 8.12271 10.7966 7.80664 10.001 7.80664ZM10.001 5.80664C11.3271 5.80664 12.5989 6.33342 13.5365 7.27111C14.4742 8.20879 15.001 9.48056 15.001 10.8066C15.001 12.1327 14.4742 13.4045 13.5365 14.3422C12.5989 15.2799 11.3271 15.8066 10.001 15.8066C8.67492 15.8066 7.40315 15.2799 6.46547 14.3422C5.52778 13.4045 5.001 12.1327 5.001 10.8066C5.001 9.48056 5.52778 8.20879 6.46547 7.27111C7.40315 6.33342 8.67492 5.80664 10.001 5.80664ZM16.501 5.55664C16.501 5.88816 16.3693 6.2061 16.1349 6.44052C15.9005 6.67494 15.5825 6.80664 15.251 6.80664C14.9195 6.80664 14.6015 6.67494 14.3671 6.44052C14.1327 6.2061 14.001 5.88816 14.001 5.55664C14.001 5.22512 14.1327 4.90718 14.3671 4.67276C14.6015 4.43834 14.9195 4.30664 15.251 4.30664C15.5825 4.30664 15.9005 4.43834 16.1349 4.67276C16.3693 4.90718 16.501 5.22512 16.501 5.55664ZM10.001 2.80664C7.527 2.80664 7.123 2.81364 5.972 2.86464C5.188 2.90164 4.662 3.00664 4.174 3.19664C3.76583 3.34701 3.39672 3.58728 3.094 3.89964C2.78127 4.20226 2.54066 4.57138 2.39 4.97964C2.2 5.46964 2.095 5.99464 2.059 6.77764C2.007 7.88164 2 8.26764 2 10.8066C2 13.2816 2.007 13.6846 2.058 14.8356C2.095 15.6186 2.2 16.1456 2.389 16.6326C2.559 17.0676 2.759 17.3806 3.091 17.7126C3.428 18.0486 3.741 18.2496 4.171 18.4156C4.665 18.6066 5.191 18.7126 5.971 18.7486C7.075 18.8006 7.461 18.8066 10 18.8066C12.475 18.8066 12.878 18.7996 14.029 18.7486C14.811 18.7116 15.337 18.6066 15.826 18.4176C16.2342 18.2673 16.6033 18.027 16.906 17.7146C17.243 17.3786 17.444 17.0656 17.61 16.6346C17.8 16.1426 17.906 15.6166 17.942 14.8346C17.994 13.7316 18 13.3446 18 10.8066C18 8.33264 17.993 7.92864 17.942 6.77764C17.905 5.99564 17.799 5.46764 17.61 4.97964C17.4596 4.57147 17.2194 4.20236 16.907 3.89964C16.6044 3.58691 16.2353 3.3463 15.827 3.19564C15.337 3.00564 14.811 2.90064 14.029 2.86464C12.926 2.81264 12.54 2.80664 10 2.80664M10 0.806641C12.717 0.806641 13.056 0.816641 14.123 0.866641C15.187 0.916641 15.913 1.08364 16.55 1.33164C17.21 1.58564 17.766 1.92964 18.322 2.48464C18.8307 2.98437 19.2242 3.58911 19.475 4.25664C19.722 4.89364 19.89 5.61964 19.94 6.68464C19.987 7.75064 20 8.08964 20 10.8066C20 13.5236 19.99 13.8626 19.94 14.9286C19.89 15.9946 19.722 16.7186 19.475 17.3566C19.2242 18.0242 18.8307 18.6289 18.322 19.1286C17.8223 19.6373 17.2175 20.0308 16.55 20.2816C15.913 20.5286 15.187 20.6966 14.123 20.7466C13.056 20.7936 12.717 20.8066 10 20.8066C7.283 20.8066 6.944 20.7966 5.877 20.7466C4.813 20.6966 4.088 20.5286 3.45 20.2816C2.78247 20.0308 2.17773 19.6373 1.678 19.1286C1.16931 18.6289 0.775816 18.0242 0.525 17.3566C0.277 16.7196 0.11 15.9936 0.0599999 14.9286C0.0119999 13.8626 0 13.5236 0 10.8066C0 8.08964 0.00999994 7.75064 0.0599999 6.68464C0.11 5.61864 0.277 4.89464 0.525 4.25664C0.775816 3.58911 1.16931 2.98437 1.678 2.48464C2.17773 1.97595 2.78247 1.58246 3.45 1.33164C4.087 1.08364 4.812 0.916641 5.877 0.866641C6.945 0.819641 7.284 0.806641 10.001 0.806641" fill="white"/>
</svg>
