<svg width="48" height="48" viewBox="0 0 48 48" fill="none" xmlns="http://www.w3.org/2000/svg">
<mask id="mask0_3225_73194" style="mask-type:alpha" maskUnits="userSpaceOnUse" x="0" y="0" width="48" height="48">
<rect width="48" height="48" fill="#D9D9D9"/>
</mask>
<g mask="url(#mask0_3225_73194)">
<path d="M24 24C25.1 24 26.0417 23.6083 26.825 22.825C27.6083 22.0417 28 21.1 28 20C28 18.9 27.6083 17.9583 26.825 17.175C26.0417 16.3917 25.1 16 24 16C22.9 16 21.9583 16.3917 21.175 17.175C20.3917 17.9583 20 18.9 20 20C20 21.1 20.3917 22.0417 21.175 22.825C21.9583 23.6083 22.9 24 24 24ZM24 44C18.6333 39.4333 14.625 35.1917 11.975 31.275C9.325 27.3583 8 23.7333 8 20.4C8 15.4 9.60833 11.4167 12.825 8.45C16.0417 5.48333 19.7667 4 24 4C28.2333 4 31.9583 5.48333 35.175 8.45C38.3917 11.4167 40 15.4 40 20.4C40 23.7333 38.675 27.3583 36.025 31.275C33.375 35.1917 29.3667 39.4333 24 44Z" fill="#65558F"/>
</g>
</svg>
