<svg width="49" height="48" viewBox="0 0 49 48" fill="none" xmlns="http://www.w3.org/2000/svg">
<mask id="mask0_3225_73191" style="mask-type:alpha" maskUnits="userSpaceOnUse" x="0" y="0" width="49" height="48">
<rect x="0.666748" width="48" height="48" fill="#D9D9D9"/>
</mask>
<g mask="url(#mask0_3225_73191)">
<path d="M8.66675 38V34H12.6667V20C12.6667 17.2334 13.5001 14.775 15.1667 12.625C16.8334 10.475 19.0001 9.06669 21.6667 8.40002V7.00002C21.6667 6.16669 21.9584 5.45836 22.5417 4.87502C23.1251 4.29169 23.8334 4.00002 24.6667 4.00002C25.5001 4.00002 26.2084 4.29169 26.7917 4.87502C27.3751 5.45836 27.6667 6.16669 27.6667 7.00002V8.40002C30.3334 9.06669 32.5001 10.475 34.1667 12.625C35.8334 14.775 36.6667 17.2334 36.6667 20V34H40.6667V38H8.66675ZM24.6667 44C23.5667 44 22.6251 43.6084 21.8417 42.825C21.0584 42.0417 20.6667 41.1 20.6667 40H28.6667C28.6667 41.1 28.2751 42.0417 27.4917 42.825C26.7084 43.6084 25.7667 44 24.6667 44ZM4.66675 20C4.66675 16.6667 5.40841 13.6084 6.89175 10.825C8.37508 8.04169 10.3667 5.73336 12.8667 3.90002L15.2167 7.10002C13.2167 8.56669 11.6251 10.4167 10.4417 12.65C9.25841 14.8834 8.66675 17.3334 8.66675 20H4.66675ZM40.6667 20C40.6667 17.3334 40.0751 14.8834 38.8918 12.65C37.7084 10.4167 36.1167 8.56669 34.1167 7.10002L36.4667 3.90002C38.9668 5.73336 40.9584 8.04169 42.4417 10.825C43.9251 13.6084 44.6667 16.6667 44.6667 20H40.6667Z" fill="#65558F"/>
</g>
</svg>
