<svg width="329" height="328" viewBox="0 0 329 328" fill="none" xmlns="http://www.w3.org/2000/svg">
<path d="M223.773 0H105.536C99.6722 0 94.0484 2.32946 89.9019 6.47594C85.7555 10.6224 83.426 16.2462 83.426 22.1102V305.696C83.426 311.56 85.7555 317.184 89.9019 321.331C94.0484 325.477 99.6722 327.807 105.536 327.807H223.773C229.637 327.807 235.26 325.477 239.407 321.331C243.553 317.184 245.883 311.56 245.883 305.696V22.0925C245.878 16.2316 243.547 10.6123 239.401 6.46968C235.255 2.32703 229.634 -1.8755e-06 223.773 0ZM245.255 303.644C245.257 305.884 244.908 308.111 244.22 310.242C244.167 310.401 244.114 310.561 244.052 310.72C243.99 310.879 243.946 311.038 243.884 311.189L243.751 311.542C243.61 311.887 243.46 312.232 243.309 312.577C243.238 312.727 243.168 312.878 243.088 313.028C243.009 313.178 242.885 313.444 242.779 313.647C242.672 313.851 242.637 313.921 242.557 314.054C242.478 314.187 242.398 314.346 242.31 314.487C242.08 314.885 241.832 315.274 241.576 315.655L241.328 316.017L241.036 316.415L240.736 316.804C240.638 316.937 240.541 317.061 240.426 317.194L240.108 317.574C239.904 317.822 239.683 318.069 239.453 318.308C239.223 318.547 238.755 319.033 238.383 319.378L238.047 319.688L237.26 320.36L236.906 320.634C236.517 320.935 236.11 321.227 235.703 321.518C235.562 321.607 235.429 321.704 235.288 321.784C235.005 321.969 234.722 322.138 234.403 322.297L233.979 322.535C233.51 322.792 233.041 323.031 232.555 323.243L232.174 323.411L231.715 323.606L231.246 323.783C230.901 323.915 230.547 324.039 230.193 324.145L229.813 324.26C229.347 324.402 228.87 324.525 228.38 324.632L227.876 324.738L227.328 324.835C227.001 324.897 226.665 324.941 226.32 324.985H226.125H225.984H225.922C226.231 324.985 226.523 324.915 226.806 324.861C226.956 324.861 227.107 324.861 227.257 324.782C227.408 324.702 227.549 324.729 227.699 324.702C228.142 324.614 228.584 324.499 228.999 324.384L229.433 324.251L230.317 323.977C230.733 323.818 231.14 323.659 231.547 323.482L231.945 323.305L232.343 323.11L233.121 322.703L233.873 322.27L234.545 321.837C234.569 321.827 234.59 321.812 234.607 321.793C234.969 321.554 235.323 321.297 235.668 321.032L236.013 320.758C236.331 320.501 236.641 320.227 236.941 319.953C237.692 319.263 238.385 318.512 239.011 317.707C239.108 317.6 239.197 317.477 239.285 317.362C240.2 316.154 240.969 314.841 241.576 313.453C241.673 313.231 241.77 313.002 241.859 312.772C242.302 311.657 242.637 310.502 242.858 309.322C242.902 309.092 242.947 308.854 242.982 308.615C243.128 307.643 243.201 306.661 243.203 305.679V22.0925C243.198 17.2958 241.421 12.67 238.213 9.10331C235.006 5.53667 230.594 3.28056 225.824 2.76818L225.303 2.72397H224.772C224.436 2.72397 224.109 2.72397 223.773 2.72397H105.536C105.2 2.72397 104.873 2.72397 104.537 2.72397C99.5671 2.98864 94.8877 5.14761 91.4611 8.75684C88.0345 12.3661 86.1211 17.1512 86.1146 22.1279V305.696C86.1206 310.47 87.881 315.074 91.0608 318.634C94.2407 322.194 98.6182 324.461 103.361 325.003H102.963C102.627 324.959 102.29 324.914 101.954 324.853C99.9609 324.514 98.0255 323.895 96.2057 323.013L95.8254 322.827C95.507 322.659 95.1887 322.491 94.8791 322.314L94.4546 322.058C93.7486 321.634 93.0693 321.167 92.4204 320.66L92.0756 320.386C91.7306 320.112 91.3945 319.82 91.0673 319.502L90.7489 319.201L90.3952 318.856L90.0414 318.494C89.9632 318.418 89.8893 318.339 89.8203 318.255L89.5373 317.954C88.9901 317.337 88.4764 316.69 87.9984 316.017C87.91 315.902 87.8304 315.779 87.7508 315.655C87.4943 315.283 87.2467 314.894 87.0167 314.496L86.7691 314.072C86.1734 313.002 85.6704 311.884 85.2656 310.729L85.1064 310.251C84.8497 309.444 84.6371 308.623 84.4696 307.792C84.4696 307.624 84.4077 307.456 84.3812 307.288C84.175 306.088 84.0714 304.872 84.0716 303.653V22.0925C84.0716 21.8803 84.0716 21.6769 84.0716 21.4646C84.0716 21.2524 84.0716 21.1462 84.0716 20.9959C84.0716 20.651 84.0716 20.306 84.1512 19.97L84.2043 19.4393C84.2043 19.3509 84.2043 19.2536 84.2485 19.1651C84.2927 19.0767 84.2485 18.944 84.2485 18.8291C84.2485 18.7141 84.3016 18.4753 84.337 18.2984C84.3901 17.9889 84.4519 17.6882 84.5227 17.414C84.5227 17.2637 84.5934 17.1133 84.6288 16.963C84.7349 16.5208 84.8588 16.0786 85.0003 15.654L85.1329 15.2384C85.186 15.0703 85.2479 14.9023 85.3098 14.7431C85.3717 14.5839 85.4071 14.4689 85.4602 14.3274C85.5132 14.1859 85.5486 14.1063 85.6017 13.9913C85.6548 13.8764 85.7078 13.726 85.7697 13.5934C85.8086 13.4909 85.8528 13.3905 85.9024 13.2927C85.9643 13.1423 86.0351 13.0008 86.1058 12.8505L86.4861 12.0899L86.6983 11.7096L86.9459 11.2762C87.5427 10.2652 88.22 9.30398 88.9713 8.40189L89.2985 8.01275C89.4135 7.88009 89.5373 7.72974 89.6699 7.59708C89.8026 7.46442 90.0944 7.13718 90.3244 6.92492C90.5543 6.71266 90.802 6.45617 91.0496 6.22623C91.2972 5.99628 91.5449 5.78403 91.8013 5.57177L92.1905 5.25337C92.4558 5.04996 92.7212 4.84655 92.9953 4.65198L93.8267 4.08597C94.1097 3.90909 94.3927 3.73221 94.7111 3.56417L95.1533 3.30768L95.5955 3.07773L96.0465 2.8478L96.5064 2.6267C96.8071 2.48519 97.1166 2.35251 97.3908 2.21985L97.8419 2.04298L98.3018 1.87494L98.7528 1.71573L99.2746 1.55654L99.7699 1.41503L100.265 1.29123L100.769 1.1674C101.114 1.0878 101.45 1.02591 101.795 0.964004L102.308 0.88441C102.68 0.831345 103.051 0.787103 103.422 0.751727L104.307 0.689839H104.864H224.33H224.79L225.824 0.769432L226.346 0.822495L226.868 0.893236L227.39 0.972829L227.894 1.07013L228.398 1.17625L228.858 1.28238H228.955L229.389 1.39736L229.99 1.57425L230.388 1.69805C230.689 1.79534 230.981 1.90148 231.272 2.01645C231.472 2.08003 231.667 2.15683 231.856 2.24638L232.289 2.42327L232.749 2.63552L233.209 2.8478C234.283 3.37576 235.309 3.99412 236.278 4.69621C236.402 4.78466 236.517 4.86424 236.632 4.96153C237.056 5.27991 237.516 5.60715 237.87 5.96091C238.047 6.11126 238.215 6.26161 238.383 6.42965C239.078 7.06535 239.725 7.75114 240.32 8.48149L240.638 8.87063C240.851 9.15364 241.063 9.42781 241.257 9.70198C241.364 9.84348 241.461 9.98497 241.549 10.1265C241.717 10.3741 241.876 10.6217 242.036 10.8694L242.266 11.2497C242.407 11.4973 242.549 11.7361 242.672 11.9837L242.867 12.3464C243.079 12.762 243.283 13.1777 243.468 13.6111C243.468 13.726 243.566 13.8322 243.61 13.9471C243.787 14.3717 243.946 14.8315 244.096 15.2472L244.255 15.7336C244.548 16.6847 244.778 17.6537 244.945 18.6345C244.945 18.7406 244.945 18.8468 244.99 18.9529C245.034 19.059 245.043 19.2978 245.06 19.4747C245.078 19.6516 245.105 19.8196 245.122 19.9965C245.14 20.1734 245.122 20.3503 245.122 20.5271C245.122 20.8544 245.166 21.1728 245.175 21.5C245.184 21.8272 245.175 21.9245 245.175 22.1279L245.255 303.644Z" fill="#C7C7C7"/>
<path d="M103.475 325.019L102.953 324.966C102.617 324.922 102.281 324.878 101.945 324.816C99.9511 324.477 98.0156 323.858 96.1959 322.976L95.8156 322.79C95.4972 322.622 95.1788 322.454 94.8693 322.277L94.4448 322.021C93.7388 321.597 93.0595 321.13 92.4106 320.624L92.0657 320.349C91.7208 320.075 91.3847 319.783 91.0575 319.465L90.7391 319.164L90.3853 318.819L90.0315 318.457C89.9533 318.382 89.8795 318.302 89.8104 318.218L89.5275 317.917C88.9803 317.3 88.4665 316.653 87.9885 315.98C87.9001 315.866 87.8205 315.742 87.7409 315.618C87.4845 315.246 87.2368 314.857 87.0069 314.459L86.7593 314.035C86.1636 312.965 85.6606 311.847 85.2558 310.692L85.0966 310.214C84.8398 309.407 84.6272 308.586 84.4598 307.755C84.4598 307.587 84.3979 307.419 84.3713 307.251C84.1651 306.051 84.0615 304.835 84.0618 303.616V24.1428C84.0779 18.6299 86.2103 13.3337 90.0187 9.34758C93.827 5.36148 99.0205 2.98987 104.527 2.72241C99.5572 2.98708 94.8779 5.14605 91.4512 8.75528C88.0246 12.3645 86.1113 17.1496 86.1048 22.1264V305.695C86.1098 310.49 87.8855 315.115 91.0913 318.681C94.297 322.248 98.7068 324.505 103.475 325.019Z" fill="url(#paint0_linear_3225_76946)"/>
<path d="M245.253 24.1428V303.616C245.255 305.856 244.906 308.082 244.218 310.214C244.165 310.373 244.112 310.532 244.05 310.692C243.988 310.851 243.944 311.01 243.882 311.16L243.749 311.514C243.608 311.859 243.457 312.204 243.307 312.549C243.236 312.699 243.166 312.85 243.086 313C243.006 313.15 242.883 313.416 242.776 313.619C242.67 313.822 242.635 313.893 242.555 314.026C242.476 314.159 242.396 314.318 242.308 314.459C242.078 314.857 241.83 315.246 241.574 315.627L241.326 315.989L241.034 316.387L240.733 316.776C240.636 316.909 240.53 317.033 240.424 317.165L240.106 317.546C239.893 317.793 239.681 318.041 239.451 318.28C239.221 318.519 238.752 319.005 238.381 319.35L238.045 319.66L237.258 320.332L236.904 320.606C236.515 320.907 236.108 321.198 235.701 321.49L235.286 321.756C235.003 321.941 234.72 322.109 234.401 322.269L233.977 322.507C233.508 322.764 233.039 323.003 232.553 323.215L232.172 323.383L231.712 323.577L231.244 323.754C230.899 323.887 230.545 324.011 230.191 324.117L229.811 324.232C229.345 324.374 228.868 324.497 228.378 324.603L227.874 324.71L227.326 324.807C226.99 324.869 226.654 324.913 226.318 324.957L225.796 325.01C230.565 324.498 234.977 322.242 238.185 318.675C241.392 315.108 243.169 310.483 243.174 305.686V22.091C243.168 17.2088 241.327 12.5074 238.016 8.91952C234.705 5.33166 230.166 3.11964 225.301 2.72241C230.717 3.11331 235.784 5.53911 239.485 9.51254C243.186 13.486 245.247 18.7127 245.253 24.1428Z" fill="url(#paint1_linear_3225_76946)"/>
<path d="M245.248 303.643V305.694C245.241 311.39 242.976 316.85 238.948 320.877C234.921 324.904 229.461 327.17 223.766 327.177H105.53C99.8343 327.17 94.3743 324.904 90.3471 320.877C86.3199 316.85 84.0544 311.39 84.0474 305.694V303.643C84.0471 304.861 84.1507 306.077 84.3569 307.277C84.3569 307.446 84.4188 307.614 84.4453 307.782C84.6127 308.612 84.8253 309.433 85.0821 310.24L85.2413 310.718C85.6461 311.873 86.1491 312.992 86.7448 314.061L86.9924 314.485C87.2223 314.883 87.47 315.273 87.7265 315.644C87.8061 315.768 87.8857 315.892 87.9741 316.007C88.4521 316.679 88.9658 317.326 89.513 317.943L89.796 318.244C89.8651 318.328 89.9389 318.408 90.0171 318.483L90.3708 318.846L90.7246 319.191L91.043 319.491C91.3702 319.783 91.7063 320.075 92.0512 320.376L92.3962 320.65C93.0451 321.157 93.7244 321.623 94.4303 322.047L94.8548 322.304C95.1643 322.48 95.4827 322.649 95.8011 322.817L96.1814 323.002C98.0012 323.884 99.9366 324.503 101.93 324.842C102.266 324.904 102.602 324.948 102.938 324.992C103.283 324.992 103.628 325.063 103.982 325.09H104.513H105.521H223.766C224.102 325.09 224.438 325.09 224.765 325.09H225.296L226.18 325.01H226.375C226.72 324.966 227.056 324.921 227.383 324.86L227.932 324.762L228.436 324.656C228.919 324.55 229.397 324.426 229.868 324.285L230.249 324.17C230.602 324.064 230.956 323.94 231.301 323.807L231.77 323.63L232.23 323.436L232.61 323.268C233.096 323.055 233.565 322.817 234.034 322.56L234.458 322.321C234.742 322.162 235.025 321.994 235.343 321.808C235.484 321.729 235.617 321.631 235.759 321.543C236.165 321.269 236.572 320.977 236.961 320.659L237.315 320.384L238.102 319.712L238.412 319.341C238.783 318.996 239.137 318.642 239.482 318.271C239.827 317.899 239.933 317.784 240.136 317.537L240.455 317.156C240.57 317.024 240.667 316.9 240.764 316.767L241.065 316.378L241.357 315.98L241.604 315.617C241.861 315.237 242.109 314.848 242.339 314.45C242.427 314.309 242.507 314.167 242.586 314.017C242.666 313.866 242.736 313.751 242.807 313.61C242.878 313.468 243.02 313.203 243.117 312.991C243.214 312.779 243.267 312.69 243.338 312.54C243.488 312.195 243.639 311.85 243.78 311.505L243.913 311.151C243.975 311.001 244.028 310.842 244.081 310.683C244.134 310.523 244.196 310.364 244.249 310.205C244.921 308.083 245.258 305.869 245.248 303.643Z" fill="url(#paint2_linear_3225_76946)"/>
<path d="M245.254 22.0912V24.143C245.247 18.7991 243.251 13.6492 239.654 9.69727C236.057 5.74533 231.117 3.27461 225.797 2.76682L225.275 2.72261H224.744C224.408 2.72261 224.081 2.72261 223.745 2.72261H105.535C105.199 2.72261 104.872 2.72261 104.536 2.72261C99.0217 2.98819 93.8208 5.36377 90.0097 9.35765C86.1986 13.3515 84.069 18.6579 84.0618 24.1784V22.0912C84.0618 21.8789 84.0618 21.6755 84.0618 21.4633C84.0618 21.251 84.0618 21.1449 84.0618 20.9945C84.0618 20.6496 84.0618 20.3047 84.1414 19.9686L84.1945 19.438C84.1945 19.3495 84.1944 19.2522 84.2387 19.1638C84.2829 19.0753 84.2387 18.9427 84.2387 18.8277C84.2387 18.7127 84.2918 18.4739 84.3271 18.2971C84.3802 17.9875 84.4421 17.6868 84.5128 17.4126C84.5128 17.2623 84.5836 17.112 84.6189 16.9616C84.7251 16.5194 84.8489 16.0772 84.9904 15.6527L85.1231 15.237C85.1761 15.069 85.2381 14.9009 85.3 14.7417C85.3619 14.5825 85.3972 14.4676 85.4503 14.3261C85.5034 14.1846 85.5388 14.105 85.5918 13.99C85.6449 13.875 85.698 13.7247 85.7599 13.592C85.7987 13.4895 85.843 13.3891 85.8925 13.2913C85.9544 13.141 86.0252 12.9995 86.0959 12.8491L86.4762 12.0885L86.6885 11.7082L86.9361 11.2749C87.5328 10.2638 88.2101 9.30262 88.9614 8.40053L89.2886 8.01139C89.4036 7.87873 89.5274 7.72838 89.6601 7.59572C89.7927 7.46306 90.0846 7.13581 90.3145 6.92356C90.5445 6.7113 90.7921 6.45481 91.0398 6.22486C91.2874 5.99492 91.5351 5.78267 91.7915 5.57041L92.1807 5.25201C92.446 5.04859 92.7113 4.84519 92.9855 4.65062L93.8168 4.08461C94.0998 3.90773 94.3828 3.73085 94.7012 3.56281L95.1434 3.30632L95.5856 3.07637L96.0367 2.84644L96.4966 2.62534C96.7973 2.48383 97.1068 2.35115 97.381 2.21849L97.832 2.04162L98.2919 1.87358L98.743 1.71437L99.2647 1.55518L99.76 1.41367L100.255 1.28987L100.759 1.16604C101.104 1.08644 101.44 1.02455 101.785 0.962642L102.298 0.883048C102.67 0.829983 103.041 0.785741 103.413 0.750365L104.297 0.688477H104.854H224.329H224.789L225.823 0.76807L226.345 0.821133L226.867 0.891874L227.389 0.971467L227.893 1.06877L228.397 1.17489L228.857 1.28102H228.954L229.388 1.39599L229.989 1.57289L230.387 1.69669C230.688 1.79398 230.979 1.90012 231.271 2.01509C231.471 2.07867 231.666 2.15547 231.855 2.24502L232.288 2.42191L232.748 2.63416L233.208 2.84644C234.282 3.3744 235.308 3.99276 236.277 4.69485C236.401 4.78329 236.516 4.86288 236.631 4.96017C237.055 5.27855 237.515 5.60579 237.869 5.95955C238.046 6.1099 238.214 6.26025 238.382 6.42829C239.077 7.06399 239.724 7.74977 240.319 8.48013L240.637 8.86927C240.85 9.15228 241.062 9.42645 241.256 9.70062C241.362 9.84212 241.46 9.98361 241.548 10.1251C241.716 10.3728 241.875 10.6204 242.035 10.868L242.265 11.2483C242.406 11.496 242.548 11.7347 242.671 11.9824L242.866 12.345C243.078 12.7607 243.282 13.1763 243.467 13.6097C243.467 13.7247 243.565 13.8308 243.609 13.9458C243.786 14.3703 243.945 14.8302 244.095 15.2459L244.254 15.7323C244.547 16.6833 244.777 17.6523 244.944 18.6331C244.944 18.7393 244.944 18.8454 244.989 18.9515C245.033 19.0577 245.042 19.2965 245.059 19.4733C245.077 19.6502 245.104 19.8183 245.121 19.9951C245.139 20.172 245.121 20.3489 245.121 20.5258C245.121 20.853 245.165 21.1714 245.174 21.4986C245.183 21.8259 245.254 21.8878 245.254 22.0912Z" fill="url(#paint3_linear_3225_76946)"/>
<path d="M224.769 2.72241C224.441 2.72241 224.105 2.72241 223.769 2.72241H105.533C105.197 2.72241 104.87 2.72241 104.534 2.72241C99.5638 2.98708 94.8844 5.14605 91.4578 8.75528C88.0312 12.3645 86.1179 17.1496 86.1113 22.1264V305.695C86.1173 310.577 87.9585 315.278 91.2695 318.866C94.5805 322.454 99.1193 324.666 103.985 325.063H104.516H105.524H223.769C224.105 325.063 224.441 325.063 224.769 325.063H225.299C230.17 324.672 234.715 322.463 238.032 318.875C241.348 315.286 243.193 310.581 243.2 305.695V22.091C243.184 17.1189 241.265 12.3414 237.838 8.73952C234.41 5.13761 229.734 2.98455 224.769 2.72241ZM241.572 305.73C241.542 310.189 239.846 314.476 236.817 317.748C233.788 321.021 229.645 323.043 225.202 323.418C225.043 323.418 224.875 323.418 224.707 323.418C224.406 323.418 224.097 323.418 223.822 323.418H105.533H104.649C104.48 323.418 104.312 323.418 104.162 323.418C99.7172 323.045 95.5723 321.024 92.5417 317.751C89.511 314.478 87.8136 310.191 87.7829 305.73V22.091C87.7827 17.5438 89.5242 13.1693 92.6495 9.86638C95.7748 6.56346 100.046 4.58303 104.587 4.33204H104.64H105.524H223.769H224.654C229.195 4.57882 233.47 6.55795 236.596 9.86179C239.722 13.1656 241.462 17.5426 241.457 22.091L241.572 305.73Z" fill="#404040"/>
<path d="M241.551 22.1813V305.812C241.549 307.528 241.298 309.235 240.808 310.879C240.424 312.16 239.892 313.391 239.225 314.55C239.092 314.788 238.951 315.027 238.801 315.257C238.65 315.487 238.349 315.938 238.111 316.265C237.434 317.191 236.67 318.05 235.829 318.83C237.428 316.028 238.269 312.858 238.27 309.632V306.369C238.27 306.174 238.27 305.98 238.27 305.776V22.1813C238.27 21.9779 238.27 21.7834 238.27 21.5799V18.3872C238.277 15.1395 237.432 11.9467 235.82 9.12744C237.625 10.7893 239.067 12.8073 240.053 15.0541C241.039 17.3008 241.549 19.7276 241.551 22.1813Z" fill="url(#paint4_linear_3225_76946)"/>
<path d="M224.626 5.96973H104.612C100.495 6.2046 96.6237 8.00555 93.792 11.0034C90.9603 14.0012 89.3826 17.9687 89.3826 22.0925V305.687C89.3952 309.746 90.9293 313.651 93.6819 316.633C96.4345 319.615 100.205 321.456 104.249 321.793H104.647C104.922 321.793 105.205 321.793 105.532 321.793H223.768C224.051 321.793 224.325 321.793 224.6 321.793H224.653H225.06C229.101 321.452 232.869 319.609 235.619 316.628C238.37 313.647 239.903 309.744 239.918 305.687V22.0925C239.919 17.958 238.333 13.9806 235.488 10.9807C232.643 7.98084 228.755 6.18721 224.626 5.96973ZM235.61 305.696C235.605 308.301 234.741 310.831 233.152 312.895C233.072 313.002 232.984 313.108 232.895 313.205C232.639 313.516 232.365 313.811 232.073 314.089C231.82 314.345 231.555 314.587 231.277 314.815C230.928 315.105 230.562 315.374 230.18 315.619C229.803 315.872 229.41 316.099 229.004 316.3C228.801 316.406 228.597 316.495 228.385 316.583C228.173 316.681 227.96 316.76 227.739 316.84C226.767 317.187 225.753 317.404 224.723 317.485H104.594C101.629 317.238 98.865 315.888 96.8464 313.702C94.8277 311.517 93.7014 308.654 93.6896 305.679V22.0925C93.6918 19.0887 94.8346 16.1977 96.8868 14.0043C98.9391 11.8108 101.748 10.4785 104.745 10.2768H224.52H224.865H225.015H225.325L225.696 10.3299C225.873 10.3299 226.05 10.3829 226.227 10.4183H226.324L226.749 10.5244L227.368 10.7013L227.863 10.8693C228.031 10.9312 228.208 11.002 228.376 11.0816C228.719 11.2192 229.053 11.3787 229.375 11.5592C229.681 11.7101 229.977 11.8815 230.26 12.0722L230.454 12.196L230.79 12.4348C230.941 12.5409 231.082 12.6558 231.224 12.7708C231.507 12.9985 231.779 13.2405 232.037 13.496C232.171 13.6191 232.298 13.749 232.418 13.8852L232.78 14.292C233.257 14.8401 233.681 15.4324 234.045 16.0608C234.222 16.3704 234.39 16.7064 234.549 17.0337C234.703 17.3681 234.839 17.7106 234.956 18.0596C235.018 18.2365 235.08 18.4134 235.133 18.5902C235.239 18.9794 235.345 19.3685 235.416 19.7665C235.416 19.9257 235.478 20.0849 235.495 20.2441C235.577 20.8124 235.618 21.3857 235.619 21.9598L235.61 305.696Z" fill="black"/>
<path d="M125.306 15.7147C125.262 15.6351 125.227 15.5555 125.191 15.4759C125.193 15.4464 125.193 15.4169 125.191 15.3875C125.209 15.4936 125.253 15.6085 125.306 15.7147Z" fill="black"/>
<path d="M204.144 15.3875C204.139 15.4167 204.139 15.4466 204.144 15.4759C204.144 15.5555 204.073 15.6351 204.029 15.7147C204.046 15.6085 204.09 15.4936 204.144 15.3875Z" fill="black"/>
<path d="M206.708 10.2578C206.236 10.279 205.787 10.4694 205.445 10.7943C205.102 11.1192 204.888 11.5567 204.841 12.0267C204.841 12.1151 204.841 12.1947 204.841 12.2832C204.825 12.6389 204.787 12.9934 204.727 13.3445C204.727 13.4683 204.727 13.5832 204.665 13.6982C204.665 13.8397 204.603 13.9812 204.558 14.1227C204.514 14.2642 204.497 14.3792 204.461 14.503C204.465 14.5324 204.465 14.5621 204.461 14.5915V14.6888V14.7595V14.8922C204.448 14.9408 204.43 14.9881 204.408 15.0337C204.408 15.1487 204.329 15.2636 204.284 15.3786C204.24 15.4936 204.187 15.5997 204.134 15.7058C204.139 15.7202 204.139 15.7357 204.134 15.7501C204.092 15.8441 204.045 15.9357 203.993 16.0242C203.993 16.1038 203.913 16.1834 203.878 16.2541C203.88 16.2806 203.88 16.3073 203.878 16.3338C203.859 16.3751 203.835 16.4137 203.807 16.4487C203.807 16.5106 203.745 16.5549 203.718 16.6079V16.6521C203.717 16.6727 203.717 16.6935 203.718 16.7141L203.648 16.8202L203.577 16.9352C203.556 16.9696 203.533 17.0022 203.506 17.0324C203.509 17.05 203.509 17.0679 203.506 17.0855L203.426 17.2005C203.413 17.232 203.392 17.2594 203.365 17.2801C203.341 17.3233 203.315 17.3647 203.285 17.4039L203.188 17.5277C203.191 17.5422 203.191 17.5574 203.188 17.5719L203.082 17.7134L202.94 17.8726C202.9 17.9343 202.852 17.9908 202.799 18.0407L202.701 18.1468L202.595 18.2618L202.489 18.3679L202.294 18.5536C202.251 18.6073 202.2 18.6549 202.144 18.6951L202.056 18.7836L201.817 18.9693L201.596 19.155L201.463 19.2523L201.304 19.3761C201.256 19.4185 201.202 19.4542 201.145 19.4823C201.127 19.5071 201.103 19.5257 201.074 19.5353L200.809 19.7034C200.742 19.7538 200.671 19.7982 200.596 19.836C200.51 19.8947 200.418 19.945 200.322 19.9864L200.216 20.0483L200.013 20.1544C199.954 20.191 199.892 20.2207 199.827 20.2428L199.668 20.3224H199.57H199.5L199.066 20.4905L198.668 20.6231L198.217 20.7558C197.917 20.8266 197.607 20.8885 197.333 20.9415L196.944 20.9946H196.864H196.528H196.139H133.638H133.249H132.913H132.833L132.444 20.9415C132.134 20.8885 131.825 20.8266 131.56 20.7558L131.108 20.6231L130.702 20.4905L130.268 20.3224H130.189H130.1L129.941 20.2428C129.876 20.2207 129.814 20.191 129.755 20.1544C129.685 20.1244 129.617 20.0889 129.552 20.0483C129.518 20.0309 129.485 20.0101 129.455 19.9864C129.359 19.945 129.267 19.8947 129.18 19.836L128.968 19.7034L128.694 19.5353L128.623 19.4823L128.464 19.3761L128.305 19.2523C128.256 19.2229 128.208 19.1904 128.163 19.155L127.942 18.9693L127.712 18.7836L127.624 18.6951C127.567 18.6527 127.514 18.6054 127.465 18.5536L127.279 18.3679L127.173 18.2618L127.067 18.1468C127.03 18.1158 126.997 18.0801 126.969 18.0407C126.938 18.0156 126.912 17.9857 126.89 17.9522L126.678 17.7046L126.571 17.5631C126.568 17.5486 126.568 17.5334 126.571 17.5189L126.474 17.395C126.442 17.358 126.415 17.3163 126.395 17.2712C126.367 17.2506 126.346 17.2231 126.333 17.1916C126.301 17.157 126.274 17.1183 126.253 17.0767V17.0236L126.191 16.9263L126.112 16.8113C126.094 16.7741 126.074 16.7386 126.05 16.7052C126.048 16.6846 126.048 16.6639 126.05 16.6433V16.5991L125.952 16.4399C125.952 16.4399 125.952 16.3691 125.891 16.3249L125.846 16.2453C125.8 16.1716 125.758 16.0948 125.722 16.0154L125.59 15.7412C125.585 15.7268 125.585 15.7114 125.59 15.697C125.537 15.5909 125.484 15.4759 125.439 15.3697C125.395 15.2636 125.342 15.1398 125.307 15.0248C125.293 14.9762 125.275 14.9289 125.254 14.8833C125.254 14.8833 125.254 14.7949 125.254 14.7507C125.249 14.7274 125.249 14.7032 125.254 14.6799C125.25 14.6476 125.25 14.615 125.254 14.5826V14.4942C125.254 14.3704 125.174 14.2377 125.148 14.1139C125.121 13.9901 125.077 13.8309 125.05 13.6894C125.05 13.5744 125.006 13.4594 124.988 13.3356C124.924 12.9852 124.885 12.6304 124.873 12.2743C124.869 12.1889 124.869 12.1033 124.873 12.0178C124.825 11.5486 124.611 11.1121 124.268 10.7875C123.926 10.463 123.479 10.272 123.007 10.249L206.708 10.2578Z" fill="black"/>
<path d="M125.025 15.0437V14.9197C125.028 14.961 125.028 15.0024 125.025 15.0437Z" fill="black"/>
<path d="M125.306 15.7147C125.262 15.6351 125.227 15.5555 125.191 15.4759C125.193 15.4464 125.193 15.4169 125.191 15.3875C125.209 15.4936 125.253 15.6085 125.306 15.7147Z" fill="black"/>
<path d="M126.467 17.6177C126.421 17.5715 126.379 17.5211 126.343 17.467L126.467 17.6177Z" fill="black"/>
<path d="M126.831 18.0509C126.777 18.0041 126.73 17.9506 126.69 17.8917L126.61 17.8032L126.831 18.0509Z" fill="black"/>
<path d="M128.101 19.2526L127.88 19.0757L127.748 18.9607L127.65 18.8811L127.88 19.0668L128.101 19.2526Z" fill="black"/>
<path d="M128.245 19.3511L128.405 19.4751H128.351L128.245 19.3511Z" fill="black"/>
<path d="M128.907 19.8027L128.747 19.7143L128.641 19.6436L128.907 19.8027Z" fill="black"/>
<path d="M130.668 20.6693L130.306 20.5278H130.235L130.668 20.6693Z" fill="black"/>
<path d="M131.075 20.8002L131.526 20.9328L131.226 20.8444H131.075L130.881 20.7736L130.668 20.7029L131.075 20.8002Z" fill="black"/>
<path d="M132.444 21.119L132.833 21.172L132.488 21.1278H132.444H132.285L131.975 21.0748L131.586 20.9863H131.524C131.825 21.004 132.135 21.0659 132.444 21.119Z" fill="black"/>
<path d="M196.844 21.1191C197.154 21.066 197.463 21.0041 197.729 20.9333H197.667L197.269 21.0218C197.171 21.0218 197.065 21.066 196.959 21.0749H196.809L196.464 21.1191H196.844Z" fill="black"/>
<path d="M198.617 20.6685L198.414 20.7392L198.219 20.81H198.069L197.768 20.8984L198.219 20.7657L198.617 20.6685Z" fill="black"/>
<path d="M198.62 20.6685L199.054 20.5005H198.983L198.62 20.6685Z" fill="black"/>
<path d="M200.389 19.8001L200.654 19.6321L200.557 19.7028L200.389 19.8001Z" fill="black"/>
<path d="M201.651 18.8811L201.544 18.9607C201.504 19.0036 201.46 19.0422 201.412 19.0757C201.342 19.1394 201.268 19.1985 201.191 19.2526L201.412 19.0668L201.651 18.8811Z" fill="black"/>
<path d="M202.695 17.8032L202.615 17.8918L202.544 17.9627L202.686 17.8032H202.695Z" fill="black"/>
<path d="M202.95 17.467C202.917 17.5209 202.878 17.5714 202.835 17.6177L202.932 17.4936L202.95 17.467Z" fill="black"/>
<path d="M204.144 15.3875C204.139 15.4167 204.139 15.4466 204.144 15.4759C204.144 15.5555 204.073 15.6351 204.029 15.7147C204.046 15.6085 204.09 15.4936 204.144 15.3875Z" fill="black"/>
<path d="M204.323 14.9014V15.0254C204.326 14.9841 204.326 14.9427 204.323 14.9014Z" fill="black"/>
<path d="M238.271 306.368V309.614C238.27 312.84 237.429 316.01 235.83 318.812C232.92 321.523 229.182 323.175 225.217 323.499C225.058 323.499 224.89 323.499 224.722 323.499C224.422 323.499 224.112 323.499 223.838 323.499H105.54H104.655C104.487 323.499 104.319 323.499 104.169 323.499L103.497 323.429C99.7725 322.987 96.2852 321.374 93.5381 318.821C91.911 316.024 91.0449 312.85 91.0264 309.614V305.785C91.0316 307.883 91.4913 309.955 92.3737 311.859C93.2561 313.763 94.5404 315.453 96.1383 316.813C98.451 318.806 101.338 320.011 104.381 320.254H104.69H104.779H105.54H223.776H224.519H224.616H224.952C228.48 319.952 231.777 318.376 234.228 315.821C236.68 313.266 238.117 309.906 238.271 306.368Z" fill="url(#paint5_linear_3225_76946)"/>
<path d="M241.553 22.1257C241.558 17.5772 239.818 13.2003 236.692 9.89647C233.565 6.59263 229.291 4.61348 224.75 4.3667H223.865H105.54H104.656H104.603C104.223 4.3667 103.842 4.41978 103.462 4.464C99.7423 4.90218 96.2566 6.50574 93.5036 9.04523C91.8914 11.8645 91.0467 15.0573 91.0538 18.305V22.1257C91.054 18.4276 92.4669 14.8693 95.0034 12.1782C97.5399 9.48715 101.009 7.86661 104.7 7.64788H104.78H104.886H224.546C228.153 7.83872 231.56 9.3687 234.098 11.9384C236.637 14.5082 238.125 17.9327 238.272 21.542V18.3404C238.277 15.093 237.433 11.9007 235.822 9.08062C237.626 10.7418 239.066 12.7584 240.053 15.0035C241.039 17.2486 241.55 19.6735 241.553 22.1257Z" fill="url(#paint6_linear_3225_76946)"/>
<path d="M93.4862 318.748C91.679 317.087 90.2353 315.069 89.2459 312.823C88.2566 310.576 87.743 308.149 87.7376 305.694V22.0904C87.7355 19.6322 88.2438 17.2004 89.2303 14.9488C90.2168 12.6972 91.66 10.6749 93.4685 9.01001C91.8563 11.8293 91.0117 15.0221 91.0187 18.2698V309.515C91.0192 312.755 91.87 315.939 93.4862 318.748Z" fill="url(#paint7_linear_3225_76946)"/>
<path d="M241.565 22.1805V305.731C241.572 308.8 240.769 311.817 239.239 314.478C239.107 314.717 238.956 314.947 238.815 315.177C238.673 315.407 238.373 315.858 238.125 316.185C237.447 317.145 236.673 318.034 235.817 318.838C237.423 316.039 238.268 312.868 238.266 309.64V18.3068C238.272 15.0621 237.427 11.8726 235.817 9.05591C237.634 10.7243 239.084 12.753 240.073 15.0127C241.063 17.2724 241.571 19.7136 241.565 22.1805Z" fill="url(#paint8_linear_3225_76946)"/>
<path d="M173.093 13.5128H156.21C155.947 13.5128 155.695 13.4085 155.509 13.2227C155.324 13.0369 155.219 12.785 155.219 12.5223C155.219 12.2596 155.324 12.0076 155.509 11.8219C155.695 11.6361 155.947 11.5317 156.21 11.5317H173.093C173.356 11.5317 173.608 11.6361 173.794 11.8219C173.979 12.0076 174.084 12.2596 174.084 12.5223C174.084 12.785 173.979 13.0369 173.794 13.2227C173.608 13.4085 173.356 13.5128 173.093 13.5128Z" fill="url(#paint9_linear_3225_76946)"/>
<path d="M235.614 22.0913V305.695C235.609 308.3 234.745 310.83 233.156 312.894C233.076 313 232.988 313.106 232.899 313.204C232.643 313.515 232.369 313.81 232.077 314.088C231.824 314.343 231.559 314.586 231.281 314.813C230.579 315.389 229.817 315.887 229.008 316.299L228.389 316.582C228.177 316.679 227.964 316.759 227.743 316.839C226.771 317.186 225.757 317.403 224.727 317.484H104.598C101.633 317.236 98.869 315.887 96.8504 313.701C94.8317 311.515 93.7054 308.653 93.6936 305.677V22.0913C93.6958 19.0874 94.8385 16.1965 96.8908 14.003C98.943 11.8096 101.752 10.4773 104.749 10.2756H122.561C123.032 10.2985 123.479 10.4895 123.822 10.8141C124.164 11.1386 124.379 11.5751 124.427 12.0444V12.2655C124.439 12.6216 124.477 12.9763 124.542 13.3268C124.542 13.4506 124.542 13.5656 124.604 13.6805C124.604 13.822 124.666 13.9635 124.701 14.105C124.736 14.2465 124.772 14.3615 124.807 14.4853V14.5738C124.803 14.6061 124.803 14.6387 124.807 14.6711C124.802 14.6944 124.802 14.7185 124.807 14.7418C124.807 14.786 124.807 14.8302 124.807 14.8745V14.9983C124.807 15.1133 124.896 15.2282 124.94 15.3432C124.984 15.4582 125.037 15.5643 125.09 15.6705C125.085 15.6848 125.085 15.7003 125.09 15.7147L125.223 15.9888C125.259 16.0682 125.3 16.1451 125.347 16.2188L125.391 16.2984C125.391 16.3426 125.391 16.378 125.453 16.4134L125.55 16.5725V16.6168C125.548 16.6374 125.548 16.6581 125.55 16.6787C125.574 16.7121 125.595 16.7476 125.612 16.7848L125.691 16.8998L125.753 16.9971V17.0501C125.775 17.0918 125.802 17.1304 125.833 17.1651C125.846 17.1966 125.868 17.2241 125.895 17.2447C125.915 17.2898 125.942 17.3315 125.974 17.3685L126.072 17.4923C126.068 17.5068 126.068 17.5221 126.072 17.5366L126.178 17.6781L126.249 17.7665C126.289 17.8255 126.336 17.879 126.39 17.9257C126.412 17.9592 126.439 17.989 126.47 18.0141C126.497 18.0536 126.53 18.0892 126.567 18.1203L126.673 18.2352L126.779 18.3414L126.965 18.5271C127.014 18.5788 127.067 18.6262 127.124 18.6686L127.213 18.757L127.31 18.8366L127.443 18.9428L127.664 19.1197C127.709 19.155 127.756 19.1875 127.805 19.2169L127.911 19.3054H127.964L128.124 19.4115L128.194 19.4646L128.3 19.5353L128.46 19.6237L128.672 19.7564C128.758 19.8151 128.85 19.8654 128.946 19.9068C128.976 19.9305 129.009 19.9513 129.043 19.9687C129.108 20.0093 129.176 20.0448 129.247 20.0748C129.305 20.1114 129.367 20.1411 129.433 20.1633L129.592 20.2428H129.68H129.76H129.83L130.193 20.3844L130.405 20.4551L130.6 20.517H130.75L131.051 20.6055H131.113L131.502 20.6939L131.812 20.747H131.971H132.015L132.36 20.7912H132.466H132.625H132.714H132.944C133.055 20.7999 133.168 20.7999 133.28 20.7912H195.064C195.179 20.8 195.295 20.8 195.409 20.7912H195.63H195.719H195.878H195.993L196.338 20.747H196.488C196.594 20.747 196.701 20.747 196.798 20.6939L197.196 20.6055H197.258L197.558 20.517H197.709L197.903 20.4551L198.107 20.3844L198.469 20.2428H198.549H198.62H198.717L198.876 20.1633C198.941 20.1411 199.004 20.1114 199.062 20.0748L199.265 19.9687L199.371 19.9068C199.467 19.8654 199.559 19.8151 199.646 19.7564C199.72 19.7186 199.791 19.6742 199.858 19.6237L200.017 19.5353L200.114 19.4646C200.143 19.4549 200.168 19.4363 200.185 19.4115C200.243 19.3834 200.296 19.3477 200.344 19.3054L200.459 19.2169L200.592 19.1197C200.669 19.0656 200.743 19.0065 200.813 18.9428C200.863 18.9146 200.907 18.8788 200.946 18.8366L201.052 18.757L201.14 18.6686C201.196 18.6284 201.247 18.5808 201.291 18.5271L201.485 18.3414L201.591 18.2352L201.697 18.1203L201.795 18.0141C201.849 17.9642 201.896 17.9078 201.936 17.8461L202.007 17.7753L202.078 17.6869L202.184 17.5454C202.188 17.5309 202.188 17.5157 202.184 17.5012L202.281 17.3774C202.311 17.3382 202.337 17.2968 202.361 17.2535C202.388 17.2329 202.409 17.2055 202.423 17.1739L202.502 17.059C202.505 17.0414 202.505 17.0235 202.502 17.0059C202.529 16.9757 202.552 16.9431 202.573 16.9086L202.644 16.7937L202.715 16.6875C202.713 16.6669 202.713 16.6462 202.715 16.6256V16.5814C202.715 16.5283 202.776 16.4841 202.803 16.4222C202.832 16.3872 202.855 16.3485 202.874 16.3072C202.877 16.2808 202.877 16.2541 202.874 16.2276C202.874 16.1569 202.953 16.0773 202.989 15.9977C203.041 15.9091 203.088 15.8176 203.13 15.7235C203.135 15.7092 203.135 15.6936 203.13 15.6793C203.183 15.5732 203.227 15.4582 203.281 15.3521C203.334 15.2459 203.369 15.1221 203.404 15.0072V14.8833V14.7507V14.6799V14.5826C203.408 14.5533 203.408 14.5236 203.404 14.4942C203.404 14.3704 203.475 14.2377 203.502 14.1139C203.528 13.9901 203.572 13.8309 203.608 13.6894C203.608 13.5744 203.608 13.4594 203.67 13.3356C203.73 12.9845 203.768 12.6301 203.785 12.2743V12.2124C203.785 12.1505 203.785 12.0798 203.785 12.0178C203.831 11.5479 204.045 11.1104 204.388 10.7855C204.731 10.4606 205.179 10.2701 205.651 10.249H223.489H223.808H223.958H224.268L224.639 10.3021L225.17 10.3905H225.267L225.691 10.4967L226.311 10.6735L226.806 10.8416L227.319 11.0538C227.66 11.1951 227.994 11.3545 228.318 11.5314C228.61 11.6906 228.902 11.8586 229.203 12.0444L229.397 12.1682L229.733 12.407L230.167 12.743C230.45 12.9707 230.722 13.2127 230.98 13.4683C231.113 13.5921 231.237 13.7247 231.36 13.8574L231.723 14.2642C232.194 14.8168 232.617 15.4085 232.988 16.033C233.165 16.3426 233.333 16.6787 233.492 17.0059C233.646 17.3404 233.782 17.6828 233.899 18.0318C233.961 18.2087 234.023 18.3856 234.076 18.5625C234.182 18.9516 234.288 19.3407 234.359 19.7387L234.438 20.2163C234.886 20.8045 235.28 21.432 235.614 22.0913Z" fill="#FEF7FF"/>
<g clip-path="url(#clip0_3225_76946)">
<path d="M140.765 165.957H138.141V159.287L135.182 164.149H134.887L131.928 159.287V165.957H129.305V154.497H131.928L135.031 159.583L138.141 154.497H140.765V165.957Z" fill="#65558F"/>
<path d="M143.706 164.469C143.139 163.92 142.691 163.259 142.391 162.529C142.092 161.798 141.946 161.013 141.964 160.224C141.946 159.435 142.091 158.651 142.391 157.922C142.691 157.192 143.139 156.532 143.706 155.984C144.831 154.882 146.342 154.265 147.917 154.265C149.491 154.265 151.003 154.882 152.127 155.984C153.296 157.124 153.884 158.544 153.884 160.224C153.884 161.903 153.3 163.326 152.132 164.469C151.005 165.567 149.494 166.181 147.921 166.181C146.349 166.181 144.838 165.567 143.711 164.469H143.706ZM150.288 162.693C150.936 162.063 151.256 161.247 151.256 160.224C151.256 159.2 150.941 158.375 150.288 157.752C149.645 157.15 148.797 156.815 147.917 156.815C147.036 156.815 146.188 157.15 145.545 157.752C144.899 158.383 144.579 159.2 144.579 160.224C144.579 161.247 144.894 162.07 145.545 162.693C146.188 163.295 147.036 163.63 147.917 163.63C148.797 163.63 149.645 163.295 150.288 162.693Z" fill="#65558F"/>
<path d="M164.083 165.957H162.116L157.7 159.742V165.957H155.079V154.497H157.039L161.455 160.711V154.497H164.078L164.083 165.957Z" fill="#65558F"/>
<path d="M176.438 165.957H173.813V157.016H170.87V154.492H179.379V157.016H176.438V165.957Z" fill="#65558F"/>
<path d="M180.643 164.47C180.075 163.92 179.628 163.259 179.328 162.529C179.028 161.798 178.882 161.013 178.9 160.224C178.882 159.435 179.028 158.651 179.328 157.922C179.628 157.192 180.075 156.532 180.643 155.984C181.767 154.882 183.279 154.265 184.854 154.265C186.428 154.265 187.94 154.882 189.065 155.984C190.232 157.128 190.815 158.536 190.815 160.224C190.815 161.911 190.232 163.326 189.065 164.47C187.938 165.567 186.427 166.181 184.854 166.181C183.281 166.181 181.77 165.567 180.643 164.47ZM187.224 162.694C187.872 162.063 188.193 161.247 188.193 160.224C188.193 159.2 187.877 158.375 187.224 157.752C186.581 157.151 185.734 156.816 184.854 156.816C183.973 156.816 183.126 157.151 182.483 157.752C181.835 158.383 181.515 159.2 181.515 160.224C181.515 161.247 181.83 162.071 182.483 162.694C183.126 163.295 183.973 163.63 184.854 163.63C185.734 163.63 186.581 163.295 187.224 162.694Z" fill="#65558F"/>
<path d="M193.277 165.141C192.438 164.446 192.015 163.477 192.015 162.255V154.497H194.638V162.021C194.638 163.094 195.238 163.63 196.438 163.63C197.637 163.63 198.237 163.094 198.237 162.021V154.497H200.852V162.255C200.852 164.709 199.38 166.018 196.436 166.18C195.173 166.18 194.118 165.837 193.277 165.141Z" fill="#65558F"/>
<path d="M202.049 165.98V154.521H206.536C207.467 154.496 208.374 154.815 209.085 155.416C209.432 155.705 209.708 156.069 209.893 156.481C210.077 156.892 210.165 157.341 210.149 157.792C210.149 158.738 209.813 159.487 209.149 160.039C210.085 160.599 210.556 161.459 210.556 162.623C210.556 163.638 210.197 164.446 209.47 165.061C208.741 165.679 207.81 166.006 206.855 165.98H202.049ZM206.536 159.008C207.12 159.008 207.456 158.672 207.527 157.992C207.527 157.401 207.2 157.065 206.536 156.976H204.669V159.008H206.536ZM206.852 163.526C207.507 163.526 207.869 163.158 207.938 162.422C207.938 161.791 207.579 161.422 206.852 161.318H204.669V163.526H206.852Z" fill="#65558F"/>
<path d="M214.372 165.98H211.757V154.521H214.372V165.98Z" fill="#65558F"/>
<path d="M215.572 165.98V154.521H220.057C220.989 154.496 221.897 154.815 222.609 155.416C222.956 155.705 223.232 156.069 223.416 156.481C223.6 156.892 223.688 157.341 223.672 157.792C223.672 158.738 223.336 159.487 222.672 160.039C223.609 160.599 224.081 161.459 224.081 162.623C224.081 163.638 223.721 164.446 222.992 165.061C222.264 165.679 221.333 166.006 220.377 165.98H215.572ZM220.057 159.008C220.641 159.008 220.977 158.672 221.049 157.992C221.049 157.401 220.721 157.065 220.057 156.976H218.187V159.008H220.057ZM220.373 163.526C221.029 163.526 221.388 163.157 221.461 162.422C221.461 161.791 221.101 161.422 220.373 161.318H218.187V163.526H220.373Z" fill="#65558F"/>
<path d="M146.279 174.104H145.265V172.343H143.869V174.104H142.856V169.666H143.869V171.365H145.265V169.666H146.279V174.104Z" fill="#65558F"/>
<path d="M148.894 174.104C148.608 174.112 148.323 174.06 148.059 173.951C147.794 173.843 147.555 173.68 147.357 173.473C146.961 173.042 146.741 172.478 146.741 171.892C146.741 171.307 146.961 170.742 147.357 170.311C147.556 170.105 147.795 169.943 148.059 169.834C148.324 169.725 148.608 169.673 148.894 169.68H150.67V170.657H148.894C148.652 170.644 148.414 170.712 148.214 170.848C148.015 170.985 147.866 171.183 147.79 171.412H150.187L149.66 172.388H147.791C147.868 172.617 148.017 172.815 148.216 172.95C148.416 173.086 148.654 173.153 148.895 173.141H150.671V174.119L148.894 174.104Z" fill="#65558F"/>
<path d="M155.443 174.104H154.339L152.622 172.931L152.25 174.104H151.138L152.65 169.666H153.94L155.443 174.104ZM153.833 172.535L153.287 170.829L152.937 171.933L153.833 172.535Z" fill="#65558F"/>
<path d="M158.505 174.093H155.906V169.657H156.92V173.117H158.505V174.093Z" fill="#65558F"/>
<path d="M161.125 174.093H160.109V170.633H158.969V169.657H162.265V170.633H161.125V174.093Z" fill="#65558F"/>
<path d="M166.15 174.104H165.137V172.343H163.74V174.104H162.727V169.666H163.74V171.365H165.137V169.666H166.15V174.104Z" fill="#65558F"/>
<path d="M168.769 174.104C168.483 174.112 168.199 174.06 167.934 173.951C167.67 173.843 167.431 173.68 167.233 173.473C166.834 173.043 166.613 172.479 166.613 171.892C166.613 171.306 166.834 170.741 167.233 170.311C167.431 170.105 167.67 169.943 167.935 169.834C168.199 169.725 168.483 169.673 168.769 169.68H170.543V170.657H168.769C167.982 170.724 167.588 171.138 167.589 171.898C167.68 172.726 168.073 173.141 168.769 173.141H170.543V174.119L168.769 174.104Z" fill="#65558F"/>
<path d="M175.318 174.104H174.214L172.495 172.931L172.123 174.104H171.011L172.522 169.666H173.814L175.318 174.104ZM173.708 172.535L173.164 170.829L172.814 171.933L173.708 172.535Z" fill="#65558F"/>
<path d="M179.204 174.093H178.114L177.275 172.638H176.802V174.093H175.786V171.748H176.769L175.781 170.057V169.654H177.556C177.959 169.654 178.346 169.815 178.631 170.1C178.916 170.385 179.076 170.772 179.076 171.176C179.076 171.716 178.805 172.147 178.262 172.461L179.204 174.093ZM177.807 171.674C177.889 171.621 177.956 171.547 178.001 171.46C178.046 171.374 178.068 171.276 178.064 171.179C178.068 171.029 178.015 170.883 177.915 170.772C177.87 170.721 177.815 170.681 177.753 170.654C177.691 170.627 177.624 170.613 177.556 170.614H177.191L177.807 171.674Z" fill="#65558F"/>
<path d="M181.449 174.104C181.163 174.112 180.878 174.06 180.614 173.951C180.349 173.843 180.11 173.68 179.912 173.473C179.516 173.042 179.296 172.478 179.296 171.892C179.296 171.307 179.516 170.742 179.912 170.311C180.111 170.105 180.35 169.943 180.614 169.834C180.879 169.725 181.163 169.673 181.449 169.68H183.22V170.657H181.449C181.207 170.644 180.969 170.712 180.769 170.848C180.57 170.985 180.421 171.183 180.345 171.412H182.747L182.22 172.388H180.346C180.423 172.617 180.572 172.815 180.771 172.95C180.971 173.086 181.209 173.153 181.45 173.141H183.22V174.119L181.449 174.104Z" fill="#65558F"/>
<path d="M122.266 150.431H110.021C109.868 150.431 109.715 150.462 109.573 150.521C109.431 150.58 109.303 150.666 109.194 150.775C109.086 150.884 109 151.014 108.942 151.156C108.884 151.298 108.855 151.451 108.856 151.605V158.817C108.954 159.055 109.053 159.29 109.149 159.527C109.272 159.822 109.395 160.117 109.518 160.415V153.149C109.518 153.046 109.559 152.947 109.632 152.874C109.705 152.802 109.803 152.761 109.906 152.761H122.38C122.483 152.761 122.582 152.801 122.655 152.874C122.728 152.947 122.769 153.046 122.77 153.149V160.437L123.434 158.836V151.595C123.433 151.286 123.309 150.99 123.091 150.772C122.872 150.554 122.575 150.431 122.266 150.431ZM118.888 151.802C118.86 151.83 118.826 151.853 118.789 151.868C118.752 151.883 118.712 151.891 118.672 151.89H113.616C113.575 151.891 113.535 151.885 113.498 151.871C113.46 151.857 113.426 151.835 113.396 151.808C113.367 151.78 113.343 151.747 113.327 151.711C113.31 151.674 113.301 151.634 113.299 151.594C113.298 151.554 113.305 151.514 113.319 151.476C113.333 151.439 113.354 151.404 113.382 151.375C113.409 151.346 113.442 151.322 113.479 151.305C113.515 151.289 113.555 151.279 113.595 151.278H118.672C118.713 151.278 118.754 151.286 118.791 151.302C118.829 151.318 118.863 151.342 118.892 151.371C118.92 151.4 118.943 151.435 118.957 151.474C118.972 151.512 118.979 151.553 118.978 151.594C118.975 151.672 118.943 151.746 118.888 151.802Z" fill="#65558F"/>
<path d="M122.769 168.108V172.963C122.769 173.065 122.729 173.164 122.656 173.237C122.583 173.31 122.484 173.351 122.382 173.351H109.906C109.803 173.351 109.705 173.31 109.632 173.237C109.559 173.164 109.518 173.065 109.518 172.963V168.058C109.389 167.81 109.266 167.564 109.146 167.318C109.045 167.11 108.947 166.898 108.856 166.687V175.327C108.856 175.636 108.979 175.932 109.198 176.15C109.416 176.369 109.712 176.492 110.021 176.492H122.266C122.576 176.492 122.872 176.37 123.091 176.151C123.31 175.932 123.433 175.636 123.433 175.327V166.698C123.222 167.195 123.003 167.663 122.769 168.108ZM117.312 175.42C117.312 175.523 117.272 175.621 117.199 175.694C117.126 175.767 117.027 175.808 116.925 175.808H115.363C115.26 175.808 115.162 175.767 115.089 175.694C115.016 175.621 114.975 175.523 114.975 175.42V174.473C114.975 174.371 115.016 174.272 115.089 174.199C115.162 174.126 115.26 174.086 115.363 174.086H116.925C117.027 174.086 117.126 174.126 117.199 174.199C117.272 174.272 117.312 174.371 117.312 174.473V175.42Z" fill="#65558F"/>
<path d="M126.46 155.529C125.437 158.508 124.471 161.509 123.434 164.487L123.21 165.118C123.072 165.505 122.925 165.887 122.77 166.264C122.033 168.039 121.062 169.688 119.645 171.056C118.857 171.808 117.961 172.366 116.876 172.57C116.624 172.618 116.367 172.643 116.111 172.642C115.04 172.642 114.089 172.207 113.212 171.538C111.654 170.343 110.688 168.699 109.848 166.976C109.733 166.737 109.622 166.502 109.52 166.26C109.274 165.695 109.059 165.124 108.857 164.545C108.493 163.511 108.171 162.46 107.815 161.424C107.055 159.225 106.326 157.008 105.58 154.809C105.315 154.026 105.135 153.224 105.149 152.56C105.116 149.985 106.35 148.293 108.659 147.592C109.092 147.463 109.39 147.188 109.696 146.905C110.002 146.621 110.354 146.4 110.766 146.4C110.815 146.4 110.865 146.403 110.914 146.409C111.168 146.424 111.412 146.518 111.61 146.679C111.808 146.839 111.951 147.058 112.018 147.304C112.104 147.542 112.115 147.802 112.049 148.047C111.984 148.292 111.845 148.511 111.652 148.676C111.428 148.88 111.135 148.992 110.832 148.991C110.631 148.988 110.433 148.947 110.247 148.871C110.187 148.846 110.13 148.816 110.075 148.781C109.543 148.466 109.16 148.296 108.791 148.296C108.386 148.296 108.003 148.496 107.452 148.912C106.05 149.98 105.694 151.447 105.877 153.111C105.976 154.024 106.359 154.846 106.709 155.68C107.428 157.401 108.144 159.122 108.856 160.844C109.076 161.376 109.296 161.908 109.518 162.44C109.977 163.544 110.439 164.648 110.906 165.752C111.622 167.446 112.527 169.029 113.952 170.253C114.672 170.873 115.407 171.182 116.144 171.182C116.88 171.182 117.609 170.874 118.319 170.262C119.823 168.975 120.74 167.286 121.492 165.503C121.913 164.487 122.338 163.471 122.77 162.454L123.434 160.863C124.285 158.815 125.131 156.765 125.971 154.712C126.602 153.149 126.714 151.57 125.851 150.035C125.548 149.517 125.122 149.081 124.612 148.766C124.186 148.49 123.77 148.305 123.35 148.305C122.947 148.316 122.562 148.473 122.266 148.747C122.055 148.923 121.788 149.018 121.513 149.015C121.229 149.015 120.953 148.925 120.724 148.759C120.511 148.594 120.353 148.369 120.269 148.113C120.184 147.857 120.178 147.582 120.251 147.323C120.33 147.082 120.476 146.87 120.671 146.71C120.867 146.55 121.104 146.449 121.355 146.419C121.407 146.419 121.461 146.419 121.513 146.419C121.705 146.421 121.895 146.463 122.07 146.541C122.246 146.619 122.404 146.732 122.535 146.873C122.947 147.283 123.461 147.576 124.023 147.725C125.735 148.218 126.992 149.933 127.123 151.797C127.216 153.098 126.88 154.311 126.46 155.529Z" fill="#65558F"/>
<path d="M139.133 170.909C138.881 170.908 138.632 170.962 138.402 171.065C138.172 171.168 137.967 171.319 137.8 171.508C137.356 171.369 136.9 171.27 136.437 171.212L136.407 171.404C135.643 171.308 134.868 171.342 134.116 171.505C132.774 171.802 131.793 172.481 131.012 173.109C129.088 174.65 128.194 176.088 127.403 177.355C126.613 178.621 125.935 179.721 124.382 180.602C123.766 180.952 122.489 181.683 120.855 181.479C118.794 181.225 117.617 179.678 117.491 179.503C117.017 178.842 116.713 178.075 116.605 177.27H115.816C115.927 178.24 116.285 179.166 116.854 179.96C117.002 180.162 118.368 181.955 120.752 182.252C120.969 182.279 121.187 182.292 121.405 182.291C122.983 182.291 124.202 181.596 124.76 181.276C126.484 180.292 127.249 179.068 128.058 177.765C128.813 176.549 129.671 175.174 131.493 173.713C132.513 172.895 133.321 172.474 134.277 172.262C134.936 172.119 135.615 172.088 136.284 172.171L136.261 172.328V172.357C136.63 172.401 136.994 172.476 137.351 172.581C137.351 172.616 137.351 172.652 137.351 172.686C137.351 173.04 137.455 173.385 137.651 173.678C137.848 173.972 138.126 174.201 138.453 174.336C138.779 174.471 139.138 174.506 139.484 174.438C139.831 174.369 140.149 174.199 140.398 173.949C140.648 173.699 140.818 173.381 140.887 173.035C140.956 172.688 140.921 172.329 140.785 172.003C140.65 171.677 140.421 171.398 140.128 171.202C139.834 171.006 139.489 170.901 139.136 170.901L139.133 170.909ZM139.133 173.59C138.956 173.59 138.784 173.538 138.637 173.44C138.49 173.342 138.376 173.202 138.308 173.039C138.24 172.876 138.223 172.697 138.257 172.523C138.292 172.35 138.377 172.191 138.502 172.066C138.626 171.941 138.785 171.856 138.959 171.822C139.132 171.788 139.311 171.805 139.474 171.873C139.637 171.94 139.777 172.055 139.875 172.202C139.973 172.348 140.025 172.521 140.025 172.698C140.025 172.934 139.931 173.16 139.764 173.328C139.597 173.495 139.371 173.589 139.134 173.59H139.133Z" fill="#65558F"/>
</g>
<defs>
<linearGradient id="paint0_linear_3225_76946" x1="84.0529" y1="163.853" x2="86.432" y2="163.853" gradientUnits="userSpaceOnUse">
<stop stop-color="#666666"/>
<stop offset="0.06" stop-color="#727272"/>
<stop offset="0.33" stop-color="#A8A8A8"/>
<stop offset="0.57" stop-color="#D0D0D0"/>
<stop offset="0.76" stop-color="#E8E8E8"/>
<stop offset="0.87" stop-color="#F1F1F1"/>
<stop offset="0.95" stop-color="#F7F7F7"/>
<stop offset="1" stop-color="white"/>
</linearGradient>
<linearGradient id="paint1_linear_3225_76946" x1="243.254" y1="163.871" x2="245.607" y2="163.871" gradientUnits="userSpaceOnUse">
<stop stop-color="white"/>
<stop offset="0.05" stop-color="#F7F7F7"/>
<stop offset="0.13" stop-color="#F1F1F1"/>
<stop offset="0.24" stop-color="#E8E8E8"/>
<stop offset="0.43" stop-color="#D0D0D0"/>
<stop offset="0.67" stop-color="#A8A8A8"/>
<stop offset="0.94" stop-color="#727272"/>
<stop offset="1" stop-color="#666666"/>
</linearGradient>
<linearGradient id="paint2_linear_3225_76946" x1="164.643" y1="327.177" x2="164.643" y2="308.321" gradientUnits="userSpaceOnUse">
<stop stop-color="#F1F1F1"/>
<stop offset="0.12" stop-color="#E3E3E3"/>
<stop offset="0.34" stop-color="#BFBFBF"/>
<stop offset="0.63" stop-color="#848484"/>
<stop offset="1" stop-color="#333333"/>
</linearGradient>
<linearGradient id="paint3_linear_3225_76946" x1="164.649" y1="18.6066" x2="164.649" y2="-4.92753" gradientUnits="userSpaceOnUse">
<stop stop-color="#333333"/>
<stop offset="0.07" stop-color="#4C4C4C"/>
<stop offset="0.25" stop-color="#828282"/>
<stop offset="0.42" stop-color="#AFAFAF"/>
<stop offset="0.59" stop-color="#D2D2D2"/>
<stop offset="0.74" stop-color="#EBEBEB"/>
<stop offset="0.89" stop-color="#FAFAFA"/>
<stop offset="1" stop-color="white"/>
</linearGradient>
<linearGradient id="paint4_linear_3225_76946" x1="235.82" y1="163.979" x2="241.551" y2="163.979" gradientUnits="userSpaceOnUse">
<stop stop-color="#F0F0F0"/>
<stop offset="0.14" stop-color="#B7B7B7"/>
<stop offset="0.27" stop-color="#888888"/>
<stop offset="0.4" stop-color="#636363"/>
<stop offset="0.51" stop-color="#494949"/>
<stop offset="0.62" stop-color="#393939"/>
<stop offset="0.7" stop-color="#333333"/>
</linearGradient>
<linearGradient id="paint5_linear_3225_76946" x1="91.0264" y1="314.673" x2="238.271" y2="314.673" gradientUnits="userSpaceOnUse">
<stop/>
<stop offset="0.1" stop-color="#141414"/>
<stop offset="0.26" stop-color="#2C2C2C"/>
<stop offset="0.4" stop-color="#3B3B3B"/>
<stop offset="0.52" stop-color="#404040"/>
<stop offset="0.63" stop-color="#393939"/>
<stop offset="0.79" stop-color="#242424"/>
<stop offset="0.99" stop-color="#020202"/>
<stop offset="1"/>
</linearGradient>
<linearGradient id="paint6_linear_3225_76946" x1="91.0272" y1="13.2108" x2="241.562" y2="13.2108" gradientUnits="userSpaceOnUse">
<stop/>
<stop offset="0.1" stop-color="#141414"/>
<stop offset="0.26" stop-color="#2C2C2C"/>
<stop offset="0.4" stop-color="#3B3B3B"/>
<stop offset="0.52" stop-color="#404040"/>
<stop offset="0.63" stop-color="#393939"/>
<stop offset="0.79" stop-color="#242424"/>
<stop offset="0.99" stop-color="#020202"/>
<stop offset="1"/>
</linearGradient>
<linearGradient id="paint7_linear_3225_76946" x1="87.7376" y1="163.879" x2="91.1425" y2="163.879" gradientUnits="userSpaceOnUse">
<stop stop-color="#404040"/>
<stop offset="0.64" stop-color="#1A1A1A"/>
<stop offset="1" stop-color="#0A0A0A"/>
</linearGradient>
<linearGradient id="paint8_linear_3225_76946" x1="235.817" y1="163.925" x2="241.565" y2="163.925" gradientUnits="userSpaceOnUse">
<stop stop-color="#0A0A0A"/>
<stop offset="0.36" stop-color="#1A1A1A"/>
<stop offset="1" stop-color="#404040"/>
</linearGradient>
<linearGradient id="paint9_linear_3225_76946" x1="155.219" y1="12.5223" x2="174.084" y2="12.5223" gradientUnits="userSpaceOnUse">
<stop stop-color="#333333"/>
<stop offset="0.09" stop-color="#2B2B2B"/>
<stop offset="0.29" stop-color="#1E1E1E"/>
<stop offset="0.48" stop-color="#1A1A1A"/>
<stop offset="0.79" stop-color="#1C1C1C"/>
<stop offset="0.9" stop-color="#232323"/>
<stop offset="0.98" stop-color="#2E2E2E"/>
<stop offset="1" stop-color="#333333"/>
</linearGradient>
<clipPath id="clip0_3225_76946">
<rect width="118.931" height="35.8916" fill="white" transform="translate(105.15 146.4)"/>
</clipPath>
</defs>
</svg>
