<svg width="260" height="260" viewBox="0 0 260 260" fill="none" xmlns="http://www.w3.org/2000/svg">
<g clip-path="url(#clip0_3225_73428)">
<path d="M166.074 157.486C196.783 126.777 196.783 76.9871 166.074 46.2779C135.365 15.5686 85.575 15.5686 54.8657 46.2779C24.1565 76.9871 24.1565 126.777 54.8657 157.486C85.575 188.195 135.365 188.195 166.074 157.486Z" stroke="#65558F" stroke-width="1.25658" stroke-linecap="round" stroke-linejoin="round" stroke-dasharray="3.34 3.34"/>
<path d="M120.36 197.176C121.612 197.983 122.626 199.1 123.567 200.249C128.368 206.156 132.433 212.674 135.93 219.461H185.703C179.92 203.87 172.678 182.961 172.471 177.54C172.078 167.526 171.695 157.522 171.302 147.507C171.188 144.497 171.043 141.382 169.698 138.682C168.757 136.789 167.277 135.237 165.829 133.706C160.677 128.295 155.535 122.874 150.383 117.453C148.097 115.053 145.376 112.456 142.065 112.632C138.724 112.808 136.106 115.984 135.62 119.295C134.451 127.281 141.951 136.096 145.707 142.541C147.486 145.593 148.614 149.856 147.952 153.414C147.248 157.18 144.538 160.915 143.441 164.681C143.027 166.098 143.048 168.684 141.558 169.119C140.358 169.471 137.337 167.94 136.116 167.609C119.729 163.087 102.121 163.077 85.7335 167.588C82.9816 168.343 80.0021 169.14 79.671 171.974C87.6681 183.737 100.631 191.621 114.432 195.055C116.46 195.593 118.581 196.038 120.36 197.176Z" fill="#F9C9BC"/>
<path d="M75.1187 166.305C75.1704 169.44 75.5221 172.936 77.4568 174.923C78.781 176.278 80.5811 176.588 82.2881 176.837C93.0372 178.358 130.157 177.395 140.151 176.816C142.23 176.692 145.241 177.147 146.131 174.147C146.545 172.75 146.586 171.229 146.617 169.729C146.958 153.094 146.896 91.6823 146.782 67.6495C146.772 66.2115 146.71 64.5976 145.862 63.6354C145.251 62.9526 144.403 62.6526 143.586 62.6319C126.857 62.1664 102.834 62.394 81.5846 63.232C74.0013 63.532 74.6428 69.7393 74.7669 77.3123C74.9324 86.975 74.8497 96.6482 74.9842 106.311C75.2428 125.636 74.7876 145.872 75.1187 166.305Z" fill="#51446F"/>
<path d="M77.1779 157.739C77.2399 160.46 77.5917 163.501 79.4332 165.239C80.6954 166.419 82.4024 166.698 84.0266 166.915C94.2481 168.271 129.495 167.567 138.972 167.102C140.948 167.008 143.803 167.402 144.641 164.805C145.034 163.594 145.066 162.27 145.086 160.977C145.355 146.524 145.066 93.1617 144.879 72.274C144.869 71.0222 144.797 69.6152 143.99 68.7772C143.41 68.1772 142.603 67.9185 141.817 67.8978C125.926 67.4323 103.114 67.5461 82.9404 68.1978C75.7398 68.4254 76.3709 73.8258 76.5157 80.4056C76.7123 88.8062 76.6606 97.2068 76.8261 105.607C77.1468 122.388 76.7951 139.975 77.1779 157.739Z" fill="#FEF7FF"/>
<path d="M144.889 74.1877C144.879 73.5152 144.879 72.8738 144.869 72.2634C144.858 71.0116 144.786 69.6046 143.979 68.7666C143.4 68.1665 142.593 67.9079 141.806 67.8872C125.916 67.4217 103.104 67.5355 82.9298 68.1872C78.2018 68.3424 76.8466 70.7219 76.5155 74.1877H144.889Z" fill="#E7E0EC"/>
<path d="M144.879 72.2633C144.869 71.0115 144.796 69.6045 143.989 68.7665C143.783 68.5493 143.534 68.3838 143.276 68.2493C143.431 68.901 143.451 69.6356 143.451 70.308C143.648 91.1957 143.927 144.548 143.658 159.011C143.638 160.304 143.607 161.628 143.214 162.839C142.376 165.446 139.52 165.042 137.544 165.136C128.068 165.601 92.8099 166.315 82.5988 164.949C81.047 164.742 79.4124 164.473 78.1709 163.418C78.4813 164.101 78.8951 164.722 79.4227 165.229C80.6849 166.408 82.3919 166.687 84.0161 166.905C94.2376 168.26 129.485 167.556 138.961 167.091C140.937 166.998 143.793 167.391 144.631 164.794C145.024 163.584 145.055 162.259 145.076 160.966C145.355 146.503 145.065 93.1407 144.879 72.2633Z" fill="#D8E7F6"/>
<path d="M104.976 172.45C105.007 172.543 105.049 172.636 105.1 172.74C106.011 174.561 109.104 174.602 110.832 174.695C112.477 174.788 119.843 174.995 118.55 171.447C117.97 169.853 115.384 169.843 114.018 169.781C112.539 169.698 103.838 169.222 104.976 172.45Z" fill="#BAAFD7"/>
<path d="M103.187 64.2767C102.783 64.3491 102.401 64.4319 101.997 64.5353C101.78 64.587 101.552 64.6491 101.387 64.8043C101.231 64.9595 101.169 65.2492 101.335 65.4043C101.438 65.4975 101.583 65.5181 101.718 65.5285C104.501 65.7871 107.346 65.5285 110.139 65.4561C113.077 65.3837 116.015 65.2802 118.964 65.1974C119.14 65.1871 119.316 65.1871 119.491 65.1767C119.636 65.1767 119.781 65.1664 119.936 65.1664C120.567 65.1457 121.436 64.825 121.26 64.2249C121.136 63.8008 120.578 63.718 120.133 63.718C117.226 63.718 114.319 63.7594 111.401 63.8525C109.932 63.8939 108.463 63.956 106.994 64.0284C105.742 64.0801 104.439 64.0594 103.187 64.2767Z" fill="#BAAFD7"/>
<path d="M84.0059 64.6804C83.5507 64.1528 82.5058 64.1217 81.9885 65.1563C81.8229 65.4873 81.8436 65.8908 82.0402 66.2115C82.2782 66.5943 82.7747 66.8012 83.2196 66.7081C84.368 66.4598 84.5231 65.2804 84.0059 64.6804Z" fill="#BAAFD7"/>
<path d="M147.787 148.097H171.312C171.302 147.9 171.302 147.704 171.292 147.507C171.178 144.497 171.033 141.383 169.688 138.682C168.747 136.789 167.267 135.237 165.819 133.706C160.667 128.295 155.525 122.874 150.373 117.453C148.087 115.053 145.366 112.467 142.055 112.632C138.713 112.808 136.096 115.984 135.61 119.295C134.441 127.282 141.941 136.096 145.697 142.541C146.628 144.166 147.383 146.1 147.787 148.097Z" fill="#F9C9BC"/>
<path d="M151.283 158.318V153.797L147.931 153.425C141.982 162.239 136.934 174.323 134.027 184.555C137.213 186.355 140.348 188.258 143.41 190.255C147.383 179.971 151.438 169.357 151.283 158.318Z" fill="#F9C9BC"/>
<path d="M81.4506 157.366C84.2025 158.587 88.3821 157.584 89.9339 155.059C91.3099 152.825 91.8272 149.586 89.1063 146.783C86.0026 143.576 83.2404 142.22 79.6401 140.441C77.5089 139.386 75.3467 137.844 72.8431 138.289C71.1464 138.589 69.667 139.686 68.6841 141.072C66.9564 143.514 66.3667 147.714 69.1497 149.659C73.4948 152.669 76.9503 155.359 81.4506 157.366Z" fill="#F9C9BC"/>
<path d="M89.1373 142.479C92.1169 142.965 94.7033 141.155 95.8102 138.403C96.7827 135.972 96.5551 132.641 94.4757 131.037C91.0616 128.409 81.5747 124.292 77.571 122.481C76.0295 121.788 74.2397 121.602 72.5844 121.912C66.4805 123.071 65.8391 131.078 69.7808 134.037C73.9914 137.203 84.7198 141.745 89.1373 142.479Z" fill="#F9C9BC"/>
<path d="M90.2028 126.299C93.1203 127.075 95.7688 124.974 96.8757 122.223C97.8482 119.791 97.6103 116.47 95.5411 114.856C92.303 112.332 82.8575 107.946 78.6365 106.301C77.064 105.69 75.3052 105.421 73.6499 105.732C67.546 106.89 66.7287 115.146 70.8463 117.857C75.0569 120.629 85.5577 125.068 90.2028 126.299Z" fill="#F9C9BC"/>
<path d="M91.4958 150.611C90.4405 148.738 88.6404 147.404 86.7885 146.328C85.0298 145.314 83.54 145.128 81.9778 146.431C80.4984 147.662 79.0707 149.121 78.4914 151.004C77.8913 152.949 78.0879 154.635 79.8053 155.649C81.6778 156.756 83.4986 157.884 85.6609 158.329C87.6989 158.742 90.0577 158.287 91.3509 156.663C92.6752 154.997 92.5407 152.483 91.4958 150.611Z" fill="#FBDAD8"/>
<path d="M95.9653 133.52C94.7134 131.782 92.7788 130.654 90.8132 129.795C88.951 128.978 87.4509 128.968 86.0439 130.437C84.7196 131.823 83.4575 133.437 83.085 135.372C82.7022 137.368 83.085 139.024 84.9059 139.841C86.8819 140.731 88.8268 141.651 91.0201 141.848C93.0892 142.034 95.3756 141.32 96.4929 139.551C97.6309 137.751 97.2171 135.268 95.9653 133.52Z" fill="#FBDAD8"/>
<path d="M97.7342 117.981C96.4824 116.243 94.5478 115.115 92.5821 114.256C90.7199 113.439 89.2198 113.429 87.8128 114.898C86.4885 116.284 85.2264 117.898 84.8539 119.833C84.4712 121.829 84.8539 123.485 86.6748 124.302C88.6508 125.192 90.5957 126.113 92.789 126.309C94.8581 126.495 97.1445 125.781 98.2618 124.012C99.3998 122.202 98.986 119.719 97.7342 117.981Z" fill="#FBDAD8"/>
<path d="M154.697 121.985C150.859 117.857 147.021 113.739 143.182 109.611C143.058 109.477 142.924 109.332 142.738 109.291C142.427 109.218 141.662 109.529 141.434 109.766C140.4 110.822 139.758 112.136 140.203 113.543C140.358 114.029 140.679 114.432 141 114.825C143.762 118.26 146.565 121.664 151.19 122.367C151.862 122.471 152.556 122.481 153.228 122.419C153.373 122.409 154.707 122.005 154.697 121.985Z" fill="#FBDAD8"/>
<path d="M168.933 81.4196C172.823 72.5535 183.685 71.0223 191.507 73.9501C199.266 76.8572 204.428 84.3785 202.742 93.4619C201.221 101.614 193.979 107.884 186.334 108.246C174.261 108.815 162.891 96.6897 168.695 82.0093C168.767 81.8128 168.85 81.6162 168.933 81.4196Z" fill="#65558F"/>
<path d="M176.609 100.176C176.62 100.787 176.702 101.459 177.158 101.852C177.468 102.121 177.902 102.194 178.306 102.245C180.851 102.587 189.655 102.576 192.024 102.514C192.521 102.504 193.235 102.597 193.442 102.028C193.545 101.759 193.545 101.469 193.555 101.18C193.638 97.9623 193.648 86.0856 193.628 81.4405C193.628 81.1611 193.607 80.8508 193.411 80.6542C193.266 80.5197 193.069 80.4576 192.873 80.4473C188.91 80.2818 183.21 80.2093 178.171 80.2714C176.371 80.2921 176.527 81.4922 176.547 82.9613C176.578 84.8338 176.558 86.7064 176.589 88.5686C176.651 92.3137 176.537 96.2243 176.609 100.176Z" fill="#51446F"/>
<path d="M177.964 98.5106C177.975 99.0382 178.037 99.6279 178.43 99.9797C178.689 100.218 179.051 100.269 179.392 100.321C181.534 100.621 188.951 100.59 190.948 100.528C191.362 100.518 191.962 100.6 192.148 100.104C192.231 99.8658 192.241 99.6072 192.252 99.3589C192.334 96.5553 192.355 86.1787 192.355 82.1232C192.355 81.8852 192.345 81.6059 192.169 81.4404C192.045 81.3266 191.879 81.2749 191.714 81.2645C188.372 81.1197 183.582 81.0679 179.34 81.13C177.83 81.1507 177.954 82.206 177.975 83.4785C178.006 85.1131 177.975 86.7477 177.996 88.3719C178.016 91.6411 177.913 95.0655 177.964 98.5106Z" fill="white"/>
<path d="M188.093 81.9163C188.155 81.9059 188.217 81.8956 188.279 81.8852C188.31 81.8749 188.341 81.8645 188.362 81.8438C188.382 81.8231 188.393 81.7818 188.393 81.7507C188.445 81.1817 188.455 80.6127 188.455 80.0334C188.455 79.8885 188.455 79.7333 188.372 79.6195C188.248 79.4333 187.989 79.423 187.772 79.423C186.748 79.4333 185.724 79.4333 184.699 79.4437C184.193 79.4437 183.696 79.454 183.189 79.454C182.796 79.454 182.216 79.3609 181.865 79.5782C181.637 79.723 181.73 80.0334 181.72 80.261C181.699 80.5713 181.699 80.8714 181.699 81.1817C181.71 81.6266 181.658 81.9266 182.175 81.9369C184.006 81.9576 185.827 81.9266 187.648 81.9369C187.793 81.9266 187.948 81.9266 188.093 81.9163Z" fill="#B9C5D5"/>
<path d="M186.727 79.6921C186.758 79.6921 186.8 79.6818 186.831 79.6714C186.851 79.6714 186.862 79.6611 186.882 79.6508C186.893 79.6404 186.893 79.6197 186.903 79.599C186.934 79.2887 186.934 78.968 186.934 78.6576C186.934 78.5748 186.934 78.4921 186.893 78.43C186.82 78.3265 186.686 78.3162 186.562 78.3265C186.003 78.3265 185.434 78.3369 184.875 78.3369C184.596 78.3369 184.327 78.3369 184.048 78.3472C183.83 78.3472 183.51 78.2955 183.323 78.4196C183.199 78.5024 183.251 78.6679 183.241 78.7921C183.23 78.9576 183.23 79.1335 183.23 79.299C183.23 79.5473 183.21 79.7128 183.489 79.7128C184.492 79.7232 185.496 79.7025 186.5 79.7128C186.562 79.7025 186.644 79.7025 186.727 79.6921Z" fill="#B9C5D5"/>
<path d="M188.124 84.5543C187.431 83.1059 185.496 82.8473 184.11 83.3335C182.734 83.8094 181.813 85.0405 182.113 86.5303C182.382 87.8649 183.675 88.8891 185.031 88.9511C187.183 89.0443 189.2 87.0579 188.165 84.6577C188.155 84.6163 188.145 84.5853 188.124 84.5543Z" fill="#65558F"/>
<path d="M187.369 86.3133L187.317 85.4132C186.779 85.4442 186.231 85.4546 185.693 85.4649C185.693 84.958 185.693 84.4614 185.693 83.9648L184.793 83.9545C184.783 84.4614 184.793 84.9787 184.793 85.4856C184.234 85.496 183.676 85.5063 183.107 85.5477L183.158 86.4477C183.696 86.4167 184.255 86.4064 184.793 86.396C184.803 86.9754 184.814 87.5444 184.834 88.1134L185.734 88.0824C185.714 87.5133 185.703 86.9443 185.693 86.3753C186.241 86.3546 186.81 86.3443 187.369 86.3133Z" fill="white"/>
<path d="M179.92 90.8756C183.758 90.8756 187.079 90.8859 190.679 90.8342" stroke="#B9C5D5" stroke-width="0.877398" stroke-miterlimit="10" stroke-linejoin="round"/>
<path d="M179.837 93.1C183.438 93.0586 187.038 93.0068 190.628 92.9655" stroke="#B9C5D5" stroke-width="0.877398" stroke-miterlimit="10" stroke-linejoin="round"/>
<path d="M179.92 95.2519C183.21 95.2933 187.027 95.2106 190.638 95.2519" stroke="#B9C5D5" stroke-width="0.877398" stroke-miterlimit="10" stroke-linejoin="round"/>
<path d="M179.92 97.5382C182.227 97.5382 184.648 97.5796 186.448 97.5382" stroke="#B9C5D5" stroke-width="0.877398" stroke-miterlimit="10" stroke-linejoin="round"/>
<path d="M192.334 82.1234C192.334 81.8854 192.324 81.6061 192.148 81.4406C192.024 81.3268 191.858 81.275 191.693 81.2647C191.465 81.2543 191.227 81.244 190.989 81.2336C191.331 85.734 191.91 90.7309 189.51 94.7657C187.069 98.8625 182.413 99.8971 178.016 99.0901C178.068 99.4315 178.182 99.7522 178.43 99.9798C178.689 100.218 179.051 100.269 179.392 100.321C181.534 100.621 188.951 100.59 190.948 100.528C191.362 100.518 191.962 100.601 192.148 100.104C192.231 99.866 192.241 99.6074 192.252 99.3591C192.314 96.5451 192.334 86.1788 192.334 82.1234Z" fill="#E8F2FB"/>
<path d="M131.999 25.026C135.889 16.1599 146.752 14.6287 154.573 17.5565C162.332 20.4636 167.495 27.9849 165.808 37.0683C164.288 45.2206 157.046 51.49 149.39 51.8521C137.317 52.4211 125.947 40.2961 131.751 25.6157C131.823 25.4192 131.906 25.2226 131.999 25.026Z" fill="#65558F"/>
<path d="M158.784 26.9915C158.753 26.6708 158.577 26.5673 158.267 26.526C155.598 26.1535 153.001 25.0052 150.828 23.4326C150.021 22.8429 149.07 22.1601 148.438 21.3221C148.294 21.1359 148.014 21.1152 147.869 21.3014C147.331 21.9222 146.224 22.8947 145.48 23.4326C143.307 25.0155 140.71 26.1639 138.041 26.526C137.731 26.5673 137.565 26.6604 137.524 26.9915C137.441 27.8295 137.617 28.7399 137.71 29.5779C137.803 30.4469 137.927 31.316 138.072 32.185C138.372 33.9024 138.817 35.599 139.438 37.2336C140.348 39.6028 142.21 41.7546 143.948 43.6065C144.673 44.3824 146.69 46.1308 148.118 46.8757C148.118 46.8964 148.118 46.9067 148.118 46.9067C148.128 46.9067 148.138 46.8964 148.149 46.8964C148.159 46.8964 148.169 46.9067 148.18 46.9067C148.18 46.9067 148.18 46.8964 148.18 46.8757C149.618 46.1308 151.625 44.3824 152.349 43.6065C154.087 41.7546 155.949 39.5924 156.86 37.2336C157.491 35.599 157.925 33.9127 158.225 32.185C158.381 31.316 158.494 30.4469 158.587 29.5779C158.701 28.7399 158.877 27.8295 158.784 26.9915Z" fill="white"/>
<path d="M148.118 23.1944C148.718 23.7531 149.37 24.2289 149.928 24.6324L149.949 24.6531C152.215 26.2981 154.739 27.4154 157.284 27.8913C157.263 28.181 157.222 28.4913 157.181 28.812C157.15 29.0189 157.129 29.2155 157.108 29.4121C157.005 30.3328 156.891 31.1605 156.756 31.9261C156.456 33.6434 156.022 35.247 155.463 36.685C154.656 38.7955 152.877 40.8439 151.253 42.5716C150.715 43.1407 149.328 44.3718 148.149 45.1374C146.969 44.3718 145.583 43.1407 145.045 42.5716C143.421 40.8439 141.652 38.7955 140.835 36.685C140.276 35.2366 139.841 33.6331 139.541 31.9261C139.407 31.1501 139.293 30.3328 139.19 29.4121C139.169 29.2155 139.138 29.0189 139.117 28.812C139.076 28.4913 139.034 28.181 139.014 27.8913C141.559 27.405 144.083 26.2981 146.349 24.6531C146.866 24.291 147.528 23.7427 148.118 23.1944ZM148.149 21.177C148.045 21.177 147.942 21.2184 147.87 21.3011C147.332 21.9219 146.225 22.8944 145.48 23.4323C143.307 25.0152 140.71 26.1636 138.041 26.5257C137.731 26.567 137.565 26.6602 137.524 26.9912C137.441 27.8292 137.617 28.7396 137.71 29.5776C137.803 30.4466 137.927 31.3157 138.072 32.1847C138.372 33.9021 138.817 35.5987 139.438 37.2333C140.348 39.6025 142.211 41.7544 143.949 43.6062C144.673 44.3821 146.69 46.1305 148.118 46.8754C148.118 46.8961 148.118 46.9064 148.118 46.9064C148.128 46.9064 148.139 46.8961 148.139 46.8961C148.149 46.8961 148.159 46.9064 148.17 46.9064C148.17 46.9064 148.17 46.8961 148.17 46.8754C149.608 46.1305 151.615 44.3821 152.339 43.6062C154.077 41.7544 155.939 39.5921 156.85 37.2333C157.481 35.5987 157.915 33.9124 158.215 32.1847C158.37 31.3157 158.484 30.4466 158.577 29.5776C158.67 28.7396 158.846 27.8292 158.763 26.9912C158.732 26.6705 158.557 26.567 158.246 26.5257C155.577 26.1532 152.98 25.0049 150.808 23.4323C150.001 22.8426 149.049 22.1598 148.418 21.3218C148.366 21.2184 148.263 21.177 148.149 21.177Z" fill="#BAAFD7"/>
<path d="M153.28 34.2539L153.146 32.1021C151.852 32.1848 150.539 32.2159 149.235 32.2366C149.235 31.0261 149.225 29.8157 149.235 28.6259L147.083 28.5949C147.062 29.8157 147.073 31.0468 147.083 32.2779C145.749 32.2986 144.393 32.3297 143.038 32.4124L143.172 34.5643C144.476 34.4815 145.8 34.4505 147.104 34.4298C147.124 35.8058 147.145 37.1921 147.197 38.5577L149.349 38.4853C149.307 37.1197 149.276 35.754 149.266 34.3781C150.58 34.3677 151.935 34.3367 153.28 34.2539Z" fill="#65558F"/>
<path d="M57.7904 25.026C61.6804 16.1599 72.5432 14.6287 80.3645 17.5565C88.1236 20.4636 93.2861 27.9849 91.5998 37.0683C90.079 45.2206 82.8371 51.49 75.1917 51.8521C63.1081 52.4314 51.7486 40.3064 57.5421 25.6261C57.6249 25.4192 57.6973 25.2226 57.7904 25.026Z" fill="#65558F"/>
<path d="M75.9573 43.679C75.7917 44.1342 75.2227 44.0618 74.8296 44.0825C72.9363 44.1652 65.891 44.279 63.8426 44.0411C63.5219 43.9997 63.1805 43.9583 62.9218 43.7411C62.5494 43.4411 62.477 42.9031 62.4563 42.4272C62.4356 41.703 62.4149 40.9685 62.4045 40.2546C62.3632 37.8958 62.3632 35.5681 62.2907 33.3127C62.2804 32.8886 62.2701 32.4541 62.2597 32.0299C62.239 30.985 62.2287 29.9504 62.1873 28.9055C62.1459 27.7572 62.0114 26.8157 63.4495 26.7743C67.4842 26.6709 72.0363 26.6502 75.2124 26.7433C75.3676 26.7433 75.5331 26.795 75.6469 26.8985C75.8124 27.0433 75.8228 27.2916 75.8331 27.5089C75.8538 28.6158 75.8848 30.2298 75.9159 32.0195C75.9676 34.7611 76.009 37.9165 76.0297 40.2443C76.04 41.4444 76.04 42.4272 76.04 43.0169C76.04 43.2341 76.0297 43.4617 75.9573 43.679Z" fill="#EADDFF"/>
<path d="M62.3945 39.158H76.0196C75.9989 36.9854 75.9576 34.3473 75.9162 32.0092L62.26 32.0299C62.2704 32.4541 62.2807 32.8886 62.291 33.3128C62.3531 35.206 62.3635 37.1717 62.3945 39.158Z" fill="white"/>
<path d="M76.0297 40.2237C76.009 37.8959 75.9676 34.7405 75.9159 31.999C75.8848 30.2092 75.8538 28.5953 75.8331 27.4883C75.8331 27.271 75.8124 27.0227 75.6469 26.8779C75.5331 26.7744 75.3676 26.7331 75.2124 26.7227C72.0363 26.64 67.4739 26.6503 63.4495 26.7538C62.0114 26.7951 62.1459 27.7366 62.1873 28.8849C62.1976 29.0298 62.1976 29.185 62.1976 29.3298C65.1358 29.3195 68.0843 29.2884 71.0121 29.5367C71.8397 29.6091 72.7398 29.6505 73.4329 30.1678C74.2502 30.7885 74.4571 31.9059 74.5916 32.8576C74.7779 34.1715 74.9434 35.144 74.9641 36.4579C74.9848 37.4821 74.9641 38.8581 74.8089 39.8823C74.4985 42.0342 72.2846 42.6652 70.4741 43.1205C67.9601 43.7412 65.3117 43.9067 62.777 43.2963C62.6942 43.2756 62.6218 43.2343 62.5804 43.1825C62.6528 43.3894 62.7563 43.5757 62.9218 43.7205C63.1805 43.9274 63.5219 43.9791 63.8426 44.0205C65.891 44.2585 72.9363 44.1447 74.8296 44.0619C75.2227 44.0412 75.7917 44.1136 75.9573 43.6584C76.0297 43.4412 76.04 43.2136 76.04 42.986C76.04 42.4066 76.04 41.4238 76.0297 40.2237Z" fill="#D4E3F2"/>
<path d="M63.0254 28.5125C63.0357 28.5125 63.0461 28.5125 63.0461 28.5125C65.2083 28.5643 67.5567 28.4918 69.6155 28.4298C71.8605 28.3573 74.271 28.4918 76.516 28.4298C76.6194 28.4298 76.7332 28.4194 76.8263 28.3677C77.5092 27.9539 77.1471 25.4709 77.085 24.8502C77.0643 24.6743 77.0436 24.4985 76.9505 24.3536C76.5263 23.7225 73.8675 23.9605 73.164 23.9501C71.6639 23.9191 69.9362 24.0743 68.4361 24.0432C66.2014 23.9915 63.9254 24.1777 61.7218 24.157C61.5563 24.157 61.3804 24.1984 61.277 24.3433C61.2045 24.4467 61.1942 24.5812 61.1838 24.7157C61.1321 25.3571 61.1114 25.9986 61.1114 26.6503C61.1114 27.0952 60.9976 27.7883 61.2045 28.1918C61.5459 28.8643 62.4564 28.5436 63.0254 28.5125Z" fill="#7C8DC6"/>
<path d="M62.0634 24.5605C62.1151 25.7606 62.1565 26.9503 62.1772 28.1504" stroke="#747CBB" stroke-width="0.283572" stroke-miterlimit="10" stroke-linecap="round" stroke-linejoin="round"/>
<path d="M63.7601 24.5397C63.7808 25.5743 63.6877 27.1158 63.7601 28.3573" stroke="#747CBB" stroke-width="0.283572" stroke-miterlimit="10" stroke-linecap="round" stroke-linejoin="round"/>
<path d="M65.4155 24.2811C65.3328 25.5019 65.4362 26.971 65.4155 28.2021" stroke="#747CBB" stroke-width="0.283572" stroke-miterlimit="10" stroke-linecap="round" stroke-linejoin="round"/>
<path d="M66.9049 24.4881C66.9049 25.6468 66.9359 26.7952 66.9773 27.9539" stroke="#747CBB" stroke-width="0.283572" stroke-miterlimit="10" stroke-linecap="round" stroke-linejoin="round"/>
<path d="M68.4259 24.2811C68.4259 25.4398 68.4362 27.0331 68.4362 28.2021" stroke="#747CBB" stroke-width="0.283572" stroke-miterlimit="10" stroke-linecap="round" stroke-linejoin="round"/>
<path d="M69.8846 24.3123C69.926 25.2744 69.9674 26.2365 69.9984 27.1987C70.0088 27.4677 70.0191 27.747 70.1226 27.9953" stroke="#747CBB" stroke-width="0.283572" stroke-miterlimit="10" stroke-linecap="round" stroke-linejoin="round"/>
<path d="M71.5399 24.2604C71.633 25.3777 71.7054 26.8261 71.7158 27.9537" stroke="#747CBB" stroke-width="0.283572" stroke-miterlimit="10" stroke-linecap="round" stroke-linejoin="round"/>
<path d="M73.1435 24.2811C73.1228 25.3984 73.2056 26.8365 73.3608 27.9435" stroke="#747CBB" stroke-width="0.283572" stroke-miterlimit="10" stroke-linecap="round" stroke-linejoin="round"/>
<path d="M74.7574 24.3639C74.6539 25.5743 74.6436 26.6089 74.716 27.8297" stroke="#747CBB" stroke-width="0.283572" stroke-miterlimit="10" stroke-linecap="round" stroke-linejoin="round"/>
<path d="M76.2058 24.3639C76.2058 25.4295 76.1954 27.0227 76.2058 27.9745" stroke="#747CBB" stroke-width="0.283572" stroke-miterlimit="10" stroke-linecap="round" stroke-linejoin="round"/>
<path d="M82.1957 43.9379C82.475 43.9275 82.7543 43.9069 83.0337 43.8655C83.2613 43.8344 83.4992 43.7827 83.7061 43.6586C83.913 43.5344 84.1096 43.3378 84.2027 43.0792C84.9993 40.7825 80.8818 41.2791 79.7231 41.2894C79.2575 41.2998 78.4196 41.2998 78.2333 41.8481C77.8402 43.0068 78.5127 43.762 79.3713 43.8862C80.3128 44 81.2542 43.9793 82.1957 43.9379Z" fill="white"/>
<path d="M81.1821 41.2378C80.582 41.2481 80.044 41.2895 79.7233 41.2895C79.2578 41.2999 78.4198 41.2999 78.2336 41.8482C77.8404 43.0069 78.5129 43.7621 79.3716 43.8863C79.9716 43.969 80.582 43.9897 81.1821 43.9794V41.2378Z" fill="#7C8DC6"/>
<path d="M81.0374 34.1199C81.0994 33.8406 81.1512 33.5716 81.1822 33.2819C81.2029 33.0543 81.2236 32.8164 81.1615 32.5784C81.0994 32.3405 80.9546 32.1129 80.727 31.9473C78.7199 30.5817 78.1302 34.6889 77.8406 35.8062C77.7268 36.2614 77.5095 37.0684 77.9854 37.3891C78.9993 38.0719 79.9097 37.6167 80.2407 36.8201C80.6132 35.9511 80.8304 35.0407 81.0374 34.1199Z" fill="white"/>
<path d="M78.1613 34.3991C78.0164 34.9785 77.913 35.5061 77.8406 35.8165C77.7268 36.2717 77.5095 37.0786 77.9854 37.3993C78.9993 38.0821 79.9097 37.6269 80.2407 36.8303C80.4787 36.2717 80.6442 35.6923 80.7994 35.1026L78.1613 34.3991Z" fill="#7C8DC6"/>
<path d="M84.0578 41.5273C84.2647 41.7136 84.482 41.8998 84.7096 42.0653C84.8958 42.1998 85.0924 42.3343 85.3303 42.3964C85.5683 42.4584 85.8373 42.4584 86.0959 42.3343C88.2892 41.279 85.02 38.7133 84.1923 37.9064C83.8613 37.5857 83.2612 36.9856 82.7439 37.2443C81.6473 37.7822 81.5852 38.7961 82.1129 39.4893C82.6819 40.2445 83.3647 40.8859 84.0578 41.5273Z" fill="white"/>
<path d="M85.2579 38.8996C84.8234 38.4857 84.4199 38.134 84.1923 37.9064C83.8613 37.5857 83.2612 36.9856 82.7439 37.2443C81.6473 37.7822 81.5852 38.7961 82.1129 39.4893C82.4853 39.9755 82.8991 40.41 83.3233 40.8342L85.2579 38.8996Z" fill="#7C8DC6"/>
<path d="M18.2082 82.3199C22.0981 73.4538 32.961 71.9226 40.7822 74.8504C48.5414 77.7575 53.7038 85.2787 52.0175 94.3622C50.4967 102.514 43.2548 108.784 35.6094 109.146C23.5361 109.715 12.1663 97.59 17.9702 82.9096C18.0426 82.713 18.1254 82.5061 18.2082 82.3199Z" fill="#65558F"/>
<path d="M25.1295 91.6409C24.7778 93.5651 24.7364 95.5412 24.995 97.4758C25.233 99.2966 25.6778 101.376 27.0124 102.762C28.6574 104.469 31.5231 104.542 33.6025 103.673C35.0302 103.073 36.251 101.986 37.0062 100.621C37.4614 99.7828 37.7511 98.8104 37.5442 97.8792C37.358 97.0619 36.7476 96.3274 35.8993 96.1619C35.082 95.9964 34.3578 96.4309 33.7991 96.9792C32.8783 97.8689 32.299 99.1207 32.2783 100.393C32.268 101.676 32.837 102.959 33.8612 103.745C34.9164 104.552 36.3131 104.759 37.6373 104.759C39.3029 104.759 41.0824 104.325 42.4273 103.249C43.9895 101.997 44.5792 100.021 45.0241 98.1482C45.4999 96.1309 45.8724 94.01 47.1242 92.3547" stroke="#E8DEF8" stroke-width="0.558764" stroke-miterlimit="10" stroke-linecap="round" stroke-linejoin="round"/>
<path d="M45.4276 91.103C45.4276 89.8615 46.5139 88.858 47.8485 88.858C49.1831 88.858 50.2693 89.8615 50.2693 91.103C50.2693 92.3445 49.1831 93.348 47.8485 93.348C46.5139 93.348 45.4276 92.3445 45.4276 91.103Z" fill="#EADDFF"/>
<path d="M46.3691 91.1029C46.3691 90.3477 47.0313 89.727 47.8486 89.727C48.6659 89.727 49.328 90.3374 49.328 91.1029C49.328 91.8582 48.6659 92.4789 47.8486 92.4789C47.0313 92.4686 46.3691 91.8582 46.3691 91.1029Z" fill="#E8DEF8"/>
<path d="M27.4574 80.4159C27.8919 80.3124 28.7299 80.2297 29.0196 80.6332C29.1437 80.7987 29.2058 81.0263 29.2472 81.2435C29.961 84.5541 29.361 89.9959 26.3297 91.3615C23.3709 92.6961 21.8294 88.9406 21.4052 86.6025C21.2294 85.6404 21.188 84.6472 21.188 83.6644C21.188 83.1678 21.1466 81.1918 21.4052 80.8297C21.6535 80.478 22.3156 80.509 22.6881 80.54" stroke="#E8DEF8" stroke-width="0.558764" stroke-miterlimit="10" stroke-linecap="round" stroke-linejoin="round"/>
<path d="M25.5024 96.462C25.5335 96.3171 25.4714 96.0792 25.4611 95.9861C25.4404 95.7688 25.43 95.5516 25.4197 95.3447C25.4093 94.9308 25.4197 94.517 25.4404 94.1032C25.4818 93.3066 25.5645 92.5203 25.7094 91.7341C25.7611 91.4444 25.5542 91.165 25.2335 91.1133C25.2024 91.103 25.1714 91.103 25.1404 91.103C24.861 91.103 24.6127 91.2892 24.5713 91.5478C24.4058 92.4376 24.3127 93.3376 24.2817 94.248C24.2713 94.6515 24.2403 95.0446 24.2299 95.4481C24.2299 95.8102 24.1989 96.1723 24.292 96.5344C24.3024 96.5965 24.3334 96.6689 24.3955 96.6999C24.4369 96.7206 24.4782 96.7206 24.53 96.7206C24.7989 96.7103 25.0576 96.6689 25.3162 96.6172C25.368 96.6068 25.4197 96.5965 25.4611 96.5654C25.4714 96.5344 25.4921 96.5034 25.5024 96.462Z" fill="#EADDFF"/>
<path d="M21.1983 88.0823C21.2293 88.4238 21.4259 88.7858 21.5604 89.0962C21.7052 89.4376 21.8708 89.7687 22.057 90.079C22.4087 90.6584 22.8433 91.2171 23.4123 91.6205C23.5571 91.724 23.7123 91.8171 23.8778 91.8895C24.7055 92.2826 25.6469 92.2723 26.5883 91.8481C27.8195 91.2895 28.6264 90.1825 29.1334 89.0341C29.3506 88.5479 29.5679 88.0306 29.6713 87.5133C29.6817 87.472 29.6817 87.4202 29.661 87.3788C29.5886 87.234 29.1851 87.2237 29.0402 87.203C28.9264 87.1926 28.7299 87.1306 28.6368 87.1926C28.585 87.234 28.5437 87.2857 28.523 87.3478C28.4402 87.5547 28.3988 87.7927 28.3264 88.0099C28.2126 88.341 28.0781 88.672 27.9126 88.9824C27.6229 89.5411 27.2401 90.079 26.7228 90.4825C26.5263 90.6377 26.309 90.7722 26.0711 90.8757C25.4503 91.155 24.902 91.1757 24.3951 90.9274C23.8364 90.6584 23.4329 90.1515 23.1226 89.6549C22.926 89.3445 22.7708 89.0238 22.626 88.6927C22.5536 88.5169 22.4812 88.341 22.4191 88.1651C22.3777 88.0617 22.3467 87.772 22.1915 87.7513C22.1604 87.7513 22.1294 87.7513 22.088 87.7616C21.7983 87.8134 21.519 87.8754 21.2397 87.9582C21.219 87.9685 21.1983 87.9685 21.188 87.9892C21.1776 87.9996 21.1776 88.0203 21.1776 88.0306C21.1983 88.0513 21.1983 88.0617 21.1983 88.0823Z" fill="#EADDFF"/>
<path d="M22.5847 80.6851C22.5329 80.2505 22.8123 79.8264 23.2157 79.7539C23.6192 79.6815 23.9917 79.9712 24.0434 80.4057C24.0951 80.8402 23.8158 81.2644 23.4123 81.3368C23.0088 81.4196 22.6467 81.1196 22.5847 80.6851Z" fill="#EADDFF"/>
<path d="M26.2472 80.7884C26.1231 80.3642 26.361 79.909 26.7645 79.7745C27.168 79.64 27.6025 79.878 27.7266 80.3022C27.8508 80.7263 27.6128 81.1815 27.2094 81.316C26.8059 81.4505 26.3714 81.2126 26.2472 80.7884Z" fill="#EADDFF"/>
<g clip-path="url(#clip1_3225_73428)">
<path d="M99.9093 100.502H98.6536V97.3105L97.2379 99.6371H97.0967L95.681 97.3105V100.502H94.426V95.0186H95.681L97.1654 97.4524L98.6536 95.0186H99.9093V100.502Z" fill="#65558F"/>
<path d="M101.317 99.7903C101.046 99.5274 100.832 99.2112 100.688 98.8616C100.545 98.5121 100.475 98.1366 100.483 97.7588C100.475 97.3814 100.545 97.0064 100.688 96.6572C100.832 96.3081 101.046 95.9925 101.317 95.7303C101.855 95.203 102.579 94.9077 103.332 94.9077C104.085 94.9077 104.808 95.203 105.346 95.7303C105.906 96.2759 106.187 96.9551 106.187 97.7588C106.187 98.5625 105.908 99.2432 105.349 99.7903C104.81 100.315 104.087 100.609 103.334 100.609C102.582 100.609 101.859 100.315 101.32 99.7903H101.317ZM104.467 98.9406C104.777 98.6387 104.93 98.2485 104.93 97.7588C104.93 97.269 104.779 96.8743 104.467 96.5762C104.159 96.2883 103.753 96.128 103.332 96.128C102.911 96.128 102.505 96.2883 102.197 96.5762C101.888 96.8781 101.735 97.269 101.735 97.7588C101.735 98.2485 101.886 98.6425 102.197 98.9406C102.505 99.2285 102.911 99.3888 103.332 99.3888C103.753 99.3888 104.159 99.2285 104.467 98.9406Z" fill="#65558F"/>
<path d="M111.067 100.502H110.126L108.013 97.5286V100.502H106.758V95.0186H107.696L109.809 97.992V95.0186H111.064L111.067 100.502Z" fill="#65558F"/>
<path d="M116.979 100.502H115.723V96.2239H114.315V95.0164H118.386V96.2239H116.979V100.502Z" fill="#65558F"/>
<path d="M118.99 99.7904C118.719 99.5275 118.505 99.2113 118.361 98.8617C118.218 98.5121 118.148 98.1366 118.157 97.7588C118.148 97.3815 118.218 97.0064 118.361 96.6573C118.505 96.3082 118.719 95.9926 118.99 95.7303C119.529 95.203 120.252 94.9077 121.005 94.9077C121.759 94.9077 122.482 95.203 123.02 95.7303C123.579 96.2775 123.858 96.9514 123.858 97.7588C123.858 98.5663 123.579 99.2432 123.02 99.7904C122.481 100.315 121.758 100.609 121.005 100.609C120.253 100.609 119.53 100.315 118.99 99.7904ZM122.14 98.9406C122.45 98.6388 122.603 98.2486 122.603 97.7588C122.603 97.2691 122.452 96.8744 122.14 96.5763C121.832 96.2885 121.427 96.1284 121.005 96.1284C120.584 96.1284 120.179 96.2885 119.871 96.5763C119.561 96.8782 119.408 97.2691 119.408 97.7588C119.408 98.2486 119.559 98.6425 119.871 98.9406C120.179 99.2284 120.584 99.3885 121.005 99.3885C121.427 99.3885 121.832 99.2284 122.14 98.9406Z" fill="#65558F"/>
<path d="M125.036 100.112C124.634 99.779 124.432 99.3156 124.432 98.7308V95.0186H125.687V98.6191C125.687 99.1322 125.974 99.3888 126.548 99.3888C127.122 99.3888 127.409 99.1322 127.409 98.6191V95.0186H128.66V98.7308C128.66 99.905 127.956 100.531 126.547 100.609C125.943 100.609 125.438 100.445 125.036 100.112Z" fill="#65558F"/>
<path d="M129.233 100.513V95.0301H131.38C131.825 95.0182 132.259 95.1708 132.599 95.4588C132.765 95.5968 132.898 95.7709 132.986 95.9679C133.074 96.1649 133.116 96.3795 133.109 96.5953C133.109 97.0481 132.948 97.4065 132.63 97.6707C133.078 97.9386 133.304 98.3499 133.304 98.9068C133.304 99.3928 133.131 99.7792 132.784 100.073C132.435 100.369 131.989 100.526 131.532 100.513H129.233ZM131.38 97.1771C131.659 97.1771 131.82 97.0164 131.854 96.6911C131.854 96.4081 131.698 96.2474 131.38 96.2051H130.486V97.1771H131.38ZM131.531 99.3392C131.844 99.3392 132.018 99.1631 132.051 98.811C132.051 98.5091 131.879 98.3325 131.531 98.2827H130.486V99.3392H131.531Z" fill="#65558F"/>
<path d="M135.13 100.513H133.878V95.03H135.13V100.513Z" fill="#65558F"/>
<path d="M135.704 100.513V95.0301H137.85C138.296 95.0183 138.731 95.1708 139.071 95.4588C139.237 95.5968 139.369 95.771 139.458 95.968C139.546 96.165 139.588 96.3796 139.58 96.5953C139.58 97.0481 139.419 97.4065 139.102 97.6707C139.55 97.9386 139.775 98.3498 139.775 98.9068C139.775 99.3928 139.603 99.7792 139.255 100.073C138.906 100.369 138.461 100.526 138.004 100.513H135.704ZM137.85 97.1771C138.13 97.1771 138.29 97.0164 138.325 96.6911C138.325 96.4081 138.168 96.2474 137.85 96.2051H136.955V97.1771H137.85ZM138.001 99.3392C138.315 99.3392 138.487 99.1626 138.522 98.8109C138.522 98.5091 138.35 98.3325 138.001 98.2827H136.955V99.3392H138.001Z" fill="#65558F"/>
<path d="M102.548 104.401H102.063V103.558H101.395V104.401H100.911V102.277H101.395V103.09H102.063V102.277H102.548V104.401Z" fill="#65558F"/>
<path d="M103.799 104.4C103.663 104.404 103.527 104.379 103.4 104.327C103.273 104.275 103.159 104.197 103.064 104.099C102.875 103.892 102.769 103.622 102.769 103.342C102.769 103.062 102.875 102.792 103.064 102.586C103.159 102.487 103.274 102.409 103.4 102.357C103.527 102.305 103.663 102.28 103.799 102.284H104.649V102.751H103.799C103.684 102.745 103.57 102.777 103.474 102.842C103.379 102.908 103.308 103.002 103.271 103.112H104.418L104.166 103.579H103.272C103.309 103.689 103.38 103.783 103.475 103.848C103.571 103.913 103.685 103.945 103.8 103.939H104.65V104.407L103.799 104.4Z" fill="#65558F"/>
<path d="M106.933 104.401H106.405L105.583 103.839L105.405 104.401H104.873L105.597 102.277H106.214L106.933 104.401ZM106.163 103.65L105.902 102.833L105.734 103.361L106.163 103.65Z" fill="#65558F"/>
<path d="M108.398 104.395H107.155V102.272H107.64V103.928H108.398V104.395Z" fill="#65558F"/>
<path d="M109.652 104.395H109.166V102.74H108.62V102.272H110.197V102.74H109.652V104.395Z" fill="#65558F"/>
<path d="M112.056 104.401H111.571V103.558H110.903V104.401H110.418V102.277H110.903V103.09H111.571V102.277H112.056V104.401Z" fill="#65558F"/>
<path d="M113.31 104.4C113.173 104.404 113.037 104.379 112.91 104.327C112.784 104.275 112.669 104.197 112.575 104.099C112.384 103.893 112.278 103.623 112.278 103.342C112.278 103.062 112.384 102.791 112.575 102.586C112.67 102.487 112.784 102.409 112.91 102.357C113.037 102.305 113.173 102.28 113.31 102.284H114.159V102.751H113.31C112.933 102.783 112.745 102.981 112.745 103.345C112.789 103.741 112.977 103.939 113.31 103.939H114.159V104.407L113.31 104.4Z" fill="#65558F"/>
<path d="M116.443 104.401H115.915L115.092 103.839L114.914 104.401H114.382L115.105 102.277H115.723L116.443 104.401ZM115.672 103.65L115.412 102.833L115.245 103.361L115.672 103.65Z" fill="#65558F"/>
<path d="M118.302 104.395H117.781L117.379 103.699H117.153V104.395H116.667V103.273H117.137L116.665 102.464V102.271H117.514C117.707 102.271 117.892 102.348 118.028 102.484C118.164 102.621 118.241 102.806 118.241 102.999C118.241 103.258 118.111 103.464 117.852 103.614L118.302 104.395ZM117.634 103.237C117.673 103.212 117.705 103.177 117.727 103.135C117.748 103.094 117.758 103.047 117.757 103.001C117.759 102.929 117.733 102.859 117.686 102.806C117.664 102.782 117.637 102.762 117.608 102.749C117.578 102.736 117.546 102.73 117.514 102.73H117.339L117.634 103.237Z" fill="#65558F"/>
<path d="M119.376 104.4C119.239 104.404 119.103 104.379 118.977 104.327C118.85 104.275 118.736 104.197 118.641 104.099C118.451 103.892 118.346 103.622 118.346 103.342C118.346 103.062 118.451 102.792 118.641 102.586C118.736 102.487 118.85 102.409 118.977 102.357C119.103 102.305 119.239 102.28 119.376 102.284H120.224V102.751H119.376C119.261 102.745 119.146 102.777 119.051 102.842C118.956 102.908 118.884 103.002 118.848 103.112H119.997L119.745 103.579H118.849C118.885 103.689 118.957 103.783 119.052 103.848C119.147 103.913 119.262 103.945 119.377 103.939H120.224V104.407L119.376 104.4Z" fill="#65558F"/>
<path d="M91.0587 93.0731H85.1995C85.126 93.0731 85.0532 93.0876 84.9853 93.1159C84.9173 93.1441 84.8557 93.1855 84.8039 93.2377C84.752 93.2899 84.711 93.3518 84.6832 93.4199C84.6554 93.488 84.6414 93.561 84.6419 93.6345V97.0856C84.6886 97.1995 84.7362 97.3119 84.7822 97.4251C84.8411 97.5663 84.9 97.7074 84.9588 97.85V94.3733C84.9588 94.3241 84.9784 94.2769 85.0132 94.2421C85.048 94.2072 85.0952 94.1877 85.1445 94.1877H91.113C91.1623 94.1877 91.2096 94.2072 91.2446 94.242C91.2795 94.2768 91.2992 94.324 91.2994 94.3733V97.8606L91.6171 97.0946V93.63C91.6167 93.4821 91.5577 93.3405 91.453 93.2361C91.3483 93.1317 91.2065 93.0731 91.0587 93.0731ZM89.4422 93.7289C89.4287 93.7425 89.4126 93.7532 89.3948 93.7605C89.377 93.7677 89.358 93.7713 89.3388 93.7711H86.9194C86.9002 93.7718 86.881 93.7686 86.863 93.7618C86.845 93.7551 86.8285 93.7448 86.8144 93.7317C86.8004 93.7186 86.7891 93.7028 86.7811 93.6853C86.7732 93.6678 86.7687 93.6488 86.7681 93.6296C86.7675 93.6104 86.7706 93.5912 86.7774 93.5732C86.7841 93.5552 86.7944 93.5387 86.8075 93.5247C86.8206 93.5106 86.8364 93.4993 86.8539 93.4913C86.8715 93.4834 86.8904 93.479 86.9096 93.4783H89.3388C89.3584 93.4783 89.3779 93.4822 89.3959 93.4899C89.414 93.4975 89.4303 93.5087 89.444 93.5228C89.4576 93.5369 89.4683 93.5535 89.4754 93.5718C89.4825 93.5901 89.4858 93.6096 89.4852 93.6292C89.4837 93.6666 89.4684 93.7021 89.4422 93.7289Z" fill="#65558F"/>
<path d="M91.2994 101.532V103.854C91.2994 103.904 91.2798 103.951 91.245 103.986C91.2102 104.02 91.163 104.04 91.1138 104.04H85.1444C85.0952 104.04 85.048 104.02 85.0132 103.986C84.9784 103.951 84.9588 103.904 84.9588 103.854V101.507C84.8969 101.389 84.8381 101.271 84.7807 101.153C84.7324 101.054 84.6856 100.953 84.6418 100.852V104.986C84.642 105.133 84.7009 105.275 84.8054 105.38C84.91 105.484 85.0517 105.543 85.1995 105.543H91.0587C91.2066 105.543 91.3486 105.485 91.4533 105.38C91.558 105.275 91.6169 105.134 91.6171 104.986V100.857C91.516 101.095 91.4111 101.319 91.2994 101.532ZM88.6883 105.03C88.6883 105.079 88.6687 105.127 88.6339 105.161C88.5991 105.196 88.5519 105.216 88.5027 105.216H87.7555C87.7063 105.216 87.6591 105.196 87.6243 105.161C87.5895 105.127 87.5699 105.079 87.5699 105.03V104.577C87.5699 104.528 87.5895 104.481 87.6243 104.446C87.6591 104.411 87.7063 104.392 87.7555 104.392H88.5027C88.5519 104.392 88.5991 104.411 88.6339 104.446C88.6687 104.481 88.6883 104.528 88.6883 104.577V105.03Z" fill="#65558F"/>
<path d="M93.0652 95.512C92.5754 96.9375 92.1136 98.3736 91.617 99.7984L91.5098 100.1C91.4439 100.285 91.3737 100.468 91.2993 100.649C90.9469 101.498 90.482 102.287 89.8043 102.942C89.427 103.302 88.9983 103.569 88.4791 103.666C88.3585 103.689 88.236 103.701 88.1131 103.701C87.6007 103.701 87.1457 103.492 86.7261 103.172C85.9805 102.6 85.5186 101.814 85.1164 100.989C85.0613 100.875 85.0085 100.763 84.9594 100.647C84.8417 100.376 84.7391 100.103 84.6425 99.8263C84.4682 99.3313 84.3142 98.8287 84.1437 98.3329C83.7799 97.2809 83.4313 96.2198 83.0743 95.1679C82.9475 94.7928 82.8615 94.4094 82.8683 94.0917C82.8524 92.8594 83.4426 92.0496 84.5474 91.7146C84.7549 91.6527 84.8976 91.5214 85.044 91.3855C85.1904 91.2497 85.3587 91.144 85.5556 91.144C85.5793 91.144 85.603 91.1456 85.6266 91.1486C85.7483 91.1556 85.8648 91.2007 85.9596 91.2775C86.0543 91.3542 86.1226 91.4588 86.1548 91.5765C86.1959 91.6907 86.2011 91.8148 86.1698 91.9321C86.1385 92.0494 86.0722 92.1544 85.9797 92.233C85.8723 92.3305 85.7324 92.3844 85.5873 92.3839C85.4912 92.3823 85.3963 92.3629 85.3073 92.3266C85.2788 92.3145 85.2513 92.3001 85.2251 92.2836C84.9708 92.1326 84.7874 92.0511 84.6108 92.0511C84.4168 92.0511 84.2335 92.147 83.9701 92.3462C83.2992 92.8571 83.1287 93.5589 83.2162 94.3551C83.2637 94.792 83.4471 95.1852 83.6146 95.5844C83.9588 96.408 84.3011 97.2316 84.6417 98.0552C84.7469 98.3097 84.8525 98.5643 84.9587 98.8189C85.178 99.3471 85.3994 99.8754 85.6228 100.404C85.9654 101.214 86.3986 101.972 87.08 102.557C87.4249 102.854 87.7766 103.002 88.129 103.002C88.4814 103.002 88.8301 102.855 89.1697 102.562C89.8896 101.946 90.328 101.138 90.688 100.284C90.8893 99.7984 91.093 99.3122 91.2993 98.8257L91.617 98.0642C92.0245 97.0847 92.4293 96.1036 92.8312 95.1211C93.1331 94.3732 93.1867 93.6178 92.7739 92.8835C92.6287 92.6356 92.4251 92.4271 92.1807 92.276C91.977 92.144 91.7777 92.0557 91.577 92.0557C91.3843 92.0608 91.2 92.1359 91.0586 92.267C90.9574 92.3513 90.8295 92.3968 90.6978 92.3953C90.5623 92.3953 90.4302 92.3525 90.3205 92.273C90.2188 92.1939 90.1429 92.0862 90.1026 91.9638C90.0622 91.8413 90.0593 91.7096 90.0941 91.5855C90.1319 91.4706 90.2017 91.3689 90.2952 91.2923C90.3888 91.2157 90.5023 91.1674 90.6224 91.1531C90.6473 91.1531 90.6729 91.1531 90.6978 91.1531C90.7898 91.1543 90.8806 91.1742 90.9646 91.2116C91.0487 91.2489 91.1243 91.303 91.1868 91.3704C91.3844 91.5665 91.6301 91.707 91.8992 91.778C92.718 92.0142 93.3195 92.8345 93.3821 93.7265C93.4267 94.3491 93.2659 94.9294 93.0652 95.512Z" fill="#65558F"/>
<path d="M99.1285 102.872C99.0079 102.871 98.8887 102.897 98.7787 102.946C98.6688 102.996 98.5706 103.068 98.4908 103.158C98.2782 103.091 98.0599 103.044 97.8388 103.016L97.8244 103.108C97.4588 103.062 97.088 103.079 96.7279 103.157C96.0857 103.299 95.6163 103.624 95.2428 103.924C94.3221 104.662 93.8942 105.35 93.5161 105.956C93.138 106.562 92.8135 107.088 92.0702 107.51C91.7759 107.677 91.1646 108.027 90.3828 107.929C89.3965 107.808 88.8335 107.067 88.7731 106.984C88.5465 106.667 88.4008 106.301 88.349 105.915H87.9717C88.0251 106.379 88.196 106.823 88.4682 107.202C88.5392 107.299 89.1927 108.157 90.3337 108.299C90.4374 108.312 90.5417 108.318 90.6462 108.318C91.4008 108.318 91.9842 107.985 92.2513 107.832C93.0762 107.361 93.4422 106.775 93.8293 106.152C94.1908 105.57 94.6013 104.912 95.4729 104.213C95.9612 103.822 96.3476 103.62 96.8049 103.519C97.1204 103.451 97.4452 103.436 97.7656 103.475L97.7543 103.551V103.564C97.9307 103.586 98.1051 103.621 98.2757 103.671C98.2757 103.688 98.2757 103.705 98.2757 103.722C98.2757 103.891 98.3258 104.056 98.4197 104.197C98.5136 104.337 98.647 104.447 98.8031 104.511C98.9592 104.576 99.1309 104.593 99.2966 104.56C99.4624 104.527 99.6146 104.446 99.734 104.326C99.8535 104.207 99.9349 104.054 99.9678 103.889C100.001 103.723 99.9839 103.551 99.9192 103.395C99.8546 103.239 99.7451 103.106 99.6046 103.012C99.4641 102.918 99.2989 102.868 99.13 102.868L99.1285 102.872ZM99.1285 104.154C99.044 104.154 98.9614 104.129 98.8912 104.082C98.8209 104.036 98.7662 103.969 98.7339 103.891C98.7015 103.813 98.6931 103.727 98.7096 103.644C98.726 103.561 98.7667 103.485 98.8264 103.425C98.8862 103.366 98.9623 103.325 99.0451 103.308C99.128 103.292 99.2139 103.3 99.2919 103.333C99.37 103.365 99.4367 103.42 99.4836 103.49C99.5306 103.56 99.5556 103.643 99.5556 103.727C99.5554 103.84 99.5105 103.949 99.4306 104.029C99.3507 104.109 99.2423 104.154 99.1292 104.154H99.1285Z" fill="#65558F"/>
</g>
</g>
<defs>
<clipPath id="clip0_3225_73428">
<rect width="260" height="260" fill="white"/>
</clipPath>
<clipPath id="clip1_3225_73428">
<rect width="56.9069" height="17.1737" fill="white" transform="translate(82.8683 91.1444)"/>
</clipPath>
</defs>
</svg>
